/* XPM */
static char *rcp07201834893444[] = {
/* columns rows colors chars-per-pixel */
"64 64 138 2 ",
"   c black",
".  c #010101",
"X  c #020202",
"o  c gray1",
"O  c #040404",
"+  c gray2",
"@  c #060606",
"#  c #070707",
"$  c gray3",
"%  c #090909",
"&  c gray4",
"*  c #0B0B0B",
"=  c #0C0C0C",
"-  c gray5",
";  c #0E0E0E",
":  c gray6",
">  c #101010",
",  c #111111",
"<  c gray7",
"1  c #131313",
"2  c gray8",
"3  c #151515",
"4  c #161616",
"5  c gray9",
"6  c #181818",
"7  c #191919",
"8  c gray10",
"9  c #251717",
"0  c #271919",
"q  c #291A1A",
"w  c #2B1B1B",
"e  c #2D1C1C",
"r  c #2F1E1E",
"t  c #311F1F",
"y  c #332020",
"u  c #352222",
"i  c #372323",
"p  c #392424",
"a  c #3B2525",
"s  c #3D2727",
"d  c #3F2828",
"f  c #422A2A",
"g  c #432B2B",
"h  c #462D2D",
"j  c #472D2D",
"k  c #4B3030",
"l  c #4E3232",
"z  c #4F3232",
"x  c #523434",
"c  c #533535",
"v  c #573737",
"b  c #5A3939",
"n  c #5B3A3A",
"m  c #5E3C3C",
"M  c #5F3D3D",
"N  c #623F3F",
"B  c #633F3F",
"V  c #674242",
"C  c #6B4444",
"Z  c #6E4646",
"A  c #6F4747",
"S  c #724949",
"D  c #734949",
"F  c #764B4B",
"G  c #774C4C",
"H  c #7A4E4E",
"J  c #7B4F4F",
"K  c #7F5151",
"L  c #805252",
"P  c #845454",
"I  c #865656",
"U  c #875656",
"Y  c #875757",
"T  c #8D5A5A",
"R  c #8E5B5B",
"E  c #8F5B5B",
"W  c #8F5C5C",
"Q  c #905D5D",
"!  c #945F5F",
"~  c #955F5F",
"^  c #966060",
"/  c #976161",
"(  c #9C6464",
")  c #9F6666",
"_  c #A06767",
"`  c #A46969",
"'  c #A66A6A",
"]  c #A76B6B",
"[  c #A76C6C",
"{  c #A86C6C",
"}  c #AC6E6E",
"|  c #AE6F6F",
" . c #AF7070",
".. c #B07171",
"X. c #B57474",
"o. c #B67575",
"O. c #B77575",
"+. c #B77676",
"@. c #B87676",
"#. c #BC7878",
"$. c #BD7979",
"%. c #BF7A7A",
"&. c #BF7B7B",
"*. c #C47E7E",
"=. c #C77F7F",
"-. c #C78080",
";. c #CC8383",
":. c #CD8383",
">. c #CE8484",
",. c #CF8585",
"<. c #D08686",
"1. c #D58888",
"2. c #D78A8A",
"3. c #D88B8B",
"4. c #DC8D8D",
"5. c #DD8E8E",
"6. c #DE8E8E",
"7. c #DF8F8F",
"8. c #DF9090",
"9. c #E09090",
"0. c #E49292",
"q. c #E59393",
"w. c #E79494",
"e. c #E79595",
"r. c #E89595",
"t. c #EC9797",
"y. c #ED9898",
"u. c #EE9999",
"i. c #EF9999",
"p. c #EF9A9A",
"a. c #F09A9A",
"s. c #F59D9D",
"d. c #F69E9E",
"f. c #F79E9E",
"g. c #F79F9F",
"h. c #FCA2A2",
"j. c #FEA3A3",
"k. c #FFA3A3",
/* pixels */
"                                                                                                                                ",
"M M c p h k V V C V p t B y   G G 9 B B C y c c   v A h 0 c c C C B t u p y   M A M y V C C C u p c V C n t v c C t c M g g V   ",
"Y C M v n M M n k B M g c q   n D C g B k v A h   9.V V s k M n n V n c l q   Y M V M k M h v l v M v n M M l V c r A B M M V   ",
"a.M M c v M n M B p M n M V   n V M M M C A M h   r.V c c c M C C M n V c A   M n B M M M C V v n n C M n B n C C d A Q M B M   ",
"y.A c A M M n M B C A B V V @ n A B M n A n M c @ w.G v v M A M V M n M n A @ C B M v n M M C v c n n V M M M A C y B M n B C   ",
"y.A c c M v C M l B M k M k @ B n M n M A v C s @ y.V n g A B n M n C n A B @ Y M n A M M v n V k n M n M M M n M r / M c M M   ",
"r.B M c h M v c v l n c M C @ <.C V l n v M V v @ y.M A v p k M c M h v M A @ O.W M V A B l v k B d v C n v n n l u O.E M d M   ",
"y.M M M p M V v A V M n C u @ B L M V v B M V C @ y.M M M l M M c V C C n B @ K M M V M M v M M M M C C M M k C M u q.V C M C   ",
"s.,.n B C c B c B k c C A p @ w.E V C n C M M h @ s.#.M k D n C c M c v C c @ ' Y M B C n M V B M V A M l c B h l q r./ B n C   ",
"a. .V v v C J E M n C M ) M % =.J M J F J V V M %  . .C C C C ! Y C n M V k % =.) B c D Y / G G C K D D A C M V #.0 a.A C V }   ",
"        @ @ @ @ @ % % % % % % % % % % % % % % % % % % % % % % % % % % % % % % % % % % % % % % % % % % % % % % @ @ @ @ @         ",
"        @ @ @ @ @ % % % % % % % % % % % % % % % % % % % % % % % % % % % % % % % % % % % % % % % % % % % % % % @ @ @ @ @         ",
"' J M n V M C M c C v M g % M F v C v M c C V M M c n C M v M n d A n v n c c M B c % B C c C C M C % L A n n M C C s M k A c u ",
"4.E g c M n v v c n n M C % / L M V l k h M n M B n n l M C c n p ' D V M M v h v C % K E v p V n M % F Y M A c B B h c n M B p ",
"_ M B M M C C V n n n M h % n C M C M M B M C C V v M M A C C M r D M n M k C C A M ; M n c M M C M % n A C M M M V C M M C V t ",
"y.G n C A M M c M B B n B % } A v s n M M M v C M B n c n v v v p C E M c n h h v v ; / n V c n C B % Y D C g C B v M v n c M v ",
"w.M n C M M C M M C M n C % n C n C A C M n M V V n M B V n C v u y.B A C M n M M A ; M A M V M M v % n A C M B M M V C n M A u ",
"t.n n V n M n M M M M M A % C n M n M C n C V M C M A A M V n V t s.C n C M M M C C ; M M M M n M M % v J C n n M C V M M V M g ",
"s./ v A M B h C B M A M 9 % v C A M C M n M n M V l M n M n n h M w.C A M h M M M M ; B Y M M V k V % E Y A n n k c A A C M V g ",
"s.@.V M M M n M C A A L g % c V V M n V F n M M n M V n V V V C r y.n M V V B C M C > M M A M C n V % s.C V M M M M M M M n B l ",
"y.w.4.=.9.y.#.' t.y.y.[ L % ..y.w.<.2.,.,.s.a.#.3.;.3.w.=.t.s.} 9 4.4.s.' 4.O.#.w.C > { a.,.y.3./ E % ,.w.,.y.y.O.#.y.y.n B J   ",
"        @ @ @ @ @ % % % % % ; ; ; ; ; > > > > > > > > > > > > > > > > > > > > > > > > > > ; ; ; ; ; % % % % % @ @ @ @ @         ",
"k.C B k d p B d r % l V s v n C V u n u y u r > / k C V h B B l d v q > C c k c y u t > s.B p u u u c t r s p y k s h u d u     ",
"k.K M C C M c B C % M C c C M V V M v n n C n > F B v M M M C B M M n > A K C C M A C > D C C n V v s M n M M V c M M C M M     ",
"y.D M A M M h A M % v C M M V C V n A C c C C > C M v M M n M c C M C 5 C C B B M V C > D A M M B M C B A C A C n C M n M M     ",
"y.M M M n B V n v % E V B V B V n C M c M M M > F A M c M M V v M v M 5 M B C l n M n > ! M M M A M C M B M M v p n M n n M     ",
"y.V n M A M B M C % r.n M V A M v M M M n V A > C A n C v A M B M n M 5 n A C M M M C > A M v C M M M C A M M V v M C M M M     ",
"s.A M M n C C V M % y.M v c M C B n n v A M B > M V M n M c M l V A M 5 M A v n n B M > V B n n V M M v B M v M g B M M M M     ",
"y.D M M M M C V M % y.A C C V C M M M n A M n > M M n V M V M n M M C 5 C A V M V A V > A M M V C M M M V M C M C M C A M n     ",
"s.M C M C n B n C % y.n V C V C M V C A n M n > M G M C M M C n V M M 5 A M M M V M M > C D V B B M V M M A A C V M M M A A     ",
"s.A D V B M M B C % y.C -.M n M M M V M V F u > n ' A A D A A V C M C 5 n O.M A A C M > v V A G A M D V M V B A A A A M M A     ",
"        @ @ @ @ @ % % % % % ; ; ; ; ; > > > > > 5 5 5 5 5 8 8 8 8 8 8 5 5 5 5 5 > > > > 3.y.4.4.y.4.w.y.q.4.9.2.#.y.q.8.4.y.    ",
"        @ @ @ @ @ % % % % % ; ; ; ; ; > > > > > 5 5 5 5 5 8 8 8 8 8 8 5 5 5 5 5 > > > > > ; ; ; ; ; % % % % % @ @ @ @ @         ",
"M n C M n n M M B C M M V % n V n M v M M M M M v C M 5 y.M M M n C C V C d n M B M M C n C k C n M u % C V M V C M C A M v C   ",
"D V A V c M B A M M C C n % M A M M C C A M M C c M V 5 y.J A v M C C M M h M n V M B n M V M C M B u % V M c n C n n A V M B   ",
"y.M g M M c C n c M M n r % A V M g B M M C C v v M M 5 =.A n C M V C V p g v C M V c v V n C M c l u % Y M M l M M B M M l M   ",
"r.n A C n n M C n l n B n % C M c V l M A M C n V A M 5 y.J V A M M B M M r v n M n M g M C n M v M V % M C B M M n C B B n V   ",
"y.M C M B C n M M c V p n % n E n M c M B A V n C M M 5 w.J C C M B C v u r n M v C n M V M B M M n B % M C c n A M B c C v B   ",
"y.A n n c A C B n B n B A % v E B g l M h B g B V n v 5 Y G M C V M B M v d M M h v n M M c k k c n V % E D B c A M B l M V V   ",
"k.n M n c c M C n h A d B % M C A n c M M c C h C l M 5 O...c v M C y M p r n V C l v M M M l g l n r % V J k c n B n c s B C   ",
"y.n C B V C C V C V B V l % / Y M M B B M V n n n A M > s.) D B C M M v M q y.E C M A B V C V M V M V % D Y A C B M M C v M C   ",
"y.w.y.2.y.y.Y n M Y B B / % y.s.y.y.4.M M / B M n n M > =.y.a.) n B Y B M q y.y.;.y.w.4.M n  .V n n C % w.y.M n Y M C K C n )   ",
"        @ @ @ @ @ % % % % % ; ; ; ; ; > > > > > > > > > > > > > > > > > > > > > > > > > > ; ; ; ; ; % % % % % @ @ @ @ @         ",
"        @ @ @ @ @ % % % % % ; ; ; ; ; > > > > > > > > > > > > > > > > > > > > > > > > > > ; ; ; ; ; % % % % % @ @ @ @ @         ",
"  [ V M M c M V n C d M l A M B ; n D B M n C B B u l A n A k M v n A > B G M n n V M h B V M C n ; O.' M M V v V v V V d h n   ",
"  A M n c n n M M M n V M C A p ; C L M M M V M v B v n v M v M p M n ; M A C A c l M g M M C C c ; n B n c v v V v v n M M M   ",
"  n V M B c C n M g A M n n M B ; C A n M M M C A n V M n V n V B M 0 ; M A V V n c M M C C M M C ; y.A n C M k M C C k M C C   ",
"  n A M M V A C A C A C M c B M ; V M n C n n M A M C v V n M M C C M ; M M n M n C v C C C V M M ; t.n n n B B M M n M M A v   ",
"  M B M v l n M M M G h C M n k ; ' B V V C l l v M M M g n c A C C V ; E n n M M B k M M M A c u ; y.M v c V M M n M M k h V   ",
"  M C v n M c V c n n V h c M M ; C E n M n g v M M n C M c M M M n M ; O.L M h V V C k n h v B u ; 2.V V v l A M n v V M M h   ",
"  M M n M n M M n s M v M M M M % L B n C A v v n V n B g B M M M v 0 % J C A M C v V M M C C M k % y.M M h M V M V M l C V C   ",
"  G K V M M C M M B n V A M V C % ' V C V M D n A M B F C M M C M C n % G n C M M v v M M n V D v % y.F J C C n M C M C C B M   ",
"  s.y.=.y.9.y.s.#.y.4.) M E L n % 2.y.y.y.9.9.O.{ w.A J / n V n n L n % G s.2.;.q.n C M B v C M -.% 4.y.3.=.r.4.n M / c A ,.n   ",
"        @ @ @ @ @ % % % % % % % % % % % % % % % % % % % % % % % % % % % % % % % % % % % % % % % % % % % % % % @ @ @ @ @         ",
"        @ @ @ @ @ % % % % % % % % % % % % % % % % % % % % % % % % % % % % % % % % % % % % % % % % % % % % % % @ @ @ @ @         ",
"n E l B v g c h n g c C n p M k v l y @ V n k l n M k g h k h B u @ A B M n v k v v p n B n V h g u M Y c l v l n c n l v M V M ",
"/ L M n n M g M C V A n c V l B M V u @ G B M n v M M v M M M V h @ C M M c M C n V n M M h v n v s B V A C V C k c V C C M V u ",
"} E M M M C k C M c v M B M M M A V q @ ! k c B n v c n n n V M n @ J A V B M M A n B h c v h B M p A V M B M V v A c c V C v d ",
"k.! n V c G c g M n c M g M C v B M h @ ) C c M M h d M B h n l p @ C J M C B M B v C g c C C M B s O.D M n M c k l n M l M M l ",
"' Y C M n A C C h C M C c v M M n B M @ D n C M n M M C M M C C A @ A A M v M V n M n V M c A C A B J J V v M C C M B A c V M c ",
"s.Y d c M n V v k v n C V v v k n M 9   O.n M M n h B B u n M v l   F D M M M B V A M k c h l V M B W A A c C n n M n M M C A p ",
"s.M M n A M C V n C M M v M M M C M C   Y M M C n M M C C V M V n   n M C M M M v V M n M c n M M A L M A M n M n M B M M M B u ",
"y./ D M K B A G C G C A C D C V n Y d   O.K B B B V B B M B V D h   O.! D M Y K V V D C M A V B M n a.Y C A M V V A n M v M M A ",
"w.9.4.y.a.r.a.4.y.a.y.y.y.8.n B M n c   s.s.y.y.y.y.M J M n B M G   4.9.y.y.y.a.w.y.w.8.y.B M n M l y.4.q.s.y.y.y.4.w.M M n M g "
};
