/* XPM */
static char *rcp07202709881734[] = {
/* columns rows colors chars-per-pixel */
"64 64 158 2 ",
"   c #453622",
".  c #473823",
"X  c #4A3B25",
"o  c #4B3D2A",
"O  c #463E34",
"+  c #493F31",
"@  c #453F3B",
"#  c #4F402B",
"$  c #51422D",
"%  c #4B4135",
"&  c #45403F",
"*  c #4A423A",
"=  c #534533",
"-  c #564835",
";  c #594B36",
":  c #50463A",
">  c #55493B",
",  c #5B4E3B",
"<  c #5E503D",
"1  c #61533F",
"2  c #433F40",
"3  c #444244",
"4  c #494443",
"5  c #4E4845",
"6  c #43434B",
"7  c #4B4748",
"8  c #554D43",
"9  c #594E40",
"0  c #5D5142",
"q  c #5B524C",
"w  c #4A4A52",
"e  c #4F4F58",
"r  c #5C5450",
"t  c #53535D",
"y  c #59575D",
"u  c #635542",
"i  c #665945",
"p  c #685A46",
"a  c #61564D",
"s  c #675A4A",
"d  c #6B5D4A",
"f  c #605956",
"g  c #635D5B",
"h  c #6E614E",
"j  c #70634F",
"k  c #6E6152",
"l  c #736552",
"z  c #766955",
"x  c #796B57",
"c  c #72665A",
"v  c #766A5B",
"b  c #7A6C5A",
"n  c #7E705C",
"m  c #565661",
"M  c #595964",
"N  c #5E5E6A",
"B  c #6C6562",
"V  c #61616E",
"C  c #62626E",
"Z  c #62626F",
"A  c #63636F",
"S  c #61616D",
"D  c #61616D",
"F  c #686368",
"G  c #776B60",
"H  c #766C67",
"J  c #7A6E63",
"K  c #796E64",
"L  c #736C6B",
"P  c #756F6E",
"I  c #746D6C",
"U  c #7D7164",
"Y  c #7E7265",
"T  c #7C7064",
"R  c #7C716A",
"E  c #636371",
"W  c #646471",
"Q  c #656571",
"!  c #656572",
"~  c #666673",
"^  c #676773",
"/  c #676774",
"(  c #676774",
")  c #686875",
"_  c #696976",
"`  c #696977",
"'  c #686876",
"]  c #6B6A77",
"[  c #696976",
"{  c #6A6A78",
"}  c #6A6A79",
"|  c #6B6B79",
" . c #6B6B7A",
".. c #6C6C7B",
"X. c #6C6C7C",
"o. c #6D6D7C",
"O. c #6D6D7D",
"+. c #6E6E7E",
"@. c #6E6E7F",
"#. c #6F6F7F",
"$. c #6D6D7D",
"%. c #756F72",
"&. c #777274",
"*. c #797173",
"=. c #7B767A",
"-. c #7D787D",
";. c #81735E",
":. c #847662",
">. c #887A69",
",. c #897E72",
"<. c #8C8176",
"1. c #6F6F80",
"2. c #6F6F80",
"3. c #707081",
"4. c #737386",
"5. c #717182",
"6. c #77778B",
"7. c #767689",
"8. c #79798E",
"9. c #7D7D91",
"0. c #837C80",
"q. c #827F8D",
"w. c #8D878F",
"e. c #848190",
"r. c #808096",
"t. c #828195",
"y. c #888593",
"u. c #8A8692",
"i. c #85859C",
"p. c #85849C",
"a. c #89879A",
"s. c #88879C",
"d. c #89889C",
"f. c #8C8A9C",
"g. c #8787A0",
"h. c #8787A0",
"j. c #8989A2",
"k. c #8D8CA4",
"l. c #8C8CA6",
"z. c #8D8CA7",
"x. c #8B8BA4",
"c. c #8F8FAB",
"v. c #8F8FAA",
"b. c #8E8EA9",
"n. c #908FA7",
"m. c #908EA6",
"M. c #908FAA",
"N. c #9191AC",
"B. c #9191AD",
"V. c #9291AD",
"C. c #9292AD",
"Z. c #9292AE",
"A. c #9393AF",
"S. c #9191AC",
"D. c #9494B1",
"F. c #9797B5",
"G. c #9696B3",
"H. c #9898B6",
/* pixels */
"/ / / / / / / / / / / / / / / / / / / / N t w w 6 x > 6 w w w w w w w w w w w w w w w w w w w w w w w w w w w w 6 5 p #.{ / / / ",
"/ / / / / / / / / w / / / / / / / E M t w w w 6 3 b u 7 6 6 6 6 6 w w w w w 6 6 w w w w w w w w w w w w w 6 6 6 6 7 l ..../ / / ",
"/ / / / / / / / / / / / / / / / S M w w w w 6 3 u x x h = + % % * * * 3 4 3 3 3 3 3 3 3 6 6 6 6 6 6 6 6 6 6 6 6 6 7 l q #./ / / ",
"/ / / / / / / / / / / / / / S M e w w 6 6 3 = l c b b Y Y b x l l l l j l h u , , < = = - , , > = o = - = % % - , u l q { / / / ",
"/ / / / / / / / / / / / S N t w w w 6 6 O u x z l.A.3.#.#.4.4.4.4.i.j.l.b.A.A.A.M.l.l.d.a.e.e.e.G z c c J z l l z d h < M N / / ",
"M S ~ / / / / / / ~ S N m w w w 6 6 o o 1 x { #.#.#.#.#.#.#.#.#.#.#.#.1.1.1.1.1.1.1.1.1.1.1.1.1.1.1.7.r.g.l.b.A.D.F.u l m m m M ",
"t m m m m M M M M M m t w w w 6 3 o h c L #.1.1.#.#...{ ` ` ` ` ` ` ` ` ` ` { { { { { { { { { ......#.#.#.#.#.#.#.1.r l m m m t ",
"M m m t m m t t w w w w w 6 6 X 1 l b #.1.#.#.{ ` / / / w / / / / / / / / / / / / / / / / / / / / / / / / / / / ` #.` l 9 m m M ",
"w w w w w w w w w w w 6 6   = j b #.1.#.#.` / / / / / / / / / / / / / / / / / / / / / / / / / / / / / / / M / / / { #.p > t e e ",
"w w w w w w w w w 6 6 O X l v { #.#.#.` / / / / / / / / / / / / / / / / / / / / / / / / / / / / / / / / ~ #.S N M m N h 0 e w w ",
"6 6 6 6 6 3 O X X X X $ x S S ~ E ` / / / / / / / / / / / / / / / / / / / / / / / / / / / / / ~ S N M m t e w w w w 6 u l 6 6 6 ",
"X X X o - p i < , < x b N m t t t M N N S S S S S S S S S ~ ~ ~ ~ ~ ~ ~ ~ ~ ~ ~ ~ ~ ~ S S N M m t w w w w w w w 6 6 6 < l u $ X ",
"x x v y.n.A.A.D.A.P z a w w w w w w t t w w w w w w t t t m t t t t m m m m m m t t t t w w w w w w w w 6 6 6 @ X X X p l z x x ",
"D.A.D.i.8.#.#.#.#.r.z a 6 w w w w w w w w w w w w w w w w w w w w w w w w w w w w w w w w 6 6 6 6 2 . X X X X - p x x x R 8.D.D.",
"1.#.#.#.#.3.3.#.#.#.f h 8 6 6 6 6 6 6 6 6 6 6 6 6 6 6 6 6 6 6 6 6 6 6 6 6 6 6 6 6 6 6 7 7 * X X . X < u l R f.N.A.l.r.3.#.#.#.1.",
"{ { ` ` { #.#.#.#.#.; l l p , $ X . X X X X X   X X X X $ o X     X . . . . . X X , d i u h l y.N.A.D.D.x.#.#.#.#.#.#.#...{ { { ",
"/ / / / / / / { #.#.- z x b b b b b x x x x c v H H H H *.*.&.=.P I P I b b b b b b l q.D.H.F.x.4.#.#.#.#.#...{ ` ` / / / / / / ",
"/ / / / / / / / #.1.% z 4.A.A.A.A.A.A.A.A.A.b.x.j.j.j.r.4.4.4.4.r.i.j.l.N.D.D.F.A.x 1 D.8.#.#.#.#.#.` ` / / / / / / / / / / / / ",
"/ / / / / / / / ..1.8 l #.#.#.#.#.#.#.#.#.#.#.#.#.#.#.#.#.#.#.#.#.#.#.#.#.#.#.#.A., < #.#.1.#.{ ` / / / / / / / / / / / / / / / ",
"/ / / / / / / / { 1.` l #.#.#.#.#.#.#.#.#.#.#.#...{ { { { { ....#.#.D.#.#.#.#.#.` , - #.3.#.` / / / / / / / / / / / / / / / / / ",
"/ / / / / / / / { 1.#.l #.#.#.#.#.#.#.` / / / / / / / / / / / / / #.` ..#.#.#.#.{ , , 1.N ../ / / / / / / / / / / / / / / / / 9.",
"/ / / / / / / / { 1.#.l #.#.#.#.#.` / / / / / / / / / / / / / / / / / / { #.#.#.#.; , #.#./ M / / / / / / / / / / / / / / M / / ",
"/ / / / / / / / { 1.F l #.#.#.../ / / / / / / #./ / / / / / / / / / / / / { #.#.#., , #.{ / / / / / / / / / / / / / / 9.i./ / / ",
"/ / / / / / / / { 1.#.l #.#.#./ / / / / / / / / w / / / / / / / / / / / / / ..#.#.u ; ..` / / / / / / / / / / / / / N./ / / / / ",
"/ / / / / / / / ` #.{ l #.#.../ / / / / / / / / / / / / / / / / / / / / / / / #.#.u ; E S / / / / / / / / / / / / / / / / / / / ",
"/ / / / / / / ~ S N S l ` #.../ / / / / / / / / / / / / / / / / / / / / / / S M N 1 , m m M N N E ~ / / / / / / / / / / / / / / ",
"/ / ~ ~ ~ S N M t w e l { ..` / / / / / / / / / / / / / / / / / / / / / S M m m M u < t t t t m m M M M N N S S S S S ~ ~ ~ ~ ~ ",
"m m m m m m m t e w w l S N N ~ / / / / / / / / / / / / / / / ~ ~ S N N M m m t t < , w w w e t t t t t t t t t t t t t m m m m ",
"w w w w w w w w w w w z N m m m m M N S S S S S S N N N N M M M M M m m m t e w w 0 u 6 6 w w w w w w w w w w w w w w w w w w w ",
"6 6 6 6 6 6 6 6 6 6 6 l N m m m m m m M M M M M M M m m M M m t t t t w w w 6 6 6 d l = 6 6 6 6 6 6 6 6 6 6 6 6 w w 6 w w w w 6 ",
"& 3 & & 3 3 3 2 @ @ < z y m m m m m m m M m m m m m t e w w w w w w 6 6 6 6 6 3 ; z b h $ X X X X o O @ 3 3 3 6 3 3 @ & @ @ @ @ ",
"- ; ; - - - = < u p j b q t t m m m m m m t t w w w w w w w 6 6 6 6 7 7 % X ; j z x b b x z l p i ; , $ o o o < d i p p p u i u ",
"D.D.D.A.N.N.k.d.q.H b b 0 w w w w w w w w w w w w 6 6 6 6 4 * + % = u h l K y.N.D.F.D.D.D.H.F.F.F.F.F.F.F.b.i.z z D.F.F.F.D.D.D.",
"3.3.3.3.3.3.#.#.#.3.3.b i w w w w w w w 6 6 6 3 @ X = o = 1 l z 0.N.F.D.D.x.4.3.3.3.3.1.1.1.1.1.1.1.1.1.#.8.F.z j b.3.3.3.3.3.3.",
"1.2.1.1.#.1.#.#.1.3.#.x z : 6 6 6 6 3 & X = - - i d z Y A.F.D.A.i.3.3.3.3.3.3.3.1.#.#.{ { { ..#./ M #.#.1.3.3.l p { 3.#.1.1.1.1.",
"/ / / / / / / / / / #.#.x h < - ; u h d z d %.x.A.d x 4.#.3.3.3.3.3.1.#.#.#.{ ` / / / / / / / / / / / { #.3.#.i u 1.#.#./ / / / ",
"/ / / / / / / / / / / #.x x l p y.s.A.A.j.7.#.#.#., l ] 3.3.3.1.#.{ ` / / / / / / / / / / / / / / / / / #.3.#.u ; 1.#./ / / / / ",
"/ / / / / / / / / / / ` c x J F.F.9.#.#.#.#.#.#.#.< l #.3.1.#./ / / / / / / / / / / / / / / / / / / / / / #.#.< , 3.../ / / / / ",
"/ / / / / / / / / / / / g x y.#.#.#...{ { { ..1.#.1 l 3.3.1./ / / / / / / N / / / / / / / / / / / / / / / #.#.< < 3./ / / / 8./ ",
"/ / / / / / / / / / / / 0 l ` 1.{ / / / / / / #.#.u l 1.3.` / / / / / / / / / / / / / / / / / / / / / / / #.#.< , #./ / / / 8.M ",
"M / / / / / / / / / / S ; l ..#./ / / / / / / ..#.u j 3.` / / / / / / / / / 8./ / / / / / / / / / / / / / #.#.p , #./ / / / / 4.",
"/ { 8./ / / / / / / / m - l #.{ / / / / / / / / #.u l #./ / / / / / / / / / / S / / / / / / / / / / / / / / #.h , #./ / / / / / ",
"/ / / e / / / / / / / t ; l ..{ / / / 9./ / / / #.u u #./ / / / / / / / / / / / / / / / / / / / / / / / / / #.h , #./ / / / / / ",
"/ / / / / / / / / / ~ t , p ../ / / / w / / / / #.u u ~ / / / / / / / / / / / / / / / / / / / / / / / / / / #.u , #./ / / / / / ",
"/ / / / / / / / / / N t p B ` / / / / M / / / / #.u u m S ~ / / / / / / / / / / / / / / / / / / / / / / / / 3.1 , { / / / / / / ",
"/ / / / / / / / / / m ; l #./ / / / / / / / / / 1.u i t M M N S S ~ ~ / / / / / / / / / / / / / / / / / / ~ ~ 1 , / / / / / / / ",
"/ / / / / / / / / N m , l #./ / / / / / / / / / #.u s t t t t t m m M M M N N N S S S M S S S S S S N N M M N u , / / / / / / / ",
"/ / / / / / / / E t m 1 h M / / / / / / / / / / #.< s 6 w w w w w w w w w w e t t t w t t t t t t t S t t t t < , / / / / / / / ",
"/ / / ~ ~ ~ S M m t t p < m M / / / / / / / / / ..1 l 6 6 6 6 6 6 6 6 w w w w w w w w w w w w w w w w w w w 6 0 , S / / / / / / ",
"S N M m m m t w w w 6 l 8 w t m M ~ / / / / / / { u b p o X o + + % % O & 3 7 6 6 6 6 6 6 6 6 6 6 6 6 6 6 6 6 d , M m S ~ ~ ~ S ",
"t e e w w w w 6 6 6 % j 8 6 w w w t t M N ~ / / / p :.;.;.n x j j d p 1 , = o o o X X X X X X X o + % % * 3 * x < m t t t t t t ",
"w w w 6 6 6 3 * + X u x p 4 6 6 w w w w w w t t m < :.A.A.D.D.N.l.f.f.w.w.<.<.,.>.:.:.:.:.:.;.;.;.b z z j l l x u 6 w w w w w w ",
"7 7 4 * = ; ; < u p l x x d ; % 3 6 6 w w w w w e , i D.j.7.#.#.#.4.4.4.7.9.r.j.j.b.A.D.D.F.F.D.D.D.N.f.y.q.*.b j 7 6 6 6 6 6 3 ",
"1 < l b -.0.N.F.D.l.j.l.l.C.N.z h , # X 3 6 6 6 6 u p #.1.#.#.#.1.1.1.1.1.1.1.1.#.#.#.#.#.#.#.#.#.#.3.1.#.4.x.H x d ; - - = ; u ",
"b.j.7.#.#.#.#.#.#.#.#.#.#.#.7.A.A.e.k k i - > : = x u #.3.3.3.1.#.#.` ` ` { { { ....#.x.#.#.#.#.#.#.#.#.#.#.#.N.b z j l c 0.n.A.",
"1.3.1.#.#.#.#.........{ ` { { ..#.#.8.A.k.-.h l l b i #.3.1.#...{ ` / / / / / / / / / / / ` ` { ` { #.#.#.#.#.l.b x A.F.r.#.#.1.",
"#.#...` ` / / / / / / / / / / / / ` { ..#.#.l.j.x x p 1.3.#./ / / / / / / / / / / / / / / / / / / / / / / { #.#.b x i.1.1.1.1.1.",
"/ / / / / / / / / / / / / / / / / / / / / / ..#.H x u #.1.{ / / / / / / / / / / / / / / / / / / / / / / / / { #.b z #.3.3.#.{ ` ",
"/ / / / / / / / / / / / / / / / / / / / / / / ` y x u #.` / / / / / / / / / / / / / / / / / / / / / / / / / / #.l x F 3.1.` / / ",
"/ / / / / / / l./ / / / / / / / / / / / / / / ~ t x l #./ / / / / / / / / / / / / / / / / / / / / / / / / / / ~ B b a 1.#./ / / ",
"/ / / / / / / N./ / / / / / / / / / / / / / / N t l i ~ / / / / / g./ / / / / / / / / / / / / / / / / / / / / m m z , #.../ / / ",
"/ / / / / / / i./ / / / / / / / / / / / / / / t t u ; m ~ / / / / / / / / / / / / / / / / / / / / / / / / N M t t l < #.{ / / / ",
"/ / / / / / / / / / / / / / / / / / / / / / N t e h ; M M M M N S ~ ~ / ~ / / / / / / / / / / / / / ~ N M N t w w h , #.{ / / / ",
"/ / / / / / / / j./ / / / / / / / / / / / / m w w l , w w w w t t t e t t t t t t m m m m M M M t t t m M t w w w > u #.{ / / / "
};
