/* XPM */
static char *rcp07201367670646[] = {
/* columns rows colors chars-per-pixel */
"64 64 137 2 ",
"   c #070809",
".  c #0B0C0D",
"X  c #0C0F10",
"o  c #0E1112",
"O  c #131415",
"+  c #131718",
"@  c #16191B",
"#  c #1A1B1B",
"$  c #191E21",
"%  c #1D2225",
"&  c #1E2529",
"*  c #1F282D",
"=  c #212222",
"-  c #212729",
";  c #232A2D",
":  c #262E31",
">  c #282F32",
",  c #273034",
"<  c #2A3236",
"1  c #263239",
"2  c #2D3639",
"3  c #2F383C",
"4  c #30383C",
"5  c #30393C",
"6  c #30393D",
"7  c #31393D",
"8  c #303A3D",
"9  c #313A3D",
"0  c #303A3E",
"q  c #313A3E",
"w  c #313B3E",
"e  c #303A3F",
"r  c #303B3F",
"t  c #313B3F",
"y  c #323B3F",
"u  c #323C3F",
"i  c #313A3E",
"p  c #2D3A42",
"a  c #2E3E48",
"s  c #303B40",
"d  c #323B40",
"f  c #313C40",
"g  c #313D41",
"h  c #323C40",
"j  c #333C40",
"k  c #333D41",
"l  c #323C42",
"z  c #303E44",
"x  c #323F44",
"c  c #323C41",
"v  c #303F49",
"b  c #334046",
"n  c #354044",
"m  c #344046",
"M  c #344147",
"N  c #344247",
"B  c #344146",
"V  c #354348",
"C  c #35444A",
"Z  c #36454C",
"A  c #36464C",
"S  c #37474D",
"D  c #37474E",
"F  c #35444B",
"G  c #38474D",
"H  c #37484F",
"J  c #37484E",
"K  c #39484F",
"L  c #38484F",
"P  c #354752",
"I  c #374953",
"U  c #384950",
"Y  c #394950",
"T  c #3C4D53",
"R  c #3A4C54",
"E  c #3A4C54",
"W  c #394E5A",
"Q  c #3D5159",
"!  c #3E525A",
"~  c #3E535C",
"^  c #3F555D",
"/  c #3D525C",
"(  c #3F5462",
")  c #40555D",
"_  c #41575F",
"`  c #40555E",
"'  c #415760",
"]  c #415861",
"[  c #415962",
"{  c #415963",
"}  c #425963",
"|  c #435A63",
" . c #445C65",
".. c #445D67",
"X. c #455D67",
"o. c #435B64",
"O. c #445E68",
"+. c #465F68",
"@. c #455F69",
"#. c #46606A",
"$. c #46606B",
"%. c #47616B",
"&. c #47616C",
"*. c #47626C",
"=. c #47626D",
"-. c #47616B",
";. c #48626D",
":. c #48636E",
">. c #49646F",
",. c #48636D",
"<. c #4B6772",
"1. c #4B6773",
"2. c #4A6671",
"3. c #4B6873",
"4. c #4B6974",
"5. c #4D6A75",
"6. c #4D6A76",
"7. c #4D6B76",
"8. c #4D6B77",
"9. c #4C6A75",
"0. c #4E6C78",
"q. c #4E6D79",
"w. c #4F6E7A",
"e. c #4F6F7B",
"r. c #4F6E7A",
"t. c #506F7C",
"y. c #506F7B",
"u. c #50707C",
"i. c #50707D",
"p. c #51717E",
"a. c #51727E",
"s. c #51727F",
"d. c #52727F",
"f. c #52737F",
"g. c #51727E",
"h. c #527380",
"j. c #527380",
/* pixels */
". o . . . . . . . . . . . . . . . . . . o . . . . . . . . . . + @ O o o X . . . . . . . . . . . $ @ @ + o . . . . . . . . . . . ",
"X.2 2 2 2 2 2 2 2 2 2 2 2 < , , + . . . ; ; ; - ; - % @ X . . ; ; ; ; ; ; - - - - - - % . . . O.e e e e e e e e 3 2 2 2 , % . . ",
"3.2 2 2 2 2 2 2 2 2 , 2 , , , - % . . . ; ; ; : : : ; ; ; o . ; ; ; ; ; ; ; ; ; ; ; ; ; - . . <.e e u e k 3 e k k k e k e e : . ",
"w.2 2 , , , : , , : , : > : : ; - . . . ; ; : , > , 2 2 2 % . < 2 < 2 2 2 2 2 2 2 2 2 2 ; . . 8.; - - ; ; ; - : ; 2 , e < 2 2 . ",
"u.; ; ; ; ; ; ; ; ; ; ; ; ; ; ; ; . . . ; , 2 2 2 2 2 2 2 ; . 2 , < , 2 2 2 2 2 2 2 2 e ; . . u.% % % % % % % - - - - ; ; ; ; . ",
"u.- - - - ; ; ; ; ; ; ; ; : , : 2 o O O < > 3 e e k e e e , O e e e e e e e e e k k k e 3 o O h.% % % % % % % % - - - - - - - . ",
"h.: - - - ; ; , , : 2 2 2 2 2 2 2 @ O O x , 2 2 < 2 2 2 2 , O U 3 3 e 3 2 2 2 2 2 2 2 2 2 O O h.M ; % % $ - - - ; - - - - - - X ",
"h.w.) U V M e 3 2 2 , < 2 2 2 2 , ; O O u.A 3 2 2 2 2 3 2 , O w.M e u e e u k u k k k k k $ O u.<.- - - ; ; ; ; ; ; - - - - ; O ",
". h.h.h.h.h.h.h.h.h.u.t.w.8.8.>.[ O O O :.:.&.&.&.%.O.X.[ ~ O u.u.%.) K M k 2 2 2 2 2 2 2 - O h.h.u.4.[ R H 3 , : : ; ; - ; ; $ ",
"A ; : ; : % - - % % % % % # + o . . O O O O O O O O O O O O O O O O O O O O O O O O O O O O O O O O O O O O O O O O O . . . . . ",
"X., 2 2 2 2 2 2 2 2 2 2 2 2 , , % . O O O . . . . . . . . . O O e e 2 2 2 , , , > : ; ; % O . . O O O O O O O O O O O . . . . . ",
"%.2 2 2 , 2 2 2 2 2 , , , : : : % . O O ; ; ; - ; - % @ o . O O : ; ; ; ; ; ; ; : : , : : , $ . O O O O O O O O O O O . . . . . ",
"%.: ; ; : ; : ; ; ; ; ; ; ; ; - ; . O O ; ; ; : ; : : ; ; O O O : ; ; ; ; ; ; ; ; ; ; ; ; ; ; . O % % % $ @ @ O o . . . . . . . ",
"%.- ; - - ; ; ; ; ; ; ; ; ; ; ; ; o O O ; ; : , > , 2 2 2 - O O , ; ; ; ; ; ; ; ; ; ; ; ; ; ; . O ; ; ; ; ; ; ; ; - - - - - + . ",
"%.: - - - ; ; ; ; ; ; : , , > 2 2 @ O O ; , 2 2 2 2 2 2 2 , O O 3 ; , > > ; , , , , , 2 , , 2 X O : > ; : ; > ; , ; : ; ; ; ; . ",
"&.Q : , , 2 > < 2 2 2 2 2 2 2 , , - @ @ , , 3 e e k e e e 2 @ @ A 2 2 2 2 2 , < 2 , , , , , , O @ 2 2 < 2 2 2 2 2 2 2 2 2 2 > . ",
"8.h.u.u.w.w.8.>.X.~ A M k s k e : ; @ @ C , 2 2 < 2 2 2 2 < @ @ Q 2 2 2 2 2 2 2 , 2 < 2 2 2 2 @ @ e 2 < 2 2 2 2 2 2 2 2 3 3 : O ",
". O O O O O O O O O O O O O O @ @ @ @ @ u.A 3 3 2 2 2 3 2 2 @ @ 8., , 2 3 2 , 3 , : , : ; ; - @ @ V e 3 e e e e e 2 e k e e 2 # ",
"3 ; ; ; ; - % @ O . . O O O O @ @ @ @ @ :.:.&.:.:.%.O.X.[ ^ @ @ u., 2 , 3 e , 3 2 < 2 e , 2 e % @ [ e e e 3 e 2 2 2 3 2 2 2 2 % ",
"x ; ; ; ; ; ; ; : ; . O O O O @ @ @ @ # @ @ @ @ @ @ @ @ # @ @ # j.o.3 2 2 2 2 2 2 2 2 2 2 2 2 , @ u.T s k e e k k e k e k e k ; ",
"C ; , : : > , 2 2 2 . @ O o o . . . . .   . . .         . . . # j.j.w.o.E C k 3 3 3 2 2 3 2 2 2 @ h.u.w.8.X.) A k 3 3 3 2 2 2 , ",
"Q ; 2 2 2 2 2 2 2 e X % O O O O O O O O O O O O O O o o . . . # # # # # # # # # # # # @ # @ @ @ @ O O O O O O O O O O . . . . . ",
"&.; 2 e 3 e k k k 3 O & + @ @ @ # @ @ @ @ + @ + O O O O + o . # # # # # # # # # # # # @ # @ @ k 4 2 < , > : - % % $ @ O . . . . ",
"u.2 2 2 2 , 2 2 2 2 @ : O @ @ @ # @ @ O O # @ @ + @ # # @ O . # # # # # # # # # # # # @ # @ @ U > ; ; ; > , : : 2 , , 2 , - . . ",
"h.[ 3 2 2 2 2 2 2 2 $ F @ @ @ @ @ O + O O O @ @ O O # @ @ +   # ; ; - - - % % % # @ O o . . . R ; ; ; ; ; ; ; ; ; ; ; ; ; : X . ",
":.h.h.h.h.u.u.w.<.%.3 I @ + + + + O O O O + @ O O O @ @ @ O   # : ; ; ; ; ; ; ; - - ; - - % . ^ ; ; ; ; ; ; ; ; ; ; ; ; ; ; O . ",
". . . . . O O O O O O W @ @ @ # O O O @ @ @ @ O O @ @ # @ O   = 3 2 2 2 , , 2 , , : : , : ; . %.; ; ; ; ; ; ; ; ; ; : ; ; : % . ",
". . . . . O O O O O O ( ; O O O + O O @ @ # @ @ O + @ @ @ @ . = s < , , 2 2 2 2 2 2 2 2 2 : o 8.2 2 2 2 2 2 , 2 , 2 , 2 2 , ; . ",
"2 ; - - - % $ O o . . ( v @ @ + + @ + @ @ @ # @ @ @ @ @ @ + . = C 2 2 2 2 2 2 2 2 3 e 3 2 < $ t.2 2 2 2 2 , , , , , , , < , , . ",
"2 ; ; ; ; ; ; ; ; & . ( ( W F 1 ; & & $ # @ @ + + @ + @ O @ . = Q e 2 e 3 e 2 2 2 3 2 2 3 2 - h.2 3 2 2 2 2 3 e 2 2 2 , ; , - . ",
"p ; : : > : , 2 2 2 . ( ( ( ( ( ( ( ( ( ~ W ~ Q W I F p 1 ; $ = 8.e e e e e 2 e e 2 2 2 2 2 ; h.p : > , : ; , : , 2 > , , 2 : . ",
"C ; 2 2 2 2 2 2 2 e . O . . . . .                               u.>.M k e k k 2 e 3 e k e e 2 h.<.3 2 2 2 2 e 3 2 2 2 2 2 2 2 . ",
"[ - 2 2 e e u k k k o O @ O O O O O O o X o o o X X . . . .     h.h.h.h.u.w.<.) R A A M e 3 2 h.h.3.G e 3 2 2 < 2 2 2 2 2 2 2 . ",
"w.2 2 2 2 2 2 2 2 2 O O @ O O + @ # + O O + O O O O O O O O .   = = = = = = # # # # # @ @ @ @ %.h.h.h.h.h.h.h.u.u.u.u.w.3.:.X.. ",
"h.U 2 , , 2 2 2 2 2 @ O $ @ @ # # # @ @ O O @ @ @ @ + @ @ + O   ; $ @ + + @ O O o o X o X . . . . . O O O O O O O O O . . . . . ",
"h.h.h.u.u.w.3.%.^ R , O : O @ @ @ @ @ @ O + @ @ # + + @ @ @ O   U , 2 2 2 2 2 2 2 2 2 2 2 2 2 & @ . O O - @ o o o . . . . . . . ",
". . . . . O O O O O O O p + @ O @ + O O O + O @ + O + @ @ @ o   ) 2 2 2 2 2 2 2 2 < 2 , , , , ; % . O O ; ; ; ; ; ; ; - % . . . ",
"V ; ; - - - % @ O . . O p @ @ @ @ @ O O @ @ @ @ O O @ @ + @ o   O., ; ; ; ; : ; ; : ; ; ; ; ; - - . O O ; ; ; > : , , 2 2 # . . ",
"R ; ; : ; ; ; ; ; ; . O P @ @ @ + @ O O @ @ # @ + @ @ @ # @ O   <.- ; ; ; ; ; ; ; ; ; ; ; ; ; ; ; . O O ; : , , 2 2 2 2 2 ; . . ",
"^ ; , : : > , 2 2 2 X O ~ * O O + @ + O @ # @ @ @ @ + @ @ # O   w.- - - - ; ; ; ; ; ; > ; , , 2 2 . O O ; ; 2 3 2 3 3 e k 2 . . ",
"O.; 2 2 2 2 2 2 2 e + O ( I : % # @ @ + + @ O + O O @ @ @ @ @ . h., ; > : 2 2 , 2 2 2 2 2 2 , , 2 o O O e 2 2 e 2 2 2 3 2 2 . . ",
"w.; 2 2 e e k k k e $ O ( ( ( ( W I W P F p 2 2 : : ; % $ @ @ . h.u.8.:.o.[ E A b e 2 2 2 2 2 2 2 % O O ) < < < , , 2 2 4 2 . . ",
"h.e 2 2 2 , 2 2 2 2 % O O O O @ @ @ @ # @ # # # # # # # # # # # # # # # # # # # # # # @ @ @ @ @ @ + O O h.y.X.Q G M k , , > . . ",
"h.X.2 , 2 2 2 2 2 2 ; O O O O @ ; ; ; - & % % % @ @ O o . . . 2 ; ; ; ; - - - - & % $ @ . . @ @ @ O O O O O O O O O O X X . . . ",
"X.h.h.h.h.u.w.4.&.[ V O O O O @ ; ; ; ; ; ; ; ; ; - - - - $ . k ; ; ; ; ; ; ; ; ; ; ; - - . @ @ @ O O O O O O O O O O . . . . . ",
". O O o X . . . . . . . . . . @ 2 2 2 2 2 , , , , : , , ; - . A , 2 2 2 , 2 2 , : , , ; ; O @ ; , : , - : ; ; - - - - % # O . . ",
"O.; ; ; ; ; - - - - - - & # . . , , , , 2 2 2 2 2 2 2 2 2 : . E , , < 2 2 2 2 2 2 2 2 2 , % @ 2 2 2 2 2 2 2 2 2 2 2 2 2 2 , % . ",
">.; ; ; ; ; ; ; ; ; ; ; ; - # . e 2 2 2 2 2 2 3 3 2 e 3 e : o [ e e 3 3 e e e e 3 e u e 2 < @ 2 2 2 , 2 2 2 2 , , , > , : ; % . ",
"8.2 , 2 3 2 2 2 2 2 2 2 2 2 - . C e 2 e 2 3 3 e 2 2 2 2 3 2 + 8.2 e 4 2 e 2 2 2 2 3 e 2 2 , @ : ; ; ; ; : ; ; ; ; ; ; ; ; - ; o ",
"y., , , , 2 2 2 2 2 2 2 2 3 ; . X.e 3 e e e 3 k e e 2 2 2 2 # u.M k e e e k k k e e e 3 k 2 O ; - - - ; ; ; ; ; ; ; ; ; ; ; ; # ",
"u.e e e e e e e e k k k e e 3 . h.X.k k e k u k e k e k e e - u.u.) V e e k 2 e 3 3 e e 2 3 O , - - - ; ; ; > ; : : , , > 2 2 % ",
"h.e 3 3 e 2 2 2 2 2 2 2 2 2 2 . h.u.u.u.u.w.:.Q U K C x e 3 2 h.h.h.h.h.h.h.y.8.<.:.X.^ R C O %.e < 2 2 2 < 2 2 2 2 2 2 2 , , , ",
"h.%.k e e e k u k u e k k k e . O O O O O O O O O O O O - - % $ @ + O o . . . . . . . . O O O h.h.h.u.u.w.8.:.X.E K M x M k , - ",
"h.u.u.' R V k 2 2 2 3 2 2 2 2 O O O O O O O O O O O O O : 2 , < 2 2 , , , 2 , , , % . . O X . . . . . .                         ",
". h.h.h.h.h.h.h.h.u.u.u.w.8.<.O O O O O O O O O O O O O ; ; ; ; ; ; ; ; ; ; ; : : : O . $ O O O O O O O O O O O o o O X . . .   ",
". . . . . O O O O O O k e 3 3 2 , : ; % % # @ O X . . O ; ; ; ; ; ; ; ; ; ; ; ; ; ; % . % O @ @ @ # @ @ @ @ + + + O + O O + o   ",
"3 - - % % % @ o . . . V e e k k k e e e e e e e e 2 . O ; ; ; ; ; ; ; ; : ; ; ; ; ; - . * + @ @ @ @ @ @ O + @ @ @ + @ @ @ @ +   ",
"C ; ; ; ; ; ; ; ; % . b > , ; : : 2 2 , 3 3 3 e k e % O 2 : 2 , , 2 , , 2 2 2 2 2 2 , . p + @ @ @ @ @ @ O O O @ @ O + $ @ @ +   ",
"U ; ; : : : , 2 2 2 . b - % % % % - - ; - - - ; : ; & O 2 2 2 2 2 , , , , , , , , , , . P @ + O + + O O O O + @ O O O @ @ @ O   ",
"Q ; 2 2 2 2 2 2 2 2 o ^ % % % % % % % % % - - - - - % . k 2 2 2 2 2 2 3 3 2 2 2 ; 2 2 . P @ @ @ # O O O @ @ @ @ O O @ @ @ @ O   ",
"<.- 2 2 e 3 k k e k @ t.% % % % % % - - - - - - - - - . U : : , , ; , : : : > : : ; : . ~ & O O O + O O @ @ # @ O O + @ # @ O . ",
"u.2 2 2 2 2 2 2 2 2 @ h.2 - % % % ; ; ; ; ; ; ; ; - - . 0.3 3 2 2 4 2 4 3 3 2 2 2 2 2 o ( 2 @ O + @ @ @ O # @ # @ @ + @ @ @ + . ",
"h.H < , , 2 2 2 2 2 - u.w.F , ; ; ; ; ; ; - - - - - - . h.%.3 < < 2 < < 2 2 2 2 2 2 2 % ( ( F 1 & $ $ @ @ @ @ + + + + @ @ O @ . ",
"h.h.h.u.w.<.[ R A x , h.h.h.h.h.h.h.u.8.<.%.o.Q U b 2 . h.h.h.u.u.u.8.>.%.o.[ Q U C M 2 ( ( ( ( ( ( ( ~ / I P U F F a 1 : % $ O "
};
