/* XPM */
static char *rcp07203128698869[] = {
/* columns rows colors chars-per-pixel */
"64 64 144 2 ",
"   c #422C1F",
".  c #452F21",
"X  c #473023",
"o  c #4A3426",
"O  c #4E3728",
"+  c #4F382A",
"@  c #533C2D",
"#  c #563F30",
"$  c #56402E",
"%  c #58422F",
"&  c #574031",
"*  c #5B4434",
"=  c #5F4837",
"-  c #5F4738",
";  c #5F4838",
":  c #614A37",
">  c #634C3B",
",  c #67503E",
"<  c #69523F",
"1  c #674F40",
"2  c #675040",
"3  c #6B5343",
"4  c #6F5845",
"5  c #6E5649",
"6  c #6F584C",
"7  c #715A46",
"8  c #70574A",
"9  c #735B4C",
"0  c #745E51",
"q  c #756047",
"w  c #77604C",
"e  c #79634E",
"r  c #766255",
"t  c #7B6454",
"y  c #7E6854",
"u  c #776458",
"i  c #7A6659",
"p  c #7C6A5D",
"a  c #7F6D61",
"s  c #816B56",
"d  c #836C5B",
"f  c #857057",
"g  c #86715B",
"h  c #89735E",
"j  c #8C785F",
"k  c #826E62",
"l  c #837265",
"z  c #8C7462",
"x  c #8E7663",
"c  c #8A7366",
"v  c #8E7764",
"b  c #8B7463",
"n  c #8F7866",
"m  c #8E7963",
"M  c #857468",
"N  c #877669",
"B  c #87766A",
"V  c #867569",
"C  c #887568",
"Z  c #8A7468",
"A  c #887669",
"S  c #88776B",
"D  c #8B776A",
"F  c #8C7569",
"G  c #89776A",
"H  c #8F7868",
"J  c #89786C",
"K  c #8B796C",
"L  c #8B7B6D",
"P  c #8D7B6F",
"I  c #8B7A6D",
"U  c #907966",
"Y  c #917A66",
"T  c #90796B",
"R  c #927C69",
"E  c #927F6F",
"W  c #957E6D",
"Q  c #957F6E",
"!  c #937D6B",
"~  c #8D7C70",
"^  c #8F7F73",
"/  c #8D7D71",
"(  c #917E71",
")  c #927E72",
"_  c #948067",
"`  c #96816C",
"'  c #99836E",
"]  c #8F8071",
"[  c #908073",
"{  c #908074",
"}  c #928276",
"|  c #938377",
" . c #958477",
".. c #928275",
"X. c #9B8575",
"o. c #9B8573",
"O. c #9E8975",
"+. c #948478",
"@. c #958579",
"#. c #97877A",
"$. c #97877B",
"%. c #96867A",
"&. c #96867A",
"*. c #9A8578",
"=. c #9A877A",
"-. c #9C8679",
";. c #9C8678",
":. c #97887A",
">. c #9A8A7E",
",. c #9B8B7F",
"<. c #998A7E",
"1. c #A08A77",
"2. c #A28D7B",
"3. c #A6907D",
"4. c #9E8F82",
"5. c #9E8F83",
"6. c #9D8D81",
"7. c #9F9083",
"8. c #A18C80",
"9. c #A09084",
"0. c #A29084",
"q. c #A19286",
"w. c #A19287",
"e. c #A29387",
"r. c #A29285",
"t. c #A99583",
"y. c #A49488",
"u. c #A5968B",
"i. c #A39589",
"p. c #A99689",
"a. c #A7988D",
"s. c #A7998C",
"d. c #A8998E",
"f. c #AB9B8E",
"g. c #AB9C90",
"h. c #AD9F93",
"j. c #AB9D92",
"k. c #AFA196",
"l. c #AFA196",
"z. c #B1A296",
"x. c #B1A398",
"c. c #B5A89D",
"v. c #B9ACA1",
"b. c #B9ACA2",
/* pixels */
"@ & > t [ 4 + @ > 9 Z | y M | k [ d k p r 5 4 L 5.M L > 3 & & > 2 w 2 7 > 9 L 4 O & 4 O @ o O @ 3 2 - 0 l d.a.| %.~ r y 2 p 0 > ",
"- 4 & 4 4 > # - 2 9 d Z %.%.p M 9 0 > > - * & i r ,.%.9 > @ > 0 > 7 + M k y 5 3 - + 4 -   . O @ o - > - 2 r %.t 9 t 9 p 2 + - # ",
"> o & > 7 7 > > 2 z d u.*.r k 3 y r 5 3 - & 9 5 > i %.r @ - 2 7 1 @ - > t a @ O o & 2 o X O O @ - > r 7 y D 4 2 > > 7 & o o X - ",
"> - - > z s 5 2 y g.H z w p %.| ~ k | ~ > * 9 r l 0.M > & > - 5 - 3 > & 2 > + o o o * > > 5 & @ & 7 d d Z T Y Z 0 y 7 2 & - * & ",
"- * & - t g y 2 W R s d W t l i 4 2 * - 9 - @ Z ,.i 9 @ @ o & @ # > * > - & @ + + O & @ @ 2 O o > - 9 2 0 y c k 9 L 4 > , 4 > & ",
"4 y - d z d 7 y 0.( v 0.P Z u.~ 0 4 * 5 9 7 - 7 i 1 2 2 * - 2 & 1 > - * 2 * & @ * > 3 # o @ @ @ > > 0 > k g ( k 2 2 y & @ - o - ",
"2 7 p 5.X.b n v.h.-.z  .0.k.*.y & @ 9 l 0 2 9 7 > 9 2 > - - > 2 0.@ @ > ! 5 2 > - > 2 9 O @ 1 & 2 r 0 > > p 7 9 0 5 0 2 > 9 - * ",
"& 2 3 d 4 Y 8.X.g w t ! :.u.1.p 2 y 4 7 9 2 y : 9 # 4 9 4 & o @ 2 > > |  .p Z r 4 - # 7 - 5 l 9 @ > > > 2 4 5 > & > 2 5 k ; # - ",
"@ O ; > 2 y.2.9 3 > d ` x.o.b 7 @ s g 9 , > 9 w 9 2 > , - 2 # 3 1 p r r 0 > 2 5 > 0 - > > 4 > @ > > 1 o - & 6 - & @ 3 & * * @ - ",
"o . * > 4 g R d - - d o.2.1.s 4 9 g D c r w 9 @ @ 9 > 2 - > @ @ 2 i 9 9 > d 9 p 9 > r 5 3 2 - 5 , > @ X ; & o & o o - o X o @ - ",
"> @ ; > 9 X.0.t z Y 2.1.2.! e 9 b Y Y z > > - > @ < > - 2 & - r p r 5 2 4 5 1 t i p 0 0 @ l p p p 2 . + = o . @ @ & + o > & 9 @ ",
"@ > > d d y y 0 y 9 d p.2.! X.' Y s d d y 4 w > < + 2 & - # 5 0 a 5 > 3 r r u z | [ :.> > * ; > 2 O O O @ o * @ o - * - 7 o @ O ",
"> 2 4 & > 4 4 7 > y v Y d t.o.O.g s ` Y ..< & - 9 + 2 - > 4 r > 2 - - @ & 3 > H P 9 7 a a t 2 > 1 & > - > o & & @ @ O + o @ * @ ",
"@ > o @ 4 y 9 d 7 v s d 2.2.Y s z ' ' Y d 3 9 t 9 2 > - - i d > > 9 3 - - p > 0 4 9 0 ,.e.| > & > 2 2 ; & = - > > > @ @ @ @ * o ",
"2 - > > s 9 W *.g t.t.z v ! 2.g t 9 Y d R b 4 t Z - o > - 9 p 4 y Z ~ l 2 0 r P 9 9 6 u.u L l 4 - > r r - @ @ 2 @ > @ * y > > > ",
"2 & y 7 t ' o.t.2.1.3.Y s d O.' Y g 1.o.X.g y g @ O - @ 2 5 & > 1 i p - & > > i 9 p M l 9 %.r , > 2 9 4 O @ @ - > @ @ o 9 - & 4 ",
"3 2 - < > t R d z z ' 2.d t.X.1.1.2.t.o.Y w ! 9 3 & > > i - > 5 0 i 0 4 r - i %.7 ,.M > y M l 2 > # 4 # @ & @ - & & @ & > + @ 2 ",
"> t o > 3 w 1.T Y n y 3.g t t e ! z t.f.O.Y ! 3 2 > @ * r o > 9 p l ~ 6 4 l i r M p - > ~ e %.> @ & * # @ + & @ > > @ @ * @ @ > ",
"@ & @ 2 d g g g Y s ! o.Y d t g R 2.v.Y o.! 7 w d t b 4 9 - > r 4 M %.r ; y i > - > - 0 > l k > o > 9 > * o > O * > 7 > @ O & 2 ",
"2 & 0 3 z d s ' ! v Y Y o.9 2 X.d e.' 2 9 y d T < t ! 9 M > - ~ Z P P t t z D u > 2 5 p %.l l > # - > > @ o @ + & - Y @ - # > 4 ",
"< < 2 d ) 9 T n z t d t t > Y g 2 z d w 3 3 t 9 t d v y g k 6 k.b.0 > > 7 9 9 0 4 > 0 9 * ~ L M u 2 - > + O - > : & @ & o @ - 9 ",
"g 7 w z T 2.t.f.W y Y R ! b n 7 d ( W s 7 9 d > > 2 t ) d > 0 ,.Z 7 & 7 t 9 k p 7 d ; > 2 5.M i r 2 3 & 9 9 > - O & @ > + & w z ",
"Y g ! 2.k.2.2.z z y Y X.-.d y 7 t d Y v 9 2 8 3 3 n z 7 t d r 0 9 2 & 4 # > 0 > 7 ) 4 > > r k r & :.> 5 0 & o O - O & & > 4 s s ",
"z ` 1.f.z.t.Y d ! b d W %.k 2 7 y w t z 4 5 t y d 9 d d y s %.r - * 9 r 1 4 > t c i 9 2 > p 0 a k 3 y r > > - # & O o > > d 9 s ",
"y d s 2.' z z b Y Y w t W o.t - > d 9 7 2 2 k d z 4 > t w 2 z.l > > > l 2 t M d p ( 0 r > i p 5 3 9 l - - > @ > @ @ t @ o & > t ",
"a.7 ` o.g t.v.%.%.d t v y w 9 9 ; d > > r M v n b 9 @ 7 7 4 4 @ o > 4 - & , 2 t 7 4 4 ; 5 2 + 3 - i r & 7 9 p > * 4 4 # o @ # t ",
"9 2 g t w ) P d p 9 - 7 t t 2 9 @ - > p 0 > 7 n 2 > > 9 9 - > @ @ # > o & > 7 @ O @ 2 9 3 & @ 2 # > 2 ; 7 > > > + & * 9 o O 2 d ",
"> & 2 3 z 0.L M d 3 4 3 2 - @ * > & y P 7 9 D t 4 > 9 w X.4 > o @ X > @ > * > > > > & 3 ~ > 0 9 6 r > 2 & 3 + & @ o O ; o - 0 r ",
"> > 7 4 ! x.5.i 4 3 & & * * o X o > ~ r - , D Z > - 9 Y d & - 2 2 > ; + > & 4 > 5 > 5 u 9 9 i > 2 2 y + - 4 5 > & * & - @ - 0 M ",
"o > - & p d l p 2 > o @ @ o   @ > > p > > y 9 v 2 > > 3 & - 4 > - 4 @ o 1 & > & 2 2 # 0 > * 5 ; 2 > > - 9 t 2 4 * & 7 @ O & - > ",
"& O o 2 > t | k y 2 > @ + . o > 4 r d 0 r 4 0 s d > > t > 4 w & + . . o - * - < l 4 4 > * o & 4 @ o @ & 5 9 > & # $ - o > @ o @ ",
"@ O > 2 - ; p 4 & 7 > . @ @ i 6 k p 7 - 2 5 p > > > 4 2 2 @ - @ o X & + - > 7 9 C [ 3 3 9 > f 9 > @ ; - > L , 4 7 > & > = ; X o ",
"o @ # & ; @ 2 > t ; X @ X @ - @ 5 - > > 9 9 - - p > @ @ & > O o @ o . O > y > < 4 d r p 9 e : t - & < > 4 i > - 3 > @ - - o o @ ",
"> & o @ @ + > - 2 > @ & & - # O 2 O - 5 * > @ 0 0 o O > 2 > @ . + @ & @ > + - w w > p e 4 4 9 l w 0 + 5 %.i @ > > 4 7 3 X X   o ",
"> 5 - 4 3 4 > r - & - ; 2 @ > o @ + > 3 > > > 9 > @ 2 7 > > * > : X , @ @ - 7 s f y j j 3 s g p p 9 y y v t > 7 @ = n : X X X @ ",
"2 4 2 9 9 0 5 2 1 > - @ @ 3 + @ > # i > * > 6 9 > 2 5 & > 4 3 > < @ @ * 7 < t ` y m ` 7 y > > P H 0. .:.f o.d w t 4 y - 3 & o o ",
"7 P ~ 7 4 9 t r - @ , + & @ @ > # > > < & & r d 4 - r 0 p , @ O 9 @ & > 3 > ` _ ' j q 7 s ' d r ,.s y 9 ' o.t j y < t j 7 $ @ & ",
"p p i 5 4 ; > 4 @ > @ # ; & 5 9 5 5 | 0 - , i y 5 9 5 y & , < 3 * > 3 3 w b f 0.R e 7 4 3 < R 9 , 9 < e ` e ` e.R C s t : % % = ",
"0 P M M ,.7 r 3 > O & o 0 - * D a 4 i 2 > s :.e.d 9 p , 5 & @ > + > @ < f ' s m 4 4 e - = f m t w < t j _ ` '  .d c y.> & & 4 4 ",
"9 6 g L l  .r > - r & 7 9 8 9 r 5 5 5 * - 2 ~ t l P H ,.i 2 3 % & , 4 y g f f j t 2 9 y s z 9 s 3 e ` R Y R m 7 < > r & @ @ : 9 ",
"y i k w 9 r 7 4 - a 4 1 > > t 2 * 7 2 > 2 ; > p k.%.k l 3 @ @ @ 2 7 < j j q m 7 , > d 9 t e 7 3 4 s m R y.` j y t & > & @ o 3 t ",
"9 l t i 0 3 y 9 y y r 1 9 9 u > r [ p , & > > r 9 M 2 > > o @   > 7 w s f t 9 7 @ 7 y 3 @ & s < e f f R O.m Y j f , p l - - & 2 ",
"2 r 3 > l p r r > r i l a 6 0 9 0 4 4 9 @ > 2 4 4 3 3 > + o o . + : 9 = j 7.w > @ w p & * 4 m 9 s m s ' ' 2.R ` s ; > > & - * O ",
"> - X > 9 | p 5 d d 5.L u 0 7 9 5 1 2 2 & > 4 4 m ] t > > & 3   @ - < 3 z w j & > p , 4 d d q q 7 e y O.f b s y i 7 o @ O o @ > ",
"> @ @ a | 3 5 - * p L r p p a > 0 r r > 0 Z 2 < y | > 7 : - @ o ; 5 > e e w y 4 @ , 4 d [ ! :.g s e f 7 < 3 4 s g.~ 3 O X o > + ",
"& > 4 | a r i > > D l p k p i M 0 | l p a 4 p > 3 & - 7 3 & @ - > 2 p d d P l > & 6 H [ d.[ j R g s f j n * 4 6 2 b > 2 O @ & > ",
"> 7 > Z ~ D k > p p M %.0 7 0.( M p 0 Z ~ r # > t w 7 9 > > & # > > L l t p | 2 2 u i M P  .f X.s y C z d y 7 - & ~ 9 @ + = - & ",
"> - 1 i p 7 y 9 c.l l 5 ~ 6.5.p k ~ | %.,.p p 4 * - 7 0 w p > @ > > 3 y > p 5 | 0 7.5.,.b z w j d 0 3 6 5 2 > > 9 p i + : > @ & ",
"5 > 2 2 > 2 l D ~ 9 0 l 5.%.5.~ L a.M ,.%.4 3 > 0 3 0 , s.:.w y i r > > l l i r e.c.P ! m 3 5 d 2 i p * > r i - > p 7 d ,.@ @ @ ",
"@ 3 r - & > 2 7 ; 1 l l l P M 9 5 ~ i l p 7 > p 0 r 7 d 7 * , @ > 3 2 > a | 5.| 0.h.M 5.,.p g i Z u 5 7 a d [ i |  .y L %.- > > ",
"2 > > > 4 9 ~ 9 p p Z > M r 3 > r ,.2 i 0 2 > p a 9 w > 4 > 3 - & 2 > > L i 0 p 5.~ %.r M t s > 9 i r 0 9 d y i 4 d d i > 4 > 2 ",
"t y ( d 9 5 6 - 5 4 > i 7.l > i l i & > a r M l r l , + @ t @ @ r 0 # & > > & l C ,.2 0 k p 9 9 r P 9 l 2 > 4 2 5 9 i l r 7 > l ",
"..r 5 | p L 7 d 2 9 J %.| y k M l > > k y M | M r H 4 3 9 # 5 & Z 6 @ & 9 l > 5 k 2 5 0 < %.~ 5 > > & r p @ > r 0 t a 5 > @ 2 ..",
"| 0 - > ; r > y 7 6.M ,.y.l 7 r 5 - - 9 > r i M M > & y 3 > ; > r 9 > 8 - > > r k 0 L r l | 5 7 > - 9 - - > > 9 p ~ r > 5 5 7 t ",
",.y 2 > 5 2 Z p 9 ,.,.,.t L M k 4 L 9 k 4 t %.L p 4 9 9 > > , u 9 > - r 2 & > g.5.%.,.t a t 9 P 7 t > 0.r 0 3 u.5.%.L 3 4 9 L r ",
"9 9 ~ i t ,.| p > r k - 0 4 d 2 > 5 l p D 0 d ~ l * 9 Z 9 w > p 3 0 9 k - 2 9 0.d.L ( k 9 r 4 - 2 0 7 0 l 5 a ~ i L p i l 0.D t ",
"& 4 7 3 k 7 > @ > r a 5 Z l 5 > > a l r 0 5 > i 9 - 5 y.9 7 & l ,.k L 7 7 d ,.| 3 5.5.9 > 9 * * > 2 > d 2 > r u i 0 i u ~ P Z > ",
"4 D k d %.2 > O > > r > 2 - & O o > - i 0 k 2 0 l y.r > @ o > 3 M D 7 4 p 9 k 4 * 2 %.d y t > i y 3 & & - 9 ( | ~ 0 y P | L i u ",
"r 9 t 4 r r 0 < 9 & 1 o & - - + + > < | ,.p 0 ~ k t r * ; 0 5.~ l 5 | T Z 9 > > 7 L 0.0 4 5 7 k t 9 9 t r 0 a ~ %.r - i i 2 %.i ",
"r 9 i 2 7 0 i r > - > @ & 2 @ > & @ 9 M | 9 M i 9 e.d 9 u d.5.L y ,.y.T 4 r a r p h.k.~ P k ( P P r %.p y Z ~ ,.g.0.~ p 5.d.6.%.",
"0.Z a k 7 > M 5 t 2 o o & ; ; r 9 > Z L %.5 r :.M d.l | $.i 7 d 4 k y s t t P r i %.3 r l p - 7 c 2 2 > & 0 %.M a l 2 5 i 9 ~ M ",
"7 M r d - - > 2 d d < 4 & r l l 2 2 > 9 [ @ ; l 5.i i 1 u | u.| %.k y z t k | M 9 & - 7 r > @ 4 k 9 y 2 3 7 u D l ( i y M | d p ",
"> 2 7 7 r 5 0 2 2 d ` z ~ 5.,.( > 1 & i p > l ,.L | i 7 4 i l C %.:.y X.5 l | 0 > - > @ 2 @ > > M l p k 2 > p a ,.5.3 t 5 ~ 2 > ",
"> > 2 t 5.y.k + s 7 7 6.%.u.0.C > p | M | - > D c.~ r r u r 5 3 p y y y k p 2 t - 9 6 2 @ @ & 9 p | 0.l l ~ | ~ L l k - 4 9 9 9 "
};
