/* XPM */
static char *rcp07203900538823[] = {
/* columns rows colors chars-per-pixel */
"64 64 191 2 ",
"   c #1C1C1A",
".  c #201E1E",
"X  c #23221E",
"o  c #2B231A",
"O  c #2C291D",
"+  c #31271F",
"@  c #342D1E",
"#  c #3C2F1D",
"$  c #252524",
"%  c #2A2723",
"&  c #2B2A25",
"*  c #2D2D2C",
"=  c #342721",
"-  c #332B24",
";  c #3A2D25",
":  c #322E2C",
">  c #3A2E29",
",  c #323127",
"<  c #3B3224",
"1  c #34322D",
"2  c #3B332D",
"3  c #3B3A2D",
"4  c #343434",
"5  c #3B3633",
"6  c #3C3A35",
"7  c #3C3C3C",
"8  c #422D1E",
"9  c #43321F",
"0  c #402E25",
"q  c #433027",
"w  c #4E3C26",
"e  c #43342C",
"r  c #49362D",
"t  c #453C2E",
"y  c #4B3A2E",
"u  c #563728",
"i  c #533D2D",
"p  c #5B3D2C",
"a  c #543323",
"s  c #423631",
"d  c #433B35",
"f  c #4B3C34",
"g  c #433E3B",
"h  c #493F39",
"j  c #523E33",
"k  c #5B3F38",
"l  c #633C26",
"z  c #603E2B",
"x  c #633F35",
"c  c #4C432C",
"v  c #55412B",
"b  c #434233",
"n  c #4E4035",
"m  c #44413E",
"M  c #4B423C",
"N  c #4C4A3A",
"B  c #544136",
"V  c #5A4333",
"C  c #564837",
"Z  c #53443B",
"A  c #59463A",
"S  c #55493D",
"D  c #5A493D",
"F  c #6A4029",
"G  c #74462B",
"H  c #7B4A2C",
"J  c #614534",
"K  c #604C32",
"L  c #6B4A36",
"P  c #634B3C",
"I  c #694A3A",
"U  c #714D36",
"Y  c #74413A",
"T  c #655136",
"R  c #6F5333",
"E  c #61503C",
"W  c #6C513D",
"Q  c #7B5F31",
"!  c #74513B",
"~  c #7B523A",
"^  c #444443",
"/  c #4B4642",
"(  c #4C4945",
")  c #4B4B4B",
"_  c #514741",
"`  c #5E4745",
"'  c #544A44",
"]  c #5B4D44",
"[  c #534E4A",
"{  c #594F48",
"}  c #5D5145",
"|  c #5F5947",
" . c #54514E",
".. c #5B524C",
"X. c #505050",
"o. c #515151",
"O. c gray32",
"+. c #535353",
"@. c #525150",
"#. c #555351",
"$. c #565553",
"%. c #545454",
"&. c #575757",
"*. c #535353",
"=. c #595653",
"-. c #5E5653",
";. c #5A5652",
":. c #5A5957",
">. c #5D5854",
",. c #5B5954",
"<. c #575858",
"1. c #585858",
"2. c #5B5B5B",
"3. c #5F5F5F",
"4. c #5E5E5D",
"5. c #5B5B5A",
"6. c #624E43",
"7. c #6F4C42",
"8. c #644F49",
"9. c #724C42",
"0. c #625145",
"q. c #6E5944",
"w. c #63544B",
"e. c #69564B",
"r. c #64584F",
"t. c #65584D",
"y. c #6A5A4D",
"u. c #6A5343",
"i. c #725444",
"p. c #765B41",
"a. c #7A5841",
"s. c #70544E",
"d. c #745B4D",
"f. c #7E5D4F",
"g. c #675754",
"h. c #605751",
"j. c #6F5555",
"k. c #645B53",
"l. c #695D54",
"z. c #645F5B",
"x. c #625E5A",
"c. c #695F5A",
"v. c #7A5753",
"b. c #725953",
"n. c #785954",
"m. c #576359",
"M. c #5B635F",
"N. c #5C6D5B",
"B. c #776042",
"V. c #7E6245",
"C. c #79664D",
"Z. c #7C7447",
"A. c #79784F",
"S. c #616056",
"D. c #6D6155",
"F. c #62615F",
"G. c #64615C",
"H. c #6D6459",
"J. c #746352",
"K. c #7F6653",
"L. c #706856",
"P. c #72655B",
"I. c #73695C",
"U. c #7B6859",
"Y. c #636362",
"T. c #696664",
"R. c #6C6A65",
"E. c #6A6A6A",
"W. c #776761",
"Q. c #7D6360",
"!. c #736C66",
"~. c #706E6C",
"^. c #72716B",
"/. c gray45",
"(. c #7F7B77",
"). c #7E7D7C",
"_. c #8C583F",
"`. c #874B42",
"'. c #875145",
"]. c #895A48",
"[. c #8E5250",
"{. c #846640",
"}. c #85624A",
"|. c #84714E",
" X c #816D5A",
".X c #8A7054",
"XX c #8A7666",
"oX c #8A8464",
"OX c #8B8773",
"+X c #818181",
"@X c gray58",
/* pixels */
"7 7 ^ ( 4 4 ^ 7 ) [ M B f f m / [  .) ( %.3.( 3.F.R.#.( 4 4 : d 5 m ' / [ o.) 7 ^ 4 ^ ) ( ^ 6 ) ( ( 7 ^ 7 ^ * 4 %.6 6 <.) X.o.^ ",
") ) ) ( ) ( 6 ) ) ( m M f B ' { / ^ / ) * 6 F.&.T.=. X) * 4 5 f 2 M S ] M ) ( 7 ( ) ) 7 ^ ) ( ) %.X.g.) 7 2.( ) ) m ^ ^ 1.1.F.) ",
"( ) ^ ^ ^ 7 ) ) ) 7 ( m M A Z D ] M / $.^ >.4 1 T.d ..4 7 ^ ' A A D B ' ' ) ^ 7 ^ ^ 4 4 6 ) %.o.) 7 6 ` 7 j.>.) } _ 6 ) 1.Y. XL.",
"( ) ^ ) ) ^ ) ( ^ : ^ m D A D D Z M 1  .4 M Z < | M s [ ) o.h V B ] } } [ ) ) 6 7 6 4 7 ^ ) ) ) ^ m 7 ) 6 ) `.6 7 X.) 3.R.x.3.3.",
") ( o.%.o.) ) ^ 7 7 d _ B B P 0...=.#.) / < c < O y C [ o.) ] P B ' x.,.,.o.o.) 4 g g 7 ^ 7 6 ^ ) ) 4 ( e.{ 7 6 ( -.#.( %.( 7 ( ",
"o.o.%.%.) ) ) ) ) ( m _ ] A C S ( [ ( 7 1 & & & 1 6 M ( o.^ _ f / o.3.<.) ) 6 4 $.( g m 4 4 4 4 ) ^ 4 * 7 '.X.6 ) ) ].n.^ ( ( o.",
"^ ) 7 ^ ) %.) ) ) ) m g ' Z d 2 4 4 6 4 4 4 6 6 7 / ^ ) o.o./ g #.<.o.) o.1.^ 6 -.k.{ 5 * $ 7 6 7 * m ) 6 * 6 %.X.^ 4 o.* 6 X.) ",
"^ ) ) ( ) o.o.) ) ^ 7 m m ( ( ( ^ ( o.( ( [ ) ^ 7 ^ 7 ) ) Y.) 4 o.o.( ( ( ^ +.^  .k.w.} 7 ( ) 7 ^ ( ) 7 7 ) ) |.d d ( B.7 4 X.) ",
"^ ^ ) ^ ) 6 ^ ( o.( 4 ^ ) %.2.%.1.+.E.o.o.o.o.) 4 ^ 7 6 o.%.=.4 ) %.^ ( ) ^ ) Y.-.D.H.' 5 7 ^ ^ ^ ) ) ( 1.>.( M e D t d m ^ ) ) ",
"6 ^ ^ ( [ 7 7 ) ) 7 4 4 ^ ) ) 1.) ) o.( ^ ) ^ 7 6 6 ^ ^ F.<.,.) Y.o.^ ^ ( ) * %.h.] 0.m 4 7 m ^ m 7 6 ( ) 7 / e i r < - 5 m  .7 ",
"( ^ 6 ^ 7 ^ ( ) ) 4 * 4 7 ^ ^ | 6 7 ) 7 7 ( 7 ^ 6 7 6 X.) 1.Y.( 1.) ) ( ( ^ ) %.' M h d 6 7 6 4 6 4 4 ) ^ 2 n 9 w ; - 1 * 1 7 ^ ",
"( 7 ) ( 7 o.o.m ) 4 4 6 7 7 m 4 4 4 6 * 4 7 6 & 6 6 1.Y.1.( ^ ( ) %.%.( ( ( ^ m Z B f d 7 7 4 4 4 4 7 7 d 2 + o o : m ) 4 ( ) ^ ",
"^ X.( 6 6 ) A.) ) ) ^ ( ^ ) ^ m 4 ^ ^ 7 7 6 4 6 4 6 6 ) x.( ( <.%.o.) ( ( ) m { 6.B s g 7 7 ^ m d f d M 2 & = - > 6 ^ 7 7 ( o.o.",
"^ .. .4 ^ ) %.^ $.) o.( ^ ) ^ 7 o.1.7 5 g 5 4 / ^ E.( %.( o.X./ ( x.7 ( ) ^ / l.Z ] M m ( 6 ^ M B v v c - : - d / m 7 ( ^ ) >.%.",
"0.M 6 / o.) ) $.( 4 ( 7 ( ( 4 3.E.%.( / 2 e m 7 7 6 ( o.4 %.) / g / g o.) ) [ ] r.t.{ ) o.( M y w # @ - 4 4 m m g ( ( ) o.d.^ g ",
"e f M [ ) ) ) ) & $ 6 C.Z.7 * S.%.OXm ..Z q ; 5 7 7 ) 3.) <. ...M / #.o.) E.%.>.k.x.#.) d 0.B < - ; e 6 ^ ^ 7 ^ 7 ) o.) X.^ g g ",
"q A _ 6 4 4 4 ^ * 4 4 4 4 * 6 7 & 6 & = = 0 r m / ( ) x.^ ) / G...{ o.) ) 1.%.Y.<.3.E./ Z B B f d ' [ ) ( 7 6 6 4 7 ) ^ ] g W s ",
"j Z ' 1 6 ( 6 ^ ) o.4 ^ / g .. ./ m _ s s B M  .T.o.^.,.X.( 5.Y.( / ) %.%.Y.%.) ) /.^ d ] B B Z (  .o.^ ^ ^ ^ ) ) ( ) 4 : g m s ",
"d ' .._ 4 7 6 ( 1.D.6 / K.5 ..G.M ' g > g m Y.F.Y.1.( ) ) R.%.o.) ( ) o.3.Y.o.3.1.^ ).m e Z ' m [ ) ) ) ^ ) o.%.) &.$.) g / / d ",
"2 / 4 6 6 4 * ) ) 1.7 z.h M ' >...' 2 d ) o.3.( &.l.C.1.%.3.^ ) ) ) o.X.) ( 1.3.~.(.d 5 d  .) 7 ) ( ) 7 4 4 4 * 4 4 g M / M / / ",
"5 5 6 * 6 7 7 4  .g -.r.{ D.[ ( 7 5 6 4 7 ( oX( & ( 7 7 %.M ( o.%.^ ) ) ) 1.Y.x.d s f -. .g %.( 7 %.) 4 4 6 4   $ $ & d M ' } d ",
"/ ^ 4 4 6 o.) * g { h.r.h.k.1 %.) 4 7 ( 7 4 4 4 6 ) ( o.E ( %.3.3.^ o.( ( ) Y.>._ w.A } x.) 6 E.6 ) ( ^ ( ) 7 6 d d g m ' B ..m ",
"( ) ^ ^ ) ( Y.$ Z } ] { M 2 6 o.%.( 7 7 ( m ^ [ ) 3.X.) 7 ) ) 4 $ 7 ( ^ ^ ) ) x.P.j e.H.7 ( 6 7 ^ ) o.) ( g g m M Z ' } d...w.0.",
"^ o.%.o.) o.^ 5 ' { } m ) ) ) 1.) ) ) 6 ^ 6 ( 6 %.) ^ o.) ) ( 7 $.6 ) ) ( ) ) * y.j u.k.[ Y.7 ( ) ) ^ .X1 ^ 5 ] q A ' { t.^ 7 ( ",
") %.x.o.) 7 5 s o - h.^ ) ) ) ^ 4 4 ( 4 6 ^ ( 1.Y.o.7 $.,.) E.( o.) %.( o.,.m 2 y i J.' +X) 7 ^ ^ ) 7 / g  .{ r V V 5 o.) ( 7 ^ ",
"+.o.%.1.%.) { > f ' ' m ( %.4 ^ 6 * * m 6 ) E.E.o.3.%.=.6 ( %.( 3.o.1.%.^ T.M f P XXy M E.^ m ( ) 1.3.-.} ' ' A P ] m $.^ ( ( ) ",
"1.%.%.3.^ ) !...P.Z { ..,.o.^ * J.4 ) m M m ;. .G.E.Y.!.' J.( %.+.( ) ) 4 : e B P J.2 / E.4 ) ) ( o.) ] 0.Z M d 2 & 3 N b ^ ) o.",
"%.%.%.%.%.1.g M D A ] g g * ^ * 4 7  .( 6 , 3 b b S.7 B f ' 1.Y.+.) S.4 4 g d j A ] m ^ ( 6 7 ) 1.) 6 Z D Z m ) 4 4 * q 3 m ) %.",
"o.o.<.1.) ^ %.D.w.w.0._ ) ( ^ ) ) o.( 7 5 & * 4 1 4 N i V S $.T.o.( ( 6 7 [ ' M k.( 6 m ) ( 6 ) o.) / y f _ ) o.o.^ ( ^ 7 m )  .",
")  .} ( 6 ^ o.M 0.0.0. .) ) ( e.7 X.7 ) ) ) ) ( ) ^ u 8 8 M ,.) 4 4 ^ )  .] ' ^ ^ 7 7 7 6 7 ( o.%.) / B ]  .1.1.( ) 7 7 ) ) ) o.",
"^ ) ^ ) 6 5 ' Z A ] } [ o.o.o.d.^ ) ^ ^ #.i.4 6 t.^ e z p ' %.x.) ) ( ' w.] M / ( ^ ^ ^ ^ ( ) ) Y.4 5 Z  .1.) o.Y.* ^ %.) X.6 } ",
"' ) +.* o.5 ' Z f Z ' #.) ( ^ ^ ) ^ ( ^ 4 4 6 ^ ^ I j l p z.) ^ ^ g m ] ] D f ( ( ) ) ) ) ) ) ) ^ * g g 7 ^ o.7 6 & 4 ( I 4 6 ( ",
" .D ^ 6 6 #...- ; B ' ) ) ^ 7 ) 6 7 ( ^ 6 7  .( ) ~ V F P $.) ) ^ ) / ..] 6.Z [ ) ) ) ( ^ %.o.( 7 7 ( 4 ) 4 * ^ ) ,.& / I ( ) ) ",
"^ 7 1.<.& ) [ 2 g d 7 m M 6 * & 6 4 4 ^ ^ ^ 7 ) 4 D p l ] o.( ( ( o. . .} ] ' ' ) ) ) ^ ^ ^ ) ( ) ) 4 6 m Z 6 ^ ) 4 ^ ( o.( o.^ ",
"( 4 /.%.* 7 4 g 1 5 m * ,   X 5 6 ^ ( ^ ) 4 4 4 m 0.p p M ( ) ) %.<.W.1. .' ' / / ) 7 ( ) ) ) ( ^ 4 7 g M ' _ g 6 7 m ) %.^ %.o.",
") $ & $ 6 ( 4 ^ g g ^ 6 * $ $ 4 7 ) m 7 4 4 6 ^ $.6.J A ( X.) ) ) ( [.1. ...../ / ) 7 ( ( j.) ) ) ) 2.( ] ] ' m * ) 6 ) o.) 1.o.",
"7 4 4 6 7 4 6 m 7 ) ( ( ^ 4 4 ^ ) 7 4 7 4 7 ( ^  .e.P Z ) ) ) ) ) ) o.^ ) Q.=.[ ) ( ( ( ( 6 7 7 3.^ ( o.l.' ..^ 4 * 7 ) ) o.%.) ",
") ^ 6 ( o.( +.^ 7 ) ) ) ^ 7 ^ ) %.7 7 4 ^ ( ) +.x.t.{  .) ) ) ) ) ) o.Y.o.1.v.o.%.^ ) ) ( ( ( ( 7 ) 1.1.$.#.m D x 7 ) ( ) o.>.%.",
"[ 6 ( ) ) ) ( 7 ^ o.( ) 6 g [ ) %.( 7 7 ) +.3.<.5.x.,.o.[ ( ) ) ) ^ ) 3.b.o.^ ) 3.7 ) ) / m ( ) ) %.3.3.( ^ 7 6 4 6 ^ ) ) e.o.1.",
"[ [ [ ^ ^ ( ^ 7 ^ ) ) 6 M M ) ) ) m 7 ) %.%.%.1.o. . .[ ' ' ( ( ^ ( ) %...7 ) ) ( 7 ^ / 5 6 ( }  .1.x.) ( ^ ( m 7 ^ ) ) ( ^ ( ( ",
"{ z.[ ( 7 ^ ( ) 7 ( ^ _ r D ' %.^ 4 6 ) ( ) ) ) o.%.[ D A B d m 7 m X.) ^ 6 & 4 o.o.) ^ 7 6 ( ( ) o.) ^ ( ) g m 7 7 ( ) 7 ^ o.' ",
"k.' / X.6 ( 6 7 4 7 4 e a P M ) 7 7 6 8.^ ( ) o.o.[ Z P P ] _ #.) ) ) ( m 7 4 m o.) ) ) ) 6 ^ ( ) ( 7 ^ ^ ' d s g 7 6 7 m m #...",
"' B S ..) ) ^ 7 4 7 g V G L Z ( ( Y 6 4 ( ..( ^ r.' A P P ] ( ( ( ( ( g ^ ^ m ( ^ 6 N ^ 6 4 4 7 7 m 6 4 / > f A B g 7 ^ m g /  .",
"' ] 0.' : 4 ) ^ ( 7 / L H ! ' 7 6 ( 6 6 ( m ^ ) ^ _ w.0.6.{ [ ^ ^ ( ^ ^ ^ 7 ( 6 , O @ % * 6 6 6 1 5 5 6 6 f e.d.B { g / g 4 4 / ",
"' B ] 2 g 7 7 ^ ) ^ ( L H u.) ^ ( m 7 7 6 ( w.7.^ / r.0.} w.{ ) ( 4 m ( ) 4 m N % % m 2 2 g m 5 4 * , 3 6 ' y.U.j f f M d g ^ [ ",
"( M d g 7 ^ ^ ( 7 7 / L U s ^ 2.%...] * 7 0.6 ^ ^ / 7.' ( ^ ( ^ 7 4 ^ q.( 6 7 6 = e > 2 ; 5 5 : & .   $ 6 2.( ' q B V B }  .) ( ",
"( ^ 7 ( 7 ) ) ) ( 7 M B j 6 m f.}.) 6 6 4 4 6 7 ) ( ' M 4 A 4 M 4 6 ( 6 6 6 5 f e Z B h h d 2 1 : % $ 4 /  .2.g M A D ] ' m ^ ) ",
"^ ( 7 4 ) o.1.6 4 7 M n d 6 3 b 6 m ^ ^ 6 6 ( ^ A 3 , , , 7 7 7 7 ^ ( ) o.* g q B e.} g g h m g d 6 5 g 5 g 4 6 m Z { S M g 7 ^ ",
"( ^ 6 ^ X.) * 4 ^ m N t & & & & * , d m ^ 6 6 4 * $ & : 6 ^ ( ( ^ 7 =.X.( ) m M D Z N.g g / ( M d 6 m m M m ) ) ( ) ( / m ( ( ( ",
"( ^ 6 ^ ) 6 ^ o.m 5 & & $ * 7 6 7 4 & 3 b / 6 6 4 4 A ) X.o.o.) ) ) 1.) ) o.[ M ' / ) ( /  .{ { / / ' h M =.2.o.) ) ) ) ' ] { _ ",
"M ( 7 ( 7 4 4 6 4 4 6 6 4 6 6 ^ ( o./ 4 3 K b 1 6 7 ) o.;...8.( ) M.%.7 7 4 5 / { / ) ) g { ' / ) / / ' ' { ) 1.^ ^ ) [ M 6.D Z ",
"( ) ( m 5 * & & 1 6 ^ ^ ( 7 ^ ) ) ) %.( 7 4 4 6 ) %.%.;.^ ) ^ I k %. .( o.4 [ ) / / o.m B S ../ ( ) ( M ' [ ( ^ 4 4 4 g f j 6.{ ",
") $./ 6 * & $ $ 6 ) ) ( ) ) ) ( o.1.x.%.%.) ) ) 1.1.c.e...( 6 6 7 6 M m.1.) ) =. .^ / s n w.Z ( ) )  .{ ..{ / #.7 ^ 4 4 2 e B f ",
"%.( ^ 4 $ $ * 4 ^ ^ ) ) o.X.) ^ 1.%.1.1.<.3.%.) 3.%.1...6 ( 6 6 [ ) m ( m ^ o.) ) ) / M M D Z ) ( ( [ ^ / _ '  .^ ^ 6 4 2 d '  .",
"/ m 4 * * 4 4 ^ 7 ^ ( %.) ) ) %.o.) ) %.3.E.H.o.3.2.1.e.( 7 ) ( 7 ( o.) E.6 ) ) ) o.) m B A ' [ ) ) ) ^ g Z d [ ) 7 7 7 ^ 6 g ^ ",
"M 5 ^ 4 4 4 4 ( ^ ^ ( 1.) o.%.3.) ^ ) ) %.%.,.) ) %.%.i.( ) ^ ^ [ / 4 ( ^ 4 ( ) ) [ ( ^ M ] ] ( ) ) ) ) g ' } =.) 4 g g ( ^ ( M ",
"- : 4 4 4 7 ) 7 ^ ^ 4 ^ 7 o.o.%.%.( ( o.) ) ( 7 ( m m ^ ^ ( ) +.^ ^ 6 9.p.4 7 ( ( ^ 7 o.] w.] ( ( ) ) m ) ..-.=.&.} a.[ / ' } s ",
"5 V $ 7 ^ ) ) ^ ^ 7 7 m 7 o.) ) ) ) ( 7 ( ( ( ^ ^ ^ 7 ) 1.%.3.#.^ ( ( ) $ $ 4 1.X.^ m [ ' } .. .) ) ( 6 %.%.' ' ' A d ' z...0.s ",
"Q & 4 ( ( ) ) ^ ) ) ( ( ^ o.) o.V.4 4 ^ m ^ ) ( ( ^ ^ ) o.) ) %.7 ^ [ * 4 4 ) ( 7 ) 6 / ] w.{  .^ ^ ^ m ( m ' ] B R D ..I.w.Z T ",
"y.7 7 7 ( ( ^ ^ 6 7 o.$.( ( ( ( 7 6 7 ( ( ^ ) ( 7 ^ ( ^ o.o.) 7 7 ( ) m 6 7 6 ) 4 6 g M ] w.{ ) %.( 7 ) %.) / M B y 0.G.l.Z h g ",
"4 6 ^ ^ 7 ( ) 7 4 7 ( _.Z M s [ ^ ^ ^ ^ ^ ) ) ( ( ) ) ) 3.o.) ) w.^ 7 ^ 7 o.^ 7 7 6 7 M _ ..' ) 1.( 6 7 7 ) ( m g f } h...' h g ",
"7 ) ) ) ^ ^ 4 7 * 4 ^ {.f Z d g ( ^ 7 ^ ( ^ o.) ( ( ) o.5.<.7 ( 4 4 o.& g ) 4 ( 4 7 ^ =.( m / ) 2.E.( ^ ^ ^ ) ^ m Z 0...=.x.m 7 ",
"^ ^ 4 ^ ^ * ^ ( ) ) _ f j A / [ ) ( ^ ( o.o.) 3.^ ) ) +.) ^ } 5 4 X g * 7 ( ) ( 7 6 ( #.( ( o.( X./.) ) 1.( 6 ) ^ d ] ,.) ) ) ( ",
"4 4 6 6 ^ * 6 ( ^ 7 M f B A { )  .) ( ) ^ ) 1.) o.2.#.) ^ 4 * 1 5 * : ( ( 7 ) ^ 4 ( ) ) 4 o.( 7 +.@Xm ( %.4 7 6 o.2 g 5.H.( ^ ) "
};
