/* XPM */
static char *rcp07203497324181[] = {
/* columns rows colors chars-per-pixel */
"64 64 203 2 ",
"   c #020204",
".  c #0C0C0C",
"X  c #06060A",
"o  c #0F100D",
"O  c #10100E",
"+  c #0E0E12",
"@  c #08081F",
"#  c #141414",
"$  c #16161A",
"%  c #1C1C1D",
"&  c #181A16",
"*  c #211E1E",
"=  c #23231F",
"-  c #100F25",
";  c #1C1C23",
":  c #1C1C2A",
">  c #201F22",
",  c #1E2021",
"<  c #232324",
"1  c #282924",
"2  c #25252A",
"3  c #26282B",
"4  c #2B2B2C",
"5  c #272929",
"6  c #2F312B",
"7  c #33332F",
"8  c #303026",
"9  c #252433",
"0  c #2D2C32",
"q  c #2D2D3A",
"w  c #262637",
"e  c #302F34",
"r  c #302F38",
"t  c #2E3134",
"y  c #2F353B",
"u  c #333334",
"i  c #373837",
"p  c #3A3A36",
"a  c #35353B",
"s  c #38373C",
"d  c #36393C",
"f  c #3B3B3C",
"g  c #342C27",
"h  c #3F413E",
"j  c #3C4133",
"k  c #42433E",
"l  c #664B3E",
"z  c #353443",
"x  c #383742",
"c  c #363A42",
"v  c #3D3D42",
"b  c #3D3C4A",
"n  c #403F43",
"m  c #403F4B",
"M  c #3E4043",
"N  c #3C444B",
"B  c #3B4451",
"V  c #434344",
"C  c #464846",
"Z  c #494946",
"A  c #45454A",
"S  c #48474B",
"D  c #45494B",
"F  c #4B4B4C",
"G  c #504F4D",
"H  c #4E504C",
"J  c #51524D",
"K  c #57584F",
"L  c #454551",
"P  c #484751",
"I  c #464B52",
"U  c #4D4D53",
"Y  c #4C4D59",
"T  c #504F54",
"R  c #504F58",
"E  c #4D5153",
"W  c #46525C",
"Q  c #4E525B",
"!  c #4D5959",
"~  c #535354",
"^  c #555957",
"/  c #595956",
"(  c #54555A",
")  c #58575B",
"_  c #55595B",
"`  c #5B5B5C",
"'  c #6D5144",
"]  c #5F615D",
"[  c #62625E",
"{  c #616154",
"}  c #4C5761",
"|  c #565662",
" . c #545B62",
".. c #5C5D62",
"X. c #5C5D6A",
"o. c #555568",
"O. c #5D5F73",
"+. c #605F63",
"@. c #605E69",
"#. c #5E6164",
"$. c #5C636A",
"%. c #5C6572",
"&. c #5E6871",
"*. c #536172",
"=. c #636364",
"-. c #656964",
";. c #696A64",
":. c #64656A",
">. c #68676C",
",. c #66696C",
"<. c #6B6B6C",
"1. c #6A6762",
"2. c #706F6E",
"3. c #6E716F",
"4. c #73756D",
"5. c #787B6F",
"6. c #636571",
"7. c #656A72",
"8. c #6C6D72",
"9. c #6C6E7A",
"0. c #656A77",
"q. c #706F73",
"w. c #706F7F",
"e. c #677174",
"r. c #6E7173",
"t. c #6D737A",
"y. c #67787B",
"u. c #727374",
"i. c #737975",
"p. c #797976",
"a. c #75757A",
"s. c #79777D",
"d. c #757A7C",
"f. c #79797A",
"g. c #7A7B7C",
"h. c #787777",
"j. c #7C817D",
"k. c #82837E",
"l. c #5F7080",
"z. c #6A6B83",
"x. c #647782",
"c. c #6F7781",
"v. c #6C7981",
"b. c #6D7E8D",
"n. c #747682",
"m. c #757B82",
"M. c #7C7D82",
"N. c #7C7F89",
"B. c #747E8C",
"V. c #807F81",
"C. c #7D8284",
"Z. c #7E828A",
"A. c #7F8888",
"S. c #6B8290",
"D. c #7E8493",
"F. c #788A95",
"G. c #828385",
"H. c #838884",
"J. c #8B8C86",
"K. c #868689",
"L. c #83858A",
"P. c #868B8D",
"I. c #8B8B8D",
"U. c #88878C",
"Y. c #908F8F",
"T. c #8A918C",
"R. c #838593",
"E. c #868B93",
"W. c #8C8D92",
"Q. c #868D9A",
"!. c #918F93",
"~. c #8E9394",
"^. c #8D9299",
"/. c #86959E",
"(. c #929394",
"). c #939997",
"_. c #9A9B95",
"`. c #94959A",
"'. c #949A9C",
"]. c #9A9B9C",
"[. c #98979B",
"{. c #94948A",
"}. c #8E9AA2",
"|. c #949BA2",
" X c #9C9EA4",
".X c #9093A1",
"XX c #869FB4",
"oX c #9CA3A5",
"OX c #97A0A8",
"+X c #9AA8B3",
"@X c #A1A2A6",
"#X c #A3A4A9",
"$X c #A6A9A7",
"%X c #A9ADB3",
"&X c #A3ABB1",
"*X c #ADB1B2",
"=X c #ACB2B9",
"-X c #A4B0B3",
";X c #B1B3B5",
":X c #B6BABE",
">X c #B7B6B8",
",X c #B6BBC0",
"<X c #B8C1C4",
/* pixels */
"<.4 <.V A 3 <.=.<.<.~ U u.s |.` a.<...^.8.e.y ( < ( '.L.N t Q >. Xi =.` u.=.[ ` [ Z J F V / / u <.+.f.K.V g.~ ..u 4 v ~ = F F F ",
"U f ~ v U ) ..V :.G.s 8.u.<.8.f g.v `.m.} t 3 4 d I ].A N %.} Y A U :.U :.` V 4 / Z f Z u <.f f.f.g.` :.U.u.A u.v ) V # ~ F V % ",
":.f F V q U v =.:.g.n M.` Y ..~ u.<X>.0 ~ d ~ v  .A f.A | | m.R.V :.u.=.f.u.~ F f ~ 4 u 4 / g.` (.<.K.8.~ ` F ( V s 0 % =.3 u 4 ",
"s f v 0 Y ..~ =.V :.V =.u <.W.U K.( t 7.K.V % V W ..q ( a.6.N.( ` ~ / <.<.f.<.< F =.4 f +.<.:.<.( ` u.v s :.A Y A Y A :.u f F f ",
"a V ` T v ` ~ ~ F q.<.....u.:.u S.c c t.8.A V u  .,...P o.:.=X:.=.M.~ ).F Y.<.4 F V F ` A M.~ g.s <.I.~ V q.s ) ..F F =.a V ~ a ",
"U V ` ..s <.F =.V g.3 F (.:...a.I 2 ..d c  .v ; U Y L 0.U a.V ~ u.u.V G.=.s :.V =.V f / :.`.) +.U f./ <.F v x Y Y :.,.~ v F f F ",
"<.U ` :.V u.F F ( ~ ~ ~ =.=.3 V =.d 2 M V u A q :.A U.}.( E <.:.g./ <.4.f ~ <.<.Z < g.l u.8.P ..s...V <.V ( 3 F ` ` ` ( 0 V =.~ ",
":.` :.:.V <.=.F F / f V V M.0 F V 0 ..v f F ..v c.=.:.=.G./ u.f./ =.` / ~ F ~ f ~ / U.` A <...P f.a =.~ G.v ; +.V u.f ` < ~ =.u.",
":.U ..u.4 ~ u u ` i J V u g...2 F v d 2 u u E 3 e.4.<.] F F ~ ` ` g.f u.( V F Z V./ I.` F ( u.0 ..` <.~ K.V u u < ~ u u.% ~ g.8.",
"A <.~ :.< F 0 =.~ u ~ :.u :.(.3 ~ E % 4 ; d  .Z ~ p.~ 6 u V u.f u.V V ~ V f =.u.<.V G.F u.f :.U f.=.T ( >.f.u ~ Z -.4 ` # <.n ( ",
"F =.[ / u < 4 u.F f <.V <.4 -.. u u % 4 % f D #.4 8.4   =.F f u <.< / ~ / A ~ u.A ~ h.=.<.V ` I.~ V <.A V f.< ~ f.% F ~ u V v U ",
"s / F < ` . n A 3 u ..M (.  I.F f I $ # . f 4 ! 4 A a v :.~ 4 / v a S <...s $ K.A <.G.` ~ u.u u.:.0 U   v ..~ F ` s G.u f ~ / ~ ",
"F ` f V u # ~ F :.s A 8.I ..f < u # 4 < < 1 & _ f U < =.X :.A ( # f v ..F a ( 8.Y <.g.l A <.e =.A 3 V F 3 A s U F ` V 0 / ` F s ",
"u.u u ` 4 4 ( A 8.A t.W.F u.t . s < A t.f O -.& v f F 7 4 oXu =.. ~ 4 u.0 A x ) x A ` ' U V A ` < ..8.a % V s ; 3 ~ v V u.V V ~ ",
"f F 4 ~ < f F G.g.E (.F j.#.u < V L.U G j.j i.u ,.s F :.<.M.> F F < u f F V % U ( U V <.u 0 M.u ~ ( U A ..3 :.# / =.< F f V F V ",
"f :.< u f V `.<.-X~ <.u.V Z 4 F ~.+X~ V [ 4.V p :.V V F :.F :.F V % ~ V F u ` a ..u u / a U n F ~ U N.8.U a V V v < =./ / V V 4 ",
"F A V s 4 8.s.f.` k 3.4 g.E N }.8.XX9.W.k.J.H P.u.^.E u.m..._ ` u F f V f U u.s F % F ` u :.U S :.f.M...M.A U ( F < ~ ` 3 A u V ",
"V =.( :.` a.V g.(.~.t V 3.~ F #.,.8.Q.B -.T.u C.$XV u.~ :X,.( _.f =.f V A Y K.u ` < F ( s u.:.:.u.g.f...f.,.U ( u.V :.M.; A / =.",
"3 u.M.3 ( ,.:.=.E <.u r.G.8...Z.( N.( ..( d.d g.G.7 f.r.#X~ G.F F <.0 U S Y <.< / 4 =.e ..=.8.u.8...G.~ ~ 8.v I.( ~ M.e ; <.` M.",
"v f.g.2 :.:.n.@.f.` >.E F f M.X.t. XI ,.` $.. ` ` ` P.<.#.) F f ( u.s Y >.=.:.=.~ V ~ ~ +.<.M.s ) u.<.+.:.Y L.8.m...M.0 F I.e f.",
"F U V M.s f.U d.( =.F F U u.`. .L.`.d <.u f E u.< f :...oX( A u A A 8.A g.:.u.V 3 :.f V u.u.-.n ..F m.`.( ..X.|.X.#X<.0 ( f.F ) ",
"V G.u U.s !.d.C.~.A s :.~ &XC.m.8.A F =.u V ~ < f C...F m.<.< ~ a f.v 8.,.`.v :.& f [ J J f G.a 0 ..f.:.Y E.9.^.Y W.( ` ~ ~ u.( ",
"( S 3 8.<.<.G.G.:.N 4 ` :.I.$.:. XU.V 5 4 f g.f f ( ; :.9.8.u a.U ~ s ....f.v ~ + ~ <.k f f +...L.I D.x ~ ^.w a.x L.f.=.F v :.( ",
"s T ~ S <.=.(.i.G.=.V L.u.` :.f.f.F 4 f F C f F f % 0 u.a.( 8...F ~ F F ` g.F g.. / < H <.f.% 3 ) 9.z Y 9.$.U |.9.9.=XA W.=.e K.",
"V v A ` g. XZ...G.d.:.e.u._ r.:.].u ( 6 :.F f ,.V / ~ t.9.=.L.V #.=.f ~ s.~ <.f / < V f G.F P x N.x z X.m.c t.V E.L.| 8.f.( ) u.",
"S :.U u.G.L.`.I OXI _ f d.u.2 :.` 3 ~ < i.. ` M F F v l.n...:.a r.` i 4.~ ` u.4 F < / ~ i A X.N s a z 3 _ I Y U E.m.9.) ..m.<.[.",
"U ....8.%X>.m.7.b.v  .E.d.0 c 8.u.u A < 4 E u -.V v M.*.8.Y d.'.<.k :.4.F I.4 a Y / <.~ 2 ) 8.a Q Y 3 | E <.A N.P.t.^.U.L.M.:.`.",
"<.W.F ( E.) E.N.v...u.:.~ 3 _ >.'.. A % :.% F u.F =.u.F ( :.G.u.~ F ` F ~ u # ` U ~ 3 4 F v L.) | N.^.8.A.:...:.~ I.~.C.(.G.U.I.",
"U g.U +.u.G.>.N.W.2 g.< 4 *X# oX.., f F 4 u -.g.G.~ U $.:.E.s P.V <.~ ~ < F ..2 f.  / 2 F ,.( T 8.K.A C.8.~ g.r.f.f.<.i.-Xa.f.f.",
"U u ` ..~ u.~ ( E 0 A f u 8.q d.Z.( # ..  ~ 3.G.2.=.-.c.OXt V u.F =.F 4 V F f ; ` < :.0 =.8.Y >...q.f.>.D <.=.~ (.` ~ F g...V ..",
"=.u.` <.~ u.~ t :.u :.< s 9.a.R.Y U r.~ V ..=.F < #.|.u ( V <.f v =.( # ~ # u s 8.V u :.( >...s.8.` ..:.( A <.g.f.K.i.~ U ,.d v ",
"F F A W.Z J.& V d.3 s U U :.o.| v 8.( < T % C <.. d.a =.A ` :.F g...V / =.F ~ U q.u.u =.g.U U u.V a 7.Y Y 0 :.f.` F / a s F ..t ",
"f Y F u.~ u.f ..A 0 V 4 % Q $.0 U ..<.< A $ L.< f <.u M a f.F <.( U g.>.V ( ~ u.8.g.` ` =.v ( T s Y Y Y n.%.+.a.> C v < C 0 E a ",
"a.A t...u./ u f V e ` W.A I Q V x.; Q < ( ..f V d d.F M M ( q.=.~ U u.s 4 =.u.u.V 1.` V ~ F <.U F A A A X.:.>.0 ..d.W a E d v d ",
"u Y :.U >.#.V A f =.A f $.( A M.N c.Y $.R.L.o -.2 * ; 4 U s L.U 8.x F e V F (.f.V 1.] ~ 4 v :.F V ~ A a v <.) .._ C ~ ..S 8.< D ",
"3 _ 4 V ~ ( f V s _ 4 F 8.a.t.#Xs I x ( I  .# D u % U v 4 f d ( M.v F ~ ~ v :.p.u.F f ~ 4 <.G v :.( ( a s Y x ` f ~ G.a f A V < ",
"x.t 3 ~ u U a _ A A F _ F F 7.d.x Y ,.( c G.4 u N ..t , v 4 ` A <.u v :.3 ~ F <.u.% / f / ` f V U s u u V s U F v f F M f f V a ",
"/.X U M D U #.s ( F F 4 F ..) Q ( F :.D #.f f ..$.U v u s =.a n ~ ~ <.A ..d ` J V <.v Z f.k ` u ( $ v s V ( v ( u ~ F v ( g.< f ",
" ., &.< :...D v :.-.p Z V ~ V m.) :.F u ( V ~ v :.:.F a A ..u K.U (.V :.<.5 [ F ~ x a >.<.u =.u ..0 T 2 ` T s :.a A f ` <.G.+ A ",
"I D V a ..2 >.u.Z J.{ ;.u 8.v =.( 8.% u A =.( a..XQ Y 8.r.].f.:.A G.2 =.=.f F V V a ( ~ :.2.<.u F 0 +.~ >.s ..( ..( ~ G.M.~ `.0 ",
",._ ..; ( t $X4.;.;.8 J J k v 8.~ ( u M.P...6.0 z n.E $XH ;XK.w.Y V q a ( f u f +.v a ( f.F ` 4 ` ....~ A ....( ..( :.` s.U `.~ ",
"].u E =.,.-.)._.J Z F f k V ~ ` ~ ` ` f F ~ 6.2 |.v ~ ;XM *X0.z.9 ( 2 x n A ( v =.; a +.<.( =.~ / T ( ~ :...:.F U 8.u.=.I...K.r.",
"].j.u._ #.4 ` 8.V F V & ~ V 4 4 A A < u V -._ v s ; f.~ 3 ,Xw  X@ ~ V a F ( f f V 2 ..g.F / u =.A M.A ..( F u.A ..f.=.=.I.u.,. X",
"u.<.=.%X. f ~ d.u F <.i g.u a f A a 3 V / ~ u.#.a N P.~ ( |.- R.: 8.2 A A A V 4 =.$ u.V =.J ~ V ~ ..Y f ~ F U ` <.U [ :.F a.Y @X",
"g.I.<.#.< ~ ..E =.-./ K <.U v _ A 2 F :.#.s 8.D oX4 ].~ U 6.z z a.z A x F ` ~ s v A / ~ / / f V s V T f Z =.<.F <.F :.:.F d.) ,.",
"<.r.#.~ F k i <.-.=.V -.Z F % -.F ~ i.i.i.) | ..^ Z / ;XA L.  ,.q U A F :.F u.A ....../ V F 4 u F 0 a ` ~ ~ V.f :.u.[ / f._ ..=.",
"8.:.v u ).-.6 =.-.F Z =.f F ~ F g 1.4._.F ~ U f 3.F u.I.@.P ,.9 ,.P a.A g.Y ( Y >.U ) V V V u ( & V v 8.~ F s.u.u.I./ g.~ G...<.",
"&Xf u C.V ^ D =.k i 4 f ` f.D g.k.F [ [ > u 8.A f.8.K.A u.0 m x 8.2 q.v =.T G.V u.U U ~ F 4 F V 4 T F <.(.F g.~ :.g.~ u.V E...>.",
"A U =.8.4 _ 1 =.<.u u m.#.>.u V (.~ J.F 4 I L.U ` n 8.x a.P K.m ..U (.e ` Y ..q s.0 b <.F ` V 4 Z ;.` <.:.u.J.~ u.g.>./ f.d.C.oX",
"E _ 8.( < f ` <.M _ + _ 4 L.A y g.u h & u v.F P.:.) ..a f./ ) V ` =.T 3 ) 8.`.@.) ) 3 ( ~ ~ & F p.u 8.U W.S <.p.=.` :.:.u.L.|.M.",
"x X.V i.< ~ V =.P.E E f G.u u u h y.u u F t.d (.| ( :.) +.:.( ( <.a Y L 8.L.@.I.V =.r F V f f f J f ` F f.s W.Z./ G.F G.` G.K.8.",
"9.,.D G...( y.:.'.V h # k.1 r.% ,.J p j.<.<.M <.( <.) =.8.u.T ~ ` s ,.m X.D.8.U.*X& % u s 4 ~ V f C n.( ..( f.( +X<.v d.D u ` X.",
"q 8.q ( A U ( '.~.< < 4 J = / U j.k J ~ <.s =.Z.9.( A ..F u u.~ A ..X.R.z.0.~.$X-.J ~ 4 ( (.% u ` $.A U.m.8.V oXu.~ f u U #.R.9.",
"w +Xq A s ~ x C.< o E V H.p d.1 / f V u.v :.,.X.7.v a <.f ` G.u.| Q.O.X.9.W.u.{.5.! . F =.~ e / ~ 8.( W.:...N 6.I.; @X. m.%Xq <.",
"Y | | F ..6.:.( E u A.,.< < < M ] H 4 V 3 =...Y ( A ~ u :.G.4 <.8...Y M.8.].=.] [ ( % I ` < ..=.a r.q 8.t.~.E V ..t.L.Q v U.Q.N.",
"t.X.b K.s ( :.U r.4 (.V u ~ V D ` =.<.v ( :.U ..@...V / <.p.< 8.d.( 8.m.=.p.` :.u.A < E $.X G.< ..8.$.6.B.>._ :.V <.F ` A N.A U ",
"( I ( ~ % M.( f.T _ P.r.$.&.( =.q.:.( # M.( ( R  Xo.@.( u.V C e.H.-.#.P.#.y.V 2 Y + x 6.: X.N.U K.A ^.a.I.m.) G.8.<.M =.( 8.<.t.",
"<.U ` V F :.<.g.=.U.` (.y.3 8.d.F =._ V M P M.U ,.z.| ` U =._ :.~ / g.<.M.F f s R.o.b X.I ..:.` u.=.>XG.` U K.8.U u.:.~ u.v (.A ",
"` U ~ ( =.~ F ` =.u.M.u.A F.K.M.~.V <.U A $.L.U U 6.,.L.a.:.8.g.^ [ (.oX<.< ~ u U z X.c 6.:.f.>.f.V.].( =.K.:.<.S <.F ( 8.a M.<.",
"9.) =.=.u.a A ..( 8.C.W.>.K.` F <.u.g.>.0 ( `.L.:.0.:XX.a.f.8.` u k u.< =.Z <.d 3 a.0 =.U <.V E i.` :.` A G.A K.f.<.=.u < 0 :.a.",
"U :.I.U <.U ` +.>.g.f.f.u.=.G.C i.u.f.~ / g.G.X.9.:.U.( =XE.=.~ U ~ C u #.f g.4 f ..& f V / 3 >.u.) T v U W.~ V u.` f 4 ~ F A ~ ",
"v =.g.u ~ ` U.~ 8.a.A <.( P.F r.<...r.i g./ =.U u. X_ G.f.I.W.~ <.F F C d.V <.u u V ~ u F # F <.F U x Y G.U A ~ =.F # u.& V ` V ",
"; u.<.V f =.` ~ M.3 g.V d. X2 ` <.F f L.t.( M.U.8.Z.A W.V f <.G.C.p.1.= ~ ` F ~ V :.f % ~ U u G.X <.v u.( s G.G.~ V Z u u J u u ",
"4 / F <.=.~ / <.K.s ( ..` v E :.../ ~ (.W./ d.|.V I d +.0 W t.M.C.` -.C <./ ` F V ~ k ;.k =.d :.$ 8.~ <...u.U.=.f 4 4 i p 7 Z ~ "
};
