/* XPM */
static char *rcp07204298940757[] = {
/* columns rows colors chars-per-pixel */
"64 64 161 2 ",
"   c #151309",
".  c #1D1B11",
"X  c #211F15",
"o  c #252317",
"O  c #25231A",
"+  c #29271D",
"@  c #2B291F",
"#  c #2D2B22",
"$  c #302E24",
"%  c #333126",
"&  c #36342A",
"*  c #39372C",
"=  c #3B392E",
"-  c #3E3C32",
";  c #413F34",
":  c #434136",
">  c #46443A",
",  c #48473C",
"<  c #4B493E",
"1  c #4D4B41",
"2  c #514F44",
"3  c #535146",
"4  c #56544A",
"5  c #59574C",
"6  c #5B594E",
"7  c #5E5C51",
"8  c #615F54",
"9  c #636155",
"0  c #696656",
"q  c #666459",
"w  c #69665B",
"e  c #6B695E",
"r  c #716E5E",
"t  c #6E6C62",
"y  c #716E63",
"u  c #737166",
"i  c #797665",
"p  c #757469",
"a  c #79766B",
"s  c #7C796D",
"d  c #7D7C71",
"f  c #817E6E",
"g  c #817F73",
"h  c #83806F",
"j  c #848275",
"k  c #898676",
"l  c #8B8876",
"z  c #858479",
"x  c #89867B",
"c  c #8C8A7D",
"v  c #918E7D",
"b  c #93917F",
"n  c #858580",
"m  c #8E8C81",
"M  c #908E80",
"N  c #908E82",
"B  c #918F84",
"V  c #918F86",
"C  c #918E83",
"Z  c #919086",
"A  c #939187",
"S  c #959384",
"D  c #959387",
"F  c #969386",
"G  c #979484",
"H  c #949285",
"J  c #989586",
"K  c #9B9887",
"L  c #95938A",
"P  c #949288",
"I  c #969588",
"U  c #97958B",
"Y  c #969489",
"T  c #9A978B",
"R  c #99978C",
"E  c #99968B",
"W  c #9E9B8A",
"Q  c #9A988D",
"!  c #9B998F",
"~  c #9D9A8E",
"^  c #9F9C8D",
"/  c #9C9A8D",
"(  c #9B9990",
")  c #9E9C90",
"_  c #9E9C91",
"`  c #A19E8E",
"'  c #A29F90",
"]  c #A19F93",
"[  c #A19E92",
"{  c #A4A18F",
"}  c #A2A093",
"|  c #A4A293",
" . c #A3A195",
".. c #A4A295",
"X. c #A6A396",
"o. c #A4A295",
"O. c #A9A696",
"+. c #ACA996",
"@. c #A6A499",
"#. c #A9A69B",
"$. c #ACA99A",
"%. c #ABA99D",
"&. c #ABA99F",
"*. c #ACA99C",
"=. c #B0AD9F",
"-. c #B1AE9D",
";. c #B2B09E",
":. c #A2A2A2",
">. c #ABAAA0",
",. c #ADABA1",
"<. c #AEAEA8",
"1. c #B1AFA3",
"2. c #B3B0A0",
"3. c #B2B0A3",
"4. c #B5B2A5",
"5. c #B6B3A6",
"6. c #B4B2A4",
"7. c #B9B6A6",
"8. c #BAB8A7",
"9. c #B6B4AA",
"0. c #B5B3A9",
"q. c #B9B6A9",
"w. c #B9B7AA",
"e. c #B9B6AA",
"r. c #BBB9AB",
"t. c #BFBCAE",
"y. c #BDBAAC",
"u. c #B4B4B4",
"i. c #BDBCB1",
"p. c #BFBFBE",
"a. c #C0BDAD",
"s. c #C1BEB2",
"d. c #C5C1AF",
"f. c #C5C3B4",
"g. c #C4C2B7",
"h. c #C6C4B7",
"j. c #C5C2B4",
"k. c #C9C5B5",
"l. c #C4C2B8",
"z. c #C6C3B9",
"x. c #C9C6BA",
"c. c #CDCABC",
"v. c #D1CEBB",
"b. c #C2C2C0",
"n. c #CACAC0",
"m. c #CACACA",
"M. c #D1CEC1",
"N. c #D6D3C2",
"B. c #D4D2C4",
"V. c #D8D5C5",
"C. c #D6D3C9",
"Z. c #D9D6CA",
"A. c #DDDACC",
"S. c #E0DDCF",
"D. c #E6E5D4",
"F. c #E9E6D4",
"G. c #ECEADD",
"H. c #F4F1E4",
"J. c #F5F5E9",
"K. c #F9F7E8",
"L. c white",
/* pixels */
"T c U p w q A w ; w ~ j 0 t c N.^ ; q w w 4 7 a %.w o 6 e 3 3 g x } t o m , 4 P 9.3 u p z 6 g v p 3 w m 8 9 g ..t.5.N - 3 g 5 p ",
"P x t 4 1 w u t w d u 1 2 u q.c 3 : 9 u w 3 1 y X.u = z g 9 , e N B 3 h c 3 d z.j 4 D A s 9 c c j g d j e c e w s e a < t m t ! ",
"w p q s t m B ! 8 w x x d z s e 9 y a g z u s c U 9 8 h.D w 1 7 e e 9 c w 4 2.5.$.4 R g.B 7 m c e m s u k t e c d z e 1 w w 8 w ",
"m ! > c D D ! q d t x r.p U w u e k s 2.q.w d X.u 1 7 B F > 3 4 w g w ' 2 e %.e e 7 >.( j t c j d W a y e d g ' a d u 9 p j 3 g ",
"d 4 1 m p q u w m s d r.t 6 u | =.i d d g 1 e y c y < 1 9 : y U p e 7 s 0 4 _ ' w e m 9 U j 4 7 a u D j d U g.! 3 4 a s ..t 8 d ",
"a q u p T j P x d 8 g m p / x s 8 e e c 3 w T A j 8 # e w 4 t j p J 5 y w 8 j N * w a 6._ j a p 5 d z u D #.@.t.8 e ;.s j B q U ",
"u d y t N ] 1.] w < p e w W e e w e d 6.q w u e s g 3 t g u t w x w g *.j t j B 6 ' U D e 5 6 x p @.j i $.X.e ~ 9 a c j U j 7 q ",
"a d c p m m s w j 9 1 7 7 t s a m P z t d m q 8 X.g > p 3 j ~ j e X.j j g O.a m 6.z.T w s x J y t N j #.m x a a m g t w t p g 3 ",
"j c p e i.s 1 2 F @ * 8 g j _ a q e 7 w y j a 7 ,.8 2 B t p r.B p 6 D _ U j / B 6.0.j 6 3 B / i u a e j } t a c j j 3 - 1 D 6 6 ",
"P D 6 d @.g a 6 c.: y N t U U t j 6 , 3 e t = 5 t ; 5 ! j q ..d a q a T x s u s k.c ; 5 3 j j 3 u s j j a 7 m a 3 , > 7 t m ; w ",
"P z 9 s s 9 1 j / X.F 5 > s t y w ; s s 3 u 4 7 t N A a d 4 3 p T w 3 x D 4 e X.~ 7 2 5 u J 6 = x c U ! a t j a 7 3 x s s t e d ",
"! j < a d d j c J $.4 4 3 4 3 j , + m p 1 e * t ] c j w w 6 0 N c e 7 a t c ~ a 9 7 d x y N a 4 ! y U c e p p _ 5 > ~ 7 j p x j ",
"s w 9 A s $.z A ^ u 6 g 1 t 4 - 5 w d w 3 7 , p @.8 - 4 p - e V.2.9 9 j T ' z s t.J ' c x H g w F w 7 3 g m U m 7 8 y X 1 N _ %.",
"q e w } u e w q a T e 2 9 c u % 7 w 2 6 5 3 1.> 1 5 3 q 3 & y D.w $ 9 k g } c ' B ~ = #.w i > g x > : c ] y.B u ; y p 2 8 ' k.d ",
"t p 6 w W 7 y e ~ i 7 j c %.a , 8 4 4 e w t d 7 t 8 1 5 x 6 c ' H = ` } :./ 7.g.*.y w ! e = j _ , % 9 e T c c 1 6 a d c a ,.,.! ",
"$ 1 j 2.r.a x p x a c ~ A R ( c e 2 w %.s j t j , + , 3 8 6 x m j j 6 W W c 8 7 9 v j D , 8 %.s > 9 ( P a ' 5 9 u p p 7 u } ,.t ",
"_ 5.! @.w d N r.,.X.d F z.5 t U u = x y.d q , t : : d y d t ! X.1.{ y v x j w / D a , p 6 $.a - ' T 6.@.a j 5 w m w a X.U S q 4 ",
"i.x z j e c ` 2.j P p @.i.1 8 P a c j j d 5 3 > u t t p t s j d j 0 e +.c z g j s y t t c q.2 s X.U % u _ j D 8 d g j 5.T 7 W #.",
"s 4 y y j %.s B ..t U B d 3 t d j s g 2 : 5 5 c m a A w p c t D ' u s $.j u 5 $.s ~ ' c e y 3 X.m > 8 2.V.g x < a j d d j ^ @.j ",
"j g 8 g j y.9 3 2 a j m c 5 c m w 9 8 > 2 5 p j 6 e.@.a u j p c w a t.h.e < k j 0 _ T < w c D y.j d x j X.5 d c N B j j g.y.~ 8 ",
"@.A S ..$.' 2 e j U c U B 8 D U a g u y q 1 m m , P y 6 d 0.9 e g 2.f c g k u S ^ Z.S 7 c O.X.! a X.a c ! i j R U m t 3 ] g.y 9 ",
"T u X.x.j._ D m %.,.@.j s p @.d y u 0.c 7 1 t w , 4 6 . j c t y 9 2 e X.v 7 f a *.y.2 ..~ 1.m.~ @.m 1 w 4 9 5.L.q.y w 5 x c s j ",
"s j j.s.=.9 a t ( #.#.g _ j z s e z _ N 7 4 R 1.7 d c t d P e t - 5 a z k j d i g c X.c n #.h.t ( x s z 5 s ! ' 1._ 7 9 c _ R X.",
"j c *.7 , s t e p d j ! q a j t d m _ w 9 s w y j d x t p t u & 4 2 F v $.g.2.v %.X.s G b.c N 5.=.j z ' P d e s g.u 1 c c c p t ",
"7 g a 6 9 ~ U ( g g m ( m u c Z.U c m 5 t p t c 4 1 4 p P u m 5 4 9 5 O.#.y.c x g w c i.@.j q.@.x s 9 w t c D *.V.w w D s 8 c d ",
"U 1.3 w 5.j.G.C.m P %.6.c 5.,.j s j 9 q w ; a %.4 2 A @.u - 8 3 X.t t ] g.j ! 9 X.=.j.B.g.z 1.( P T p j s d c.' j s y _ g 9 ' ~ ",
"..j c 4 ,.2.m B j g #.d A J.6 p N e 1 w e 3 y P 8 s A j # + 7 j C.u p X.2.s #.O.@.j z ' ` D #.T y.A.a N 7 5 z N j 8 u q.u 9 i.5.",
"j j > 5 m 7.e , 3 a x d 6.p ~ _ e j p a B y <.A w w j u 5 8 s A A ` g j d q.j a T ' ` W ` r.p.#.M.t p z j 7 p 9 p u ! y.X.s %.z ",
"d d 9 *.g - u X.7 x y 9 u c d ( j d 4 p 4 m P , , e 0.7 7 ^ 6 d #.F p D ..g c w c A.x i *.M.~ #.X.6 e j m j j u ! e.U A g * s q.",
"j y d U , u F 7.u %.s a ~ a.a s , w d _ 7 R c O e ( j > > j w y.D 6 t c X.8.a j H.i.2.8 ` A X.c a X.w w B g 5 t ] R P u 9 e u y ",
"9 c N 3 1 w s 6 c R j j 6.c - > e ~ 8 7 a j + , y D a e : k g 1.x 2 q *.N F c r.g.c 8 , ..5.g W D.! w p z ,.t 2 c w j N ~ q s y ",
"B z.p w > ! p 6 p ! 1.m m w , y d g e a 7 j # u g e m 4 < D N s a i j } u j ! s.r.~ | / u.*.O.y.r.x 4 e s.s 5 p X.x ....z g a N ",
"e 4 j 4 3 N w a m 6.c $ 0 : j N g 6 O t 7 9 , q a t 9 6 f g f c f J f.<.N u.x.i.s.B.c c r.c $.<.c p y W 0 9 j x 9.x $.g c z *.x ",
"g s r 2 y 6.P g x y - > a m p 6 3 . 8 m y 6 7 c ( y y s e 8 w 6 y *.z N w a g.N : p g _ *.~ 7.=.p.c e p ~ 5.S T A 9 D j a *.1.c ",
"i c a 6 c 1.9 , g 1 1 w R d o * & * e p 5 w p m m 2 t w / v.i a p s < $.W 1 s 6 s 2.c J ^ F.G.s =.g x T #./ 7 | D s a H U @.m j ",
"7 e 9 x _ t & 1 a d x p y 7 4 y 6 t e z 2 c B a = , u s f t ` ' i 7 e ~ =.n 0 u j H j.y.y.M.7.X.a t ' u W O.e g j H $.A ( ' t p ",
"7 t p @.m 3 g d =.j 5 8 4 5 q.p 8 d 8 m q u g 7 O - q w e ' f = w c e ^ N H 1 8 N _ j } { B.a c.a ' / f s T s a i.X.d c A ,.$.g ",
"e a x.@.e t c j j.@.= % 5 y T t : - : ! 6 8 w q - 5 c z 0.~ b 3 3 d = s b c 2.i y z d 9 g ,.x.t ~ e w u T i.a c D ` j t H @.c._ ",
"5 w z.u ; y s z } z 9 9 g j y t + 9 4 2 $ * # 9 O > x ..p w j v w j , a s c f e e p g 8 n.W #.%.U p $.g F 2.k ^ t.| a p A.' w e ",
"w t z.j z y F m z s 8 4 j P t : & 5 t y > j g j y 1 c g , 3 x f w U w i r.N H 2.s u ` ! #.x.u V.*.` u.5.> +.s X.T T j #.A 3 y e ",
"a q x.m s m z q p 7 > 5 g 7 p g - d ( a e g z t 1 1 j m j w c 6 6 a w 7 y u 9 u s 4 6.c / T 3 U ` f d.F S x j H t A a t & w +.R ",
"7 : e e d s S 6 > 9 > ! j d j p a ! u & y m j $ 2 w j z d j m w s 9 w u g u 5 u 5 i X.s T a 0 c x t.6.r.,.d A D s s c H q x.m p ",
"@ p w a D N s 3 j ' 3 t B d a t u d w 3 p P a O A A s u N 1.a y j w c u j D z a u 7.x 7 a e r S T c j.y.N w ^ 5.k.H 2.| D B.u y ",
"e B 4 3 T D ; 6 7 t 7 t m t w 3 g t q 2 y A q ; #.c t F d P 5 i a F m t 5 9 V.c c D c c A c f.7.m *.x ^ 8 e 5.q.^ 7.~ e e T : j ",
"d 4 , e 7 g 5 ..8 p d j N j 7 3 j z p t 7 1 p 1 x w e j m k 9 j j.$.6 > 4 U #.e a j e j a.~ ~ j ] B g / c #.Z.1.c G.X.t z ^ j a ",
"y , D q 7 g } x 9 y _ m a 3 z e P 3 q # - c @.t 9 j e e N d w t =.p u u N ,.| < - p t =.x.a e c u & U q.r.] c.S.x $.K D D c j e ",
"1 9 d y q a j q w q s R 7 7 c d m 1 e - t R d 9 ~ y 6 ! T w 6 w 7 w ' a , s x a 6 t g / c 9 S B y 3 c z _ c.j 5.A , i v j 5.t w ",
"c d 1.#.w z j 8 t U U ! p p a ] @.4 j t t t u ! g c c A j G , 9 e N P t , w j s 8 x @.m s h g.y g 9 j j _ g y d , 1 j g #.j.8 q ",
"x c j s w ..j u g.( 3 P 7 7 6 c d 1 B u 3 - 6 u 7 7 w m s = e w w p D m 1 8 e y d ' j c A j c u 2 y K.d t J z d D c x z 0.X.q x ",
"t D m y m g j s 0.y 8 d s 8 x D d 1 7 2 a w > m U 2 g q.c & p a y s s p 7 j w w g s j a.y.w c j e ~ c , j d q.( c y T d c @.t p ",
"m c P m ..( z.g.0.u t t u j %.q a 9 w 5 N 5 1 w e j e p t 6 H y t z s w s u O p 9 e j U j N t.s j d t 7 e D 1.a m D m x s ( u 9 ",
"j P X.m c >.U 8 z d e p t ..U 4 5 m p p 1 t 8 q y q 6 1 j m u s w d _ u a 8 : t m X._ W c 9 g 5 3 x p > X.u 5 9 ! m e j d d m 5 ",
"A 1.g y e ( m m c w a t p ( d q q A u & 1 $.t s p - , t >.1.s 9 , D a y c w w m ,.5.a j <.9 : % z ! N w D ; 1 j c j p X.a p m 7 ",
"d d d d m <.0.U D m c y U d j z z 1 6 5 w _ = 2 q , t g g m a y s x w X.G 9 8 ~ c D u i c j u e u @.z y u , R t ! c 6.6.y z U B ",
"d p ..m ,.P ' g i.@.d j @.q g ,...1 w 9 4 3 # 9 u > 4 j m t e d 1 T D j s K l c B.6 s k.x c a a j U d s 7 , j d c m 5.U c 3 P A ",
"3 ! p s B 3 g ' >.7 P #.%.X.d @.j 3 8 j c s 1 z p 8 e U B p e 5 j k 9 u p 3 8 d x w c z.9 j D g N ( e , : T _ m %.d j y e % @.a ",
"1 3 q @.t 6 x ,.B d %.x.i.8 u @.4 3 t m d t e t t 2 z x 6 1 c s -.j v a 9 U @.T D y +.6 9 #.c p A ..3 > q j a N 7 w 3 6 5 g m q ",
"1 P ; R P u d ,.( ' u j 7 m j ! w y d g p 1 9 8 w 6 u w 9 q d a : t T 6 c ..#.! e J W : a 1.9.y F N ; 6 t p ( , w t u u s X.c.z ",
"D ! 4 w P j d B m y j s e u U p - e s a c 7 1 q e 4 w 9 w ..' z 3 s j e a T q.s d N a w u P 5.> W =.7 t %.u U m p N 5.` y S h.p ",
"m d 5 t m 4 j g , q m j j c z 3 3 4 7 : 3 7 B m g u x u ~ y.c s a z ' > j k X.q j < j a a ! x 9 F c ^ j z.9 4 ..R ' 7 7 t #.m e ",
"> m p P A q ] x 7 t g w a d B s t c t q 7 t s 4 e 5 e p d p d : 6 S c u c t 5 - 7 q e ~ D x 7 , j :.7 u j : e j j t 8 u s ' p t ",
"5 c x w 5 3 t 4 7 u u a p c B B p ' j A z e = # > p #.#.w 9 P = i ..2.e 3 R 3 y u 3 j m g % 2 r | F.^ y 9 i c d 4 3 5 p A c.t 6 ",
"7 d m ..s t p g s ( m 8 q ] d 7 e u   4 g 9 . t ,.R j e 1 8 e 6 j ! y * 9 7 6 p s.d c T 9 + t D B.' w 6 u j q.x 9 w m D 6.c 9 4 ",
"z j m 9 , t u B 6 w u a 5 N w p j * + , j + - w ( p @ 3 w 3 > 6 6 ' y % j e > w ~ t 1 < 3 w X.X.g d : w 9 m T X.j m 1.y 1 9 * 6 "
};
