/* XPM */
static char *rcp07204898941354[] = {
/* columns rows colors chars-per-pixel */
"64 64 244 2 ",
"   c #161616",
".  c #1A1616",
"X  c #1B1B1B",
"o  c #2C1616",
"O  c #241C1C",
"+  c #271717",
"@  c #321616",
"#  c #3B1515",
"$  c #3C1A1A",
"%  c #341B1B",
"&  c #242323",
"*  c #2B2929",
"=  c #382424",
"-  c #363535",
";  c #431515",
":  c #4B1515",
">  c #451B1B",
",  c #4B1A1A",
"<  c #541616",
"1  c #5C1616",
"2  c #541A1A",
"3  c #5C1B1B",
"4  c #641616",
"5  c #6B1515",
"6  c #641A1A",
"7  c #6B1A1A",
"8  c #731515",
"9  c #7C1515",
"0  c #741A1A",
"q  c #7B1B1B",
"w  c #7E1815",
"e  c #472525",
"r  c #5C2121",
"t  c #562828",
"y  c #503636",
"u  c #632222",
"i  c #6A2727",
"p  c #7C2424",
"a  c #742626",
"s  c #693737",
"d  c #773939",
"f  c #474747",
"g  c #555555",
"h  c #564343",
"j  c #774646",
"k  c #764E4E",
"l  c #706E6E",
"z  c #831616",
"x  c #8B1616",
"c  c #8B1C15",
"v  c #841B1B",
"b  c #8C1B1B",
"n  c #831B14",
"m  c #931616",
"M  c #931C16",
"N  c #941B1A",
"B  c #9C1B1A",
"V  c #9B1917",
"C  c #A31D16",
"Z  c #A41C1B",
"A  c #AB1C1B",
"S  c #A61A17",
"D  c #B61D1D",
"F  c #8C2314",
"G  c #932415",
"H  c #942B15",
"J  c #9D2B15",
"K  c #9A2416",
"L  c #9B3415",
"P  c #993715",
"I  c #A32416",
"U  c #A82817",
"Y  c #B22B1A",
"T  c #B7281A",
"R  c #A43316",
"E  c #AB3316",
"W  c #AC3C16",
"Q  c #A63B17",
"!  c #B63818",
"~  c #832222",
"^  c #892828",
"/  c #982726",
"(  c #893737",
")  c #983737",
"_  c #A72625",
"`  c #B72525",
"'  c #B83A27",
"]  c #A63635",
"[  c #B33830",
"{  c #CC1E1E",
"}  c #C72A1D",
"|  c #C7381B",
" . c #D43A1D",
".. c #D32D1D",
"X. c #C72726",
"o. c #D72927",
"O. c #C83736",
"+. c #D63636",
"@. c #D33222",
"#. c #E82927",
"$. c #FA2B29",
"%. c #FD382A",
"&. c #FE3333",
"*. c #FE3C3C",
"=. c #FA3934",
"-. c #E8382D",
";. c #AB4415",
":. c #AB4B15",
">. c #A44715",
",. c #B34316",
"<. c #B94917",
"1. c #A95715",
"2. c #B75716",
"3. c #AA6814",
"4. c #B66816",
"5. c #AB7214",
"6. c #B67419",
"7. c #B94929",
"8. c #BB4937",
"9. c #B24829",
"0. c #B3641C",
"q. c #C6471A",
"w. c #D5471C",
"e. c #C8571A",
"r. c #D8561B",
"t. c #E6481E",
"y. c #E6571D",
"u. c #F5491F",
"i. c #C86818",
"p. c #DA651B",
"a. c #D67619",
"s. c #CB7617",
"d. c #E7691C",
"f. c #F8691E",
"g. c #EB741C",
"h. c #FA761C",
"j. c #C75726",
"k. c #D55C28",
"l. c #CD4D30",
"z. c #FE4827",
"x. c #FF5626",
"c. c #FF4837",
"v. c #FE5934",
"b. c #E74E27",
"n. c #CA6525",
"m. c #D66A29",
"M. c #DB742B",
"N. c #D96933",
"B. c #D0732A",
"V. c #FD6727",
"C. c #E67A29",
"Z. c #FF7825",
"A. c #E46A34",
"S. c #FB6A3A",
"D. c #E77A34",
"F. c #F87939",
"G. c #E26420",
"H. c #8B4646",
"J. c #984949",
"K. c #8F5656",
"L. c #A64848",
"P. c #B84545",
"I. c #A55757",
"U. c #B85A5A",
"Y. c #B26565",
"T. c #986565",
"R. c #C64948",
"E. c #DB4848",
"W. c #CC5857",
"Q. c #FE4343",
"!. c #FF4B4B",
"~. c #F24B4B",
"^. c #FF5353",
"/. c #FF5D5D",
"(. c #EF544B",
"). c #FC6846",
"_. c #FF7648",
"`. c #FB6F55",
"'. c #D06C6C",
"]. c #FF6464",
"[. c #FF6B6B",
"{. c #FE7777",
"}. c #F2756D",
"|. c #D68E1C",
" X c #FD841E",
".X c #E8891C",
"XX c #D48422",
"oX c #E88628",
"OX c #FE8827",
"+X c #EB9626",
"@X c #FC982A",
"#X c #EB8534",
"$X c #FB893A",
"%X c #EB9933",
"&X c #FF9736",
"*X c #FEA62D",
"=X c #FBA634",
"-X c #FFB737",
";X c #F4AA30",
":X c #F7A81E",
">X c #FFC739",
",X c #FFD936",
"<X c #FFCC2A",
"1X c #FFFD3B",
"2X c #FFEC34",
"3X c #FF9648",
"4X c #FF9958",
"5X c #FF8751",
"6X c #FFA44A",
"7X c #FFB957",
"8X c #FFB44E",
"9X c #FF9664",
"0X c #FF8C6F",
"qX c #FFAC6E",
"wX c #FFD04A",
"eX c #FFFF58",
"rX c #FFF24C",
"tX c #FFD272",
"yX c #FFFE68",
"uX c #FFF673",
"iX c #908D8D",
"pX c #B29999",
"aX c #FF8484",
"sX c #FB8989",
"dX c #FF9797",
"fX c #FF9A87",
"gX c #FFA7A7",
"hX c #FFBBBB",
"jX c #FFAF83",
"kX c #FFD68D",
"lX c #FFFF89",
"zX c #FFF896",
"xX c #FFFFA6",
"cX c #FFFEBA",
"vX c #FFEBA0",
"bX c #FFD1A9",
"nX c #FDC8C8",
"mX c #FFD9D7",
"MX c #FFD7CC",
"NX c #FFFFCC",
"BX c #FFFFFF",
"VX c #FFF7F3",
"CX c #FCECE8",
"ZX c #CECCCC",
/* pixels */
"G H H P P P Q ;.;.<.q.r.f.*XzX&X&X&X=X;X;X+X+X.Xs.s.i.2.;.R J J E q.r.d.g.f.Z.&XBX_.&.X.O.BX] a 3 7 q v b / ^ _ Q.aX` v 0 9 z c ",
"H H P P P P L Q W ! q.w.V.lX=XZ.OX@X@X@X+X+X|.s.i.4.2.;.R J K K W e.p.d.g.f.h.OXwXBX^.Q.mX/ u 2 3 6 6 0 q q q ^ O.BXX.b v z x F ",
"H P P P P P L L R ! | -.F.wXV.V.C.oXoXoX.Xa.s.i.2.2.:.Q J M M K ! e.m.g.h.d.h.OX&XtXBX{.X.i 3 , 2 3 6 6 6 7 6 q / ].=.Z m M G H ",
">.>.>.P P L H J I Y } $.BXz.t.w.k.m.a.a.s.i.2.2.:.;.Q L G x x I ! e.G.g.h.g.h.OXOX&XBX$.I 7 2 , 2 3 1 3 3 3 3 7 ~ =.!.X.U U R Q ",
":.1.>.>.P H G M V A o.!.*.o.} | <.q.e.2.2.:.;.>.>.P P H c z x I ! q.G.g.h.h.h. XOXwX6X@.S 9 3 < < 1 1 1 1 2 2 6 q X.BX#.! W >.;.",
"1.1.1.>.L G x x m A &.dX#.D A U E E W W Q P P P L H H F z z x I ! q.G.g.h.h. X X*XNXOX .U x 8 1 1 1 1 1 < < 1 6 q ` ].x.q.<.:.1.",
"1.1.:.>.L c w z b _ [.&.D S V C I I J G c F F F F F c z 9 z x I ! q.y.f.h.h. XOX,XyXZ.r.W J c 8 4 1 1 1 1 1 1 4 q Z c.3Xy.e.2.1.",
"1.1.>.Q H z 9 0 v o.[.` B N m m N G M z 9 w w w z n w 9 9 z m C Y | y.f.h. XOX@XyX,Xh.p.<.;.L F 8 4 1 1 1 1 1 4 q B -.BXV.e.2.1.",
":.;.Q L M w 0 6 ~ /.+.N b z x m N M b w 8 8 8 8 8 8 8 8 8 z m V U | r.f.h.OX@X>XBX-X Xg.i.2.:.P F 8 4 1 1 < 1 4 8 N | 6XOXp.2.2.",
":.;.R G x 9 7 7 ^ BX_ q 0 w x x b b z 8 5 5 5 5 4 4 4 1 5 w x V U T t.f.h.@X=XyXeX*XOX.Xa.e.:.>.P c 5 1 < < < 1 5 b Y x.yXf.e.2.",
",.Q J M z 8 0 q ] !.~ 7 6 8 w z v v q 5 5 5 4 4 1 < : : 1 8 z m A } t.f.OX*X,XBXwX*XOXoXa.i.2.:.Q H w 4 < : : < 4 9 B  .8XZ.r.<.",
"! U B x z q q ~ ^.] q 7 7 4 8 9 q q 0 4 4 1 1 < : ; @ @ ; 1 0 b A ..u.V.@X<XeXyX-X@XOXC.m.n.2.:.>.L c 8 < ; ; : 4 8 b U z.tXt.<.",
"Y I V x z w z / BX^ q 7 5 4 1 4 7 7 5 5 4 1 < ; # o . + # < 7 b D o.x.Z.-X1XBX2X*XOXC.M.m.n.n.2.:.Q G 9 1 ; # : 4 8 z V } v.x.| ",
"} A B N b b N X.gX^ 0 7 5 4 1 < 1 4 5 5 4 1 : # o .     o > 3 b ` #.c.3XyXlXyX-X@XC.M.m.m.m.m.n.<.Q H z 4 ; # : 1 8 z m S o.cX%.",
"$.X.D A A Z Z &.^./ 7 6 4 1 < : < 1 4 4 1 < ; @ +       X % 2 p ` &.^.jXVXBXwX&XF.A.N.M.M.M.M.m.j.;.J z 5 1 ; : 1 5 w x V A $.VX",
"gX*.$.#.o.{ D *.Q._ q 3 1 < ; # ; : < < : # @ +       X X X = t ] *.aXBXBXBX4X_.A.N.N.N.N.M.M.M.n.7.J c w 5 < : 1 5 9 z m S D $.",
"$.^.vXv.z.%.%.).c.` b 6 : # @ + @ # # @ o + . .       X X & & e ] /.VXBXmXBX`.(.N.l.N.N.A.D.D.D.M.j.,.G x 9 5 < 1 5 9 z m V S { ",
"#.z.3XBX7X6X8X7XS.X.N 7 , @ .   + o o + . . . .     X X X & * y K.hXBX{.[.nX~.l.l.l.l.N.A.D.#X#XD.m.j.Q G z 9 5 1 5 8 z m V S D ",
"v.uXcXwX=X=X8X8XlX%.B 7 > +             . .     . . X X X & - f iXBXsX^.*.sX+.O.[ l.l.l.N.D.#X#X#XM.n.7.L G c 9 8 5 9 z m Z { $.",
"7X$X$XOXOXZ.Z.V.$X9XX.0 > X                   . . X X X & * - g BXnXW.E.-.dX` _ _ [ l.k.N.D.#X#X#XD.M.j.W J G c c z z M I } %.xX",
"x.V.C.g.g.d.d.r.t.Q./.p % X                   X X X X X & - h pXBXl f s ( BX/ v b _ [ l.N.A.D.#X#X#XD.m.7.W R J R R R U  .S.4Xz.",
" .w.e.i.i.e.q.! U _ Q.].= X X X X X X X X X X X X X & * - y k BXnXl g f f BXi 3 7 b A l.k.A.D.D.#X#XD.N.j.j.,.,.<.e.r.f.=X&Xz. .",
"| | <.<.<.<.E G v q i d l * O X X X X X X X X X X & - iXBXT.j s j k l iXZXBX- = , 0 B T l.A.D.D.D.F.D.A.N.k.j.j.p.h.@X1X1Xh.d.r.",
"q.q.q.<.,.R G q 7 2 $ = y ZX* & X X O O O O = e i L.BX( t e = e e e - - g l BXg - t ^ D ..b.A.D.D.F.F.A.A.N.k.A.Z.=XyXeX*XOXC.p.",
"e.<.! W W J b 7 3 , , > = y BXy = e e e t i ^ ] [.{.] a u 3 2 e t s l BXBXpXiXg g ZXgXc.#.-.v.S.S.S.).).).S.S.S.6XxXzXwX=X&X#XC.",
"e.,.E J K c q 6 3 6 3 , > > i dX( s s ( [ E.^.gXdX+./ p 0 0 p ] {.sXf - - - g l * & * ( aX^.c.v.S.).).)._._._.4XNXcXtX7X6X&X#XM.",
"<.W J M z 8 1 3 6 6 3 3 3 3 r i W.R.~./.{.CXBXaX!.[ / b / _ *.BXO.i = & & & f ZX- & X X r o./.kX5X_.`.`.`.0XqXBXNXtXqX7X6X3X#Xm.",
"<.J c w 8 1 1 3 6 6 6 6 3 3 r r u +.BXBXBXdX{./.E.P.P.E.!.sX^.` ~ 3 $ X X & - BX- & X X O 7 D %.tXNXqXjXbXBXBXbXqXqXqX4X3X#XM.e.",
"9./ p 7 < 1 1 4 6 6 6 3 3 3 r u ~ _ *.aX{.[.{.dXhXBXBXBXaXE./ v 7 2 $ + X & * l f & X X X > 0 A b._.vXBXBXMXsX0X9X9X4X3X$XD.m.j.",
"] ( a 3 6 4 4 6 6 6 6 3 3 r i ^ _ +.Q.hXBXBXmXgXdX'.Y.I.J.( d i 3 , # @ + X & f l * X X X @ 4 z Y b.).9XBXfX0X0X9X4X3X$X#XM.n.7.",
") d i u 4 4 6 6 6 6 6 r u p / O.Q.[.gXBX}.'.'.Y.T.K.k k j d s i r > ; # % X & - BX* X X . o 1 w B ! l.).5XBXkX9X4X3X&X#XC.m.j.8.",
"H.d a 6 4 4 6 6 6 6 u a / +.Q.{.BXBXBXBX}.U.I.T.K.K.k j j s s t e > ; # % + O & iX- X X + @ < 9 G E q.k.S.4XzXNX7X@XOXoXM.N.8.L.",
"( a 6 1 1 1 6 6 7 p / X.=.!.gXBXBXBXBXBX{.Y.I.T.K.K.K.j j s s t e e > # # $ % & f y & O X @ : 8 G W <.k.A._.3XwXBX<X@XOXN.l.L.J.",
"p 4 1 < < 3 7 q / ` o.&.^.hXBXBXBXBXBXBXaXY.I.I.K.K.K.j j s y y e e > ; ; ; $ % - Y.= % + o ; 5 F W <.e.k.A.D.Z. XeXrX&X).R.I.( ",
"5 1 < : 3 6 b T X.#.&.^.gXBXBXBXBXBXBXmX}.U.I.I.J.K.K.H.j d s y e e > ; : : > > e BXe $ o o # 4 F Q ,.<.e.e.e.e.p. XwXcX].W.L.p ",
"6 2 2 6 q ` z.tXBXtX[.].[.{.sXgXnXmXCXBX}.U.L.J.J.J.J.H.H.j s y e e , , < < : , e dXu $ o @ @ 1 w H R Q W ,.,.W <.e.y./.BX]./ 0 ",
"u i p ` Q.BXS.V.b.b.l.R.R.W.W.W.'.'.W.aXBXW.L.J.J.J.J.J.H.H.d s t t e 3 1 1 < 2 u BXr $ @ @ @ < 8 c G M G K c K R Q _ ) P.aX+.a ",
"BXnX/.*.$.@.w.l.l.8.8.P.P.L.L.L.L.) ) ] E.BXR.) ( H.J.J.J.H.( s s t r 6 4 4 7 7 a dXr $ @ @ @ : 4 9 w 9 9 8 w x M x q 7 0 p /.nX",
"t ~ / A A ` ' 7.8.8.8.P.] ) ( ^ p 0 0 0 q _ BX[ ) ( J.J.J.J.H.d s s i i 5 8 0 0 ~ BXi > % @ @ ; 1 4 4 4 1 1 8 w w 7 < , , t BXi ",
"2 0 v V I ' 7.8.8.8.[ ] ^ p 0 5 4 4 1 1 3 7 ^ aXO.] ] L.L.L.J.H.d s a a 9 z z v ^ BX^ 2 , > $ , 1 4 4 4 1 < 4 7 3 , $ % = j d = ",
"3 0 x m _ ' 7.7.7.[ / b z 8 4 1 1 1 1 1 < 3 7 ~ ^.=.[ P.P.L.L.J.H.d d ^ b N N N _ aX+.[ ^ a r 3 6 7 7 7 6 2 , , % X O & - iX& > ",
"6 8 z m U ' 9.9.Q J H c w 8 5 5 5 5 5 4 1 4 7 0 / Q.c.l.R.P.U.U.I.H.( ) _ Y Y ` #.BX].].{.dXBXVX+./ ^ ~ a r = = & & * * CX* O $ ",
"1 5 w x K J R L H H H F n n z w 9 9 8 5 5 5 8 q b _ Q.).E.W.W.W.U.I.L.P.O. . .#.!.^.-.+.O.] ) ) ~.gX!.O.] ( s - - - - f - & O > ",
"1 4 5 w x F H H H P P P P P H H F c z 9 8 8 9 z x B X._.5X(.(.}.}.'.'./.!.v.z.c.BXBXdX!.&._ / ~ a O.{.BXBXmXdX{.'.l l g & X + : ",
": < 4 8 z F H P P >.>.:.:.:.>.>.R J G x z z z x M K Y t.8X4X{.dXhXmXCXCXBXBXqX=.#.#.#.$.&.dX*.^ ~ ^ O.*.!.].aXnXBXBXBX= O X o ; ",
"# : 1 8 z F H P :.1.2.4.4.2.2.2.;.W R G M x x c G U E q.x.zXBXBXBXBXBXgX].*.#.{ D S D T T D X.^.^.#.X.#.&.*.Q.^.].{.s = + X + @ ",
"# ; 4 8 z H P :.1.3.3.5.4.4.4.2.2.,.W I K M M K J E ! w.V.BXz.^.[.{.{./.E.X.T A V m Z U U B B A #.%.*.{.BXcX[.^.!.gXi % X X o @ ",
"; : 4 8 z H >.1.3.5.5.5.5.5.4.4.2.<.,.E I I K I E ! q.u.3XS.X.T O.R.R.P.` U C V x m V C B B C U ! | T ..-.z.%.&.Q.].d % X + o # ",
"; : 4 8 c L ;.1.3.3.5.5.5.5.6.6.i.i.e.,.E U E Y ! | t.V.BXS.-.D Z _ _ / N x x z 9 x m m V I I U Y Y C Y ! } } ` _ / ].= O + @ # ",
": < 4 9 x J ;.1.1.3.3.5.5.6.6.6.s.n.n.e.! ! ! ! | t.V.BXxXuXc.X.B V m x 9 9 5 4 5 w z x m I I C I V V U Y Y S V q a dXt % @ $ > ",
"3 6 5 9 x B R Q >.1.1.3.3.4.6.6.s.B.n.j.q.q.q.w.z.F.7Xx.V.6XzX%.X.B N v 8 5 4 1 4 4 8 x m m m m x x V I I Z V z 6 i R.d e > > < ",
"0 q z z z m V I R Q >.1.1.4.6.6.s.B.B.n.r.r.y.x.uXv.z.t.z.x.F.cX%._ N v 0 4 1 4 4 8 w z x z z w x V S S S B b 0 6 i P.) r r r 6 ",
"_ _ Z Z B Z S I U U Y W ,.2.4.s.XXXXXXa.d.f.OXxXz...| | w.t.x.F.cX#._ v 0 5 5 5 5 9 z z z z w x C Y [ Y S m z 0 7 a R.R.P.] ] _ ",
"BXBX{.Q.&.$.{ } T T T | | e.i.s.|.|.+X+X@XwX>Xx...T Y ! |  .w.z.c.dX#.A B b ~ p 9 8 9 w w 8 w V E 9.9.Y S b q 0 q / BXE.^./.[.dX",
"_ ` X.#.&.*.BXv.z.u.t.t.y.y.d..X:X<X<X,XxX-Xx. .! Y U Y ! ! | } -.S.tXx.b.[ ] ( v 8 8 5 5 8 x U W ;.,.Y C b q q _ BX^ a a p ^ / ",
"v b V S D { %.S.BXrX-X=X&X@X*X-X,X1X1XBX<XOXd.w.| Y Y Y Y Y Y T  .x.wXrX5X(.P.] N 9 4 < 4 w M E W ;.W E B m b _ BX/ i u 3 7 7 q ",
"0 z b B A T  .y.Z.@X>XeXlXBXBXBXxXuXyX,X@XC.m.k.j.q.' ' ' U C Y | t.V.xXkX[.E.[ V 8 < 1 5 z G R W ,.W E U A X.BX+.^ i u 3 3 6 7 ",
"8 x V I E ,.<.e.p.g.Z.OXOX@X-X2X1XBX1X*X+XM.M.m.m.k.j.l.' U C C T | x.3XBXqX!.T N 7 < 4 8 z G R W ! ! ! X.$.VXaXQ.) u r 3 6 6 4 ",
"w m K E ;.:.2.4.i.s.a.d.g.Z.Z.OXrXeX<X*XoXoXM.M.D.D.M.n.q.E I I S | t.F.tXBXS.D v 7 3 4 8 z G R ! ! q.t.c.dXnXBX^.] i u 6 6 6 5 ",
"z M R W >.1.1.4.4.4.i.i.p.p.f.*XBX2X*X@XoXoX%X%X%X#XC.m.e.,.U I C Y w.V.$XuX3Xo.b 7 6 7 7 w N U !  .z.9X!.Q.[.BX[.O.a 6 6 6 4 8 ",
"x G L Q >.1.1.3.4.4.4.i.e.p.Z.,XyX>X*X@X%X%X%X%X%X%XoXi.e.,.E E U U | y.Z.=XBX&.` v 0 7 0 q N U @.c.BX=.$.&.!.gXhX~.^ 7 6 6 5 w ",
"c H L Q >.:.1.1.3.4.2.2.e.f.OXlXrX=X&X=X%X;X;X;X%X+Xa.s.e.,.E E E U ! y.h.OX8X5X$._ b 0 0 q N X.*.dX#.X.o.$.*./.BX!./ 0 6 6 8 z ",
"c H L L Q >.:.1.1.1.2.e.r.V.-XlX-X=X=X;X;X;X;X;X+X.Xa.i.2.W E R U E q.d.h.Z.Z.BXc.X._ v q ~ _ ^.^.` _ ` ` X.+.Q.nX^._ q 7 0 q z ",
"F H H P P Q >.>.:.:.2.e.f.OXyXwX=X=X=X;X;X;X;X+X.Xs.i.2.:.Q R U U ! e.d.h.h.Z.8XtX&.X._ ~ _ gX-.^ q b / _ _ ` -.].]._ v 0 0 z x "
};
