/* XPM */
static char *rcp07205250574972[] = {
/* columns rows colors chars-per-pixel */
"64 64 140 2 ",
"   c #040505",
".  c #060708",
"X  c #070809",
"o  c #0A0B0D",
"O  c #0D0E11",
"+  c #0F1013",
"@  c #0F1219",
"#  c #111315",
"$  c #141619",
"%  c #16191D",
"&  c #191B1E",
"*  c #161A21",
"=  c #1A1D22",
"-  c #1A1F28",
";  c #1E2125",
":  c #1E222A",
">  c #1F2631",
",  c #212326",
"<  c #22252B",
"1  c #25292E",
"2  c #292B2E",
"3  c #212730",
"4  c #252A32",
"5  c #2A2E33",
"6  c #272F3D",
"7  c #292F39",
"8  c #2D3135",
"9  c #2D323A",
"0  c #313335",
"q  c #32353B",
"w  c #35383D",
"e  c #393B3D",
"r  c #2D3542",
"t  c #303741",
"y  c #353A42",
"u  c #3A3E43",
"i  c #353D4A",
"p  c #393F49",
"a  c #3E4145",
"s  c #3C424A",
"d  c #3C4452",
"f  c #3B4658",
"g  c #424345",
"h  c #42464B",
"j  c #46494F",
"k  c #46484D",
"l  c #4A4B4E",
"z  c #404651",
"x  c #404751",
"c  c #434850",
"v  c #434852",
"b  c #454A54",
"n  c #484C52",
"m  c #4B4E53",
"M  c #4D4F53",
"N  c #4B4F55",
"B  c #4B4E53",
"V  c #444D5B",
"C  c #4F5255",
"Z  c #4E5155",
"A  c #4D525A",
"S  c #515457",
"D  c #515358",
"F  c #51565E",
"G  c #52565C",
"H  c #57595C",
"J  c #5A5C5D",
"K  c #4C5562",
"L  c #575C66",
"P  c #585B61",
"I  c #585C61",
"U  c #5A5D62",
"Y  c #5C5E63",
"T  c #595E66",
"R  c #5A5D62",
"E  c #525B68",
"W  c #5E6063",
"Q  c #5F6163",
"!  c #5F656E",
"~  c #5C6472",
"^  c #576479",
"/  c #606162",
"(  c #60646A",
")  c #62656B",
"_  c #64686D",
"`  c #6B6D6F",
"'  c #606874",
"]  c #696C72",
"[  c #6A6E74",
"{  c #636C7C",
"}  c #6B717B",
"|  c #727477",
" . c #71757B",
".. c #75777C",
"X. c #73767B",
"o. c #75787C",
"O. c #5F7397",
"+. c #647084",
"@. c #6A7381",
"#. c #797D83",
"$. c #767E8B",
"%. c #737E92",
"&. c #7E8083",
"*. c #778293",
"=. c #6C80A2",
"-. c #818285",
";. c #828588",
":. c #83868A",
">. c #8F9295",
",. c #8F9399",
"<. c #919294",
"1. c #94979D",
"2. c #93969B",
"3. c #97999D",
"4. c #9599A0",
"5. c #A3A5A7",
"6. c #A2A5AB",
"7. c #A1A5AD",
"8. c #ACAEB2",
"9. c #AFB2B6",
"0. c #AFB4BB",
"q. c #B4B5B7",
"w. c #B3B6BB",
"e. c #BABCBF",
"r. c #B7BCC3",
"t. c #C1C3C5",
"y. c #C1C4C8",
"u. c #C6C9CF",
"i. c #CACCCF",
"p. c #C8CCD2",
"a. c #D7DADD",
"s. c #D8DCE2",
"d. c #DADEE4",
"f. c #DDE0E6",
"g. c #C5E4FF",
"h. c #E0E3EA",
"j. c #E8EAEE",
"k. c #F2F4F6",
"l. c white",
"z. c #FDFDFE",
/* pixels */
"= # < $ - 4 < # o # # # o # > - 5 3 = a n I z 8 F h ] P 9.u 8 5 : 4 * & n 9 = a = O & : 9 o O 4 3 % 4 $ = + %   = X + X # o % O ",
"# = % $ 3 ; $ $ $ # = # # = o O $ + 1 + % N 6.l.Y l.l.j.n q u 5 1 + $ % 4 < 8 2 % 5 # + # $ $ - 4 : +.9 # ; & % + + X + $ # X # ",
"o $ ; = 4 t %.v # ; O % 9 < # o & < $ # # 1 ! M s.l.l.l.l.l.y.1.( , 9 N : & ; $ = % = % : y # % = : 5 r = ; $ s 9 & O X . o & # ",
"# q 5 8 < = % ; # s = $ = + # $ # % # o : 9 5 $ 0.l.f.p.l.I C 1 = = & = - 4 < T :.q < 1 y ; O $ = ; r $ i 8 9 j $ o X X $ 5 % O ",
"$ * 5 4 q % o + # % $ # + # + . + # o . + < D q _ r...W n 4.>.= , : i O $ O y u = q v < O $ $ o = # < g.: q : & # 5 =     O * % ",
"$ 5 5 j < y $ % O $ + # # o X + $ o & o , + ; u 1 H h  .5 y 0 w 0 ; ; # % o % + & 5 4 4 * = O $ - $ & : t + : o e   ; o   O O O ",
"o 1 ; O : 1 = # * = $ = = % O   ; % & = # o & e 5 2 q 5 ; , o + % o $ = 4 + $ % $ = ; & 1 1 & & % 4 9 : : : : : , % X $ # O O X ",
"$ # $ 5 O $ 5 , + % # 8 % ; . + * * $ % $ # + & 5 ; a } e # : - # $ % O ; $ = X $ 0 < = < 5 4 = & # ; 9 5 5 4 + # # # % < + & o ",
"$ % < * = $ 8 1 $ o % $ 2 o o 9 . - $ O . o & , q 5.C q y r 4 - o - # 9 # O * $ 2 = # = 5 < V O 5 4 8 b : - 4 o # # % : = o $   ",
"  o $ -   $ # % $ % ; $ $ $ # $ # + o # # # = < 3.5 4 , $ 9 o : 5 % 9 % + # % = 1 5 X # * 9 = < ; - j < % y * : + $ * - < X X X ",
"9 o $ O O   + O # % - $ O # = X # +   X o X & ` q ; 5 = % - - - # = % % - < $ O = # $ ; 9 = V - ; v q 5 s O 3 4 < y e < % o o = ",
"$ O O # X O o   O = % $ $ & o o o $ X o X $ 2 $ o + O # % = % O < : % $ * < # # O # # y = = 7 = 4 < s y 5 1 % - v E ~ % & + 3 + ",
"$ +     5 # o X   X o #   # + $ + % + o O # # q # $ O O X X = 5 o o * % 4 % 4 % ; = # < , 5 s 5 n b 9 | h = 1 = } @.{ ; + # O . ",
"= o o ; . o o X     O . $ O X o + o o o o o o < & + O + X K $ % # = : % $ : % * O % + o % = j , 9 N a 0 < ; #.e } b = a $ + $ # ",
"# & o o O O +   X     X o o o + O # # o # ; = : 7 & O < r & $ O # + # d : 3 o = $ , ; ; $ 8 0 5 j a < 2 q 0 M 2 S a u O O % o # ",
"$ $ # # O O + . . X     X X O . % o X # % % 7 + % = = h 1 0 = y o - * $ = O 4 < s ; # = O ; = 9 o < 5 s #.A b 1.S <.a $ o = = s ",
"% o + ; # X   o X # O       .     X   o O # o + 1 $ $ 1 @.( 4 4 - X O + K < # # ~ o = = < ; < 5 ; # ; ; u 8 2.u.q.H h $ # o $ O ",
"+ = #   O X $   X   #   o   X X O # $ o X O o = $ % & < j C 9 O # % < + O # ; 1 q < % $ u 0 # 1 l & = p F ( J &.l.J 0 $ o < # ; ",
"o X % o X   o O     o           . . + o O # + o O o $ % 0 e $ # + O # # % o 1 O # u 9 % # 9 q 2 o , & 1 & < a S / l e = n $ % % ",
"o o X o +   O # o X . X X +   + X   o # O   % X % + O % # ; $ e $ # o O o # $ = & q : $ 0 o.u 0   O $ % 1 8 < 2 3.0 5 < ; = # # ",
"+ + o + o o O   . . o . . + %   o # o o X o # % * $ o X & + o O X O o # X o # ; o % = & h h e & g = % 2 $ + 1 2 -.% 8 = 2 o O % ",
"o # o 0 % # + X   X . o & & 2 o X   # o o +   . o * O # X = $ X   o # $ # + X X $ < k , < | z./ # & # j 1 $ o # h 2 e < O o o o ",
"o o # + O X : $ o # o $ $ 8 0 o o X o     .   o + + o o o + X   o # # = < o O # % # 5 + S g q 8.u # , 5 <   . $ & O + o $ # # O ",
"; O % O $ $ $ O O $ + ; o # $ & o + + X     O o X % ; = # X X X X o $ O # # X O $ X o . $ $ 0 e h 1 5 & 5 # 2 $ $ $ % X # % O X ",
"% + $ o o + * 1 # = X $ # ; 1 O o + O X     # X $ = # 2 o # # X O X + & O & o O o o X #   X 8 g = 5 & = e # X # + $ & X   o o o ",
"%   u # o & $ : < & = < = + O o X + # o O o   O % X o O X $ + $ # o % * O # # # = $ X   + # $ # 5 = , 0 % $ o 5 X   X X O & o # ",
"  % - + $ % = 4 # % < 9 $ X o o o + O $ +   o ; % 1 X # $ + % O o # % 5 % o + $ 2 # o , $ ; 5 < S O & q 8 = , o %   X o + . O   ",
"  + = 4 + O * + # + $ o O o % $ o % - X o   O   % O O o $ O 5 * 9 # O # O & $ u O ; o o 0 & % ; 1 = % 0 a ~ % O +   .   X o o , ",
"  ; < = $ # # o $ # o O # # = O   # o O X # O O % # O O # X % $ ; $ o # $ = = o < # . o $ , e < a 1 & # 5 7 % ; o + # = + < O # ",
"# % J ; # + o # $ X = # X # 8 # o # &     O o 4 # 9 - X $ o % # $ # # O O = * - O + X o < & u s # % : ; = ; s < & = * + % * O % ",
"X S 1 2 % $ $ + O < % # = $ y # ; , o # . $ $ # + # #   o # o # o * % =   # = # 5 # # = # = & 1 ; p # # t * r # : p 4 $ $ * + # ",
"; # u h O 8 $ o $ # : % < X o % O + y o # 5 b < # $ 9 = , < $ # O + +   X % O + + % + = < # $ : 6 < = # < + 9 % % d r - : = O * ",
"8 z = 5 $ o # = $ X % # * O o * $ + 8 & & $ = y 5 # ; : * t $ = o O O X X O X   o $ < 5 $ % % % 4 = < $ # : O 1 q * 5 4 : 4 % 3 ",
"~ 7 4 # & < < % % , o 5 # $ o ; % = # & $ o # % $ + # $ # + o + o o o     o   o = $ $ ; % + % = - % % $ : # + 5 $ o < y s K q 9 ",
"4 = < 9 & % e 8 # 2 # 5 O 4 < = # $ $ # # # # $ # O # o # X # $ o o   X   # X . % $ ; + # $ 1 y < y o % # $ $ # O O $ # r i < < ",
"= 8 < h = 5 4 = ; h e # $ e = O # + * X o + X O & O & + = + X X # & . & O < # O : + , o   + o X 5 5 # $   o O # e % 1 : - = - o ",
"0 9 - L 5 b 1 5 # #   # $ O 5 o o $ o # o = o O # o o % + + X %   # X X = O # # $ $ O + & X X $ + % O O o $ X   o < 5 = $ 8 j 5 ",
"; V b ; q < 4 # O $ % $ $ % ; < o X # X & o O # # % q O o o $ $ + + # o $ < 9 & + X # X # o , o q = o X o o O o # & $ 2 2 8 u u ",
"5 A # 8 , 4 ; :   o O O < o + 9 1 $ # $ o o X   + X o = = - - O # + X , o = X O # o X X * o   o ; % * O %   o ; % # q = , j #.u ",
"< 2 0 ' 5 z 5 # < O X o X X # % g , , = O O # $ $ + = X : # + O % % $ $ # # = ; $ % &   X X o + $ # + X $ O X X o < I 9 W Q :.< ",
"I , 8 2 2 5 $ % ; X   .   o & = ` l g o # # o & O o % & $ O ; 5 $ % 5 % # ; l u 5 X O +   o   X o X X   $ X o + = 8 f 0 C a.5.S ",
":.t.S < # M o = % $ g . $ o , <  .-.e e $ $ X + = # # # = < : 5 < & &   % I 5 X.8 %   o o X     o O o = X + X + # 1 q ; $.d.s.d.",
"i.e.-.8 q 5 q O % # + = & o $ % < M S 8 & , # O + o o o = 1 b : 5 % o # = j ( l.#., X             $ o X & % o X X # i = F h.l.k.",
"[ q u 5 A 9 < & 2 % < # % = $ o # & & o = # # o & $ ; + * ; 5 ! 5 o ; ; = h b 4 q o o $   X o o   o % : O - $ X + # : V s 1.< ..",
"M ; $ $ < q q 1 = 1 u # $ X & X # = = $ X O $ O < $ : + q 9 9 = % 5 = X < < 8 y d % o   O X O o O O . o * o # $ # % = & p y q < ",
"s y = < = & a t = < 4 O 8 3 O # & = # X o # # X % $ $ * 4 : - + & : = + = # ; & u X o .   o O o O O * % @ % # % < o = - ; % 4 5 ",
"< < # t = $ O # = = o $ $ 5 < $ + o o + o $ # % $ X * 4 % % ; $ # + 1 # o o $ 5 o   o X . X o O + # o O O % * < O o = + 7 4 7 < ",
"= * * O = = q h = $ < 9 : = = * O $ + X $ = X + $ % $ = 5 9 < $ $ + $ * # $ $ 4 o   # . o O X   $ o + . O % $ % # ; % ; $ $ ; < ",
"* % # , O 4 $ = % 7 - $ ; 4 $ 9 o # % o 2 o . X $ $ + # < 1 7 & ; = + = o # % # # $ $ $ % O   o + o o = - O * O # : % < = $ O # ",
"; e 5 % # 8 $ # o $ o # X o O - o o $ = X   . % , o # % O < b + #   # X X # # &   # X . O 5   O   X $ O # + O * o - : = ; = $ $ ",
"5 h 5 w.s q 4 = # # # $ $ # % < O # . # O 2 o & o # % & $ < # O < $ X % o X # + O * o X O # . X   O . O : # $ $ $ q ; $ X = . o ",
"q u q ) 7.1 < # $ O & $ o + % # o + - % $ + # % ; $ # y 4 $ * < 5 ; o   X X # # % +   X % $ # # o O $ @ % % * % $ O O o + . % 1 ",
"% < e 8 #.y + # $ ; + $ * = 4 %   & # O o o O O ; # = $ q = # & y + # . X # + o ; o % . # 1 o = # < = O 4 : % O   X X O O o o o ",
"< O $ $ 2 O $ < $ o % * - * % + ; o O + $ . o + o + = & s ; 8 4 o     # X o ; & #   o o X # 1 + *.$ o $ ; + A O O   X o o o X o ",
"+ + X . o , % # o # # % % $ @ # o X O ; ; +   $ & < 5 y = ; < & , # . # + X # % + $ = 8 o . % , % # % $ o $ % X   X . o o + + o ",
"O + .       X # % ; b = $ + ; # X = # # ; + $ O X # # 5 2 1 ; o + X o + # o < = % + O $ # % s . o $ - O o . X . X . o   O o X O ",
"  o O o o     X + * 9 + o & # # X X O % < $ + $   % & + % # ,   o o o $ + # O & ; = =.< $ X O % O % O X o   X   o . %     o . # ",
"  .   O       # X % < 4 1 = < o o O X # # o =   o o $ o O ; + + % # X = < o o # p ; 9 : r - $ $ + o   $     + $ o . O   .   +   ",
"+ X # $   # X . X o q ~ 9 ; $ # o o o # O o     + X ; # $ O O # $ O # % O o < 8 = & s $ ; < $ % % $ ;     o o o o X X ; . +   X ",
"+ X o o X o     X X # < & # # 4 X X o $ = 5 ; O ,   X X # o = + * 1 1 $ + # % < = $ 5 # 9 o o % O # $ $   & + O + #   + . +   o ",
"  X o   o X     o # # < # o + o # # # * % 1 5 # # $ % o a q ; * 1 # # : & $ < # u F q 5 1 $ o X o # ; + O O + 9 # 1 O O $ +   o ",
"O #   o $ o o   o $ # $ ; $ ; ; o $ ; = % q # ; o $ ; & q q & ; $ % % h 1 F 5 Y u < ) h < $ 9 + 5 K { ; = O % & : o O . X o o O ",
"# o   X * * O X # o   # $ o + = = + + # < ; $ % * + 5 g < 5 L 1 4 < 4 w u F o.n 8 } $.4 4 9 4 ^ & 4 = % $   # + : # o o o   + O ",
"% + o * % o *   X % o + 5 % $ p f * $ % ,.q 1 t & < 2 8 s A % = % % % X 1 e N y u u s < p $ O.% % ; $ % # & $ % O   X   # X o = "
};
