/* XPM */
static char *rcp0721090205424[] = {
/* columns rows colors chars-per-pixel */
"64 64 209 2 ",
"   c #1B1B1A",
".  c #1D1A17",
"X  c #251A0E",
"o  c #291C0F",
"O  c #22170C",
"+  c #271D11",
"@  c #2B1E11",
"#  c #201E1C",
"$  c #2E2113",
"%  c #2B251D",
"&  c #332515",
"*  c #372817",
"=  c #392816",
"-  c #332718",
";  c #362819",
":  c #3B2B1A",
">  c #3F301E",
",  c #2B2A2A",
"<  c #292725",
"1  c #322B24",
"2  c #3F3122",
"3  c #36312C",
"4  c #353535",
"5  c #3D3D3C",
"6  c #3C3936",
"7  c #412E1B",
"8  c #43311D",
"9  c #4B351E",
"0  c #4F381F",
"q  c #53391E",
"w  c #453422",
"e  c #4A3622",
"r  c #4D3923",
"t  c #4D3C2B",
"y  c #44382B",
"u  c #533C24",
"i  c #593F23",
"p  c #523F2A",
"a  c #453D35",
"s  c #603F21",
"d  c #5C4125",
"f  c #54412C",
"g  c #5C442C",
"h  c #4D443B",
"j  c #4A4138",
"k  c #544433",
"l  c #5D4934",
"z  c #54483C",
"x  c #5C4D3D",
"c  c #574735",
"v  c #634425",
"b  c #6D4927",
"n  c #63472A",
"m  c #65492C",
"M  c #6B4B2B",
"N  c #6B4726",
"B  c #724E2A",
"V  c #764D28",
"C  c #73512D",
"Z  c #7B532E",
"A  c #634C33",
"S  c #6A4E32",
"D  c #634F38",
"F  c #6D5234",
"G  c #66533D",
"H  c #6D543A",
"J  c #675037",
"K  c #745433",
"L  c #7C5631",
"P  c #7E5933",
"I  c #725639",
"U  c #76593B",
"Y  c #7A5B3B",
"T  c #444444",
"R  c #4D4944",
"E  c #4B4B4B",
"W  c #494744",
"Q  c #544C44",
"!  c #524F4C",
"~  c #5A4F42",
"^  c #5C5144",
"/  c #54504C",
"(  c #5C564F",
")  c #545454",
"_  c #595653",
"`  c #5C5854",
"'  c #5B5B5B",
"]  c #655442",
"[  c #6B5843",
"{  c #6D5D4C",
"}  c #655647",
"|  c #725B41",
" . c #7A5E40",
".. c #735F49",
"X. c #625E5A",
"o. c #665D53",
"O. c #7C6143",
"+. c #7A634A",
"@. c #77624C",
"#. c #69625B",
"$. c #756A5D",
"%. c #796856",
"&. c #646464",
"*. c #696562",
"=. c #6C6C6C",
"-. c #6D6965",
";. c #756E65",
":. c #7A736C",
">. c #737373",
",. c #7A7672",
"<. c #7C7C7C",
"1. c #7A7977",
"2. c #80562F",
"3. c #815731",
"4. c #845B33",
"5. c #895E36",
"6. c #835E3A",
"7. c #895F39",
"8. c #8B6137",
"9. c #84613C",
"0. c #8C633A",
"q. c #8F683F",
"w. c #91663C",
"e. c #93693E",
"r. c #846442",
"t. c #8D6A45",
"y. c #8A6846",
"u. c #946B43",
"i. c #996E44",
"p. c #906D49",
"a. c #9C7247",
"s. c #9C734A",
"d. c #846D55",
"f. c #8D755B",
"g. c #957756",
"h. c #A1764B",
"j. c #A3794D",
"k. c #A97D51",
"l. c #A37B53",
"z. c #847767",
"x. c #957C62",
"c. c #847D75",
"v. c #AC8156",
"b. c #AD8359",
"n. c #A7815A",
"m. c #B4875A",
"M. c #9E8366",
"N. c #87817A",
"B. c #A38464",
"V. c #AB8C6B",
"C. c #A78969",
"Z. c #B58C63",
"A. c #BA8D61",
"S. c #B5926D",
"D. c #BC9369",
"F. c #BC9066",
"G. c #AA8F71",
"H. c #B59573",
"J. c #BB9670",
"K. c #BD9A75",
"L. c #B99B7A",
"P. c #C1966C",
"I. c #C59A6D",
"U. c #C99D6F",
"Y. c #C39D75",
"T. c #CB9F74",
"R. c #CAA176",
"E. c #CDA47B",
"W. c #C6A179",
"Q. c #D2A87D",
"!. c #838383",
"~. c #8B8B8B",
"^. c #8C8985",
"/. c #939393",
"(. c #9B9B9B",
"). c #93908C",
"_. c #A4A4A4",
"`. c #ACACAC",
"'. c #B7B7B7",
"]. c #B4B4B4",
"[. c #B3B3B3",
"{. c #B9B9B9",
"}. c #BABABA",
"|. c #BCBCBC",
" X c #BEBEBE",
".X c #BBBBBB",
"XX c #CBA881",
"oX c #D6B086",
"OX c #C3C3C3",
"+X c #C1C1C1",
"@X c #C7C7C7",
"#X c #C4C4C4",
"$X c #C3C3C3",
"%X c #C9C9C9",
"&X c #CDCDCD",
"*X c #CBCBCB",
"=X c #D1D1D1",
"-X c #D4D4D4",
";X c #D9D9D9",
":X c #DEDEDE",
">X c #DADADA",
",X c #E2E2E2",
"<X c #E6E6E6",
"1X c #E3E3E3",
"2X c #EAEAEA",
"3X c #ECECEC",
"4X c #F3F3F3",
"5X c #FFFFFF",
"6X c #FDFDFD",
/* pixels */
"W ) E E W W W W W E _ ' ' >.1.!./.].&XOX$X[.(.~.~.~._. X&XOX X].OXOX}._./.~.~./._.}.&X#XOX[./.<.&.&.) W ) E E W E E W W W E ) ) ",
") W E ) E W ) X.=.1.`.].[. X=X;X3X4X;X X].`.(./.~.!._.].OX]. X}.}.#X}.`.~.~.~.!.~.(.].#X%X&XOX_.(.(.~.1.=.-.' _ ) ) W W W ) E ) ",
"E W E E ) ' >.!._. X&X;X<X1X3X4X<X#X].[.(./.~.1.<.!./._. X X`.`.}.].}.[.~.<.!.1.!.!.(.[. X#X#X X X].`./.!.!.>.-.) E W T W E W ! ",
"W T W E >./._.}.%X<X4X5X5X3X2X*X X].`./.=.>.=.=.1.!._.`.}. X[.`.`.#X X_.(./.>.' &.-.1.~./.[.].].#X#X}.[._._./.~.>.&.) E T W W W ",
"E E ' <._. X&X;X,X,X5X5X5X-X}.].`.!.1.>.&._ _ ) >.~._.`. X X}.}.[. X}._.).!.=.) E ) ) &.=.~.`.`. X]. X X X[.`.(./.!.-._ E W W E ",
"_ ' !.`.$X;X,X3X<X2X4X<X=X[.`.(.1.=.' _ _ _ ) ' <._.[.}.}.%XOX[.].'.].(./.!.=.&.W W W ! _ >.>.!.`.`. X%X*X#X`._.(./.1.>.&.E ) _ ",
"' ~.].#X-X:X2X4X2X2X=X X]._.<.<.-._ E W E ) W _ !.(.`. X%X&XOX].`.}..X(./.1.=.) W W W ) ' =.=.*.=.~.].}.OX X X`._.(././.=.&._ ) ",
">.(. X=X<X4X6X4X;XOX}.[./.<.-.&.&.W 6 4 W W T ) <.(.`. X&X%X X[.[.}. X_._.~.=.) W 5 T T E _ &.&.-.>.!.(.].+X X].`.`.(./.!.>._ _ ",
"=._.OX:X4X5X<X%X[.[./.1.>.&.' E ) 5 6 5 W ) W _ >./.[.].}.%X}.`.[.}.].`.(.!.-.' _ 5 4 T W W ) &.&.&.>.-.<.`.].[.].]._.(.^.>.&.' ",
">.(.@X<X4X;X].]./.<.&._ E W W W T 5 6 W 5 E _ &.1._.[.].}.].`._.`.].}.[.(.~.>.-.) 5 5 5 5 W W E _ ) ) ) &.>.~.(.`.`._./.~.=.*.' ",
">./. X;X;X X].~.>.-.' &.) W 5 W 5 6 4 5 E _ ) &.1./.[.`.].].`.(._.[.].`.(./.<.>.) W T 5 T W W W ) W E W ) &.&.>./.`._.(.~.>.-._ ",
"' >./. XOX X_.!.&.&.&.) ) W W T T T T 5 W ) &.-.1.(._._.}.}.`.`.`.}.[.`._.(.!.-.' W W T 5 W T T T 5 W T W ) &.=.~.`._.(.1.' _ E ",
"W ! _ <.(.`./.1.=.>.&.) ) ) E _ W T 5 W W _ X.&.>./._._. X].[._.`.[.[.`._.(.^.>.&.E W E W 5 5 T T E W E ' &.<./.`.[./.>._ E 5 6 ",
"x k a W &.!././.(._.~.!.1.>.>.&.) T W ) ) ) ) ' >.~.(.`.}. X[._.`.[.`.`._./.1.=.&.E E W E W ) =.1.~./._.`.OX-X;X%X(.>._ j j t ] ",
"y.I H c ^ #.>./.].}..X`.[.(.~.~.>.' W ) &._ _ ' -.!.(.`. XOX].`.`.[.`.`.(.~.1.-.' ) ) ) &.>.!.(.`.OX$X-X:X,X,X+X~._ ! c D S y.l.",
"b.s.0.M A x o.&.!._.}.}.].`._.(./.!.-.&.&.) _ _ >.~._.].#X#X}.`.`.}.+X[.(.!.!.&.&.) &.1.!._.`.].%X:X,X2X2X&X(.>._ z c m 6.b.Z.D.",
"a.i.s.7.P U [ { X.-./._.[.}.].`._._.!.~.>.&.&.) =.!.(.`.OX X[.`.`.].OX`.(.!.!.&.&.>.~._.`.#X=X-X:X2X:X=X(.&.&.Q t g N u.b.Z.s.s.",
"4.7.0.0.i.8.K n G ^ X.>.(.].OX].`.`._.(.!.1.=.' =.~.(.[.OX X}.`.`. XOX`./.~.1.-.>.(.].#X;X;X,X,X,X&X`.>.E Q k A K 3.a.a.0.L 4.e.",
"i v 4.8.0.a.e.4.C g l o.&.<._.].].[.[.}.`.(.~.=.-.!.~._.}. X X`.[. X#X[.(.!.>.=.~. X=X:X2X2X3X,X}.~._ R c p n P j.v.i.4.L n d d ",
"r u n M 4.4.5.0.e.B m A ^ ( =./.[.}.}. X}.`._.1.=.<.~._.}.#XOX[.}.OX X[.(.<.=.!.OX=X;X2X3X4X;X_.&._ z k m N u.h.i.7.8.K d 0 8 0 ",
"8 r r 8 d B 4.0.e.0.4.C n c ~ ,.1.~._.}.[.[.`.~.!.!./.(.}. X#X]. X X}._.~.<.<.OX<X,X;X<X-X[.~.) ( x J M Z h.s.e.4.P K i u 8 = 8 ",
"& : : 8 u q n L 8.0.7.8.Z C g { $.X.>.~.`.[.`./.(./.(.[.}.}.[.`.].}.}.[./.!._.,X,X<X;X`.1._ / x l M C e.e.e.e.4.M m m r 7 : 8 : ",
": ; & & 8 8 d d Y L 2.7.7.Z B 9.| c Q &.!./._._.(._._.}.#X X[.`.}.OX`._./.(.&X<X,X%X/._ ( x f g B u.h.q.0.u.P v q 0 u 8 & & & : ",
"& $ & & * w u p A g N Z 7.7.e.0.6.F A c R &.!.(.`.`.[. X=XOX}.`.}.OX X[._.OX=X;X/.&.R z t m N q.j.u.7.8.K d u u 7 7 7 ; $ & $ $ ",
"@ @ o $ : : 8 w f g u d L 8.e.4.0.Z B u k } / =.!.[.#X=XOX].[._._.}. X[.].$X[.>./ Q c g M 4.u.k.7.8.Z M g e 8 8 : * & & & $ - $ ",
"@ O + @ & & & : 8 8 7 8 r d Z V V 7.4.C N g k ~ _ =./._.`.`._.~.~._.]._./.!.&.h k f d N 5.u.w.4.8.P u u 7 7 & $ & $ : : ; & $ @ ",
"o O X @ @ + @ $ & & & : 9 9 n m 4.4.e.e.5.Z M g k Q ' 1.<.!.<.>.&.>.~.<.&._ h p u b 5.j.i.2.Z P m u e 7 : ; & o $ & ; & & & $ $ ",
"o X @ $ & @ @ @ & : & & & = u d g M 5.7.5.4.4.b u r y W W ) ) ) E ) E T a y u v B e.7.4.Z b v i r r 8 & & $ $ $ $ $ $ & @ & $ $ ",
"X @ & & & $ o @ & & $ & & 8 r 8 g g m K 4.2.4.4.B i e 2 3 4 4 6 4 4 3 3 y u C u.s.0.4.B n u 9 7 & : ; $ & $ @ @ $ @ o @ $ & & @ ",
"& & o $ : : X X & $ $ $ - & 8 & = 8 r i m B 2.3.4.M v w 1 , < , < < 1 2 u Y b.i.Z 4.C d g u : & : : & & @ $ + o $ @ o @ $ & : & ",
": : & & : : & - & - & $ & ; 8 & & = r u u d B 5.4.P d u : % < <   . + 8 A s.m.4.B m 0 9 8 e : & - $ $ - @ O o $ & & & & - : : : ",
"& & & & : : 8 : : 2 ; : $ ; $ & : : 8 8 9 u N L 5.Z N q : % #     % - f Y 9.u.4.b M u 7 7 : : o $ & & - @ $ & $ & & & @ : : : : ",
": & & : 8 w 8 8 : > 8 ; : 2 t f f l A J I Y u.i.3.Z v d 7 % < < < 3 y g M P 4.2.4.s v u 9 8 w : - ; - & & ; & & @ & @ & : & : : ",
"; : : w r 7 8 e w : : r l [ d.x.f.M.B.V.J.F.v.7.Z B v d t 3 5 W ) _ } g i K 4.Z Z 7.6.K U n f u r t : : : : & @ & $ & & = : : : ",
": : : 8 8 : 8 8 w r G G %.x.C.L.K.J.Y.E.I.k.e.2.B v n g h E ' =.!.>.*.{ F 9.C 3.e.0.7.q.u.Y K K H H H l f w ; & @ $ & & & & 7 & ",
"7 : : 8 7 7 7 w f G d.x.M.V.K.Y.D.P.P.k.0.7.w.L v i [ $.*.-.>.<.(._.~.;.{ g m C 4.8.4.4.i.0.P 7.r.O.Y H A f 8 $ @ & & : : : : 8 ",
": 8 : = 7 : f G @.M.V.H.S.S.W.E.P.h.4.V 3.L B d D %.c.!./.!.~.(.}.%X#X_.).z...H M L 8.4.e.0.i.q.6.t.t.Y U A A w : & : 8 : = 7 8 ",
": : : : p l @.f.B.C.S.Y.W.E.P.m.h.3.Z Z B v g [ ;.<.~./.`._._._.}.,X-X`./.!.,.{ @.M C Z 4.4.7.e.u.u.s.r.Y Y Y f p : : : : & = 7 ",
"8 r 8 g ..d.M.V.H.K.K.W.T.I.k.e.Z Z P C m [ $.*.=.!./.`.`.}._.(.OX;X X`.`.(.~.=.o.] A K P B 2.2.7.u.u.u.t.r.O.U g r u 8 & & : r ",
"u f l +.x.C.V.V.K.E.Q.R.v.u.4.8.b M F D %.#.-.>.!.!.!.(.`. X_._.[. X X`.~./.~.~.>.*.#.] A m P 4.4.7.i.i.y.u.p.t.Y m A g e : 8 e ",
"H d.f.C.C.V.Z.J.P.R.A.j.e.8.P B n l { #.&.>.!.<.<.>.>.!._.}.`.(.[.OX.X/.1.<.<.!.~.~.>.:.#.D S M B 5.7.i.i.s.s.s.Y F U U A u g u ",
"f.G.L.H.H.S.E.P.D.j.7.7.Z Z C I ..#.*.>./.~.1.=.-.=.-.~.`.}.`.(.`.OX}.(.!.=.>.<.1.!.~.<.&.X.{ A m v C 7.w.e.h.j.9.Y Y r.r.F H | ",
"V.H.XXoXXXP.U.m.w.7.5.6.K S @.$.-.-.1././.1.-.-._ &.=._.}. X_._.`.}.}.(.~.>.=.*.-.=.>.~./.<.#.o.x g M B Z 0.i.q.0.6.9.6.p.K r.g.",
"S.W.W.oXQ.A.s.e.7.b C S | z.N.>.!.~.!.<.<.&.) ' ) ' !.`.#X}.[.`.`. X].(.!.=._ ) ) ) &.!.!.!.~.-.' Q x F C Z q.w.5.5.q.0.t.p.g.B.",
"Y.E.Q.I.b.j.i.0.P M O.%.:.,.~./.~.<.>.>.&.) E W E ' !.`.OX X[._.`.#X X`.~.>.) W W ) ' &.&.&.<.~.>._ Q ^ k F 6.L Z Z 5.7.s.l.n.K.",
"I.D.k.a.a.e.u.K O.%.:.:.>.~.(.!.>.&.' &.) W T 5 W -./.`.#X X[._.`.OX].`.(.>.) W 5 E ) ) ) &.1.=.=.<.=.-.` x l n v N Z 7.0.i.v.D.",
"0.h.4.5.9.6.Y ..z.c.>./.~.~.1.>.&.' ) E W W 5 5 E =./.[.%X}.]._.`. X]._.(.>._ T 5 5 6 W W ) ' &.=.>.~.~.-.! Q c u i b Z 4.8.w.h.",
"0.6.B N I O.z.,.-.!./.!.>.1.>.&.' ) E 5 5 4 4 5 ) =./.[.OXOX].`.`. X`.`._.<.' W T 5 5 6 E T W E _ &.-.=.<.>.' _ h k u d v M 4.q.",
"g m u A %.c.1.!.~.!.1.=.&.' &.) T W 5 5 4 5 4 T &.<.(.}.#X#X].[.[.}.[.}.(.<.&.W 5 5 5 T W 5 W 5 T E ) ' -.!.^.!._ R a f g 0 d g ",
"r f k $.^.!.(.(.<.>.>.1.=.) ' _ 5 6 T 5 5 5 5 5 ' <._.}. XOX]._.].}.[._./.<.&.W 5 T W 5 T 6 5 4 5 5 T E _ =.>.!.<.>.' Q h w : w ",
"1 j X.(._._.`./.>.&.&._ _ W W 5 5 5 E E T 5 W E ' !._.OX$X#X}.`.}.%XOX_.(.!.&.W W T W W T 6 6 5 4 5 6 W ! ' =.>.1.~.!.=._ 6 1 1 ",
"4 _ ~.`.}. X[.(.1.&._ ' _ ) W W E E W W W E W E _ ~._.OXOXOX X].#X%XOX`.(.1.&.W E W 5 ) W T 5 T 5 6 T T E ) >.<.~._._.(.!._ 5 4 ",
"W &./.].=X&XOX X`./.!.1.&._ ' &.) ) E ! ) E W W &.!._.].OX X X}. XOX[.[._.!.=.! W T E ) W 5 T _ &.-.-.>.~.(._.OX-X#X X[.(.1.) T ",
"E =./.[.%X-X&X;X-X%X].`./././.>.&._ W E ) E W ) &.<./.]. X].[.[.OXOX.X X_.~.1._ _ W W W E _ 1.~._.`.}.&X-X4X4X4X:XOX}.(.~.1.&.W ",
") &.=./._.OX#X-X-X-X&X X].[.`./.1.>.-.' _ ) T _ ' !.(.].#X}. X[.}.}.].`._./.>.' ) E ' -.=./.}.%X-X;X,X4X6X5X6X-X X X(.1.=.*.) E ",
"W _ &.>.!.~.`.%X&X=X:X;X&X X}.[._.(./.>.&.) ) ) =.!.`. X#XOX}.[. X#X}.[.`.(.!._ _ &.=.!.[.#X,X2X6X4X5X5X5X<X&XOX[.~.1.-.) ) E W ",
"W ) ) ) &.>.~._. X*X%X-X=X%X%XOX].`._.~.!.&.E ' >.~.`.OX%XOX}.`.].#X#X}._./.=._ ' <.(.`.&X;X4X5X5X5X5X4X-X#XOX_.<.>.-.) ) ) W T ",
"W W W W T ' >.!.~.`.OX#X%X*X=X=X$X].].`./.~.=.' 1.~.`.OX%XOX}.`.]. X}._.(.~.<.&.<.`.}.,X<X6X5X5X5X6X-XOX X`./.<.&.&._ ) W E E 5 ",
") W 5 E ! ' =.1.!./.(.[.#X#X-X-X-X=X#X}._./.!.>.>.~.}.%X&X X X].}. XOX`.(.~.!.>.(.=X<X3X4X5X5X5X,X#X$X`./.~.1.-.&._ E W E ) E ) ",
") 5 T W W ) _ &.-.<.~./.(.].#X#X=X;X=XOX[.(.!.<.!./.].%X=X#X}.].].}.}._./.<.1.<.].-X2X4X5X5X3X&X%X}./.!.1.=.=.) _ ) ) W ) ) ) _ ",
"E T W T 5 T W ) ) &.1.>.~./.(.[.#X&X;X#X]._./.1.!.~.`.%X&X#X}.`.].OXOX`./.!.<.!. X-X2X6X2X-X#X X_.~.1.=.&.) _ _ ! E W ! E ) ) _ ",
"W E W T 5 T T W E E ' -.-.>.!.!._.OX#XOX[._.(./.!.~.`.OX%X#X].`.]. XOX`./.!.!.(.#X:X3X<X X#X]./.>.=.' _ ) _ _ ) ) W W E W E ) ! ",
"E W W 5 T W W W T 5 T ) _ &.-.>.<.(.}. X X[.(.~.1.!._.OX&X#X X].[.}.OX[./.1.<.(.#X=X;X%X}._.!.!.&.' _ ) W W ) ! E ) E W T W E W ",
"W W E W T W W T T 5 6 5 W ) _ &.>.!.`. X}.[.[./.!.~.(.}.&X#X X`.`. X].`.(.!.<./. X&X=X#XOX/.!.&._ ' ) W 5 E ) W E _ E E E ) E W "
};
