/* XPM */
static char *rcp07211361457145[] = {
/* columns rows colors chars-per-pixel */
"64 64 211 2 ",
"   c #020203",
".  c #070708",
"X  c #0C0C0D",
"o  c #120D03",
"O  c #181206",
"+  c #0F0F10",
"@  c #131315",
"#  c #161618",
"$  c #1B1B1D",
"%  c #241903",
"&  c #201603",
"*  c #301F03",
"=  c #3A2704",
"-  c #362404",
";  c #1E1E20",
":  c #232325",
">  c #272729",
",  c #2B2B2D",
"<  c #2F2F30",
"1  c #323234",
"2  c #363638",
"3  c #39393B",
"4  c #432B04",
"5  c #4A2C03",
"6  c #572F01",
"7  c #443007",
"8  c #4D3405",
"9  c #563403",
"0  c #5B3A05",
"q  c #623D04",
"w  c #683A03",
"e  c #5B4407",
"r  c #644204",
"t  c #6C4404",
"y  c #664B06",
"u  c #754503",
"i  c #7A4503",
"p  c #744C05",
"a  c #6F5006",
"s  c #775607",
"d  c #685C1B",
"f  c #7B7131",
"g  c #736821",
"h  c #3F3F41",
"j  c #404042",
"k  c #824D02",
"l  c #8C5504",
"z  c #855807",
"x  c #915303",
"c  c #955C03",
"v  c #A35F03",
"b  c #8B6B0A",
"n  c #8A6309",
"m  c #946C06",
"M  c #976707",
"N  c #9B7206",
"B  c #93740C",
"V  c #9C750C",
"C  c #9D7B0C",
"Z  c #96760B",
"A  c #8F7210",
"S  c #987B15",
"D  c #A26B05",
"F  c #A37D0A",
"G  c #A67A09",
"H  c #A27E11",
"J  c #9C7E23",
"K  c #A07C21",
"L  c #9E810C",
"P  c #9D8317",
"I  c #A3830D",
"U  c #AB890D",
"Y  c #B48A0D",
"T  c #AC920D",
"R  c #B3970F",
"E  c #A58D12",
"W  c #AC8E12",
"Q  c #A78F1A",
"!  c #A58914",
"~  c #AB9314",
"^  c #AB951A",
"/  c #AE981D",
"(  c #AF9912",
")  c #B39717",
"_  c #B58E1A",
"`  c #B5A01E",
"'  c #998525",
"]  c #928338",
"[  c #A48525",
"{  c #A58C24",
"}  c #AA8A26",
"|  c #A58C2B",
" . c #AB8E2A",
".. c #A18729",
"X. c #B48A27",
"o. c #AB9323",
"O. c #AB932C",
"+. c #AF982E",
"@. c #B3942C",
"#. c #BC952C",
"$. c #B39B2E",
"%. c #BC9A2C",
"&. c #B49C24",
"*. c #A58C33",
"=. c #A88F34",
"-. c #AC9433",
";. c #AF9833",
":. c #AC943C",
">. c #AF9838",
",. c #B49633",
"<. c #B39C33",
"1. c #BA9D33",
"2. c #B39C3C",
"3. c #BA9A3B",
"4. c #B6A12C",
"5. c #B9A32C",
"6. c #BAA626",
"7. c #B7A233",
"8. c #BBA334",
"9. c #BDA936",
"0. c #B6A13C",
"q. c #BAA53B",
"w. c #BEAA3B",
"e. c #C4A21C",
"r. c #C5942C",
"t. c #C39B2D",
"y. c #C09F26",
"u. c #C29C33",
"i. c #C49E39",
"p. c #CFAE2F",
"a. c #C5A42A",
"s. c #C2B02C",
"d. c #C4A332",
"f. c #CAA536",
"g. c #C1AC34",
"h. c #CDAB33",
"j. c #C6A33C",
"k. c #C9A53A",
"l. c #C2AD3A",
"z. c #CBAA39",
"x. c #C4B035",
"c. c #C3B03B",
"v. c #CCB63D",
"b. c #D6BA33",
"n. c #D3B639",
"m. c #D3AD2F",
"M. c #9B8C47",
"N. c #A38C44",
"B. c #A88F46",
"V. c #AD9545",
"C. c #B39C43",
"Z. c #B29C4A",
"A. c #BE9D45",
"S. c #B39D51",
"D. c #B4A043",
"F. c #BBA543",
"G. c #BDAA43",
"H. c #B7A14B",
"J. c #BAA54B",
"K. c #BFAC4A",
"L. c #BDA952",
"P. c #BCA958",
"I. c #BEA966",
"U. c #CAA645",
"Y. c #C2AD42",
"T. c #CCAC44",
"R. c #CBAC4C",
"E. c #C4A94A",
"W. c #C4B243",
"Q. c #C9B644",
"!. c #C6B449",
"~. c #D3B44B",
"^. c #D7BA45",
"/. c #C4AC5C",
"(. c #C5A956",
"). c #C7B257",
"_. c #D8BB56",
"`. c #CEAF66",
"'. c #C3AC69",
"]. c #D0AF67",
"[. c #CFB46A",
"{. c #C9B563",
"}. c #DABB65",
"|. c #D4B569",
" X c #CCB875",
".X c #D6B772",
"XX c #D3BB7C",
"oX c #D5B974",
"OX c #DDC157",
"+X c #E0C558",
"@X c #DFC564",
"#X c #DDC46C",
"$X c #DAC375",
"%X c #E0C563",
"&X c #E4CE63",
"*X c #E2CC6F",
"=X c #E6D26C",
"-X c #E2CB7B",
";X c #E3CB76",
":X c #E7D479",
">X c #DABD81",
",X c #D7C18C",
"<X c #E1C985",
"1X c #E7D48A",
"2X c #E3CB98",
"3X c #EBDA97",
"4X c #EEE19F",
"5X c #EDE08A",
"6X c #EAD7A3",
"7X c #EFE3A6",
"8X c #F1E8AA",
/* pixels */
"t.n.~.d.f.g.$.G.g.v.w.s.G   , > : , > 5.I I C S z B S F C Z B Z S G Y G Y Y U G M M C M 4 , , > $ @  X6X X9.<.$.2.{ O.<.<.E.f.f.",
"f.1.3.d.f.9.$.q.9.x.7.g.~ i $ : , , , O % 7 8 e 8 9 w y r t a t w s p u u p 0 q r 4 % O > , , : $   <X6XK.1.@.9.w.<.O.O.2.1.r.z.",
"n.1.2.7.9.8.5.l.g.x.W.9.6.G 8 $ > , < , , , > : > $ $ # # # # : ; ; ; $ $ $ # $ # $ : , , , > : @  X4X,X2.0.7.<.9.<.<.} 1.i.n.~.",
"n.8.<.<.@.9.G.w.7.q.W.w.9.( v @ : , < 1 , > , < , , : : : : > , , , , , : : : > : : , > , : ; $ f 6X7XE.H.q.W.c.9.7.$.@.,.z.b.n.",
"k.k.3.-.<.F.G.1.W.l.l.G.9.$.U t ; > , 1 , , < , , , : > < : , , , , , , , < : , < , , , : > : @ #X8XoXG.G.Y.G.8.^.R.,.$.O.t.n.z.",
"0.i.1.o.7.q.Y.@.G.G.K.J.w.K.) m X , , < 1 1 , < < < < < , , < , , , , , , , , , 1 1 , , : : : P.3X6XW.K.L.G.T.t.^.k.t.h.p.m.u.$.",
"@.1. .$.8.8.@.$.q.q.C.!.q.J.~ N = < < 1 1 1 , 1 1 , , , < , < 1 , , , > 1 < , , , 1 < : , , : E.{.oX9.8.9.z.T.U.h.%.%.a.m.b.t.@.",
"k.t.7.<.$.<.@.$.D.C.7.q.J.~ N q : , , , , < , , 1 , , , , , 1 1 , , , , 1 , , < < 1 , , , , , @ 6.).[.).J.q.j.F.}  .O.<.X.f.r.k.",
"i.O.7.q.$.<.+. .7.7.<.L.Q l 0 : , , , , 1 1 , , , , 1 < , > , , < , , , , , , 1 < < > < , , > : @ e.^. XF.q.1.<.@.<. .$.{ @.u.t.",
"U.2.<.7.2.-.O.;.7.<.H.^ N y # > , < 1 2 , < < , , 1 1 , : , , > > , , , > , , , , , , , 1 , : : : X a.T.@X#.<.O.@.J #.-.@.#.A.(.",
"1.@.C.>.2.<.Z.>.<.$.^ M q # $ > , 1 1 < , 1 3 1 2 2 < , < , : : : : , , , , , < < < , , , , : : : : X ` T.R.q.@.<. .+.X.} u.0.<.",
"| <.$.<.<.O.q.0.q.W M y $ : , , 1 1 1 1 1 2 1 , 2 1 , , 1 , , , , , > , , , 1 , 1 , < , , , : , : : $ X ^ U./.,.<.<.;.<.u.%.d./ ",
"N ~ <.Z.O.2.<.D.~ D 0 $ : < , 1 < 1 2 1 1 3 2 1 1 1 1 2 , , , , > : , , 1 1 , , < : : : , , : > > : $ : X / d._.F.q.8.@.d.R F N ",
"  m E $.j.<.L.o.N q # : > , , 1 1 1 3 1 1 2 , 1 1 1 1 2 1 1 1 , > : < < 1 , , , , ; : : ; > , , > : : > ; . ^ q.).<.u._ G c 8 X ",
"$ @ 0 C _ %./ c a # : > , , < < 1 , 1 1 , 1 1 1 1 < 3 3 1 1 1 , : , , > , , , , , : : : : , , > : , < > ; #   Q j.5.L G w X # @ ",
"$ : $ # s m N t @ : : , , , , , 1 1 , , , < 3 1 1 < 3 1 1 1 1 , < < < , > , , > > , > : : , : : > , , < , $ @ X ~ N k . : : : $ ",
": : : ; : X 4 ; $ $ 1 , , , , > , 1 , 1 1 , 1 < 1 < < 1 2 , , , , 1 < , , , , , 1 , , : > , , , > , , , , : : $ X = $ : : > : : ",
"> : : : : : : > > : > , > < 1 , , 1 1 < < 1 < < 1 < , , 1 1 < < 1 , , , : < , , , < , : , : < , > : , , , : : : : > , , : , , > ",
": , , > , , > , : , , , , , 1 , , , 1 1 < , < < , 1 , 1 3 , < < , < 1 1 , , , > , , , , , , , 1 , , 1 , , , , , 1 1 1 < , , : $ ",
"i o , , , > , > , , , , < , 2 < < < < < , , 1 , 1 < < < < , , , < 1 1 1 < , , < , , > , 1 1 1 < , < 1 1 1 1 , , 1 1 < , , : 3.! ",
"C & : : : : , , < < 1 1 < 1 1 2 1 , < 1 1 < , > , > : , , , 1 1 1 1 < , 1 < , 1 , , : : < 2 , , 1 < , , , , , 1 1 1 , , , $ &X%X",
"F = $ : : : > , , < 1 < < , 1 1 < 1 , , 1 1 > , , , , < > , : , 1 < , < , , , , , : : : , , , , 1 , , , , , < > , < 1 , > $ =XOX",
"F 8 # : > , , , , 1 < , , 1 , , 3 1 < 2 < , , , , , , 1 < , , , 1 , , , , , , : , , : , , , : , < 1 1 < , 1 , , > , , , : # =X.X",
"C y $ : , , 1 1 3 1 , 1 1 1 1 , 1 , , 1 < < > , , , 1 , 1 < 1 < , , > < < , > , , , , , , , > , < 1 < , 1 , , , > , , , : @ %X].",
"F 0 # : , 1 1 1 1 3 < 1 1 1 , : , , , , < , , > , 1 , 1 < < > , 1 , , , , > : : > , , 1 < 1 , 1 1 , , 1 1 1 , , 1 , < 1 : # @X;X",
"V r $ : : , < , < 1 , 1 1 , , : 1 > , , , , < : : < , 2 , 1 1 , , < 1 1 , , , : : : > , : < , 1 1 < , 1 1 1 , , , 1 1 < : @ {..X",
"C r # : , < , , , 1 > , 1 < 1 1 < , 1 1 , 1 < , , , 1 1 3 3 1 < > > , < : , , , : : : > > , , , 1 , 1 1 3 1 < , , < 2 , > @ }..X",
"U 9 @ : , , 1 < 1 1 , : , , , , 3 1 1 , < < , > < , 1 2 3 3 2 1 , , , 1 , , , , : > : , , , , 1 1 1 1 1 1 < 1 , 1 1 , , : @ %X#X",
"V 9 $ : , , , > 1 < < , , , , , < 1 2 2 1 < , 1 1 1 1 3 1 1 1 1 , > < 1 1 1 , , 1 , , , , , > , , 1 1 1 1 < 1 , < , > : $ X &X*X",
"b r @ ; > , < > 1 1 1 , 1 , < , < 1 < , 1 1 , < 1 , 1 1 < 1 < < , , < 1 < 1 1 , , : > , , , : : , < 1 1 , < , , < , : ; $ X =X}.",
"B 9 # : , , < , , 1 1 , , < < , : : , 1 1 1 3 1 1 1 , , < , < 1 , , < , , < < , , , , , < , , , , , < 1 , , > , < , : : ; @ *X~.",
"M 0 # ; , < < < 1 < < , , , , , 1 , 1 < 1 < 1 1 1 , , , , 1 1 2 1 < , < 1 1 < : > , , > , 1 1 , , , < 1 , > , , 1 , , : : # ;X_.",
"B q # : , , 1 1 1 < , , , , : , , 1 < 1 < 1 1 3 1 3 1 1 , , 1 2 3 2 1 , > , 1 > : : > 1 < 1 1 , , , , , , , , , , : > : : @ &X#X",
"B 9 $ , , , , 1 < , , , < , < 1 1 , , 1 1 2 3 1 1 1 1 2 < 1 3 3 2 3 , > , 1 1 , > , , < 1 , 1 , , 1 < < 1 < , , , > : : ; @ =X}.",
"n 5 $ : , , , < , , 1 , , 1 1 1 1 1 1 1 1 2 , 1 1 2 1 1 2 < 3 1 1 1 1 , , , < , , , , 1 1 , : , , , 1 2 3 1 < < : : , : $ @ OXR.",
"b q # : > , , , , 1 , < , 1 1 2 < , : , 1 , 1 1 , 1 < 3 1 , > , , < 1 < , < , 1 < , , , 1 > > > , , < 1 1 , , , , , > : : # .XL.",
"B 9 $ : , , , , , , 1 1 < 1 < , < > : , 1 < 1 , 1 1 1 1 < < , , , , 1 < < , 1 , , , , : , 1 , , > , , , < , , , , > , , : @ }.'.",
"z 5 $ : , , , , , > , 1 1 , 1 , < 1 1 1 , > , > < 1 , 1 , < , < 1 , 1 1 1 < < , , 1 1 , , > , , , , , , , , , , 1 , > , : @ +X/.",
"n 4 : : < , < < < < , < 1 1 < , < , , 1 1 , < , , 1 1 1 , , , , , < 1 , 1 , 1 , , : , , , , , , , , : , , : < < < , , , # X ]./.",
"b 4 # : , < , 2 1 1 , , , , < 1 < 1 1 , < , < , , , 1 , , > : > , , < , , , 1 1 , , 1 < , : 1 , > > , , , < , < , , , , $ X E.J.",
"b 4 ; : , , 1 1 3 1 1 , 1 1 1 1 1 1 , < > > , , < 1 , , : , : > 1 1 1 1 1 1 1 1 , < , 1 < > , , , , , < < , 1 1 , , < , : X {.H.",
"z - ; , , , , 1 1 < , 1 1 < 1 1 < 1 , , , , < , < 1 1 , > , < > , 2 1 < 1 1 1 1 1 , < , , , , > , , < 1 < 1 1 , > , , , ; @ {.2.",
"z % : , < < , < 1 1 < 2 1 1 2 3 2 1 1 1 1 , , , 1 1 1 1 < 1 < , 1 1 , , < 1 1 < , , , 1 1 1 1 , , 1 , , , 1 1 1 , , , , : + L.2.",
"t o : 1 1 < 1 1 < 1 2 1 1 1 2 < 3 1 1 1 1 > , , 1 < 1 3 3 1 2 2 1 1 < , < , < , 1 , , < 1 , , , 1 , > , < 1 1 1 , : > : : @ { p ",
"* , , 1 1 1 1 , 1 < 3 1 , 2 1 2 1 < < 1 2 1 , < , , 2 3 1 3 3 2 3 1 1 , : > < < 1 1 1 < , , , , > : : , 1 < 1 , 1 , > , : : X 4 ",
": , , , , 1 1 1 , 1 2 1 1 h 1 1 < 1 < 1 1 , < , 1 1 2 1 j 1 2 3 3 3 1 , , : 2 , 1 1 1 , , , , , , , , < , , < : : : : : ; : > > ",
", 1 , > , , < , > 1 3 2 1 3 1 < , 1 , 1 1 , , , 1 1 3 1 1 3 2 1 1 1 2 1 1 , 1 , , 1 , , , 1 , < < 1 < 1 > > : $ # # # $ # : > , ",
", , : : X { 6 @ , < 3 < 1 3 1 , , 1 , , 1 , , 1 1 1 < < 1 1 1 1 1 1 < 1 1 1 1 , , 1 , < , 1 , , < , , , > : ; @ ] b = # # ; : , ",
": : # d J.`.b 6 @ : , > , 3 1 1 3 1 , < , 1 1 3 1 3 3 2 2 2 < 1 1 < 1 1 , , 1 1 , 1 < < , , : : > , , : : ; # M.:X<.m s   @ : , ",
"#   C.(.XX X{ z w X : : , 1 1 1 , , 1 < 1 3 3 < , < 1 3 , 1 1 < 1 1 , , > < < , , 1 , 1 , , > : : : : : ; $ B.-X3X`.Q V m e X @ ",
"P <.{.XXF.O.;.o.Z k @ , , , , 1 < , 1 1 1 1 3 3 , 1 1 1 , 1 1 < 1 2 , , , > , , , 1 1 1 1 < , : : : # @ @ N.:X3X-XU.O.Z.P b z p ",
"P.I.'.<.| +.<.$./ V u @ : , > , < < 1 1 3 3 2 1 , 1 1 1 1 1 3 1 3 1 1 < , , < , < , , , < , : , : $ # @ ] }.1X@XR.U.,.O.B.{ S -.",
"S.Z.:.>.-.q.C.7.<.&.T x @ : , 1 1 1 1 1 h 1 1 1 , 1 1 1 < , 1 1 , , > , , > , 1 1 , 1 1 , , > : : # @ M.|.1X].u.*.1.2.| O.<.Z.S.",
"2.<.C.O.:.O.C.F.7.5.$.I x X , , > , , 1 2 , 1 1 1 1 1 2 1 > , > , , 1 1 1 1 , , < , , 1 , , > : ; @ M.+X1X`.O.A.:.O.| [ ..-.>.-.",
"| | >.:.<.0.Z.2.7.8.8.4.W c @ , , , , 1 3 3 3 2 < 2 1 1 1 , > > 1 , , < 1 > , 1 1 , 1 < < > : $ $ ] :X3X.XC.+.Z.>.| [ -. .=.*.:.",
":.>.<.-.O.-.-.z.@.$.1.7.4.E l @ , , 1 1 2 1 2 1 1 1 1 < 1 , , > , < , 1 , , 1 , 1 1 , , < , > : M.;X3XXX<.2.-.| O.*.| K ..=.} | ",
"<.-.*.} <.<.0.8.7.$.w.9.G.4.I l # < 1 1 1 1 1 1 1 < 1 < , , 1 1 1 < 1 1 1 1 , , 1 1 < > , , , N.1X7X-XJ.8.2.C.B.O.[ *.=...*.| O.",
"O. .} $.7.2.<.O.9.7.8.G.W.1.&.C 7 , < 1 1 < , 1 1 < 1 1 < < , < 1 1 < < , 1 1 1 1 1 < 1 1 , : #X7X<XF.Y.<.<.+.| [ | ' ....| O.[ ",
"| O.O.$.0.q.t.1.7.%.9.c.Y.l.~ x $ , : , 1 , , 1 1 1 1 < , , , , 1 1 < < , 1 , < < 1 1 < < , : g +X2XL.<.0.C.2.>.=.*.....[ } X.O.",
"O.| ..:.O.j.r.G.9.8.l.!.!.6.D   : > < , 1 : : , , < , 1 , < : , , , , , , , > , , < 1 , , , , : F.<X,XH.C.<.V.-.-.O.-.>.O.| *.[ ",
"{ :.O. .O.p.7.$.q.G.Q.!.9.R i $ , , , > , > : ; # : : , > : : : , > : > > : : : : > , > : , < : . Q.XX/.Z.<.<.,.2.-.<.:.<.[ [ [ ",
"-.<.k.3.@.k.l.Y.T.c.).c.( D . # : > : $ @ @ @ @ @ @ @ @ @ @ @ @ # $ # # $ $ # # @ @ # $ : > , : # ' |.>XZ.F.w.$.>.<.<.,.<.<. .V.",
"7.#.h.t.<.9.Y.v.~.Q.Q.x.U 4 $ $ < , : D./ H P S S S B P A Z V E I E V E T ( R ( E I I i . > > : # X _.2XJ.8.<.2.O.O.-.f.k.<.@.<.",
"1.u.~.Y.q.l.9.g.^.Q.g.6.F X > : , , $ $X{.+.=.=.X.#.@.O.O.=.{ $.<.%.p.%.y.d.h.5.o.&.Q F w : : $ $ @ P.2X[.0.<.$.<.O.<.2.7.8.k. ."
};
