/* XPM */
static char *rcp07211842775483[] = {
/* columns rows colors chars-per-pixel */
"64 64 160 2 ",
"   c #4F3566",
".  c #4F3468",
"X  c #52376A",
"o  c #553B6D",
"O  c #573C70",
"+  c #593F71",
"@  c #5A426F",
"#  c #5D4375",
"$  c #5F4875",
"%  c #5F4478",
"&  c #604777",
"*  c #604977",
"=  c #614679",
"-  c #644B7C",
";  c #684F7F",
":  c #67507D",
">  c #69517F",
",  c #674D80",
"<  c #684F80",
"1  c #6C5383",
"2  c #6F5884",
"3  c #705787",
"4  c #715A86",
"5  c #705788",
"6  c #745C89",
"7  c #77608B",
"8  c #79638E",
"9  c #7C6591",
"0  c #7E6892",
"q  c #816B95",
"w  c #877399",
"e  c #958686",
"r  c #978989",
"t  c #9B8C8C",
"y  c #9E9090",
"u  c #A29393",
"i  c #A69898",
"p  c #AB9D9D",
"a  c #B1A792",
"s  c #B4AA94",
"d  c #B9AE97",
"f  c #B7AD99",
"g  c #B9AF99",
"h  c #BCB29D",
"j  c #BFB5A0",
"k  c #C4BE94",
"l  c #C4BF98",
"z  c #C0B7A1",
"x  c #C3BAA5",
"c  c #C6BDA9",
"v  c #C8BFAB",
"b  c #C6C196",
"n  c #C9C397",
"m  c #C7C29A",
"M  c #CBC69C",
"N  c #CEC99E",
"B  c #D1CB9E",
"V  c #CBC7A1",
"C  c #CEC9A1",
"Z  c #D0CBA1",
"A  c #D0CBA2",
"S  c #D0CBA3",
"D  c #D1CBA3",
"F  c #D1CCA1",
"G  c #D2CDA1",
"H  c #D3CDA1",
"J  c #D1CCA2",
"K  c #D1CCA3",
"L  c #D2CDA3",
"P  c #D2CCA3",
"I  c #D4CFA2",
"U  c #D0CBA4",
"Y  c #D1CCA5",
"T  c #D2CDA4",
"R  c #D3CDA5",
"E  c #D3CEA5",
"W  c #D3CEA4",
"Q  c #D2CDA6",
"!  c #D2CDA7",
"~  c #D3CEA6",
"^  c #D5CFA5",
"/  c #D4CFA5",
"(  c #D4CFA6",
")  c #D2CDA4",
"_  c #D4CFA9",
"`  c #D4CFA9",
"'  c #D5D0A3",
"]  c #D5D0A5",
"[  c #D7D2A5",
"{  c #D5D0A7",
"}  c #D5D0A6",
"|  c #D7D1A6",
" . c #D6D1A7",
".. c #D7D2A6",
"X. c #D7D2A7",
"o. c #D6D1A6",
"O. c #D8D2A7",
"+. c #D8D3A7",
"@. c #DAD4A7",
"#. c #D8D3A6",
"$. c #D5D0A8",
"%. c #D6D1A8",
"&. c #D6D1A9",
"*. c #D7D2A8",
"=. c #D5D0AA",
"-. c #D6D1AA",
";. c #D6D2AB",
":. c #D7D2AB",
">. c #D5D0AC",
",. c #D6D1AD",
"<. c #D6D1A9",
"1. c #D8D2A9",
"2. c #D8D3A9",
"3. c #D8D3AA",
"4. c #DBD5A8",
"5. c #DAD4A9",
"6. c #DBD5A9",
"7. c #DBD6A8",
"8. c #D9D4AA",
"9. c #D9D4AB",
"0. c #DBD6AA",
"q. c #DAD4AA",
"w. c #DCD7AB",
"e. c #DAD5AC",
"r. c #DBD5AC",
"t. c #DAD5AD",
"y. c #DBD6AC",
"u. c #DBD6AD",
"i. c #DAD5AE",
"p. c #DBD6AE",
"a. c #DCD7AF",
"s. c #DAD5AB",
"d. c #DED9AB",
"f. c #DFD9AC",
"g. c #DFD9AD",
"h. c #DDD8AE",
"j. c #DDD8AF",
"k. c #DED9AF",
"l. c #DED9AD",
"z. c #DBD6B1",
"x. c #DED9B0",
"c. c #DFD9B0",
"v. c #DED9B1",
"b. c #DFDAB0",
"n. c #DFDAB1",
"m. c #DED9B2",
"M. c #E0DBAD",
"N. c #E0DBAE",
"B. c #E1DBAF",
"V. c #E0DBB4",
"C. c #E1DCB5",
"Z. c #E2DDB4",
"A. c #E2DDB6",
"S. c #E3DEB6",
"D. c #E2DDB3",
"F. c #E3DEB9",
"G. c #E6E0B5",
"H. c #E6E0B5",
"J. c #E6E1B9",
"K. c #EAE4BA",
/* pixels */
"- 2 > - - u x.E C Z F Z F M N ^ Z E F F Z r.# - 1 2 = % # - 4 - 2 ; - - # y S.r._ Z E E C E ^ F F C N M E w.# # - < - - 2 - < 1 ",
"- - - + u x.E Z M N Z M N M M N m M N N E 0.- - 2 - = - # - - > 8 2 1 - t x.y.-.-.C :.U N Z I M N N B F B @.o # = - = - - - - - ",
"= - o t O.^ N N N N N N b k k M b M M Z E 3.- - 2 - - 2 7 1 2 4 4 4 - u j.] -.-.E C E F N N M M M N M n N @.+ = - # = - = - - = ",
"1 # t O.F F F N N N N N M m k k b m N N C 0.- < 3 1 = > 4 - 1 6 6 - u j.E E :.] C C E E F ^ b N N N M M F 0.O - - = = - = = % - ",
"# u r.0.C M N N M Z N ' N N n N M Z m N E r.- 1 - - 1 1 2 4 2 - 2 u S.] ] ] ] 0.-.U -.E -.^ N ] B N B B ] j.# = 1 - = - - = - # ",
"u r.-.N Z C -.-.] ] ] M.] ] ] 0.^ C Z ^ r.r.> - - # 2 2 - 4 1 - u S.0.3.E F S.S.x.j.V.x.r.3.-.0.M.d.0.0.j.H.# 1 1 - - , - = 1 * ",
"x.^ F N N ^ 2 - # + # + + - # - - # + - 1 # 1 1 - - 2 = - 2 : i F.-.-.E -.r.4 - 4 - 1 2 1 - - - # # # # o # - 1 - - - - - - + y ",
"F C Z M Z r.: - # o # - # # - - - = - - 1 1 1 - - ; 4 1 - - p S.m.0.3.E -.x.- - 7 4 > # > 2 * - # = - # # # - 1 , % = # - % t V.",
"^ E V m N y.* > # # # - = - - 2 - = - 1 2 1 2 2 - 2 6 4 - 1 h r.z.-.-.r.-.r.4 4 4 7 7 > 4 4 > # - - % # # # # = - - # - # - h r.",
"E F C N C r.* - & o # - # - - > # # - 1 1 2 9 2 - 2 6 2 1 - g y.:.-.^ _ z.S.> 2 7 7 2 2 - 1 - - - - # # # % - - # - = = % - z -.",
"E N M C C 0.> - * = * - ; < - - - 2 - - 2 4 7 2 4 2 4 4 2 1 h x.E -.x.-.-.J.7 8 2 6 4 4 - 2 - ; - < - - = # - - 1 - 1 1 - - x :.",
"E C M F M E : > - - > 1 - ; - - 1 1 - 6 2 < 3 6 4 6 6 4 ; 2 x x.] x.j.-.z.K.8 7 7 6 1 2 1 1 2 - - , - # % # = - - 1 2 1 - # h j.",
"C N C m V E : 2 1 - - 1 - 1 = # - < 2 4 1 < 1 4 7 6 4 2 4 > x j.:.z.x.^ r.S.6 6 6 4 7 2 2 2 - # - = % - - = = - - > 1 - 1 # h -.",
"C M C V C -.- - - 1 2 2 2 < 1 - - 4 2 2 7 1 4 1 - 2 2 # 2 * x r.-.:.0.:.:.x.6 - 4 1 2 6 6 1 < = = % # - - % % # - - # - > # f -.",
"F C m M E z.- 2 2 7 7 2 2 4 6 1 - ; - 1 4 1 2 i v z v g z z -.y.-.-.x.] -.z.6 > 2 4 4 6 6 2 - = - % # # # = # r h g g s g h F F ",
"C ] E F C x.4 - 2 > 2 6 4 7 1 - 2 = < - - & u S.j.3.r.D.D.z.] :.-.-.j.^ ] x.- - 1 1 2 > 1 ; - - - % % # # o r d.0.0.^ ] ] ] ^ N ",
"Z F E N ^ -.: 4 4 6 1 7 2 4 < 1 - = = - # u V.x.x.r.r.x.-.O.F E -.] F ^ ] V.- < 1 4 # - - - 1 # - = + o X e d.F N ^ F B M F F B ",
"C ] C N F V.2 - 8 4 2 1 9 6 1 2 - - = # u j.3.] z.3.-.0.] ] B E ^ F ] F F x.- - 1 4 1 2 1 1 - = = # o o e w.@.M N N M N M B B F ",
"] F -.N Z 0.> * 2 3 7 8 2 1 7 2 - 2 - u j.^ I C -.E 3.0.-.N -.-.Z F F N ^ S.- ; 6 1 < 4 4 1 2 = # = o t d.I B B n b M N M M M F ",
"F E M Z C j.1 > 8 2 2 6 2 7 7 4 > * t m.y.0.] ^ ] Z ] ^ ^ M C -.z.E U C ] S.: # 4 2 - 4 4 1 2 - # # t w.B N M N b n n B n M M F ",
"B 3.E E F r.> 2 1 1 2 8 1 7 2 4 # u D.E r.-._ -.-.C O.] -.Z -._ x.-.^ C E x.- * 1 1 3 1 4 - - = o t M.F I m Z I M b n B M B F N ",
"O.0.V.r.x.V.> 2 1 2 4 4 7 6 2 - u V.y.F O.3.y.S.V.0.j.M.D.V.S.x.x.x.j.0.3.K.- # 1 4 2 6 2 < = O u H.] M M M N F ^ ] B @.I 3.d.0.",
"# = 4 4 1 4 4 4 1 6 7 6 6 2 - u V.y.0.r.0.j.- # - # < 1 2 2 q 2 2 - - # - # - - 1 1 3 < < 1 # t j.I M n n ] X X o + X O o o = + ",
"# # 2 4 4 4 2 3 6 4 9 3 6 > u V.3.] j.3.0.K.# - < = - 1 2 2 7 4 1 ; > - - > 1 < 3 1 < - # - t M.' N F b n @.o . o # + # X O # # ",
"- 3 4 7 6 6 6 4 4 7 4 8 2 > h ^ ^ E y.-.0.S.1 1 2 - 1 4 4 3 4 7 0 6 1 - - 2 1 = - 1 - - = # h N b m N k b ] X + # - # # # # - = ",
"- 1 4 7 6 2 6 4 6 7 1 2 1 - h :.E :.E E E w.- - ; - 2 4 1 2 6 7 9 4 1 - - 1 - 1 2 1 - - = # g O.N n M b b 0.X o - - # # = # = < ",
"- < 4 6 7 9 4 6 7 6 2 2 > - h y.^ Z -.F :.y.1 4 8 2 1 4 1 1 6 9 6 8 2 1 - - - = 2 1 - - - + s B M M M m N d.+ # - = - # - = - 1 ",
"- < 1 6 9 6 2 6 4 7 4 2 - * h 0.F E r.-.r.S.1 1 6 3 2 6 6 2 4 0 7 6 ; ; - - < < 1 2 - = # o s N Z F M F N w.# - # # - # - - 1 - ",
"< 3 1 2 6 6 7 4 6 6 7 - - - g z.^ O.r.3.r.S.1 2 1 2 7 6 7 q 0 4 q 6 2 < - - - % 1 1 1 - # o a F M M M M ^ 0.# - % % - = - - - = ",
"< 1 1 1 7 6 6 6 2 > 2 7 - - g 3.^ y.S.z.r.r.2 7 6 4 7 7 7 q w 7 7 6 6 2 1 - 2 = - # - #   o s N m b M E E -.# = % - - - 1 - = - ",
"- < 3 4 2 2 2 p v z h v h g E ^ ] ] y.E -.x.6 3 6 2 7 6 6 6 w q 6 2 7 4 7 - # t f f s f a a Z N k m M ] ] 0.= - - - - < 1 - 1 - ",
"- - 1 4 2 - i K.j.r.] x.3.3.E C E -.E ^ _ V.6 2 2 7 7 8 4 8 0 9 6 7 2 4 > # r -.F U V U C F N Z m C E -.0.j.- - 1 < - - < = 1 1 ",
"2 1 1 2 & i K.y.3.0.-.z.F ^ E C Z C U ` :.m.4 4 2 7 7 7 6 8 0 4 8 2 6 2 # r :.E m U C C Z M M m m Z Z ^ ] -.> - 1 4 - - - - 1 1 ",
"1 2 - - u D.j.:.-.0.3.0.0.r.C M N M M V ` m.7 2 4 4 6 7 2 2 7 8 4 1 7 - r :.C ` C E V Z C m M M C C Z N M ^ - < < - = - - 1 1 < ",
"- = # i F.-.^ ^ E -.] F F M N M E E N V U :.1 6 7 2 6 7 7 8 4 7 4 4 - u ^ U U M M V V N m m C M M M m M N 3.= - - = = = < - , 2 ",
"- + t D.^ F ^ :.] F ] F N M N C C C C N E -.- > 2 4 4 4 7 1 2 6 1 7 y x.-.N M C M Z C N M m Z m m M b N F d.- - < - = - - # - - ",
"o t j.] F F N E Z ] B ^ N -.] -.F E E E -.r.- : 1 6 4 6 4 - 2 - 4 y :.-.z.U E E E F F Z B M E m C Z N F 0.d.- - - = # = 1 - = # ",
"r ] N M M N ^ E x.S.B.x.j.j.j.y.M.j.j.j.H.H.- 4 1 4 1 1 2 > 4 @ y :.C V m U ` _ _ -.-.] -.r.r.3.-.-.r.r.0.D.- - - - < - - - - o ",
"j.3.F ] Z r.4 * = - - ; - = - - - - - = 1 4 2 4 - 2 2 1 - 1 - t ` V Z C U E * - 2 > 2 # - - - - # # - = - - 1 % - 1 < 2 - - + t ",
"3.-.] ] F D.# # - - - 1 - # - - - < # = - 4 4 - > 1 2 - - - u -.E M C V M E # # 2 4 2 4 - - 1 - > - = # - = - - % - - 1 # # t 3.",
"F E O.F ^ 0.- # < - - - 4 - - - 1 - , < 3 1 7 4 < 6 - > 2 # h 3.C E M M l E # > 4 2 2 - ; 2 2 6 6 - % = 1 < , 1 - = 1 ; & # f -.",
"] ] ] E 3.j.- - < 1 - < 2 - - 1 < - - 4 2 4 0 2 7 4 - - - + z :.E _ N C N -.- 4 2 2 - 2 2 6 4 2 < - 2 1 3 < - - # = 1 1 < > h M.",
"y.0.] I 3.D.> - - - - ; - < - 1 1 < 2 6 2 2 6 3 2 7 4 4 - # h 0.E ^ F F -.y.1 > 4 4 > 6 2 2 1 2 2 2 - < 1 < , = = - - 1 1 - z r.",
"V.O.3.-.] S.2 - 2 - # 1 - 1 4 2 1 1 2 q 4 5 7 2 1 6 2 1 2 - s N F Z F F ^ 0.+ - 1 6 4 4 4 1 2 2 < 1 5 1 - 1 - < , - 1 < - # h j.",
"0.O.F ^ F H.1 1 = % 2 - - 1 1 < 4 4 2 6 6 6 2 4 ; - - 1 > # h 3.F ] E Z Z M.- # = ; < 2 2 2 < 4 2 1 2 6 1 1 # - - = - - - # d 0.",
"] ^ O.] -.H.2 2 - = - - < 1 3 3 1 4 - 1 6 4 1 - > 1 4 1 # o s E N F U ] I j.- + - 1 9 1 1 1 1 2 4 4 - 3 1 - - = + # # # + X f 0.",
"^ ^ B F ] S.1 ; = - < - - 4 4 1 4 2 = 2 4 6 - u z x c h h s -.C C Z F ] N w.# % - 2 2 2 5 < 1 3 1 1 , - - - o r h h h h h a E ] ",
"B F F ] ] y.- ; - # ; = - 1 6 4 - 2 - 2 ; # u z.x.:.r.:.-.:.] M m M C N N 0.+ = = - 1 3 1 2 1 4 3 3 - = # # r w.] ^ O.] 3.^ F M ",
"N N E 3.F x.= = - - - 1 - < 1 - - - 1 - # r S.-.E 3.E N E E E C M m m M N y.1 - < 2 2 6 2 < - 4 2 - < = o r y.] F N F ^ F B F B ",
"F E F F -.j.= = - 1 - - 1 - - % + % - * t j.-.F E ] C U E C F C m b N M N 0.1 1 - - < 2 1 2 , = - - - o t ] N F I ^ F B B F Z N ",
"E F ^ ] ] j.- = - - - < 5 = < = - = # t S.N C N N ^ E E N U M M m b M N Z S.- < - < 4 3 4 - , = = # + t ] N N C N B I B N N E F ",
"E E N F ] j.= - - - < = - - - - - o t y.0._ C E M ] M N C ^ C m N N M N M J.# - - 4 2 2 1 2 2 # - o t 0.F M N M ^ N B M M N N F ",
"Z _ ^ ^ ] D.# - - 1 4 1 2 ; - - + t j.F ^ -.^ E N B N ^ C 3.N N N N F N Z r.+ - 1 1 4 2 = - > - # r 0.F F C ^ F B M m Z I N B Z ",
"E r.r.j.D.K.= 1 1 < 2 1 - 4 # # t B.] N E U j.j.-.0.] 0.:.r.0.] 0.-.0.] 0.H.= - 2 4 9 - - # 2 $ r F ] M m M ^ 3.@.O.w.0.0.V.j.w.",
"# - 2 - # & 2 4 1 - 1 2 ; - = u D.] E N E -.* & - - - - > - # # # # - - # # # = 2 > 1 - - # - e -.F B M M F > # - o # - - - - # ",
"# > - 1 4 - - 1 2 2 1 1 - - u D.0.w.F ] F 3.- - - - - * * 1 # # - # # = = o = # ; > - > - # r 0.M m B N N ] # o # - - - > > - - ",
"2 1 2 > 4 2 2 1 < 2 1 - 2 2 h x.3.I ] C N 0.# - * = - - - 1 - 1 - - - - % - # = 4 - - 1 1 * a M m m V ] C j.# # - - = > - - - - ",
"> : 4 - 2 > - 1 < 2 4 6 1 > h 0.^ Z E Z E 3.& - - - - - - - - & 1 - ; # # # = - - = - - 2 : f B m M M ^ M r.# - - - = 1 > 1 - - ",
"> 2 > 2 7 - - 4 3 4 3 2 2 - c 0.-.] N C Z y.- - - 1 # 1 < ; = - # # - # + 1 - - = - > - > - f ] M b C ] F j.# # - 1 1 1 2 - 1 > ",
"4 2 6 4 2 4 1 1 1 2 1 1 < - h 3.] E N M C j.# 1 < > > 2 1 - = - - - = - - 2 2 1 # - - 1 > * a N M M M C Z ] # # - - 1 2 2 3 - - ",
"6 7 8 7 7 7 7 4 1 4 4 < 1 - h 0.3.0.C N N 3.# - - - - 1 2 - - 1 1 - - ; - 2 - - # # > - - $ f ^ F C F F F d.# = - - 2 4 2 9 4 2 ",
"6 4 6 7 6 > 2 6 - - > 2 # # g ] ] 3.F F -.x.= # - - - - 2 - 1 2 - - - < - - ; # o o # 2 - * h ^ F M N N F j.# - - # - 7 6 1 4 1 ",
"4 7 6 2 - 2 2 y j h h h h h N F F F F F 0.S.- - - ; - 1 1 1 - - - - 1 2 - - # t h a f f f s _ E Z C N N B y.- = # # 1 4 2 - 1 4 ",
"6 4 1 1 1 - u x.-.^ I 0.O.] F ^ Z -.F 3.y.S.- - - 1 - - - - - 1 - - 2 - # # r r.3.] E E F C ] ^ N E C N C r.= # = # = 2 4 1 2 6 "
};
