/* XPM */
static char *rcp07211509813322[] = {
/* columns rows colors chars-per-pixel */
"64 64 256 2 ",
"   c #311811",
".  c #BF783D",
"X  c #A36B46",
"o  c #775440",
"O  c #A06944",
"+  c #974D2E",
"@  c #8D512F",
"#  c #A16A45",
"$  c #A26B45",
"%  c #765340",
"&  c #944B2D",
"*  c #C1793E",
"=  c #8A4B29",
"-  c #A56C46",
";  c #9F6944",
":  c #964C2E",
">  c #73513E",
",  c #75523F",
"<  c #76624F",
"1  c #7E4B35",
"2  c #77634F",
"3  c #984D2E",
"4  c #894F2E",
"5  c #884A29",
"6  c #786450",
"7  c #9A4E2F",
"8  c #C37A3E",
"9  c #D08343",
"0  c #CE8142",
"q  c #8E5130",
"w  c #994D2F",
"e  c #856E59",
"r  c #7D4B34",
"t  c #8B4D2A",
"y  c #7A5642",
"u  c #87705A",
"i  c #824727",
"p  c #9D5A35",
"a  c #9E6843",
"s  c #9D6743",
"d  c #BD773D",
"f  c #9B4F30",
"g  c #A26A44",
"h  c #796451",
"j  c #7B5743",
"k  c #8B502F",
"l  c #934A2D",
"z  c #74604D",
"x  c #BC763C",
"c  c #BA743C",
"v  c #826C56",
"b  c #7C6753",
"n  c #7F4626",
"m  c #905330",
"M  c #72503D",
"N  c #7E5844",
"B  c #CA7F41",
"V  c #C0783E",
"C  c #7D4526",
"Z  c #7E6854",
"A  c #8F5230",
"S  c #806A55",
"D  c #735F4C",
"F  c #9A5934",
"G  c #BE773D",
"H  c #7B4A33",
"J  c #804D36",
"K  c #825C47",
"L  c #784224",
"P  c #B48763",
"I  c #7A6651",
"U  c #A96F48",
"Y  c #864D2D",
"T  c #CC8042",
"R  c #836D58",
"E  c #A85534",
"W  c #785441",
"Q  c #88715B",
"!  c #9F5B35",
"~  c #C47B3F",
"^  c #995834",
"/  c #844928",
"(  c #B7733B",
")  c #A45332",
"_  c #925431",
"`  c #864A28",
"'  c #8A725C",
"]  c #8C543B",
"[  c #7B4425",
"{  c #B78A65",
"}  c #8A5239",
"|  c #9E5031",
" . c #B98C66",
".. c #865E48",
"X. c #A65433",
"o. c #D38444",
"O. c #AE734A",
"+. c #8D4E2A",
"@. c #896049",
"#. c #845D47",
"$. c #A25232",
"%. c #7A4325",
"&. c #6F4E3C",
"*. c #984E30",
"=. c #B68964",
"-. c #996541",
";. c #7E4526",
":. c #90492C",
">. c #7C4425",
",. c #975733",
"<. c #794832",
"1. c #B58864",
"2. c #AC7149",
"3. c #A05131",
"4. c #764124",
"5. c #875F49",
"6. c #805A45",
"7. c #A76E47",
"8. c #964D2F",
"9. c #965632",
"0. c #9B6642",
"q. c #A66D47",
"w. c #C77D40",
"e. c #8C745D",
"r. c #795541",
"t. c #875138",
"y. c #705D4B",
"u. c #8C634B",
"i. c #B2754C",
"p. c #945532",
"a. c #855037",
"s. c #C3936B",
"d. c #815B46",
"f. c #A15C36",
"g. c #834E36",
"h. c #D68645",
"j. c #904F2B",
"k. c #743F23",
"l. c #C57C3F",
"z. c #8F563B",
"x. c #C87D40",
"c. c #B5774D",
"v. c #B3703A",
"b. c #B28662",
"n. c #BC8E67",
"m. c #AA5735",
"M. c #A35D37",
"N. c #8F775F",
"B. c #9B5934",
"V. c #966340",
"C. c #A06742",
"Z. c #764731",
"A. c #935431",
"S. c #C09069",
"D. c #BB753C",
"F. c #D98846",
"G. c #C7966E",
"H. c #90654C",
"J. c #AD5835",
"K. c #6B4B39",
"L. c #814A2C",
"P. c #CB7F41",
"I. c #B97A4F",
"U. c #AF8460",
"Y. c #866C55",
"T. c #7B6652",
"R. c #A65F38",
"E. c #B06E39",
"W. c #6E5B49",
"Q. c #C67C40",
"!. c #B1734A",
"~. c #91573D",
"^. c #AD6C38",
"/. c #A86937",
"(. c #CC9A71",
"). c #8A5233",
"_. c #95684E",
"`. c #9B6846",
"'. c #AD815E",
"]. c #936140",
"[. c #8D482B",
"{. c #7C482A",
"}. c #B05A37",
"|. c #856951",
" X c #77604C",
".X c #6F3D21",
"XX c #A36635",
"oX c #905E3E",
"OX c #855A42",
"+X c #BE7D51",
"@X c #A77D5B",
"#X c #96532D",
"$X c #92502C",
"%X c #AA6239",
"&X c #8C5634",
"*X c #947B62",
"=X c #9D6234",
"-X c #6B5746",
";X c #73452F",
":X c #9B6F53",
">X c #8C5B3C",
",X c #7E644E",
"<X c #8B6E55",
"1X c #A07757",
"2X c #9B5531",
"3X c #95593E",
"4X c #DF8C49",
"5X c #654736",
"6X c #86583A",
"7X c #805740",
"8X c #955E31",
"9X c #B55D38",
"0X c #755B46",
"qX c #8B5F44",
"wX c #88452A",
"eX c #924D31",
"rX c #995C3F",
"tX c #85654D",
"yX c #935636",
"uX c #6C412C",
"iX c #7B543D",
"pX c #7E5238",
"aX c #AF754D",
"sX c #824E2F",
"dX c #7B5F49",
"fX c #AB6D45",
"gX c #B1663B",
"hX c #9E6140",
"jX c #764F38",
"kX c #9C8065",
"lX c #A47253",
"zX c #A06D4A",
"xX c #B7835D",
"cX c #94765C",
"vX c #937053",
"bX c #AC7857",
"nX c #B4723E",
"mX c #A66643",
"MX c #BD7942",
"NX c #C68355",
"BX c #C57F46",
"VX c #645241",
"CX c #653820",
"ZX c #D6A176",
"AX c #A5876A",
"SX c #955D3A",
"DX c #BB623B",
"FX c #9E5D3A",
"GX c #6F4A34",
"HX c #8C4A2F",
"JX c #BE6D3F",
"KX c #D0864D",
"LX c #E8924D",
"PX c #5B3E2D",
"IX c #B19071",
"UX c #C97141",
/* pixels */
"+ ) m.7 + + : w + E X.+ | E X.X.  >.>.;.n >.C 5 = t ;.C 5   # X X - - $ X $ $ s ; #   R I h 2 h h v 6 2     : 8.3 3 f + w + :   ",
"+ l w :.w + + + w 3.: : $.+ 7 3   i n n t = = 5 n [ >.5 =   I.$ - a s X # $ O # # s   2 z h e.b T.< < <   3.: + : + 3 7 ) }.:   ",
"3 | : + : E l : }.w + ) 3 : *.X.  n i C +.n 4.i i t t .X[   O X X # - ; $ ; O # X q.  u < D Q Z I e.2 6   : w 3 + ) 3.& : $.7   ",
":.*.w : 3 *.+ m.7 ) + *.| $.*.|   +.= i n $X= i = = t 2X5   - O 2.q.i.X $ X $ # X -   N.6 ' e v b Q v '   3 & : : w ) J.w + :.  ",
"E : : 3 X.l w *.+ *.3 : w + : +   = = / 4.k.%.n t t %.4.n   a ; $ a ; q.; $ # # $ 7.  e z b h T.Q Q 6 T.  l m.E f & | 3.3.l X.  ",
"  JX2Xm.DX9XE #X}.UX}.$XE eXgX2X  9.,.Y @ gXj.Y L.{.sX4 Z.  V.-.NX-.-.# aXV.V.+XNXU   IX2 *X*XcX<XY.0X,X    $.J.*.f *.8.J.wXeX  ",
"o.8 * T 0 G F.G G V B 9   +X- # O ; # # ; I.I.R 6 v Q I 2 < Q   y % o o % y 5.6.r.(. .G.G.{ { P 9.m k q f.M.@ B.~.g.g.a.J z.a.g.",
". x V c ( c ( G . ( P.T   s a 2.; O ; ; O -.H.T.z v W.< h v Z   j M &.&.&.% , % K.vXn. .{ 1.b.1XY k @ A A p.@ k ;XZ.r H 1 ;X] a.",
"9 8 8 D.c T V . 4X. 9 T   I.# - - O.a a - - iXN.' b u 2 e u D   _.5.W #.#.W N r.N n.S.b.G.'.P n._ B.4 p @ @ M.A J J ] H r H rX] ",
"  H.#.o #._.bXS.  M.%XJXR.p p ,.^ ^ !   / +.5 ` Y C A.4 h.8 h.d l.d ^.o.h.0 ~.1 1 3XmX3X3X] t.  6 e u e e.' D e   U !.+Xq.NX- g ",
"  % % % % M &.> , ! 4 4 L.A.F ,.4 _ !   4.%.n 5 %.k.L 4.&XT . . V ( B B 0 E.;Xr J ;X1 H H g.g.  z < y.2 W.W.2 2   ; ; a $ U !.$ ",
"  @.N W % , @.#.5.@ A F A p B.^ A q m   = 5 C %.[ n n / /.V w.V V d ~ 0 8 B g.1 } 1 H g.1 H H   h 2 2 I e e T.v   g # # ; O O.- ",
"  y N % @.6...N   @ k @ F ^ B._ L.m 4   @ / %.k.t 2X5 ! w.* V ^.D.9 v.0 ~ XXr H H 1 g.] r r <.  ,XY.Y.' ,X<XVX,X  a i.!.U fX].  ",
"  F 4 m 9.k @ @ @ k 4 p.A k dXQ u I < < < R R +Xq.O.2.- -.X #   H.M o o &.% > , K   3.3 : l $.X.w 3 l   d Q.4XV . d . V x G o.9 ",
"  ^ A.f.F q q M.p m q q @ k tXv ' e.e kX< h kX; g - O ; $ $ O   5...6.K @.W o #.j   3 f E X.f E J.: 9X  9 B V 0 T B . w.9 * 8 V ",
"  q ,.p f.! q k ,.k 4 4 F _ tXR z z 6 < < I Q ].# ; # # i.- $   #.K #.N W u.o M %   & X.m.+ + : | : &   9 9 G x P.9 * V d o.* G ",
"  ! ^ p m Y F Y ! ,.! ^ A @   <X|.<X0X|.-XD  X  `.`.V.6X].].U   j d.y K.6.K.&.xXbX  2X2XHX8.}.f X.eXwX  _ =XF.V v.E.8X/.=XQ.h.  ",
"  8 Q.D.. G * G F.0 .   8.8.: 3.8.) | DX  #.o @.W d...y v u Q S ' Q e 2 e bX# q.i.i.7.U O O X ] } t.rXz.] } ] 9._ f.f.m p.p.f.f.",
"  c . V h.. w.P.x . c   3 ) 7 X.+ | E f   #.W % &.&.r.% e 2 Q Z v e e.e.< iX# # # ; +X- O g g 1 Z.z.1 1 H 1 r L.4 B.m p.@ A A 9.",
"  8 V ( x 8 . V . . c   & & + 8.3 + & +   M W W r.% &.&.e u D z u e z Z < qXX X 0.O a s V.X - t.z.H g.] J H ~.@ p._ _ _ F ,.Y p ",
"  / +.f.2Xt 5 2X@   ! p.! p 4 9.B.p   - -.>X# ].>X6XzXaX  ).{.&X{.).r L.Z.{.@                       |.|.|.,XY.Y.  7X7XiXOXqXqX  ",
"  k.n C %.L 4.;.L _ F p ^ ,.4 ^ B.p.oX; -.# O # s s i.; <.5 L ;.C k.C / k.[ /   B D.* l.G d 0 0 c   e W.e e Q S T.r., , &.> W M ",
"  = t %.k.i t +.t B.m p.F p 4 p 9.^ oXO # $ $ X # # U O.g / k.[ >.j.5 i ` t +.  V 0 9 T G D.9 T V   N.v v e T.I h % N , M > o r.",
"  / = $Xj.= +.t 2XF ^ R.R.A ^ k @ !   # NX!.O -.s U I.I.7.4.n i [ C i +.$X/ 5   ~ F.. 4XG G c ~ G   *X' ' u z e e.@.@.#.> @., #.",
"  v.( B c E./.c v.( ^.x.^.r.M M o r.#.#.y &.e v 2 W.Z S e < 6 J H r r H a.H 1   a 2.q.X 7.- ; O g $ 2.a   ^ Y ,.p.9.p.,.m k Y   ",
"  h.8 0 v.B 9 9 0 9 h.9 v.r., o u.u., j 6., < e Z h 6 < z 6 N.J rXg.H ;Xr 1 r $ c.7.X a O # O $ O # U a   ^ p %X9._ k k B.! _   ",
"  0 0 l.9 * l.T 8 9 V 8 9 d.W % j #.% r.u.% 6 z h < 2 h 2 N.e.r 1 } 1 r 1 1 <.a c.O.i.q.; ; ; !.# c.- O   m p.q q q @ @ M.p 9.  ",
"  c * P.c 9 Q.0 9 P.x G ( 6.d.N o K N o o o Z b h D z D < D z ~.Z.H H r J <.r i.U # # O 0.-.$ O.O U $ ;   q A @ _ Y q k @ k ,.  ",
"                                                            9.*.f :.8.wXL iXW _.H.u.iX..@.o H.H.   X<X' R Y.u |.2X[.E 8.*.f *.  ",
"c.# # O X X g !.$ #   + 3 *.) 3 E f +   n = L i %.= ;.i %.  + 3 3 3 + *.+ 5.@.W r.r.o u.W % W W   h Q I R < z z 3.7 | w ) 3 f ) ",
"q.s # # U $ # # # #   + 8.& m.}.f + :   t = = %.%.L 5 >.t   3 + & :.: J.$.#.o % #.M K % o u.u.W   < 6 6 < 6 < < :.$.*.7 : | ) ) ",
"  q.g # -.2.0.; U X   *.8.8.[.8.) | |   k Y Y k 4 / t t 5   + 3 *.*.+ 8.E GXr...@.@.7X6.@.7XlXlX  @XvXAX<XQ IXkXp | E *.E $.X.  ",
"  ] ] J z.] ] z.  #.r.N @.y y , M I Q v e.u b S e z 4 q _ 9._ ,.B.p p X $ - q.-.# O q.U c G x.T 9 0 F.o.9 n. .1. .(. .n.1.G.1.n.",
"J 1 t.a.H J H J   o , d.r.j > ..5.6 u < D -XZ ' b u _ A.4 4 9.! q A.k a 0.7.- 2.$ $ X a ( 8 9 9 8 9 B c 8 U.{  .G.1.b.P P n. .1.",
"  mXt.1 z.fX] g.  u.@.M #.&.5.r.N e S R b N.e.6 ' kX! A 4 M.B.,.gX4 _ # +Xs s q.!.q.-.# =Xo.x.x o.9 /.9 h.s.'.n. . .S.{ (.1.b.G.",
"  { P  .G.G.(.{ G.1XS.G.  I.U # # g s $ $   l.^.d h.0 Q.l.P.  Z S u I b R R b   o u.#.6.:XxX@.j @.;.+.f.2X#XC t B.9.rXrXrX~.z.  ",
"  =.b.P b.=.U.1.b.b.'.b.  # ; # ; a # s a   G * T D.v.w.( D.  h I v -XW.W.b Z   M % , &.% , o , M L 4.i n %.= L / C H 1 1 1 1 Z.",
"  1.P 1.P { S.P  .S.=.{   q.# # # O $ # #   d ~ o.G T ~ D.G   R Q Q Q Q N.I v   o j d.% j % 5.r.r.[ i i +.L $X= t = z.<.H r hXJ ",
"                                                                                                                                ",
"  8 . 0 0 x.( ( D.*X-XD -XZ v S R Z o M j , M , > > > , y   9.@ p _ ,.4 4 L.m ^ _ :.[.& l 8.*.8.: 3 l : -.7.O.O s g ; s # # O !.",
"  * V l.* . 0 P.D.Y.h e R 6 6 Z Q h u.o o 6.#., N W W o r.  9.A M.,.f._ p _ q 4 F + 3 & 7 + : 3 + w 3 3 ; O g $ O # # O # s O i.",
"  . o.G 8 V 8 G XX|.v 2 6 e e D z e , r...&.% K.> N N j W   f.@ @ A ,.p.A R.A @ Y f 3 X.X.+ : + *.+ : E a s O # # # $ # - # -.U ",
"                                                                                                                                ",
"/ 5 j.C %.C 5 j.= n $XC +.n = n n $Xt U O X I.O.- U ;   8 V * B T F.8 V 9 8 9 B :XN % r.o , > 5.n.=.ZXs.s. .=. .(.P P   ] J <.} ",
";.= L C C ;.= = 5 / 5 = t / = C %.5 A ; # # $ g s ; $   * 8 l.T G Q.B 9 9 x.T c #.W , % % o #.> j G.1. .G.P b.n.S.P S.  } J ] } ",
"  t / ` %.%.;.4.#X/ C t n k.%.C / =   0.-.V.0.2.; U X   v.XXP.h.Q.( x c /.sXXX  N y W % , d.5...  '.@X_.'.P n.G.S.U.'.          ",
"  K 6.o W o r.y N u.5.y W K , _ k @ R.! B.m A 9.  E | m.| ) 7 | J.) X.: e.S 2 u I h b T.< 2   2.- q.q.q.# # h.o.8 * ~ G . x.V h.",
"% , K @.u., o o W j &.r.o r.K k A k @ p.B.A @ @ 9.8.X.$.J.: : 3 : : 3 }.6 2 z z S y.N.6 < 6   q.X - # I.O - G ( D.~ ~ o.d 9 ~ v.",
", W #.% M @.% W % M , , o &., k q A A.,.F 9.4 f.F 3 & 3 3 $.| & + 3 & l b z 6 e y.z W.6 W.2   !.X X O # # O.* V V ~ B x . D.. . ",
"                                                                          0X|.|.dX0XdXdX<XdX  SX>XmXc.mXSXhX  v.JXV w./.XX&XMX  ",
"  6 -X6 v < < < < < b Q 8Xd D.* D.D.B x   g -.O.$ ; ; ; s # s   4 Y 9.k k @ A.@ L / t k.%.L %.` k.: 3.l w 3 ) E ) 7 jXM &.j W r.",
"  u Q R D z 6 h I 2 6 ' XXx 8 T o.0 0 V   ; O.U $ # # s # a O   p f.k Y @ q p @ t i t i %.4.= t = | f : : + m.f w : pX% o , r...",
"  z 6 S ' R Q v Q I b *XB T G D.0 0 h.~   - !.s a +XO g $ s $   F ,.p.p.,.m @ 4 +.j.+./ [ C / t = 7 7 | f + : : 7 f aX% o 5.K #.",
"                                                                                                                                ",
"  1.(.s.P S.G.  4 k p.k @ 9.@ 4 u.u...% % % N j   ] r <.a.} ] ] t.R e 6 < b I u I   X # a O X U q.X a   ~ d P.8 * G w.D.* 8 V B ",
"  G. .{ { G.ZX  q A k @ M.q @ A 6.#.#.u.o % o ,   J t.] J t.~.t.pXe ' 6 ' b 2 2 S   O I.$ # 2.O.O - q.  T . x G B * ~ V h.. D.9 ",
"  S.s.S.U. .S.  ! ^ ^ A @ k 4 4 ..d.6.K % , % 5.  H r g.} a.Z.rXpXR 2 y.' 2 2 I R   # O ; # i.$ O U X   * ( 9 T x ( w.* G V B ( ",
"   .P  .U.b.{   %X%X! p k R.q FXj , &.y j &...@.  H Z.1 } z.a.J a.v e v D 6 T.b Z   V.s q.; 7.O.X O.$   XXP.x.~ 0 ^.. * V =X9   ",
"  . B V * . d 9 . x . AXQ S 6 e Q >X; O U O a 0.a   = C [ [ >.i 5 [ C   j ..N W % ..W K   S.S.G.G.1.=.@ @ q 4 p !   f E 7 3 f 3 ",
"  w.x B B G * 9 . d d cXR < 2 I u `.a # O O $ X ;   [ %.>.C j.>.5 ` k.  W 5.@.% 6.% , N    .G. .1.{ S.@ @ F p p @   l E 7 J.w l ",
"  Q.d P.^.( E.8 F.Q.Q.  u e y.< 2   X ; - s s U 2.  #X.XL C C t 2Xj.`   N N , o % % o W   U.S.1.S.G._.q @ A.f.! m   8.& & ) m.+ ",
"  ) ) $.3 3 ) J.l f | m.8.*.K , M r.r.u.  o.B c G T B 4X7.I.i.O O.+XO.i.  ' h z u < 6 S = +.5 .Xj.j.` n i ] } ] <.z.z.t.z.z.Z.J ",
"  3 f ) 3.& 7 m.X.3 : 3 : *.N 5.r.d.K d.  V . V l.9 d ( s $ ; g O.s $ #   D h u u Z 6 D / .X5 5 = = i %.[ ;Xt.g.1 r g.Z.g.a.J J ",
"  + 8.+ 7 f $.) J.+ J.:.X.  j r.% r.o M   o.V B B ~ h.  ; $ X # q.$ ; ;   < S N.v e.D  Xn t t n t +.` C >.z.} a.z.~.H 1 J H r hX"
};
