/* XPM */
static char *rcp07211066314524[] = {
/* columns rows colors chars-per-pixel */
"64 64 256 2 ",
"   c #AF4C35",
".  c #B7472D",
"X  c #883620",
"o  c #88351F",
"O  c #CC6146",
"+  c #CF6144",
"@  c #C96247",
"#  c #863C28",
"$  c #C86248",
"%  c black",
"&  c #B14B33",
"*  c #D26042",
"=  c #873721",
"-  c #B34930",
";  c #CB6146",
":  c #DB5E3E",
">  c #89331C",
",  c #89321B",
"<  c #BB4429",
"1  c #CE6145",
"2  c #B9452B",
"3  c #AF4B34",
"4  c #873A26",
"5  c #873A25",
"6  c #883823",
"7  c #D46042",
"8  c #DA5F3E",
"9  c #8B2C13",
"0  c #873923",
"q  c #8A3018",
"w  c #863924",
"e  c #D06044",
"r  c #D55F41",
"t  c #B5482F",
"y  c #8B2D15",
"u  c #B14B34",
"i  c #BF4124",
"p  c #BA452A",
"a  c #BC4328",
"s  c #B24A32",
"d  c #89341D",
"f  c #B8462C",
"g  c #B04830",
"h  c #B14A31",
"j  c #863B27",
"k  c #863A25",
"l  c #863823",
"z  c #8A2F16",
"x  c #C96045",
"c  c #B4492F",
"v  c #863B28",
"b  c #863621",
"n  c #DD5E3D",
"m  c #893018",
"M  c #86341E",
"N  c #E35D39",
"B  c #D65F40",
"V  c #BC4327",
"C  c #863C27",
"Z  c #B0462E",
"A  c #86321B",
"S  c #D85F40",
"D  c #080100",
"F  c #BD4226",
"G  c #C75F44",
"H  c #B24B33",
"J  c #0C0200",
"K  c #B24931",
"L  c #8C290F",
"P  c #E05E3B",
"I  c #040000",
"U  c #D65D3F",
"Y  c #C33E20",
"T  c #8C2A11",
"R  c #C13F22",
"E  c #883721",
"W  c #8D270C",
"Q  c #B0442B",
"!  c #100200",
"~  c #B24A31",
"^  c #C95E43",
"/  c #C86247",
"(  c #833824",
")  c #B6472D",
"_  c #B3452B",
"`  c #CC5D41",
"'  c #B04A32",
"]  c #AD4932",
"[  c #130300",
"{  c #8A311A",
"}  c #C75A3E",
"|  c #E65D38",
" . c #170400",
".. c #CB5F43",
"X. c #DF5E3C",
"o. c #B54830",
"O. c #B3472E",
"+. c #A9452E",
"@. c #823522",
"#. c #862D15",
"$. c #D05D3F",
"%. c #CC5A3D",
"&. c #862F18",
"*. c #D36043",
"=. c #82321D",
"-. c #84351F",
";. c #AF4A32",
":. c #B04128",
">. c #85311A",
",. c #AC472F",
"<. c #C65C41",
"1. c #CD6044",
"2. c #CA5B3F",
"3. c #CF5A3C",
"4. c #CD5638",
"5. c #843722",
"6. c #CA6045",
"7. c #7F301B",
"8. c #C7573B",
"9. c #B5462C",
"0. c #CF5E42",
"q. c #853A26",
"w. c #020000",
"e. c #C05438",
"r. c #872A11",
"t. c #CD5F42",
"y. c #C76046",
"u. c #B34228",
"i. c #C43D1E",
"p. c #80331F",
"a. c #C35A3F",
"s. c #802D17",
"d. c #AD462D",
"f. c #B64429",
"g. c #A6422B",
"h. c #D45D3E",
"j. c #A43E27",
"k. c #C85C40",
"l. c #C4573B",
"z. c #C45438",
"x. c #7C2914",
"c. c #B33F24",
"v. c #AB432B",
"b. c #B54026",
"n. c #1C0300",
"m. c #B03F24",
"M. c #210400",
"N. c #B94226",
"B. c #C73B1C",
"V. c #C75436",
"C. c #C04123",
"Z. c #7C2C18",
"A. c #B63D21",
"S. c #832F18",
"D. c #E85C36",
"F. c #A83D25",
"G. c #D3593A",
"H. c #D85C3C",
"J. c #8E2408",
"K. c #9F3B24",
"L. c #A94028",
"P. c #260500",
"I. c #D25535",
"U. c #BE4F33",
"Y. c #C0583D",
"T. c #832B14",
"R. c #B03B20",
"E. c #85270F",
"W. c #C25033",
"Q. c #AD3F25",
"!. c #772511",
"~. c #772917",
"^. c #C35C42",
"/. c #2B0600",
"(. c #7C3321",
"). c #471508",
"_. c #9E371F",
"`. c #CD5232",
"'. c #A43A21",
"]. c #C65031",
"[. c #381006",
"{. c #C95739",
"}. c #1B0703",
"|. c #9A3821",
" X c #B3391D",
".X c #7B250F",
"XX c #200903",
"oX c #310E05",
"OX c #3F1207",
"+X c #310700",
"@X c #852309",
"#X c #4F180A",
"$X c #A94731",
"%X c #7C2F1D",
"&X c #95331D",
"*X c #2B0C04",
"=X c #90311A",
"-X c #AE432A",
";X c #E15C3A",
":X c #882F16",
">X c #802811",
",X c #260B04",
"<X c #C34A2C",
"1X c #BB4022",
"2X c #A3432D",
"3X c #6A2011",
"4X c #380900",
"5X c #772D1D",
"6X c #A83A20",
"7X c #5F190B",
"8X c #B8391C",
"9X c #702415",
"0X c #AF3417",
"qX c #942C13",
"wX c #9A321A",
"eX c #76200B",
"rX c #701F0E",
"tX c #B04B34",
"yX c #681909",
"uX c #D95634",
"iX c #AD3A1F",
"pX c #8B3721",
"aX c #571A0C",
"sX c #EC5B35",
"dX c #BB563C",
"fX c #A7361B",
"gX c #80230B",
"hX c #702A1B",
"jX c #A0402B",
"kX c #8E3520",
"lX c #88260C",
"zX c #BE4B2E",
"xX c #DC5B3A",
"cX c #A03319",
"vX c #3F0A00",
"bX c #BE3D1E",
"nX c #470B00",
"mX c #9A3D29",
"MX c #D14F2D",
"NX c #BA5035",
"BX c #622012",
"VX c #721A05",
"CX c #7B1E07",
"ZX c #8F2D15",
"AX c #DF5936",
"SX c #591003",
"DX c #943926",
"FX c #BE3819",
"GX c #BA4B2F",
"HX c #4F0E02",
"JX c #B65137",
"KX c #9C2C12",
"LX c #A53014",
"PX c #E35936",
"IX c #C94B2B",
"UX c #B1513A",
/* pixels */
"          dX$ a./ JX& 3X3Xj # (       ]             wXlXwX  &X+.mX    g.$X$ $ $ $ $ v.# %X# @.( DX+.|.K.            g.j.@Xj._.  ",
"] . ) ~ F $ $ $ $ $ / # # d k C     C..     -     &   <   tXh     ) - ) N.u.* $ $ $ $ # v # 9 -.        f   - a                 ",
"  <   ~   $ xX*.; @ $ M # # # #     tX  -   f i p t     - ) f     -       $ ; e * @ $ k 0 9 # # 3         )   C.t c   ) - R F iX",
"    &     Y.$ $ $ $ $ # # > z =.|.Y   t     t       K         d.$X  o.p F 9.xX$ 1 $ $ -.# o , 7.  t tXF 2   s -   )   t   tX    ",
"]     ) f.$ $ $ $ $ $ # # X y s.] 1XFXO.O.tX_ & _               g.c ) . 9.Y.* $ $ $ $ T.# # # q.    _ tX1Xf.  _   O.            ",
"  o.. & 2 $ * $ * O $ w # # # =.$ y.G a.a.$ a.<.$ e.$ $ $ $ $ $   i < ) u G e X.; O $ M E # # # $ $ G $ $ e.e.A.a.zXA.$ $ e.$ $ ",
"          $ $ *.@ S W.@Xy k # @.$ @ $ $ $ ; $ $ $ $ *.U r $ : V.j.        $ $ 1 ; $ F # # # C # dX; 8 $ $ $ $ $ $ O @ ;XX.: U $ ",
"$XtX2   - e.$ $ $ $ / # # z d x.^.$ 1 $ $ $ $ $ $ $ $ e $ * *.$ $X  2 2 2 9.* $ $ $ $ # # k L =.$ @ ; $ 7 ; * + @ $ @ $ $ $ $ $ ",
"$XV   -   $ PX; n O $ v > # # v $ $ * $ O $ O N 8 *.$ $ O $ *.$     ~     $ $ @ + $ <.M q o # # $ $ $ $ $ P $ 7 *.$ + $ @ 8 $ y.",
"  H   f   Y.$ $ $ $ G # w o 5 7.^.D.$ X.$ $ $ $ $ $ 1 @ ; $ $ }   u   C.V GX; $ ; $ $ &.# > > CXy.O r n S $ $ $ $ B $ 8 $ $ $ $ ",
"]     H 2 $ $ $ $ $ $ # # , L .X$ m.GXG G $ $ $ ^.y.$ $ $ $ $ $ &X-   ) i G 1.$ $ $ $ E.# # w s.dX^.GX$ iXy.$ . $ Y.$ $ $ $ $ $ ",
"2Xf i 2 bXm.* $ $ $ $ # # # # s.# # k # r.# b &.# &.# # # # # # j.2 i.t o.e.* r $ O $ # v # # # # # # # >.&.r.@X&.E.E.C A k # # ",
"      s   $ 1.$ $ P l.M T # # # @.# # # 5 z # # # # 5 v X # T q.|.        $ $ + r * W.# > 0 # # ~.= 6 v # k # # # # # z 9 o y p.",
"] & . H   a.$ $ $ $ G l # > o x.( E w # # # # # # # # d # q o j +.  F . O.e.* $ $ $ $ # # # 9 7.# d w # m # 0 # # 5 # # # # # # ",
">X. u     y.PX7 * 7 y.k T # # # # # o # # X v q z X # # o # 6 #   K t     $ $ *.* B z.k o E v # p.# # # # q # y T C m # # 0 # # ",
"          $ $ G y.$ dX# 7.eX7.9X~.VX7.# # # # # # # # Z.7.# # hX|.    '.'.jX$ $ $ $ $ # # x.!.3X(.7.x.Z.@.# # ( # x.# q.# # # # ",
"mX3 ] KXj.                L._._.  KX'.+.  $ $ $ y.$ y.# # # # # !.,.3 L.'.,.F.        L.    qXqX!.L.L.j._.$ $ ^.$ Y.$ # # # # # ",
"{ f t ) a 2 tX                Q.j.    u tXe.1.*.S + $ # # # # @.j.c c ) t f tX                        c 2 e.PXN r n W.# # # # # ",
"            ~     R F ) a       g.      p NX$ $ $ @ } w d # z x.wX            h f ) R           K.c F     $ $ $ 1 $ $ T.o 0 , # ",
"    tX  a                 . h iXK.  c o.  $ $ $ $ $ / -.# 0 = # K.  2 F   u p               a Q.  - ~   f.$ O $ $ $ $ # E # 0 5.",
".X9.  tXg g O.tXK       f.  tX      tX  f.^.U N B 7 $ # # 4 # #     _     '   O.  O.    9.9.g         &   _ h.;XN $ a.# # w # s.",
"$ $ $ $ $ $ e.$ U.$ G $ <.U.<.H j.B.f   h $ $ $ $ $ $ >.v X # # 2X$ e.U.U.zXe.$ $ $ $ $ $ U.N.dXg.) h a f.$ ; $ $ 7 $ # # = # 5.",
"$ $ + n ; $ $ $ $ $ $ $ $ X.X.].  R 2 C.  $ $ $ $ $ $ # j # # # $ 1.r : r n * $ $ $ $ + $ $ S G K.2 2 . ) G $ 8 $ $ $ # # # # # ",
"2XB + @ 8 $ $ $ $ $ $ $ $ $ O 8.g.p .   - $ ; + ; *.$ # # # # # dXr ;X7 n N * ; $ $ $ + $ $ $ $       & h y.H.: ; n l.# # 4 # # ",
"$ $ $ $ @ S * $ + N *.*.X.$ $ $         p NX; r + O <.# q # o s.NX$ $ $ $ $ $ B S ; X.; @ $ $ }   . i     e.$ $ O O z.E.# , # # ",
"$ $ $ ; $ ; $ $ @ $ *.@ $ @ r V.  o.  t   $ $ $ $ $ z.>.# , 5 .XdX1 $ 1 $ @ $ $ $ $ $ $ $ $ r {.] V tXc ) $ ; $ @ $ $ # , # # # ",
"jX<.$ Y.^.$ a.$ e.a.$ $ $ y.G $ ]   a   i.^.$ n $ n $ # # 4 v # $ $ NX$ a.. $ $ $ $ $ $ G $ $ $           LX* sXn 7 <.# # # 0 7.",
"# # # b v # M # k # b # # M &.x.  a .     $ $ $ $ ; $ # 4 0 # =.5Xl b k r.r.# # M # # # # A >.7.lX  p - h $ $ $ $ e $ # k # # # ",
"# v > z d # # # # # # # # W z x.g.p f . K $ $ $ $ $ $ # # v # # @.# 6 W 0 d # # # # # E # # X x.  u C.< & G 0.B $ e $ # # # # # ",
"HXC o # z # j # # # # # # # > x.|.. <   9.$ $ $ $ 7 $ l # # # # yX= y y , 9 d # # # # v # # # #         O.$ 1.n * | W.# # 0 6 # ",
"q.> # 0 y d L # # # # # = # # #         R iXxXD.8 $ $ # # # # # # # # j # # y q = m y 0 # # # #   H       $ H.O X.| 1XM # { # q.",
"# # @.# # q.# # # # Z.@.# p.7.9X  F.  cX,.$ $ $ $ $ JXp.q.eX7.(.(.# # 7.7.p.# # # # # # ( # rX%X|.  ] d.L.dX$ $ $ $ $ # !.# Z.# ",
"%Xg.L.,.'.dXY.$ $ $ $ ( # p.# #       ;.KXL.cX'.  L.  ;.  +.  ,.  j.'.  j.y.a.$ $ a.$ # # ( # #         +.KX+.KX'.'.      ,.    ",
"        ) $ ; $ $ $ $ # # # 0 VXK.  f     o.      . a h       d.g.      O.e.$ $ X.@ W.>.# d # @.&X- - -               t - t   Q.",
"  c   i f.$ ; $ $ $ $ # # z d .Xj.) <     tXH     s             wX  K B.bX_ $ $ $ $ $ # # X z .X    tXV <   H s   tX            ",
".XK ) - bXG $ $ $ e $ M # o X x.+.  .             -             wXC.a Y 2 ) U $ $ $ $ l # # # 7.        i.- - <   Y   )     -   ",
"mXt   c 9.$ H.$ $ $ $ j # # # # ]       N.1X1Xf.                  ~       Y.xXB e 7 z.# # # # #             g f.b.N.1X        L.",
"          $ $ $ $ ; } l j # o =.$ <.y.G $ $ $ $ $ $ l.zXl.l.U.$ qX    2 tXNX$ $ $ $ z.# = # T -.DX<.$ <.W.$ $ $ $ $ $ $ e.$ / ^.",
"eX2 2 H - ^.1.$ $ $ $ # # v 4 # h 8 r r 1.$ D.*.; ; $ $ $ $ $ $   2 -   h a.* $ $ : $ # k o 4 5.$ $ $ $ 1.H.; n * * 1.$ $ $ $ ^ ",
"          $ $ 7 ; n $ l # # # @.y.$ $ $ O $ $ ; ; n X.S O $ 1 $ j.        $ $ e *.@ W.>.m > # # g $ B @ $ $ * $ O $ $ *.1 @ * G ",
"2X2   C.h $ 0.$ O $ $ # # j C CX$ N 8 $ $ $ $ $ $ @ 1 $ $ B $ $ j.  tXt Y G $ $ @ $ $ # # k z .X-X* 8 B @ @ + B $ O $ $ $ $ $ $ ",
">X- ) f bX^.e $ $ $ $ # # E 0 s.$ $ + O ; $ $ + ; $ $ $ ; O $ $ ,.a a Y f.e.U $ $ $ $ # # # # 7.$ $ $ O sX8 O X.e n $ ; $ @ $ $ ",
"  H   H p ^.e $ * $ $ w # k # q.dX$ $ G e.e.9.) NXNX$ $ $ $ $ $       s   $ $ 7 + S z.T.o v # # $ $ $ $ $ G a.^.$ e.NX$ $ $ $ $ ",
"    tX    $ ; B @ S <.M z d w # ~.# b # # # # # # # A @X#.# r.# |.    2   $ $ $ $ $ zX# # # 9 p.9Xr.&.>.A # # # # # # # #.# A # ",
"|.F < s h $ $ $ 1 $ $ # # d # # p.T 9 9 # = , # # v # E # , # #         9.R.* $ $ * $ # # # z 7.# # # # = # = y # 5 o # # # # q.",
"  o.      $ @ 8 @ e W.E.# # # # # # { # d # o o # 9 X , o # w #     s     $ $ O @ 1 l.# # L # # ~.4 0 # # # 5 q , 0 # # # 5 # # ",
"  h H s   Y.; $ ; $ $ # # d X s.@.9 # # # # { # = v 0 o 0 C # q.K.s     bXY.$ $ $ $ $ >.# > 0 .X9Xd E y q # # = # o # 0 # # # # ",
"  ,.v.F.F.JX$ $ $ $ $ # # Z.# p.# !.x.x.# # # @.@.# # # # j # # ] ,.F.cXL.|.U.a.$ $ $ v # # p.(.# # # # Z.# ( Z.# # # # # # # # ",
"  +.  ;.'.  ;.        j.  '.  g.$X  L.j.  $ NXe.^.$ $ @.# # # #   '.,.'.L.  ] F.  ,.          3       ;.  +.O._ e.9.c # # q.# ( ",
"          h   -   2 < a i tX  ]       H   $ $ $ $ $ W.gXq # y 5.g.    t h           i   )   s ;.j.- < .   $ $ $ $ $ <.-.J.d , # ",
"] . ) ~ i           tX    . u 3     C..   $ 1.$ $ ; $ &.# C 5 #   ) - ) F C..               i d.        9.$ O 8 $ $ $ # # # # # ",
"  <   ~     R ) s     .             tX  K $ * X.B e $ # 6 o d #   -         h t t tX  u K i     3         e.$ P e + $ M 6 L z x.",
"    tX    O.              f.b.v.|.Y   t   $ 0.$ @ $ G # # # # 5.+.  O.f.1XN.1X  g     O.  9.f.L.  t tXF f.$ ; + $ * $ -.# C # # ",
"^.$ $ l.e.$ $ $ $ $ $ $ $ a.zX- ] R B.t O.G * O *.$ $ # # # # # UXa.l.e.e.l.l.$ $ $ $ U.$ $ $ ^.    f tXF NX$ r $ e $ # # # # # ",
"$ e *.; U $ *.$ * O $ ; $ $ $ 2.  u H t - $ 0.+ $ 7 $ # # # # # $ n H.*.; ; * n ; O $ * e $ $ $     H     NXh.D.+ n V # # , # # ",
"$ $ $ $ $ $ $ *.@ 8 X.| X.; $ ^   tX      G $ $ $ $ l.>.d # m .XH $ $ $ $ $ $ 1 ; $ D.$ $ $ @ $ g.tXa     $ $ $ $ O / E.y q , # ",
"^.@ r $ + *.$ $ $ $ @ $ $ 8 *.{.,.  K     $ $ $ $ $ $ -.# o o # a.@ B B S n *.$ $ $ $ $ $ ; N k.    u   ) y.0.+ @ $ / # # # # # ",
"^.: $ 1 $ $ | ; n O $ @ B $ $ /     )   h $ ; N 8 *.$ # 0 # o # $ @ O $ $ $ $ @ + $ 1 * 8 *.$ $           u.$ 7 *.$ <.# C z # q.",
"$ G $ e.$ Y.$ $ $ $ G $ G Y.G H +.B.  i   $ $ $ $ $ <.C k # # 7.$ G $ 9.. GXy.$ G $ $ NX$ NXNX&X] H 2 F 2 $ $ $ $ B $ &.# # # # ",
"( # # k &.# # # # # # # # >.lX.X  Y a & & $ $ $ O @ $ # # # # # 9Xb # M E.k b # # # # E.# # w s.g.s V   i.y.$ n $ *.$ # # # # # ",
"(.d y > W T d # # # # # # # # 7.    &   1X$ 1.8 $ : $ # # # # # %X, W E X o o > # 4 # # v # # #         9.GXxXD.B P zXC > 4 # # ",
"# # # 0 # # 0 # # T > o T # # # +.      h t $ $ $ $ G v X # T q.~.# # # # # # = > o y # > 0 # # |.- -     G $ $ $ $ $ T.9 o y p.",
"( 5 d 4 # = # # # # 5 0 # > o x.] t s     $ $ $ $ $ $ >.# q o j @.# z d X o > # # # # # # # 9 7.  . s   p $ 1.$ $ O $ # # # # # ",
"7X%Xq.# # j yX5X%X5X( q.3X# # #     j.    JX/ GXGXY.$ # %X# @.# # @.(.# # # # %X%X~.~.( %X(.v # jX        mX$ c Q y.jX# # @.# # "
};
