/* XPM */
static char *rcp0721219266470[] = {
/* columns rows colors chars-per-pixel */
"64 64 215 2 ",
"   c #523525",
".  c #5C3D2C",
"X  c #573A29",
"o  c #5F412E",
"O  c #5E4632",
"+  c #63432F",
"@  c #69462F",
"#  c #654532",
"$  c #674834",
"%  c #6C4A35",
"&  c #6A4D39",
"*  c #734C36",
"=  c #724E39",
"-  c #6F503C",
";  c #7B5335",
":  c #75513B",
">  c #7B553D",
",  c #7E593E",
"<  c #765540",
"1  c #775841",
"2  c #7C5B42",
"3  c #7A5740",
"4  c #7F6147",
"5  c #845C3C",
"6  c #895E3B",
"7  c #805738",
"8  c #8E603C",
"9  c #93633D",
"0  c #845D42",
"q  c #8A5E43",
"w  c #846146",
"e  c #8C6245",
"r  c #836349",
"t  c #8D6549",
"y  c #8D694D",
"u  c #936444",
"i  c #956A47",
"p  c #9C6B43",
"a  c #916649",
"s  c #936A4C",
"d  c #9B6C4D",
"f  c #986646",
"g  c #9E714E",
"h  c #98724A",
"j  c #8C6B51",
"k  c #946D51",
"l  c #9C6F51",
"z  c #8E7153",
"x  c #937354",
"c  c #9D7353",
"v  c #9C7659",
"b  c #9C7A5B",
"n  c #987758",
"m  c #A26E43",
"M  c #A36E4C",
"N  c #A57145",
"B  c #AA7347",
"V  c #A4724D",
"C  c #AC7449",
"Z  c #AF7848",
"A  c #B1774C",
"S  c #B2794A",
"D  c #B87F4C",
"F  c #A46D50",
"G  c #A37453",
"H  c #AC7654",
"J  c #A57A55",
"K  c #AB7956",
"L  c #A47758",
"P  c #A57B5B",
"I  c #AC7D5B",
"U  c #AE7758",
"Y  c #B27554",
"T  c #B37D52",
"R  c #B37D5C",
"E  c #BB7D5A",
"W  c #9F7F60",
"Q  c #9B865F",
"!  c #BB804F",
"~  c #A4815D",
"^  c #AC815D",
"/  c #A88B5F",
"(  c #B68257",
")  c #B98356",
"_  c #B4835E",
"`  c #BB845B",
"'  c #BC8A5D",
"]  c #9C8760",
"[  c #A68463",
"{  c #AD8462",
"}  c #A38B61",
"|  c #AC8A66",
" . c #AE8C68",
".. c #B38562",
"X. c #BB8562",
"o. c #B48A64",
"O. c #BB8B64",
"+. c #B58D6A",
"@. c #BC8E69",
"#. c #B49364",
"$. c #BC9365",
"%. c #B6926E",
"&. c #BD926C",
"*. c #B69E6D",
"=. c #BD9E6D",
"-. c #B79370",
";. c #BD9670",
":. c #BD9A74",
">. c #AE956A",
",. c #BCA16E",
"<. c #BAA473",
"1. c #B9A175",
"2. c #C3845B",
"3. c #C58A5E",
"4. c #C98C5C",
"5. c #C58157",
"6. c #C28561",
"7. c #CD8762",
"8. c #C48C65",
"9. c #CB8C65",
"0. c #C48E69",
"q. c #CC8E69",
"w. c #D48B67",
"e. c #D28F6A",
"r. c #D18765",
"t. c #C39265",
"y. c #CA9366",
"u. c #C4936C",
"i. c #CB936B",
"p. c #C39A6C",
"a. c #CC9A6C",
"s. c #C39A66",
"d. c #D3936C",
"f. c #D2996E",
"g. c #D29867",
"h. c #C49671",
"j. c #CA9571",
"k. c #C49B74",
"l. c #CB9C74",
"z. c #C59F78",
"x. c #CA9E78",
"c. c #D39672",
"v. c #D39C73",
"b. c #DA9C74",
"n. c #D39F78",
"m. c #E09D75",
"M. c #C3A26E",
"N. c #CBA36E",
"B. c #D0A36F",
"V. c #C2A775",
"C. c #CCA275",
"Z. c #CCAC74",
"A. c #C4A179",
"S. c #CBA47A",
"D. c #CDAA7D",
"F. c #C7AB73",
"G. c #D4A275",
"H. c #DBA475",
"J. c #D4A57B",
"K. c #DBA57B",
"L. c #D5AA7E",
"P. c #DBAA7E",
"I. c #D0AC75",
"U. c #CAB37B",
"Y. c #C4B27B",
"T. c #D4B47D",
"R. c #DEB37E",
"E. c #D3B97D",
"W. c #E1A57A",
"Q. c #E0AB7E",
"!. c #CBAB80",
"~. c #D5AD81",
"^. c #DCAE82",
"/. c #CEBC83",
"(. c #D6B285",
"). c #DCB385",
"_. c #DBB986",
"`. c #DCB689",
"'. c #DDBA8B",
"]. c #D3B684",
"[. c #E2AE82",
"{. c #E2B486",
"}. c #E9B485",
"|. c #E4BA86",
" X c #E1B689",
".X c #E2B689",
"XX c #E9B78A",
"oX c #E2B98B",
"OX c #E2BB8C",
"+X c #E1BB8C",
"@X c #E3BC8D",
"#X c #E2BD8E",
"$X c #E4BE8E",
"%X c #E3BB8D",
"&X c #E9BD8D",
"*X c #EAB887",
"=X c #E2BF90",
"-X c #E4BF90",
";X c #EABF91",
":X c #DAC286",
">X c #DECE8E",
",X c #E3C18F",
"<X c #EAC18F",
"1X c #E6C392",
"2X c #E5C191",
"3X c #E5C291",
"4X c #EBC392",
"5X c #E7C894",
"6X c #EDC995",
"7X c #EECA98",
"8X c #F0C693",
"9X c #F1CA95",
"0X c #F2CC99",
"qX c #F4D09B",
"wX c #E7D694",
/* pixels */
"h.# @XS.=XP.OX`.2XOXz.@X@X@X2X@X{.z G l /.,.N ^.^.{.b.`.L.h._.S.(.P &.:.z.:.h.S...&.-.2X=XJ.@XOX@X@X2XS.-X-XOX^. X0 Z.t.o.=.U.- ",
"..r 0 $XS.).2X@X@X2X_. .OX2X@X2X&X2 C.c ; 8 u ^.P.b.J.2X).b.).@XOXoX_.@XoX^.).^. X^.@X2XoX X).k.S.=X2X~. .$Xk. XoX..@XS a.R.{.P ",
"X.e e %.2X{.`.).2X).~.{.J.`.P.@X&Xd 0 a.o.C A J L l.&.&.S.K.x.+.P {.a ).`.^.). X2X'.(.@X~.'.@X2X,X@X2X^.2X(.$XL.).~.oX*X<X@X^.t ",
"c e {.^. X~.{.P.oX2X@X[ @X).OX7X@X6Xx.OXD.:.S ^.^.{.oX^.oXP.^.^.l.G > o.0  X2X XOX@XOX{.&X2XOX2X2X2X2X(.$XP. X_.OX2XK.$X6X@X Xh.",
"G G &.^.^.oX:.^.'.@X(.h._.2X2X6X&Xq 6XXXP @XN {.oX{.OX$X&.P.)._.j O.q 0 J.: ).J.@X~.^.^. X_.^.:.).^.{.2Xs  XoXoXJ.oXP.2X|.@XL.i.",
"t $ O.> L.).$X:.L.).@X).S.S.OX*X4X[.XX{.4X&.7 OX2X{. X{._.L.L.J.J.c k i : a L.{.).K.K.J.J.^.K.K.P.2 J e ^.-X~.^.oXb.4X4X2X$X> ..",
"l $X> &.P ^.@X@X).@XOX2X^.S 0 &XXX7X*Xc &.S.p  X^.J.J.J.L.L.L.{.oXr u.P c +.a OX~.;.r ..S e J...J...R O.> ).2X{.+.{.$XOX'.{.a i.",
"c P.x.6.0 y ~.2X@X(.@XP m D i j.{.y N i ..h.p a | ).p.s 8 p 5 { x.8.G ..G , > . w J.{.@Xb A D l.i.J.i.u.j.9.{.OXK.XXP.(.x.OXJ P ",
"u.^.0 l u.e.  ^.2Xi.wXOXS h.{.K.oX^.<.p._ E 2XJ.oX,.E.*.d m p 0.j.j.X.L 0._ t l 4 d g.{.v.l.0 u.~.n.v.n.G.K.).4X&X4X&X{.oXs G % ",
"K.S ^ a I G i.P.6Xi.oX$XB %.).l.K.{.b ~.(.`.1.~.`.~ E.3X]  X6X&.X.j.Y x h.X.l , e d.8.J.{. X2X2.v.v.P l.> J.' n S.OXb D.2Xe e v ",
". 6 5 ..# c a %.XX}.2XOX2XoX2X[.Q.*X X~.(.(.~.(.(.| ).@X^.l ^.@Xj.-.~.`.H ..u.H I e =X).-X2X2X-X5 '.=X4X<X*XXX*XJ.).+.~.z.e @XOX",
"C.C.S S S ; q 0 OX4X&X{.$XP.$X*X[.K.$X~.~.`.(.P k.J.^.@X^.).^.P.{.z.~.(.`.o.i.0.8.J I -X-XOX1X@X2X`.2XS.l.9X8X8X&Xh.4X~.e i 2X% ",
"&.>._.d 2 b  .^.7X_.*XXXP.[.Q.&X[.~.L.D.(.(.k.`.0 c.@X`.X.K. X$X).H.^.1 ~.oXk u.I o.{ ).~. X_.2X X1X2X2X`.0X&X4XqX8X4X9X[.^.{. .",
"L.p =.#. X).x.$X{.*X&X*Xn {.K.z.'.l.'.L.z.(.% i J.@X^.&X).-XoXoX^.$X^. X[.v._ J I G 2 e -X).a 2X2X1XOXK.2X6X0X0X8X9X&X4XOX{ a. .",
"Z h _.>X:.L.'.^.;.P.*X^ [.Q.o.T ! L.~.&.P l.D.x L.).x.n.u.^.oXOX$X{.-XJ.P.^.XXq J G * j ~.^.k > P.x.&X5X5X&X4X9XoXi 0XW &.&.N | ",
"N 2X2X`.2X`.'.'._.~.l.Z n _ M.s.D D ..J.`.(.+.).G.^.K.).H.P.oX$X^.).OX^.^.* K.[.a d e t [.4Xc 0 a.a.+.l I 4.4.( g.B.8 N Z B x N ",
"@X2X$X2X@X~.).'.~.x B &. X X(.(.Z.s _ P { &.&...O.K L.2X2XoX Xk.^.$X^.{.{...~.S.O.q d = m.[.}.q.K y.K.Q.H.Q.{.Y.C.%.} m B 8 7 N ",
"#.*.Q /.2X{.{ ~.S.J w J.@X2X Xa c { 8.u.X.M G  .c k. X)._.OX~.@X@XoX^.[.XX-XS.n 4X0 a 0 XXe 9.% P w.H 0.Q.m.|.F.s.$.s.C.t.J Z.Z.",
"J.`.OX_.=Xj.K e (.X.J.{.oXoXK.G H O.c l d t P ).oX'._.S.@XOX`.2X2X).{.2 {.`.-X-X-XI 0 OXy . e < J b.W.}.b.J.} *.G.a.%.~ :XT.2 ^ ",
"k.S.^.oX_ _ G :.&.J.L.oX{.{.c ^.{.G a G > + # 1 OX@X X+. X{.`.2X XOXOXq.l.OX).2X2X&Xq = e # d ^.e P.O.H.H.H.e 7 p O.0 ; S O.`.: ",
"e $Xi O.I 5 +.d J.J.@X$XK.u.K.x.P. X..J.).{._.@XJ.).).{.@XOX2XoX@X@X)...P.XX X-X^.&X+.: ~.e J  X$X0 {.H I e d 5 > l 0 F s j., ^ ",
"d = u.c 0 % d OXJ. XK.2X2XH.P.{.@X$X{.t.P. X@X2XoXL.). X@X2X2X'.2X2XP.5  XI 4XOX2X$X-XP ~.{.[.J.[.$X&XK.J.e d s G d 0 d e e 0 G ",
"O...I 0 a i {.d.).&.{.i.n.^.H.{.$X).b.{.K.b 2X^.J. X{.-X$X2X$X@X2Xi.K.P.u.K i n.OX(.XXOX2X&X2Xn.P.&XXX4X$X6X$X8.% q i a l _ u.P ",
"6.u.i.O.^ u...^ P K.P.l.P.{.^.2X@XP.K.P.). X_.^.h.2X@X'.$X2X2X2XA.i.H.X.P.v.3.M f 2.2X2X2X&X&X&X[.*XP XX6X2XOX9.v.0   d { R q.P ",
"G a d l d c d d J J G.&.n.$XoX@XJ.).{.@X{.& 0. Xh.2XOX2X2X@XD.2Xv.J.r.v.}.K.q.d.w.7.-X4X X$XXX;X;X&X[.OX2X6X9 0.C._.3 J { u.i.3 ",
"e e % +.+ J c e oX^.'.J.J.OXOX^.'.^.oXoXP.{.^.^.H._.2X2X).(.c.'.OX> y.i.w.a.+.{.+.P.n XX&X4X[.{.}.$Xb 4X@X).'.4.K.v.P.f.(.0 q a ",
"J [ t , 0 0 @X{.x. Xx._.$X2XOXoX^.).{. X X^.). X2X@X$X`.^.S.l.u.!.OX^.+ a.j.n.b.H.u.9.-X[ K.4X4X[. X`.,X$XL.o.a ' G.*Xd.w ^ ..U ",
"% oX{.P.z.{.oX~.OX+.~.@XOX^._._.2X$XP.b.).{.n.2XOX^.oX).OXL.l.6.( t.S.;X&X[.XXOX*Xi.b.+.P S XXJ.}.+ [.6X@X6X7Xa K R I e G I ..K ",
"L.^.{.[ {.OX).`.z.&.oX X).(.2X2XoX^.b.^.{.~.S.oX@XOX`.l.l.n.I &X;XK.[.XXJ.&X2XXXXXT Z _ <.p }.P.< 7XW.2X6X X6X).s i.d t O.R 8.% ",
"L.^.{.oXoXS.oXx.+.@X{.oX=XoXOX-X^.^.^.y (.OX@X(.(.+.P.V l.G.t K.&X[.XXOX2X&X&XXX4Xt c T p I.,.O 2X@X*XL.2X X6X`.K.c c I @.6.R ^.",
"^.K.2X^.j.{.J.L.OX@XoX2X-X$X X).@X{.- ~.2X'.2XL.+.x.~.i.$ J.@X{.[.}.*X`.2X).4XP.}.{.B V.O.r > s x OX$X<X7X6X@XOXG 0 t I { ^ b J.",
"[.{.'. X{.x.^.^.oXOX{.2X2X2X2XoX$Xn )._.@X` 2X^.^.y O.d.)._.L.L $X^.X.^.;X4X4XXX$Xa.> * S : i.b.R L.XX: 6X6X$Xa e G l H J q P._.",
"OX~.).oX XOXoX-X2X2X2X2X2X@X-X2X^.l._._.OX@X@X'.%.).`.^.oX'.(.k.^.K.{.n.}._.$X&X&XH.G.u.d u.c G.a.&.J.7X2X{.0 d d e e  .G P._.2X",
"OX).$XoXOX2X,X_.@X{.2X2XJ.2Xv.).`.J.^.).(.`.@X(.(...P.~.P.@Xu.v.P.~ d (.&X4X2X2X4Xb.v.b.a.(.7X$X2X).&X&X$X> d i 0 2 e A.P.^.2X2X",
"~.oXJ.).@X_.=X_.`.@X{.~.b.2X1 J.).~.I S.@._.'.OX'.~._.P.K.'.P.l.j.K &. X+.;X;XXXA b.l.v.H.^.D.{.$X).0 h.0 > > : ).2X&.v K.2X2X'.",
"J.~.'. X2X2X_.@XL.oXD.2X2XS.).a J I +.. OX`.S.OX~.`.(.J (.l.).J I G Q. XS.$X&Xy 4.w.G.b.Q.a.3X5X Xa c q 0 0 e c.2XS.,XoXOX2X@X`.",
"@X=X@XOX).OX2X(.).S.(.~.P.P.{.y e e > l [ L.'.OX2X:.L.P.J.i._ i.a : ^.$XoXOX&X4X3.O.b.{.d.$.2X5XX...s I a O.i.u.R @X2X(.2X@X2X2X",
"@X2X`.OX).OX~.-X~.:./.E.J.).oX^ w a J G + oX2XJ.P ~.).)._._ 8.OX^.P.J.{.{.J.-X&XP V K.b.G.v.y.5XS.P.x g J a.u...l.0 oXI oX@X2X'.",
"2X@X`.'.:.;.~.`.0 , `.OX).OX~.h.c r M.c G )._.P.@XOXJ._.q  XP.{.).^.{.^.oX X^.2X&X) d.b.h.i.# J.l.XXG.% G.u.u.2 e s G G OX'.2X`.",
"2XL.).S.J.oX_.`.# d a ..K.`.d @.=.N.p t   ).{.^.@X`.G.).v ^.P.H.@X2X[.L.^.+.J.^.4XP G.Q.H.9.y.oX@Xi.i.i., ^ v p ).t K P P +.v.2X",
"2X&.P S.[ Q.`.(.S.e t a ).`.1.#.c y Z x % P.^._.K.oXd ^.K.~.OX). X$X X`.C.x.2XC.XX).' P.b.d..._.G.).X.^.t.a.u.) :.G._.5 a 9.% f.",
"v.2XJ.L.f.O.i J.k.s { P c : d 0.~ k.a.J.= ^.^.^.K.0 q X.^.{.@X^.).@X@X^.^.J._.).J.i e i.6.9.P.`.^.).).' K f.a.G.H d.d.l.f.( b.v.",
"j.d K.f.f.G.).OX).^.J s P { + { m &.).7.d u G.(.M q J $.P.^.{.$X@X'. XoX^.P.).c K.oXP K.b.n.+.j.j.5 ' 0.G.y.J.9.9.Y 7.i.o.G.t.R ",
"w b.{.u.y.` ^.).OX X~.a o c X.G J.J.s S.k.C.(.`.D.[ 5 _.).x ^.P. X^.2XOXL.).L.{ b ^.k H d.b.{ J.'.^ 6.i.G.n.p.x P.P.K.b.G.u.& a ",
"t H.K.e.e (.a ^.).+.(.A.: > q ^ c (.x.~.(.(.).L.{ '._.P.OXOXS.^.).2X`.S.oX(.`.y G G ..p.t > 5 ,Xt.p.o.2.j._ m G 7.J.l.v.O.P.L.J ",
"a.i.g V , p O.2.~.l.D.x ~.X i.s e &.n L.~.(.&.x.(.).OX).`.S.j 2X{.oX$X@XoX@XJ.OXt i > i 6.0.u.@.y : C.i.i.I q.> u.c.a.i.G.Y b.J.",
"c.X.a i.` ; J.K XXS.L.J.J.J.2 h., d c S.L `.+.L.L.P.z.@X@XOXP.4XoX@X{.@X2X2X=XS.oXA.K.b s , H _ u...J 0 d s x L.a.J.b.9._ n.i.i.",
"@.J.f.` G H ` V c L.n J.~.(.(.L.(.L.(.(.L.+.~.`.~.^._.^._.).4X8XJ.2XOXoX$X@X`.S._.2XP.% q d q d $ i.P I c a J ..c 0 J.0.R l.G.v.",
"^.C.O.b...t.` d 2.5 l.(.J.S.L.D.(.%.[ S.`.).(.S.l.[ ~._.&X*X*X4X&X*Xc.@XoXOX$X_.~.L.h.@X-X{.0 5 . a R ^ k [ z.{ .., y.$.j.E K.).",
"R 7.d.n.G.i.C.' 3.Z (.(.(.+.n.0 S.e G a s a % P e G ^ s [.&X}.J.*X4X0X2XOX2X$X).$XJ.@X2X2X2XL.$._.(.(.'.{ s (._.r  X+.8.i.i.7.b.",
"+.n.).l.K.i.d.7.` S &Xs 8.}.XXXXJ.D.% g R 0.8.v.i.9.i.k _ O.4X*X{.4X X2X,X2X).@X^.oXx.OXOXP.P.P.(.^.'.).'.'.C.J.^.G.Q.i.g y.b.7.",
"9.i.).o.{.&.J.v.2.S }.[.*X4X}.&Xd B Z C.G O.i.G > 0 G I q L.6XS.9X$X&X&X2X~.oX2X{.@X2Xh.^.(.K.^.h.'.D._.~.%.z.+.(.d.b.b.c.) _ v.",
"P G.b.0.G.L.a.i.i.T {.&X*X;X&XXXj N.I.~.L.J.J.L.L.<Xt e {.2X{.9X4X0X0X6XXX2X .(.@X2X$X{.@X).{.~.b.S.).(.C._.{ (.6 H.b.f.~.8 c j.",
"_ x.r e.2 G.u.0.e 5 J.b.4X4XOXXX4XH.e (.(.S.I ^.S.4X%.4X9Xk.4X9X-X4X9X&X&X6 S.l._.2X`.-X~.@X+.{.).P.~.C.(.e ).0 . (.q f v.x.x X.",
"P ^.{.).^.X.J.f.u.i &XO.J.&X;X4X5.G.K.c p.=.C.Z [.P 0XJ.&XoX9X(.9X9X&X4XR./ A 4.~.~.@X@X2X2XoX(.2X@.^.J.G G 0 d a % e oX~.J.J.~.",
" XP.oX).v.{.b.K G.0 ..I G e k 5 O.K.c.b.t.+ Z {.).^.~.[ 4 & n <X9X7X0X$.e @ =.C J OX'.~.2X2X)._.@X2X^.7.i.c.t ..O.G I ~ _ ..x.(.",
"OXP.P.).^.^.r v.G 0 q * &X[.V d H 0.&._ o.p 0.f.P.^.^.{.^.{.{. X@X2X2X2X2X2X2X2X%.S. Xk.S.).@X2Xk.2X2XK.~.C.).: n d R ~.~.).@XP.",
"OX@XJ.^.oXOX X) , G q oXS.@.s ^ +._ K.f.j L.b.K.^.^.{. XP.^.).{._.-X@XOX@Xu.;.-.~.(.(.'.~.(.2X2X@X2X2XE C.L.G.^. X0 s ^ e ).^.{.",
"oXOX$X(.-X2XK.2X; # P  XH.P. XG i._ 9.o.J.,.J.^.).&XoX@X-X@X[.2X{. X@X2X-X2X2X@X).2X2X2X[.{.oX'.(.2X2X2X_.`.~.C.).Q.7X&XoX{.{ {.",
"+.u.OXOX@X2X{.oX2Xi.J.2X+.^.@XK.).^.e e c U.:XP.{.oX^.).$X2X2X$X-X@X@X$X2X~.oX2XOX`.'.S.`.x.%.%.k.+.& d.L._.L.4X}.).XXoX XoXOXL.",
"i.P.n. XL.2X2X).=Xu.L. XG.K.2XG.OX X[.d % U.*.P.P._.).P.).2X'.2X@X'.2XoX-X$X2X2X`.2X).2XK.).'.'.^.h. .2X@X@X).z.~.4X&XD._.).oX2X",
"K.J.`.@X-X`.2X@XS.2X).a.$XoX X$X Xa./.2 M.$XV.K.b.^.S.{.^.@X^.).,X~.@XD.D.`.).~.~.).@X2X'.@X2X(.~.^.5XL.2X).2X^.8.e J 4X~.L. X&.",
"^.G _.+.).oX@X2X X(.K 2 ).$X_.$X^.V p m h S T.l. X@X{.@X$X2XoXoX=X@XoXoXoX2X{.-X2X$X2X{.oXoX@X@X2X2X5X:.OX@X$X Xb d c ^ x Z J.^.",
"J G = `.,X$X-X X$X@X@X X+.-X@XoXoXI e S S 6 i ^.oXOX2X{.$X).`.^._.).S.h.I k.S.).2X$XOXOX_.'.oX(.@X(.@X{.2XoXL.).P.> I > S =  XP."
};
