/* XPM */
static char *rcp07212512933373[] = {
/* columns rows colors chars-per-pixel */
"64 64 256 2 ",
"   c #6F3D22",
".  c #B78A66",
"X  c #786451",
"o  c black",
"O  c #BF783E",
"+  c #785541",
"@  c #8E553B",
"#  c #7C4425",
"$  c #964D2F",
"%  c #8A4C2A",
"&  c #D08344",
"*  c #7C4222",
"=  c #6E3B1F",
"-  c #78523D",
";  c #6B3417",
":  c #76513A",
">  c #874623",
",  c #894824",
"<  c #8B4B27",
"1  c #7A3D1C",
"2  c #B78964",
"3  c #6E391C",
"4  c #060200",
"5  c #78614C",
"6  c #87441F",
"7  c #6C371A",
"8  c #7B401E",
"9  c #0C0401",
"0  c #D08242",
"q  c #6F3618",
"w  c #833E17",
"e  c #964928",
"r  c #774F37",
"t  c #8D5338",
"y  c #85411C",
"u  c #B58661",
"i  c #765E4A",
"p  c #6A3114",
"a  c #B7845D",
"s  c #78543F",
"d  c #934828",
"f  c #754B33",
"g  c #954B2C",
"h  c #B48159",
"j  c #974C2C",
"k  c #894A27",
"l  c #8C4F33",
"z  c #78624E",
"x  c #745C47",
"c  c #7B3C19",
"v  c #703B1E",
"b  c #773B1A",
"n  c #110602",
"m  c #7E3E1A",
"M  c #BE7337",
"N  c #765A43",
"B  c #8A4D30",
"V  c #BE753B",
"C  c #6F3312",
"Z  c #763815",
"A  c #934624",
"S  c #8B4521",
"D  c #744E37",
"F  c #672E11",
"G  c #7E401E",
"H  c #6C391E",
"J  c #B3835E",
"K  c #7F3A15",
"L  c #78634F",
"P  c #733919",
"I  c #6C2F0E",
"U  c #71482F",
"Y  c #8F4321",
"T  c #B88761",
"R  c #692B0A",
"E  c #763410",
"W  c #BC6F32",
"Q  c #82411D",
"!  c #844421",
"~  c #723514",
"^  c #7B3711",
"/  c #715842",
"(  c #795E46",
")  c #794020",
"_  c #BF773C",
"`  c #72543C",
"'  c #CE7F3F",
"]  c #80360D",
"[  c #944421",
"{  c #71442A",
"}  c #712F0C",
"|  c #B86B2E",
" . c #823912",
".. c #994823",
"X. c #8C5136",
"o. c #BF7133",
"O. c #804322",
"+. c #714B33",
"@. c #864728",
"#. c #75482E",
"$. c #160B04",
"%. c #874017",
"&. c #B47D54",
"*. c #BC7135",
"=. c #884A2D",
"-. c #903D19",
";. c #B76627",
":. c #AF7C55",
">. c #7A3915",
",. c #CE7B38",
"<. c #8E4E30",
"1. c #763D1E",
"2. c #240D02",
"3. c #B1794F",
"4. c #723D1F",
"5. c #63290C",
"6. c #8F5438",
"7. c #92411E",
"8. c #9A4C29",
"9. c #B76F35",
"0. c #863C0F",
"q. c #8E4A22",
"w. c #BD6928",
"e. c #1D0F07",
"r. c #7B320B",
"t. c #B0805A",
"y. c #905334",
"u. c #BC6D2E",
"i. c #1C0901",
"p. c #C07639",
"a. c #8B441A",
"s. c #D17E3A",
"d. c #8E4B2B",
"f. c #8B3F1D",
"g. c #BB7339",
"h. c #8F4626",
"j. c #77583E",
"k. c #C16E2D",
"l. c #712A05",
"z. c #251409",
"x. c #784C32",
"c. c #7B5238",
"v. c #CA7B3B",
"b. c #834526",
"n. c #2C0F02",
"m. c #8D3D13",
"M. c #7C553B",
"N. c #6F5038",
"B. c #633117",
"V. c #724125",
"C. c #CC7631",
"Z. c #5C2B12",
"A. c #B98156",
"S. c #B2662B",
"D. c #331505",
"F. c #884E33",
"G. c #2C170A",
"H. c #76300A",
"J. c #642304",
"K. c #B26B32",
"L. c #6A452D",
"P. c #C27435",
"I. c #AF6125",
"U. c #5C2105",
"Y. c #8A4728",
"T. c #AA7851",
"R. c #883A17",
"E. c #7D6148",
"W. c #AB744B",
"Q. c #55250D",
"!. c #D27830",
"~. c #D4813E",
"^. c #C77432",
"/. c #78452A",
"(. c #924F28",
"). c #3B1B08",
"_. c #7B5C41",
"`. c #9F4C23",
"'. c #8E360F",
"]. c #945430",
"[. c #813006",
"{. c #6B4025",
"}. c #D67E36",
"|. c #C77737",
" X c #C3783B",
".X c #43210C",
"XX c #87340C",
"oX c #943C12",
"OX c #B6601F",
"+X c #6B4B33",
"@X c #BC875C",
"#X c #C7702C",
"$X c #7C5033",
"%X c #6B2603",
"&X c #96411B",
"*X c #4C210A",
"=X c #321D0E",
"-X c #9C522C",
";X c #934B1F",
":X c #421704",
">X c #844A2F",
",X c #914615",
"<X c #B37447",
"1X c #836042",
"2X c #541C04",
"3X c #A1673E",
"4X c #BA7C4D",
"5X c #7C644D",
"6X c #7A2C04",
"7X c #7B4B2D",
"8X c #A96F45",
"9X c #65391E",
"0X c #A85C22",
"qX c #CE7027",
"wX c #825334",
"eX c #3B2312",
"rX c #BD6320",
"tX c #4B2914",
"yX c #845A39",
"uX c #3A1102",
"iX c #AB6630",
"pX c #AA7C57",
"aX c #A25524",
"sX c #A16E48",
"dX c #4B1803",
"fX c #624029",
"gX c #7F462B",
"hX c #B0591A",
"jX c #784225",
"kX c #A75519",
"lX c #542F18",
"zX c #8D623F",
"xX c #69523E",
"cX c #D9792C",
"vX c #5B3720",
"bX c #C08556",
"nX c #995220",
"mX c #C46924",
"MX c #9C441A",
"NX c #A27450",
"BX c #85664A",
"VX c #A5602D",
"CX c #976B48",
"ZX c #994A15",
"AX c #A64D1B",
"SX c #976138",
"DX c #89542F",
"FX c #614A37",
"GX c #422A19",
"HX c #824E2B",
"JX c #A04B13",
"KX c #4D3523",
"LX c #AF6D3E",
"PX c #56412E",
"IX c #9C5C2C",
"UX c #C5834E",
/* pixels */
"4 ; h.w K.N.X X 7XB.@ /.>XZ.V.p # # # + +   B.H Z.  Z.          uXQ.>XJ. .7 : fX% % % 1.O.% % k . . u $ $ # # # Z.; Q.@ @ Z.V.@ ",
"Z.l.e kX;.yXX xX@ @ @ @ @ @ @.X.# # b + +       dXB.q = I I C p @ @ @ M S.+ + + % % % % % % % % pXNXW.A $ ) H.) @ @ @ @.X.B t jX",
"$ $ $ O O X _.X @ @ l @ @ @ 6.@ l.E * V.V.7   U.      8 1.%.  6 @ @ @ O O + + + % ! > % k % @.HX. . . 8.oX# # * X.@ @ @ @ @ @ t ",
"~ d 8.p.o.BX( X % % , % % % 6 y # # # + +     F 0 |.& ' qXC.0 & y.6.@ w.o.+ $XD X X X i X X X E.J J 9.$ $ m # # { x./.+ x.s U + ",
"! Y $ k.o.zX_.X % % % % % % % %.# c # s +       ;.& s.qX!.0 ,.& @ @ @ O V + 7X- X z i X X X X $X3X<X<X8.e  .# # + - + - $X+ + : ",
"$ $ `._ O zXwX5 . . . . . . . :.! 8 1 - : =     j `.`.aXhXaXAX[ @ @ @ O O + + : {.    =         . a &.8.e XX^ # O O O O g.O aXVX",
"$ $ $ O O 5X5 U NXT . . . . . u * * q 7 {   F   $ $ $ g g `.oXY @ l @ O O s + + ; p R 7 7 3     u . W.e -.# b b O O O O O O ;.iX",
"J.$ -XO O E.X X bX8X&.3XT.T.J nX# * # + +   7 p $ $ Y $ $ $ $ $ O.t q.O I.#.D +   =   ~ v v 3   . . . g $ # # # W ;.P.V W g.O O ",
"9XsX@X4XW.J . @X$ $ $ X L O VX| + + + + + + +.+ J.p ; |.^.SXX ( ) E # w E I b %X. . . O O @ @ @ % % R.> % % % % IX<X. ;XO.%.] P ",
". J . . . . a IXg $ g X X O V O gXD U U f r : + p     k.,.zX5Xx # # # # # * # H.J &.g.O O @ @ B > w % y 6 , %.% . . . # c % % % ",
". . :.. . . t.. R.7.h.5 5 9.O O + /.+ ) 7X+ s V.      0 & X X X 3 c m # # # # # &.A.. O p.aX;X%.% % % % % % % @.W.. W.O.# % % % ",
":Xb # y Q %.* # $ $ $ X X O O 9.% % % % % % % % F q %.,.,.3X_.N $ $ $ $ 7.e 7.... . . O O @ @ @ #.{ x.: + x.+ + . &.. # c % ] F ",
"# # 1 * c K ^ # $ $ $ X X O O | % y % > % % % % U.C w ,.!.3X( X $ $ $ $ $ $ 7.-.. . T O O @ @ @ 4.U #.: : f - + . . . # 8 % [.C ",
"@ >X@ l @ B ! y [ e $ X X O O hX0.} } ~ 3 q       v   ' ,.SX_.X                 3X. 2  XO @ @ t X / ` x ` X N 5 . . . # 8 % y p ",
"@ @ @ @ @ @ @ y g A g L X O O O P } I p R =   7       & ' L X i H         q     :.T 4Xk.O ].6 >XX X 5 i 5 X i N . . . # # % % % ",
"H b @ d.(.$ @ @ g A $ E.1XM O I.                3 3 w & & X i X J.U.= p 5.  p 6 . . . p.O @ @ t X X X X X i X X t.T.SX* ) ^ @.% ",
"t.NX2 K.OXDX+ - & & & & & & ,.0 , l l + + $ d d J.Z O.w 1 P P 1 @ @ @ = ; & 0 & . . T . . . . . 9.iXiX< % + +.+ @ @ @ @.l t @ ; ",
". . . O O + + + & 0 ,.' & 0 & & R.! t V.  h.A XX# # # # * # G 1 t @ =.    & & & 4Xa a a h h u W.O M O q.6 : + { @ @ @ @ @ @ @ @ ",
"pX2 @X|.k.].$X+ & & 0 & & & |.S.@ @ @ + + $ $ '.E 0.! ZXZXZX! # @ t @ C r.v.' 0 . . . . . . . sXiXu.w.% % 7X+ s X.=.h.y.<.@ Y.@ ",
". . @X XmXDXHX+ % % % % % % , y > b.@ + + $ $ $ JXM V rXw.w.w.O @ @ @     & s.,.X 5XX X X X X _.0XOXOXq.a.7Xr + f.$ e g oXg m.h.",
". . bXO O M.7X+ % k % % % % % > F.=.X.x.r d $ $ *.O W W OXrX;.0Xt @ @     & & k.1X5 X X X X X X O o.*.;X%.* #.+ $ $ $ $ A $ R.>.",
". . . O O yXs P U N X 5 X X X X @ @ =.) r h.$ $         1.4.4.q O.@.@     & & & q.) 1.) # # # # O O u.q.k + #.f         =   = B.",
"J . 4XO O M.+ + N.` N.` N ` N.N.@ @ @ + + $ g g                 >.S F.7 ~ u.0 o.# b # c ) # 8 K O O O % % + + D = = 7   ;   H   ",
"CXzXT.g.9.: + ` X X X X ` X L.` @ @ @ + + $ d $ } 5.; B.  7 = ; @ @.@ ; ~ P.|.M # # # # # # # # OX9.nXK % D + + 7 5.= B.7 ; F H ",
"X X X X X X x / + + +.# # % % % H.b.=.@.@.@ @ @ X X X B.F % G , # # # # # # # 1 > sX:.& 0 % < q.P C   ; F   p 3 X X X # # O O iX",
"X z _.X X X ( X D { { ) } K % % @ X.@ h.y.@ y.! X X X     % % % H.* >.* m * # # J &.. 0 qX(.ZX6X                N.X X # # I.O O ",
"G.i 5XBXBXBX5XX + + + # # % % 6 @ @ @ @ @ @ @ @ yX( N 7 C 6X .6 # # # # m m ] f.. . . & & % % % R p 7 =   7 7   X 5 i # m O OX,X",
". . h . u h :.. + + + # # % % 6XJX| O p.p.O O O DXi N = I ! % k $ $ $ $ $ $ A ... . @X~.& % % % I ; { V.f f +.+ X i X # # O W 0X",
". . . . . . &.SXr + + # # % % a.S.w.#X^. X^.O O X z i   q ^ ] % $ $ $ $ $ $ $ $ 8XT . ~.& % % % : - r - : s : - X X X # # O OXg.",
"$ $ $ $ $ $ j h./.#.r # >.% % % u *.bXbXbX@XA.T.X X X     % % R.B @ @ @ @ y.@ @ 3XA.UX}.}.aX,X% $ $ $ d Y $  .Q X X X # # O O O ",
"F m.g [ g ..$ h.+ /.+ Z * K y %.. . . . . . . . _.i L.  3 % % % ] d t Y Y.y.Y.<.. . . 0 & % % % $ $ $ $ $ $ $ g X ` i # m kXI.iX",
"$ E $ $ f.Y g  .+ + + # # %  .% h . . J . 2 J . SXi X b 1.> % % @ @ @ X.y.@ @ y.T T 4X& & % % % 8.f.f.$ S h.y $ X X X * K _ O O ",
"+ + +     O I.O l =.y B @ l @ @ G m # Y ..*.v.k.. . . . . . . h X.@ b.O O & & & <Xh @X4XW.3.T.&.      i z + + L.% % % % % % % % ",
"fXvX{ 7 R 0Xu.O @ @ @ @ @ @ @ b.# # # $ $ & & v.g.&.h h &.<Xa . @ @ @ M k.s.}.' . . . . . . . T.3 H 7 X X - : + % ! 0.%.a., y O.",
"+XL.D = E I.;.O @ @ @ @ @ @ @ H # E G $ $ & & s.O :.. pXsXsX3X. @ @ @ O O & }.& . u u . . . . . J.J.7 N N D + + c % S % a.% 6 ; ",
"+ + f     I.| I.X X X X X X X N C # # [ ..& & & + M.$Xs M.M.x.- @ @ @ O O & & ,.q.# # # # # # # = R 7 ` N.D +.D @ @ t t @ @ @ 2X",
"+ D +     O M 0XX i X 5 X X X X # 8 ] '.j ^.& & + + + + + + + { 1 @ @ O O & & ' ZXm >.m m * r.#     = x x + D { @ @ @ @ @ @ @ >X",
"fX+ { 7   *.O O k O.! Q k % m H.# # # $ $ & ,.'         =       ^ S ].p.^.cXs.v.$ g $ -.$ $ A 6X      X X + + + iXg.W O M W I.O ",
"+X{.U   3 VXO 0X% % % % k % 6XK # # # e $ & 0 & P I 3 J.  ;   ; X.6.@ M  X0 & k.$ $ $ $ $ $ $ $ F ; ; i i : U + O u.O p.w.k.| nX",
"+ s +     O O IX% % < % % % % % Z b * '.&XP.& &       3 p   7 7 @ @ 6.O O & & & 8.d f.$ g $ h.h.      / ` + { x._ O O p.O O O (.",
"X x / X X E.X X b R.f.6X>.P + { @ @ @ l 6.@ @ ! % % %     $ $ $ ].t.4XT . T T 2     7 sX3.5Xr ` # # # # * # # # JX| O j j A @ @ ",
"G.z / X j.( 5 X $ $ $ # # + + { @ @.@ @ @ @ @ l w y K I J.l.-.$ . . . . T . @X8X      . . X X z 1.C 8 E # ^ c # O O O $ [ @ w p ",
"X X 7X5 j.7X: X $ $ $ # # + r V.F.;X@ -X@ @ @ @ q.0.y C l.f.g j . . . . . . . h       . . X X X P Z ^ ] * K * # O O O $ ..@ w 2X",
"% % % % % < % 0.g 7.$ # # + + + VXhXu.k.o.k.O O % % %   q d [ [ & & & & & & s.& ^ q G u 2 BXX X % , y % % XX% % O O O $ $ @ @ p ",
"% % % % % % % S [ e [ * H.+ + + O | M M w.o.| K.% % %     $ j 8.^.& 0 & & & & & = I Q 8Xu CX( x % % % 6 > % w 0.O O M $ $ @ @ @ ",
"x.].&.h u &.. J $ oX$ 8 1 + 1.O.X X X X X X X X >.6 w q    .$ $ ,Xa.# JXS JXa.#       . . X X X U + 7X+ + + + - 9.u.M $ &XA  .>X",
". 8X. . a u W.SX$ $ $ # # + V.+ j.5XE.E.X ( X X >.% % J.%XR.$ '.# # # # G # # P   v ) . . X 5 X +./.s + D /.x.+ O O O j g t @ jX",
". . . . . . T.. h.g ;XO.# $X+ + 1X_.X 5 f - 5 {.% % %     $ $ d >.) ~ # # # # # 0.I ) T.sX` / fX+ + + - + + + G W O S.$ $ @ @ @ ",
"B.8 <.  b j.#.X & & v.& & & & |.. . . $ $ # # 6X%Xb.t b.@.R.! @ D + + O I.0 w.& # # # # # # # Z   7 F NX. ].$ $ a.6 0.k  .% K O.",
"@ @ t 3   7 ` X & & & & & & & v.. &.u 8.g # # # G @.@ =.R.> X.F.+ + + O p.& s.OX# # 8 # # # # # 5.5.b 8X. -X$ $ y k < % % % 0.% ",
"F.@ @   3 N ` yX9.& & & & & & v.4Xa &.`.$ * # # @ X.^ @ @.Q c >X+ + + O O & & & m.# # # # # # # ; I G 3.A.$ ..A % % % % (.% q.%X",
"@ @ @     X N M.O p.O O O O O O . A.<X`.&X* # #               H : + + O O & 0 ^.DX( j.N X N / X   = ) . T $ j j O O O O O O O g.",
":XF.@ q = / X X 9.| O o.M W | K.. . . $ $ # c #     q   =       ; 7XM.;.#XcX0 |.X X X N X X X +.    4.. . $ $ $ OX;.;.O O u.| O ",
"B.1 =.} 7 N.z wX+ + + + + + DXc.. . T $ $ # 8 # J.Q , y r.y % m + - + V ^.s.& & @ @ @ @ @ @ @ @ 3 C * :.2 -X`.$ + + + M.DXwXs +X",
"@ @ @     X N.X + + + c.+ + : + sXh u MXoXK # l.% % % y > R.% Q + + M.O O & & & @ l B @ t @ =.=.      t.<X$ g Y - + + + + + + +X",
"B.jXF.  = / X X +.s x.s + r s f . . . $ $ # # G % % % % y % % % M.$X+ ^.O 0 ,.v.@ @ @ O.@ @ X.X.    Q 2 . d $ $ /.U jX+ $XM.D + ",
"GXfX5 / / x x X $ $ $ # # + + wXO 9.O O O O O M 6 %  .H.E 3XW.. & & & & 0 & C.& + + s     O O ;.%.r.q.q., 0.% % $ h.$ . T.X X FX",
"X z ` X i N.+.5 $ $ $ # # + + x.K.M O *.V O O O % r.y ^ H.T.&.a & & & & & & & v.x.+ +     O O O % 6 a.y % R.k % $ $ $ . u X N FX",
"X X X X X X L >.$ 7.$ # # + + M.K.kXS.JXI.O 0XO % % % 8 G t.<XA.& & & & & & & & r f p = P S.O O < % a.% S , % y $ $ $ . . X i FX",
"7 % % % % , % % m.oXg [.c #.+ -   P   v v   C p % % 6 # # . a . 0X$ `.$ 8.$ $ $ + + + R ~ 9.*.g.@ @ @ <.@ @ @ B 7.&X-X. . X X X ",
"dXQ q.;X;X< % S $ e $ # # + V.=             v   r.y 6 8 G 3X. h 8.[ $ [ [ &Xh.>.+ + +     O O O @ @ S @ @ @ @ @ XX&X$ 4Xu BX: xX",
"u sX. . . . W.VX$ $ $ # # + f + gXF.! @.X.b.t @  .% % ^ m 8X. 3.X X X X X X X +X+ U ;     O O O ! m # G G G ^ # $ $ $ h a X X / ",
". . 2 . . . u . R.Y f.Z ) {.+ + @ c @ G G X.@ O.% % % # # . . . ` / N.X X X X X L.9Xs   7 ZXS.aX# # # 1.) # ) %XH.$ d :.. X X X ",
"{.yXu CXCX$XCX. $ $ $ # # + + lX@ @ @ @ @ @ @ Z.Z.q Z.; Z.{ yX. X X / X PXL xXxX+ + +     O O g.B.Z.Z.Z.# Q.# # g I $ . M.X eXPX"
};
