/* XPM */
static char *rcp0720233336197[] = {
/* columns rows colors chars-per-pixel */
"64 64 254 2 ",
"   c gray4",
".  c #0B0B0B",
"X  c #0C0C0C",
"o  c gray5",
"O  c #0E0E0E",
"+  c gray6",
"@  c #101010",
"#  c #111111",
"$  c gray7",
"%  c #131313",
"&  c gray8",
"*  c #151515",
"=  c #161616",
"-  c gray9",
";  c #181818",
":  c #191919",
">  c gray10",
",  c #1B1B1B",
"<  c gray11",
"1  c #1D1D1D",
"2  c #1E1E1E",
"3  c gray12",
"4  c #202020",
"5  c gray13",
"6  c #222222",
"7  c #232323",
"8  c gray14",
"9  c #252525",
"0  c gray15",
"q  c #272727",
"w  c #282828",
"e  c gray16",
"r  c #2A2929",
"t  c #2A2A2A",
"y  c gray17",
"u  c #2C2C2C",
"i  c #2D2C2C",
"p  c #2D2D2D",
"a  c #2E2D2D",
"s  c gray18",
"d  c #2F2E2E",
"f  c #2F2F2F",
"g  c #302F2F",
"h  c #312F2F",
"j  c gray19",
"k  c #313030",
"l  c #313131",
"z  c #323131",
"x  c #333131",
"c  c #323232",
"v  c #333232",
"b  c gray20",
"n  c #343333",
"m  c #353333",
"M  c #343434",
"N  c #353434",
"B  c #353535",
"V  c #363535",
"C  c gray21",
"Z  c #373636",
"A  c #373737",
"S  c #383636",
"D  c #383737",
"F  c gray22",
"G  c #393939",
"H  c #3A3838",
"J  c #3A3939",
"K  c #3A3A3A",
"L  c #3B3A3A",
"P  c gray23",
"I  c #3C3A3A",
"U  c #3C3B3B",
"Y  c #3D3B3B",
"T  c #3C3C3C",
"R  c #3D3C3C",
"E  c gray24",
"W  c #3E3C3C",
"Q  c #3E3D3D",
"!  c #3E3E3E",
"~  c #3F3E3E",
"^  c #3F3F3F",
"/  c #403E3E",
"(  c #403F3F",
")  c #413F3F",
"_  c gray25",
"`  c #414040",
"'  c #414141",
"]  c #424040",
"[  c #424141",
"{  c #434141",
"}  c gray26",
"|  c #434242",
" . c #434343",
".. c #444242",
"X. c #444343",
"o. c #454343",
"O. c #444444",
"+. c #454444",
"@. c gray27",
"#. c #464444",
"$. c #464545",
"%. c #474545",
"&. c #464646",
"*. c #474646",
"=. c gray28",
"-. c #484646",
";. c #484747",
":. c #494747",
">. c #484848",
",. c #494848",
"<. c #4A4848",
"1. c #4B4848",
"2. c #4A4949",
"3. c #4B4949",
"4. c #4B4A4A",
"5. c #4B4B4B",
"6. c #4C4A4A",
"7. c #4D4A4A",
"8. c #4D4B4B",
"9. c #4E4B4B",
"0. c #4C4C4C",
"q. c gray30",
"w. c #4E4C4C",
"e. c #4F4D4D",
"r. c #4E4E4E",
"t. c gray31",
"y. c #504D4D",
"u. c #504E4E",
"i. c #514E4E",
"p. c #504F4F",
"a. c #524F4F",
"s. c #515050",
"d. c #525050",
"f. c #535050",
"g. c #535151",
"h. c gray32",
"j. c #535353",
"k. c #545252",
"l. c #555353",
"z. c #565353",
"x. c gray33",
"c. c #555555",
"v. c #575454",
"b. c #575555",
"n. c #565656",
"m. c gray34",
"M. c #585555",
"N. c #595656",
"B. c #585757",
"V. c #595757",
"C. c #5A5757",
"Z. c #5B5757",
"A. c #585858",
"S. c #595858",
"D. c #5A5858",
"F. c #5B5959",
"G. c #5B5A5A",
"H. c #5C5A5A",
"J. c #5E5B5B",
"K. c #5F5B5B",
"L. c gray36",
"P. c #5F5C5C",
"I. c #5F5D5D",
"U. c #605D5D",
"Y. c #615D5D",
"T. c #605E5E",
"R. c #615E5E",
"E. c #625F5F",
"W. c #635F5F",
"Q. c gray38",
"!. c #636060",
"~. c #646060",
"^. c #656060",
"/. c #646262",
"(. c #656363",
"). c #666262",
"_. c #666363",
"`. c #676363",
"'. c #676464",
"]. c #686464",
"[. c #6A6565",
"{. c #6A6666",
"}. c #6B6666",
"|. c #6A6767",
" X c #6B6767",
".X c #6B6868",
"XX c #6B6969",
"oX c #6C6868",
"OX c #6E6969",
"+X c #6E6A6A",
"@X c #6F6B6B",
"#X c #6E6C6C",
"$X c #6F6C6C",
"%X c #706C6C",
"&X c #716C6C",
"*X c #716D6D",
"=X c #726D6D",
"-X c #716E6E",
";X c #726E6E",
":X c #736E6E",
">X c #746F6F",
",X c #756F6F",
"<X c #737070",
"1X c #757070",
"2X c #767070",
"3X c #767171",
"4X c #777171",
"5X c #767272",
"6X c #777272",
"7X c #777373",
"8X c #787272",
"9X c #787373",
"0X c #797373",
"qX c #797474",
"wX c #797575",
"eX c #7A7575",
"rX c #7B7575",
"tX c #7B7676",
"yX c #7B7777",
"uX c #7C7676",
"iX c #7C7777",
"pX c #7D7777",
"aX c #7D7878",
"sX c #7E7878",
"dX c #7E7979",
"fX c #7F7979",
"gX c #7F7A7A",
"hX c #807A7A",
"jX c #807B7B",
"kX c #817B7B",
"lX c #827C7C",
"zX c #837D7D",
"xX c #837E7E",
"cX c #847D7D",
"vX c #847E7E",
"bX c #857E7E",
"nX c #847F7F",
"mX c #857F7F",
"MX c #867F7F",
"NX c #868080",
"BX c #878080",
"VX c #878181",
"CX c #888181",
"ZX c #888282",
"AX c #898282",
"SX c #898383",
"DX c #8A8383",
"FX c #8A8484",
"GX c #8B8484",
"HX c #8B8585",
"JX c #8C8585",
"KX c #8C8686",
"LX c #8D8686",
"PX c #8E8787",
/* pixels */
"X X X X X X X X X X X X X X X X X X X X X X X X X X X X X X X X X X X X X X X X X X X X X X X X X X X X X X X X X X X X X X X X ",
"v e 0 0 e e 7 3 3 3 3 > > - # X         X d e 0 > > - # X X X           d 7 7 7 7 7 3 3 > > - - # # # # X X X                   ",
"u.d d v M v d d e e 0 e 0 d d e 7 #     X d e e e e e e 0 0 7 3 3 > X   q.d v d d M M d v v e e d e e d d 0 e e 0 e 7 -         ",
"W.d d v v v d d 0 0 0 0 e 0 e 0 0 7 X   X d d d e d d d e d d e d d 3   '.d d e e M M e d d e e w e e d d e d d e v d d 7 X     ",
"OXv d d M d e e 0 0 0 0 e e e e 0 0 >   X d 0 0 0 e e 0 0 e 0 e e e e   3Xd d d v e v e e e e e 0 e d e e d e e e e e e e 3     ",
"3X! v 5.q.} K K d 0 e e e v e d 0 0 3   # v 0 0 0 0 0 0 0 0 e 0 0 e 0 X vX/ M M M v e d e 0 e e e w d e e e e e e d e e e 0     ",
"dX=.K c.c.} _ _ v d v e e e v e 0 0 7   # D e e e e d e 0 e e e e d e X FXf.M K K e d v d e e e e e e e e e d d d d d d d e X   ",
"dX} M M =.! d M M e d d e d v d e e 0 X # U e e e e e e e e e e e d e X LXf.K v M M e d e e e e e e e 0 0 0 0 0 e 0 0 0 e 0 #   ",
"pXd d 0 0 0 0 e e e e d e d v d e d e X # / 0 e 0 e 0 0 0 0 0 0 0 e 0 # LX/ d e d d e e 0 0 0 0 0 0 0 0 0 0 0 0 e e 0 e 0 e #   ",
"vXg 0 0 0 0 0 0 0 0 0 0 0 0 e 0 0 0 0 # # :.d d e e e e e e e e e e e # LX5.K v d d d e e e e 0 e 0 0 0 0 0 0 0 d e d d d d >   ",
"CXn 0 0 0 0 0 0 0 0 0 0 0 0 0 0 0 0 0 - - 5.d d d e d d e e d e e d d - LXq.! M d d d e e e e e e e 0 0 0 0 0 0 e 0 e d d d 3   ",
"CXM 0 0 0 0 0 0 0 0 e e e e d d e d d > - X.0 0 0 0 0 e e 0 0 e e d v > LX5.M v d e e e e e e e e d d e e e e e 0 e e e e d 7   ",
"VXM e 0 0 e e 0 d d e e e e v d e d d > - :.e e e 0 0 0 0 0 0 0 0 e e > LXD.! K M e e e 0 e e e e e d e e d d e d d v K K M v   ",
"vXK e e e v M e d M d d d e d 0 e e d 3 - q.e e e e e d e e e 0 0 0 M 3 LXW.K K ! e e e e e d d v d d d e e d e v d v K K K K   ",
"VXK e e e d d d v v d d d d e e e e e > - q.0 e e 0 e e e 0 e e 0 v K 7 LX[.M d d e e e 0 0 e e e d e d e e e e e d d e v M K   ",
"LXu.d e e d d d M M v d d d e e d d e 7 > f.e 0 0 0 0 0 0 0 0 0 0 e K 0 LX8XK v e d e e e e e e v v d d e e e e v v d d d e } X ",
"LXlXn e e d e d v v v d d d e e e d e 0 > D.d e d d e d e 0 e e e e M 0 LXVX! e e d e e e e e e v v d e e e e e v v d d d d e # ",
"LXLXf.d d d d v M F M v v d v e e e e 0 > -XM d v d e d d e e d e d ! d LXLXu.d e e d 0 e e d e v d d e e e e e d d e d e e d - ",
"LXLXVXu.K K M =.5.f.5.} K ! M d v M v v > CXZ.K v d e d d e e e v K } v LXLXvXZ.5.} K ! v n v d M =.} v d d d d v v v v v d K 7 ",
"LXLXLXLXvXeX-X-X#X.X#XD.5.=.=.M ! } ! ! > LXFXkX3X.XP.z.q./ K K M ! =.M LXLXLXLXLXCXCXvXdX>XOX[.).).).D.:.:.} ! =.5.! } ! K c.} ",
"LXLXLXLXLXLXLXLXLXLXLXLXFXCXvXlXpXeXpXeX> LXLXLXLXLXLXLXFXCXVXvXkXdXeX!.> LXLXLXLXLXLXLXLXLXLXLXLXLXLXLXLXLXLXLXLXLXFXCXVXvXvXeX",
"X X X X X # # # # # - - - - - > > > > > > 3 3 3 3 3 3 3 3 3 3 3 3 3 3 3 3 3 3 3 3 3 3 > > > > > > - - - - - # # # # # X X X X X ",
"X X f.e 0 3 > - # X X               > e - # # X X X X X                       3 K - # # X X X                                 X ",
"X X q.e d e 0 e e 0 7 7 3 > - #     > :.d e e v v e e 0 0 0 0 7 0 3 - X         W.d d e 0 e e 0 0 0 3 > > - - - X             X ",
"X X D.d d d e d d d e d d e d d >   > [.g e d v M v d e e 0 0 0 e 0 d e 3       3Xg e e e e d d d v e e e e e e 0 7 > #       X ",
"X X ).d e 0 e e e 0 0 e 0 0 e e 7   > 8Xv d d M M d d e 0 0 0 0 e e e 0 0 -     lXd 0 0 0 0 0 e e e e e e e e e e e 0 0 >     X ",
"X X -Xd 0 0 0 0 0 0 0 0 0 0 0 e 0   > dXM d d v v d d e 0 0 0 0 e e e e 0 3     CXU e 0 e 0 0 e e d d v d d j v d d e e 0 X   X ",
"X X 3XM e e e e d e 0 e e e e d e X > vX=.K q.c.q.! } K e e e e v d v e 0 7 X   FX5.e d e e d e d e d v d d M d e e e e e -   X ",
"X X eXD e e e e e e e e e e e d e X > CX5.K q.c.} ! ! v d e d e d d e 0 0 0 X   LX=.e e e 0 e e e e e e e e d e d e e e d >   X ",
"X X eXK 0 0 0 0 0 0 0 0 0 0 e e e X > VX} v M } v e M e e e d e d v v e e e #   LXu.v d e 0 0 0 0 e e e e e d e e e e e e 3   X ",
"X X dX} d d e e e e e e e 0 0 e e # > CXM 0 0 0 0 0 0 0 0 0 e e e d v e e e -   LX:.d 0 e 0 0 0 0 0 0 0 0 0 0 0 0 0 0 0 0 3   X ",
"X X kXX.d d e e d d e e e e e d e # > LXU 0 0 e 0 0 0 0 0 0 0 0 0 0 0 0 0 0 -   LXu.d e e 0 0 0 0 0 0 0 e 0 0 e 0 e 0 0 e 0 X X ",
"X X dX/ e e e 0 0 e e 0 e e e d v > > LX} 0 0 0 0 0 e 0 0 0 0 0 0 e e e e e 3   LXZ.d e e e 0 0 0 0 0 e e e d d e e e e d e X X ",
"X X kX/ e e 0 0 0 0 0 0 0 0 0 e d > > LX} 0 0 0 0 0 e 0 e e e d e d d e d d 3   LXW.d e e 0 0 0 e e 0 e e e d d 0 e 0 0 e 0 X X ",
"X X kX:.e e e e e d e 0 e 0 0 0 v > > LX/ v e e e e d d v e e e e e d e d d 7   LX-X! d e 0 e e d d e v M v v K d d e e v v # X ",
"X X kX5.e e e 0 e e e 0 e e 0 d K 3 > FX} e e e e d e d d d e e e e e e e e 7   LX3Xv e e e 0 e e e e e e e d v e e e w e e # X ",
"X X pX7.0 0 0 0 0 0 0 0 0 0 0 e K 7 > LX5.d e e d d d v v v d d d e d e e e 7   LXkXn d e e e e e e e d d d d v e e e e d d - X ",
"X X dXf.e e d d e e e 0 e e e e M 0 > LX-Xv e e d d d M v v d d d d e d d d 0   LXFX:.d d e e e e e d d d d v v e d e e d d 3 X ",
"X X vX).n d v d e d d e e e e d M e > LXLX=.e e e e d d v v e e d d e e d e 0 X LXLX3XK e e e e e e e e d e d d e e e e e e 7 X ",
"X X LXvX7.v d d e d d e e e d K } v > LXLX3XM d v M M K v ! K v v v d e e e 0 X LXLXLX-X} d e e e d v v M M K M d M d d v M d X ",
"X X LXLXVX>X'.Z.7.} U M M M v ! } M > LXLXLX>Xq.} } f.P.c.D.} ! ! ! M M K K v - LXLXLXLXlXOXZ.7.! K ! =.=.! 5.c.M M v M ! ! } X ",
"X X FXLXLXLXLXLXFXCXVXvXdXeX-X-X[.u.> LXLXLXLXLXFXVXvXkXeXeX#XP.c.f.X.=.:.5.c.0 LXLXLXLXLXLXLXFXlXdXVXVXlX3X3X<XW.u.X.! } } q.X ",
"X X X X X # # # # # - - - - - > > > > > > 3 3 3 , 3 3 3 3 3 3 3 3 3 > > 3 3 3 3 3 3 3 > > > > > > - - - - - # # # # # X X X X X ",
"X K 0 3 - # X X                   > > # X X X X                                             > > 7 > - # X X                   X ",
"X ! v e 0 0 0 0 3 3 > - # # X     > > e e e e v d e e 0 7 7 7 7 3 3 3 > - - # # X           > f.v e d 0 7 7 3 > - # # X X     X ",
"X X.e d d e d d e d d e 0 e 0 X   > > v v j d d M d v d e e d e e d d e d d d d e 0 -       > Z.d d d e d d d e d e 0 e 0 -   X ",
"X u.e e e e e e e e e e e e e -   > > v e e e e d d d e 0 0 0 0 e e e e e e e d e d e >     > J.e e e e d d e e e e e e d 7   X ",
"X W.0 0 0 0 0 0 0 0 0 0 0 0 e 3   > > ! e v d d v d e e e 0 e e e 0 e d e e 0 e e e e 0 X   > OXd 0 0 0 0 0 0 0 0 0 0 0 e 0   X ",
"X [.e e e e e e e 0 e e e d d 7   > > D.5.M K K d d v e e e e e e d e e d e e d e d d d -   ; >Xn e e 0 e e e 0 e e 0 e d e   X ",
"X -Xd e e e e d e e e e e d d 7   - - ).! K ! M e v v e e e e e e e e e e e e d e d d d 3   - 3XD e e e e d e e e e e e d e X X ",
"X 3Xe 0 0 0 0 e e 0 0 0 0 e e 7   - - D.M M M v d e e e e e e e e 0 0 0 0 0 0 0 0 0 0 0 3   - eXM 0 0 0 0 e e 0 0 0 0 e e 0 X X ",
"X pXv e e 0 0 e e e e 0 0 0 e 7   - - W.M v e e e e 0 0 0 0 e e 0 0 0 0 0 0 0 e e e 0 e 7   - dX! d e e 0 e e 0 0 0 0 0 0 0 # X ",
"X kXM d d e d d d e e d e d d e X - - !.! M d d d e e e e e e e e 0 0 0 0 0 0 d e d d d e   - kX=.d d e d d d e e e e e d e # X ",
"X dXg e e e 0 0 e 0 0 e e e d d X - - !.K M d d d e e e e e e e d e 0 0 0 0 0 0 0 e e e e   - dX} e e e e d d e e d e e d d - X ",
"X pXv 0 e 0 0 0 0 0 0 0 0 0 e d X # # ).d d d e e e e e e e d e d d e e e e e d e d d d v X # dX! 0 0 0 0 0 0 0 0 0 0 0 d d > X ",
"X kXv e e e e e e e 0 e 0 0 e v X # # eX} ! K v e e e e e d d d e e e e e e d d e ! K K K # # kX:.e e e e e e 0 0 0 0 0 e e > X ",
"X lXM 0 e e e d e e e e 0 e d M X # # dXM d M e e e e 0 e e e d d e e 0 e e d v d M M M K # # kX7.e e e e e u e e e e e e M > X ",
"X kXv 0 0 0 0 0 0 0 0 0 0 0 d K # # # vX} M d e e e e e e e d v d d e e e e v d e d d e K - # dX5.0 0 0 0 0 0 0 0 0 0 0 d ! 7 X ",
"X kX! e e e e e e e 0 e 0 e d M - # # FX=.v e d e e e e e e d v d d d e e e d v d d d d v > # dXu.e e e e e e e 0 0 0 0 e K 7 X ",
"X vX5.d d v d d d e e e e e d ! > @ X LXc.d e d e e e e e e d d d e e e e e d v d d d d d > X kXW.d d d d e d d e e e e d M 0 X ",
"X LX-XD d d d e d e e e e v M } 3 X X LXeXM v v v d e e e e d M v d e d e e e d e d d d v 0 X CXpX} d d d e d d e e e e K ! v X ",
"X LXFX8XW.q.=.! n g d d d v ! } 0 X X LXLXkXOXW.f.f.:.! K K M } =.! M v v d v K M v v M } } X LXLX8XZ.:.K v d d d d d e ! } v X ",
"X LXLXLXLXLXCXVXvXdX3X#X[.W.W.Z.! X X LXLXLXLXLXLXLXLXLXCXCXVXvXlXdXOX[.).W.W.W.z.c.z.5.f.!.X LXLXLXLXFXCXlXdX8XOX'.J.Z.Z.c.} X ",
"X X X X X X X X X X X X X X X X X X X X X X X X X X X X X X X X X X X X X X X X X X X X X X X X X X X X X X X X X X X X X X X X "
};
