/* XPM */
static char *rcp07205692687544[] = {
/* columns rows colors chars-per-pixel */
"64 64 185 2 ",
"   c #020202",
".  c #040404",
"X  c #070707",
"o  c #080808",
"O  c #090909",
"+  c #0A0A0A",
"@  c #0B0B0B",
"#  c #0C0C0C",
"$  c #0D0D0D",
"%  c #0E0E0E",
"&  c #101010",
"*  c #111111",
"=  c #121212",
"-  c #131313",
";  c gray8",
":  c #151515",
">  c #161616",
",  c #171717",
"<  c #181818",
"1  c #191919",
"2  c #1A1A1A",
"3  c #1B1B1B",
"4  c #1C1C1C",
"5  c #1D1D1D",
"6  c #1E1E1E",
"7  c #1F1F1F",
"8  c #202020",
"9  c #212121",
"0  c #222222",
"q  c #232323",
"w  c #242424",
"e  c #252525",
"r  c #262626",
"t  c #272727",
"y  c #282828",
"u  c #292929",
"i  c #2A2A2A",
"p  c #2B2B2B",
"a  c #2C2C2C",
"s  c #2D2D2D",
"d  c #2E2E2E",
"f  c #2F2F2F",
"g  c #303030",
"h  c #313131",
"j  c #323232",
"k  c #333333",
"l  c #343434",
"z  c #353535",
"x  c #363636",
"c  c #373737",
"v  c #383838",
"b  c #393939",
"n  c #3A3A3A",
"m  c #3B3B3B",
"M  c #3C3C3C",
"N  c #3D3D3D",
"B  c #3E3E3E",
"V  c #3F3F3F",
"C  c #404040",
"Z  c #414141",
"A  c #424242",
"S  c #434343",
"D  c #444444",
"F  c #454545",
"G  c #464646",
"H  c #474747",
"J  c #484848",
"K  c #494949",
"L  c #4A4A4A",
"P  c #4B4B4B",
"I  c #4C4C4C",
"U  c #4D4D4D",
"Y  c #4E4E4E",
"T  c #4F4F4F",
"R  c #505050",
"E  c #515151",
"W  c #525252",
"Q  c #535353",
"!  c #545454",
"~  c #555555",
"^  c #565656",
"/  c #575757",
"(  c #585858",
")  c #595959",
"_  c #5A5A5A",
"`  c #5B5B5B",
"'  c #5C5C5C",
"]  c #5D5D5D",
"[  c gray37",
"{  c #5F5F5F",
"}  c #606060",
"|  c gray38",
" . c #626262",
".. c #636363",
"X. c #646464",
"o. c #656565",
"O. c #666666",
"+. c #676767",
"@. c #686868",
"#. c #696969",
"$. c #6A6A6A",
"%. c #6B6B6B",
"&. c #6C6C6C",
"*. c #6D6D6D",
"=. c #6E6E6E",
"-. c #6F6F6F",
";. c #707070",
":. c #717171",
">. c #727272",
",. c #737373",
"<. c #747474",
"1. c #757575",
"2. c #767676",
"3. c #777777",
"4. c #787878",
"5. c #797979",
"6. c #7A7A7A",
"7. c #7B7B7B",
"8. c #7C7C7C",
"9. c gray49",
"0. c #7E7E7E",
"q. c #7F7F7F",
"w. c #808080",
"e. c #818181",
"r. c #828282",
"t. c #838383",
"y. c #848484",
"u. c #858585",
"i. c #868686",
"p. c #878787",
"a. c #888888",
"s. c #898989",
"d. c #8A8A8A",
"f. c #8B8B8B",
"g. c #8C8C8C",
"h. c #8D8D8D",
"j. c #8E8E8E",
"k. c #8F8F8F",
"l. c #909090",
"z. c #919191",
"x. c #929292",
"c. c #939393",
"v. c #949494",
"b. c #959595",
"n. c #969696",
"m. c #979797",
"M. c #989898",
"N. c #999999",
"B. c #9A9A9A",
"V. c #9B9B9B",
"C. c #9C9C9C",
"Z. c #9D9D9D",
"A. c #9E9E9E",
"S. c #9F9F9F",
"D. c #A0A0A0",
"F. c #A1A1A1",
"G. c #A2A2A2",
"H. c #A3A3A3",
"J. c #A4A4A4",
"K. c #A5A5A5",
"L. c #A6A6A6",
"P. c #A7A7A7",
"I. c #A8A8A8",
"U. c #A9A9A9",
"Y. c #AAAAAA",
"T. c #ABABAB",
"R. c #ACACAC",
"E. c #ADADAD",
"W. c #AEAEAE",
"Q. c #AFAFAF",
"!. c #B0B0B0",
"~. c #B1B1B1",
"^. c #B2B2B2",
"/. c #B3B3B3",
"(. c #B5B5B5",
"). c #B6B6B6",
"_. c #B9B9B9",
"`. c #BBBBBB",
"'. c #BDBDBD",
"]. c #BFBFBF",
"[. c #C0C0C0",
"{. c #C1C1C1",
"}. c #C5C5C5",
"|. c #D0D0D0",
" X c #D3D3D3",
/* pixels */
"-.;.1.z.S.D.S.;.x I [ f.p.f.P.S.6.[ E ! ` ` I N N o.6.! ` E E L j 6 < ` M.S.j.;.D 1.r.6.! N o.%.6.9.o.! r.-.1.9.1.o.r.p.p.r.6.-.",
"{.`.I.z.D.` ` 6.M.P.o.x j ` 6.;.;.1.;.-.%. .D j i b -.f i t q 6 t  .D -.1.6.[ %.r.1.;.%. .o. .;.j.p.j.f f D [ o.o.-.p.9.p.z.D.(.",
" .-.1.j.P.j.9.%.[ ` L r.j f j b b x x b D L A N b D D t t A ` ` ! [ 9.b b A  .p.1.o.;.-.o.;.1.r.%.j b %.[ D N N D ! %.p.j.p.-. .",
"9.9.1.o.f. .N N L 6.r.1.A j f 6 6 q t i x D j A j f q b ;.L D 6.v.i t b E E A A D  . .%. .1.r.f.v.D i -.v.p.f.v.M.M.p.p.1.z.M.S.",
"(.f.9.! f.r.p.f.p.f.` N x f x b x f f i t q q x q I [  .` I ;.%.q f r. .6.S.P.j.6. .-.6.6.[ ;.%.;.E b j L E I I E -.f.p.z.P.P.D.",
"p.p.;.o.r.f.1.1.o.%.[ E L N x f j x x f i q t q E ;.[ f x [ [ f q ! b b L L -.r. .` -. .E [ v.I A D D D i N D `  .! ! o. .;.9.p.",
"9.9.[  .p.1.f.p.%.L x N L I b b x j t q b > j D 6 q t j b A L N ` i !  .E N A b D L ! [  .1.;.A N N D L I b I ` 1.p.r.-.9.r.9.9.",
";.-.[ ! f.9.6. .E `  .[ I A b x x b L D 6 i D D %.> f i i t q ` o. .N N N N x x D A L  .-.` p.N x f x L I N  . .%.%.-.-.;.1.1.;.",
"%.%.o.! o.r.L  .%.1.6.-. .o.L x j b j 6 6 q b ;.E E j x % D  .-.E r.! D b j x x x b N ! E %.;.b f t t i L -.D [  .E [ o. .o.-.%.",
"-.p.M.r.E A ` r.;.o.! I L D A t j t < < < < * < [ b > x N -.-.E A E ` L j i N D A x N b D %.I x j j N A i ` A A ! -.1.o.%.! ;.o.",
"S.6.p.1.E D L -.o.! ` ` o.[ q x j t q < > > * * E * L N f A ` L A  .p.I < q j b A D A b E ` b j j i f ! o.L A L E  .;.p.-.! o.1.",
"o.-.6.[ L b N L ` E I E [ N q t f q < < q f x b q D L D N N L I I o.D.f * < 6 t f b D i  .` A j t t p.! D ! L I [ [ -.;.f R.R.z.",
"%.;.E I  .[  . .! I I ` -.1.N t q 6 6 j x b j D 6 L I E I %.o.I L L '.> x x f i t q t L [ A D i q r.b D b I ` ! [ o.1.L 1. .` [ ",
"o.L b A %.%.%. .` E ` -.p.9.p.o.j i t j ! A ` > A D x j b ! p.9.L o.@  Xr.9.;.o. .[ [ E I x N A 1.f A b b b L  .! 1.o.N  .9.9.1.",
"A N x  .-.1.%.o.o.D  .o.;.%.1.-.9.! D I D ! % D N i j i q 6 N v.[ N @ i 9.j.r.o.` E D E < I E  .L j t q 6 6 q t N -.[ i x E E I ",
"N j L r.1.p.p.9.o.L D x f t q L ;.[ L x j q I f o.L N A L D b  .o.` j * < f A ! ! E A < 6 x b D ` -.;.9.f.v.v.D j o. .! x t x N ",
"D L E 1.%.! ! I I L E b x x f t i N q 6 x A -.` D f ! ! ` j. .I E E [ [ D j f < t i t < > i b b A D A N j x E < ;. .` I I E I L ",
"o.E [ A D E ` ! E E D 6.M.p.o.L > > A [ o.` D b o.b r.1.D N N I 6.`.}.!.M.z.r.j t > * q x x x t 6 6 i D [ A I r.`  .o.;.9.-.[ ;.",
"f.p.;.L o.o. . . .E E x q * > [ ` E q f x N ! b ! [ b 9.D E ` I.M.[ j j x I  .I p.p. .L f b N I ` ! b f b [ N E I D I `  .-.1.r.",
"6.1.p.6.E o. .E I A [ z.D.P.M.o.%.r.v.! ! ! I L E 6.j ! r. X6.I A D b x b j q L A b x b D E I b A j A x t j E E [ L N L ! o.-.1.",
"` ` `  .6.` [ ` ` E b b f t < * @ < N E o. .p.9.D I j.%.A ! o.o.I D ! r.-.-.1.j L I E L L D D i * j o.L A N b D E E L A D ! [ [ ",
"I I I E ! o.E E ` ! A b j f i q * @ j D -.;.r.p.[ I S. .` ;.9.9.%.L N ` -. . .E ` [ [ ! ` ` [  .[ j x b A I ! ! E ! E N L E E I ",
"r.f.z.f.1.%.! I D A D x i i i I [ ` S.9.I E %.;.-.;.9.;.r.z.z.z.z.r.9.%.! I b o. .E D b i < @ * b 6 i ` o.%.` b j b I E o.-.6.r.",
"I D D L I E E L L [ ;.f.z.z.9.p.j.-.M.j.1.` I [ 1.z.M.v.f.r.j.6.` I E D `  .[ D D b x f i j D o.1.%.L A N x b b E D x D I A L E ",
"[  .o.o.o.%.%. .! I I  .N % * 6 i > I %.M.j.r.9.6.r.v.I.M.M.S.p.o. .-.p.v.[ I ! -. .N N %.` I A t > % > f b D x f L ` E A o.N ! ",
" .` ` [ [ ` ! L D A ! 9.z.p.6.1.o.D L A o.-.;.9.z.M.S.D.I.P.v.p.p.M.9.` I [ L A j f f x j 6 % f i 6 x x j N L I %.j x A A L j.9.",
"M.v.z.j.f.9.o.L L D L E  . .%.;.1.;.;.`  .r.M.D.P.R.I.M.`.(.v.j.;. .[ ;.%.[ ` E N f q q 6 j b L L b D I L b < L ! r.1.%.o.1.j.M.",
"6.9.o.;.o.E D L ! ` f.j.j.v.D.P.S.9.6.;.;.6.j.S.M.f.p.I.P.r.r.r.-. .9.o.[ o.` E D ! o. . .%.E  .I D D I I ! x f [  .6.r.j.S.o.A ",
"o.z.o.o.I D ! [ %.9.1.1.%.%.1.1.9.9.-.;.-.;.;.;.-.1.j.'.j.f.6.%.1.9.[ ` o.-. .! I I ` o.o. .` L N x x x N L N 6 N o.r.f.9.` j N ",
"P.D.r.-.` ! [  .-.1.;.-.1.1.-.%.6.6.;.6.;.-.%.%.;.f.D.R.p.` o.E E I L E  .;.! N N A A D D N b f j j i t j N I A f < < q i t b [ ",
"M.M.z.1.o.[ A o.1.9.9.9.9.9.%.E [ 6.%.-.;.;.1.6.p.v.D.R.r.-.L L I I I I I %.L b x b j f f j x j i t q q t x D A b N N x j j j I.",
"M.f.p.9. .E %.A o.-.9.r.r.r.r.! ! 1.%.-.;.-.;.6.p.z.z.r.z. .! ` [ [ [ ` E [ L A x j x i j b j i q q t 6 q x N b x b x x x j A I.",
"M.r.;.r.E %.L ! N  .%.1.%.9.j.o.[ 6.-.;.o.o.%.1.r.f.p.-.o.;.E ! ! ` ` ! !  .E N x f j q x x f i i i t q i x x j x b b x x b x D.",
"v.;.` ;.o.I [ A N E [ ` L L %.6.;.1.-.-.o.o.%.6.r.6.-.` E E o. .! I D D ! o.E A x j b < I x i i t t t f x j f j A D D A N x N S.",
"j.o.[ [ [ E L D D L [ I ! ` I [ -.o.`  .;.6.;.%.o.%.o.o. .` I ;.f.r.E b E [ A ! x j I D i ;.< t q q f j i i A A D D L [ o.[ A L ",
"r.-.o.[ [ I ! E E I o.` -.o.[ E I I ` -.;.1.1.6.9.r.r.f.S.P.6. . .%.P.o.N [ i b I A ` o.%.[ q   > q f f b %.L L ` o.1.p.f.r.9.L ",
";.;.-.[ L  .;. . .E -.1.!  .[ -.o.! %.j.D.D.S.D.S.j.p.p.r.;.%.9.-.b 6.z.r.b ` N  .D ! [ -.j X X * * > i ` j A I [ ;.p.z.M.S.f.6.",
"%.6.-.` [ D I  .o.! o.o.x  .I [ 1.%.9.f.9.1.9.M.v.f.f.p.6.%.%.r.;.j.f 6.1.9.p.;.E N D x < X t 6 q t < i  .;.I D D D b N A L ` ! ",
"9.r. .[ ;.N A ` I I E [ ` ` o.S.;. .A N N A L L I L D [  .! E o.o.[ -.f i i f D j A x i t f i i j A I N N x L ` -.[ ! ` I E o.%.",
"9.[ ;.9.r.1. .b i b D ;.D I ` 9.` [ p.r.v.o.%.[ ` ;.r.9.6.;.o.[  .N j j p.D.S.z.o.A f t j j D D I D b D E L D E -.f.v.S.!.P.j.j.",
"%.` %.` ` 1.p. .%.;.I P.S.1.o.L %.-.` L  .!.P.{.D.D.v.p.1.1.9.1.%.1.1.E E t x x j f f b A D 6 < q N o.[ %.[ E E L L ` ` [ 1.r.;.",
"[  .E o.L x f i i [ [ ;.%.! I [ 9.z.D.!.S.%.L R.S.1.9.-.o.o.-.-.%.;.6.-.p.R.o.b i x L I b q b D I E A D b x L [ 1.E ! E ` -.6.-.",
"! I ;.-. .D  .v.r.9.1.! ! I  .1.[ [ [ ` ! I D %.o.R.[ j j j b D E I D I ` [ L ` f.1.b j j D N x D E ` ` [ ` [ ! ! E ! ! [ %.-. .",
"9.%.[ ;.! ! x 6 1.v. .[ ` [ [ [ r.9.;.%.1.1.;.o.D N o.S.o.;.9.6.-.%. .%.f.P.S.[ b i N b o.< N b %.;.-.! L ` [ [ 6. .o.o.-.1.9.j.",
"9.%.o.6.o.9.o.! b i t L E ! [ E [ 1.9.6.6.1.;.6.v.S.I.! 6.j.z.f.9. .! I I L D A A L ` %.t ! r.p.j.p.p.p.-.[ `  .9.p.v.S.z.r.;.;.",
"1.%.o.o.A L p.r.%.[ o.E L L E %.I ;.o.[ ` [  .o.%.-.9.r.o.b b N A D D A I E ` [ o.%.;.6.f 6 q t i x L  .1.6.6.%.o.9.p.1.p.p.6.9.",
";.1.1.%.6.z.E %.6.9.6.9.r.r.9.1.1.! D L ` o.;.1.1.-.-.o.[ E I A A I `  .` D x f i t q D j.I 6 t j j f j N L o.6.1.1.1.%.[ ` ` [ ",
"-.;.-.%.[ [ -. . . .E [ ` ` [ %.r.o.f.v.D.I.S.j.9.r.f.6.1.r.L f.r.;.6.r.z.j.j.S.z.6.[ N f [ M.p.9.r.%.I A L [ -.r.9.-.o.o.%.-.1.",
"o.o. .o.` N ` 1.%.%. . .` [ o.! ! 9.%.o.o.o.-.o.o.%.1.;.%.f.6.! %.f.9.f.;.[ %.1.-.! b x j < q L -.;.r.9.6.6.L 1.r.z.v.z.z.6. .[ ",
"p.9.-.%.%.-.6. .o.I L I o.9.z.v.-.! o.r.j.p.r.r.r.6.-.-.o.1.z.1.-.-.6.p.f.f.j.1.[ E L E N f i < % * i b I %.` [ 6.v.I.R.R.R.(.P.",
"D.p.;.1.r. . .` E N N L D L ! 6.v.f. .`  .r.r.f.z.f.1.-. .! v.z.1.-.%. .r.M.p.z.j.f.9.o.E I A j i j b N D I %.[ o.1.r.f.v.I.I.P.",
"v.f.9.r. .[ o.! A x A A x b I [ o.;.f.r.r.f.9.1.r.p.9.p.[ I [ z.p.-.o.! ! r.v.f.p.r.9.;.-.%.o. .[ ! L D D I 9.%.%.1.p.p.p.v.I.P.",
"S.v.f.v.[ I L D N b L A j L  .-.;.1.6.1.;.z.z.9.6.r.r.j.%.! N o.9.o.o.[ ` f.p.1.;.o.o.o.o.-.;.1.1.;.%.%.;.-.;.6.o.[ o.1.p.j.M.D.",
"D.S.v.-.o.! L L D D I D x I  .;.6.6.-.-.9.;.v.z.1.9.9.9.;.` E L -. .f.M.D.;.9.o.-.%.o. .;.-.-.1.6.1.1.9.1. .9.-.z.r.;.6.f.j.z.S.",
"D.P.z.6.;.o.[ [ [ ` ! E A L %.1.6.6.;.o. .1.-.!.6.6.9.6.;. .! N ` -.P.p.1.-.z.p.-.o.o.[ I ;.1.1.1.6.6.r.%.[ 9.;.%.I.'.(.S.z.j.S.",
"R.I.%.;.%.;.%.o.%.%.%.[ L L -.1.1.1.-. . .1.1.;.6.6.6.9.-. .! D A  .f.9.r.S.S.9.o.o. .[ L E 1.1.;.1.9.9.%.! 1.1.%.6.f.P.R.j.f.S.",
"(.R.;.o.o.1.;.1.p.9.;.9.1.L %.-.%.-.%.o.-.;.6.o.j.9.;.1.o.E L A D x z.z.v.f.1.-.o.[ o.;.6.[ 1.1.-.o.1.r.9.! I E %.6.;.-.r.p.p.S.",
"-.I.[ o.o.-.1.p.6.9.j.M.M.b I A ! o.;.1.6.6.;.o.%.%.[ -.o.L D A D L E  .D x E ` I E I I [ ` 1.9.o.E ` o.r.9.p.6.o.` [  .`  .-.-.",
"[ !.[  . .-.9.9.9.D.f.f.b L j.j.p.p.z.M.v.f.6.-.o.6.o.%.%.` I N f t x o.r.[  .` `  .o.%.o.! p.f.j f D ! L ` [ [ [ [ ;.9.%. .` ` ",
"` r. .f.;.;.1.r.S.v.p.;.D z.z.A r.p.p.f.j.p.9.;. .!  .;.r.%.! L A b x j p.-.6.1.-.1.6.;.I 6.f.b q A I ! ! E [ ;.9.p.r.-.1.;.;.o.",
"1.%.[ R. .r.z.p.1.1.;.-.;.9.z.-.j A L ! ;.%.o.o. . . .f.1.-.-.;.1.;.6.6.` f.D.j.f.p.r.1.9.%.b j ;.j.z.f.-.6.r.r.6.p.;.1.1.1.-.;.",
"1.[ o.6.S.%.! I D L I L A x j D ` ! E E ! ` L D L ` o.-.-.%.;.6.9.p.j.j.r.-.[ %.6.r.r.9.` 6.9.p.I o.%. .%.%.%.-.-.o.-.f.S.P.D.j.",
"D.D.P.j.I ! v.L ! I E I E [ 1.r.z.z.p.6.-.[ I A b A ` L D A x f j A [ 1.6.z.p.-.[  .;.9.1.6.o.%.f.f.E b N ! 6.-.-.9.z.j.j.M.D.S.",
"r.p.j.z.z.z.E  . .1.p.M.!.(.D.p. .L D D L I I A I 1. .1.r.r.9.6.-.! i i f L o.1.f. .;.o.1.D A E A t b -.;.6.-. .%.9.r.1.1.1.6.f."
};
