/* XPM */
static char *rcp07210098968600[] = {
/* columns rows colors chars-per-pixel */
"64 64 225 2 ",
"   c #5974AF",
".  c #616EA1",
"X  c #6573A4",
"o  c #6976A6",
"O  c #6B79A7",
"+  c #6575A9",
"@  c #6D7BAA",
"#  c #6876AB",
"$  c #717EAB",
"%  c #6D7DB2",
"&  c #697EB5",
"*  c #707FB4",
"=  c #3D6EC3",
"-  c #4B7BC4",
";  c #7482AE",
":  c #7985AF",
">  c #6D82B3",
",  c #6782BB",
"<  c #7485B2",
"1  c #7987B1",
"2  c #7788B4",
"3  c #7C8BB4",
"4  c #7485BA",
"5  c #7589BA",
"6  c #7B8DBA",
"7  c #7F90B7",
"8  c #7E91BC",
"9  c #5D85C5",
"0  c #5184CD",
"q  c #5B89CE",
"w  c #5889CF",
"e  c #5D8ED2",
"r  c #578BD1",
"t  c #5E90D3",
"y  c #698CC6",
"u  c #628DCD",
"i  c #6788CB",
"p  c #7485C2",
"a  c #7B8DC3",
"s  c #7C8FCB",
"d  c #758BC7",
"f  c #7D92C3",
"g  c #7394CA",
"h  c #7E92CC",
"j  c #7E9BCC",
"k  c #6492D3",
"l  c #6B96D4",
"z  c #6E9AD6",
"x  c #6E9BD8",
"c  c #6092DD",
"v  c #739CD5",
"b  c #799DD5",
"n  c #749ED8",
"m  c #799FD8",
"M  c #7793D2",
"N  c #6E8FD0",
"B  c #7CA0D6",
"V  c #76A0D9",
"C  c #7CA4DA",
"Z  c #5B95E4",
"A  c #639CED",
"S  c #6FA1E3",
"D  c #7CA5E8",
"F  c #78AAF1",
"G  c #6DA6F4",
"H  c #818EB5",
"J  c #8290B7",
"K  c #8394BA",
"L  c #8996BA",
"P  c #8698BD",
"I  c #8B9ABE",
"U  c #909DBF",
"Y  c #8295C2",
"T  c #8599C3",
"R  c #8C9DC3",
"E  c #8295CC",
"W  c #859BCB",
"Q  c #899ECC",
"!  c #909EC1",
"~  c #859AD3",
"^  c #899ED3",
"/  c #859AD7",
"(  c #8EA1C5",
")  c #8DA2CC",
"_  c #83A0CF",
"`  c #93A2C4",
"'  c #98A5C5",
"]  c #93A5CA",
"[  c #9BABCB",
"{  c #99A9C7",
"}  c #85A3D3",
"|  c #8CA3D2",
" . c #8CA9D5",
".. c #81A6DA",
"X. c #8CA3DC",
"o. c #85AADD",
"O. c #8BADDE",
"+. c #91A6D3",
"@. c #93ABD4",
"#. c #91A6DB",
"$. c #93ACDA",
"%. c #99AFDD",
"&. c #99AED5",
"*. c #8EB0DF",
"=. c #9AB1D6",
"-. c #92B2DE",
";. c #9BB4DC",
":. c #A1AECB",
">. c #A7B3CE",
",. c #A2B2D1",
"<. c #A1B6DA",
"1. c #A5BADC",
"2. c #A9BDDD",
"3. c #AAB8D4",
"4. c #8B9EE3",
"5. c #8DA2E4",
"6. c #8CAFE1",
"7. c #87ADEA",
"8. c #92A7E0",
"9. c #95AAE3",
"0. c #99AFE2",
"q. c #95ACEA",
"w. c #91A7EB",
"e. c #8EB1E1",
"r. c #8DB3EB",
"t. c #84B1ED",
"y. c #94B4E1",
"u. c #99B6E2",
"i. c #9CBAE3",
"p. c #9DB4EB",
"a. c #9CBDEB",
"s. c #94B8EA",
"d. c #96ADF4",
"f. c #85B4F6",
"g. c #8BB5F2",
"h. c #8BBAFD",
"j. c #87B8FC",
"k. c #9DB5F4",
"l. c #9CB4FC",
"z. c #95BBF8",
"x. c #A2BEE4",
"c. c #A3BDEC",
"v. c #A4BCF3",
"b. c #A3BCFE",
"n. c #A0B7F5",
"m. c #9EC1E8",
"M. c #96C3FF",
"N. c #9CC4FE",
"B. c #9DCBFF",
"V. c #9CC0F3",
"C. c #9BD8FF",
"Z. c #82D6FF",
"A. c #A6C1E6",
"S. c #AAC3E6",
"D. c #A4C2EC",
"F. c #ACC6E8",
"G. c #AFC8E9",
"H. c #B2C6E4",
"J. c #B5C9E6",
"K. c #BCCBE5",
"L. c #B0C7E8",
"P. c #B4CAEA",
"I. c #B9CEEB",
"U. c #BDD1ED",
"Y. c #ABC9F3",
"T. c #A6C3FE",
"R. c #ABC4FD",
"E. c #A5CCFE",
"W. c #ADCDFE",
"Q. c #A8C4F4",
"!. c #B3CEF5",
"~. c #B2CCFF",
"^. c #ACD4FF",
"/. c #AEDBFF",
"(. c #A7D7FF",
"). c #B4D2FF",
"_. c #BAD5FD",
"`. c #B3DCFF",
"'. c #BBDBFF",
"]. c #BBD1F6",
"[. c #9FE1FF",
"{. c #ACE9FF",
"}. c #B5E5FF",
"|. c #BCE3FF",
" X c #BBECFF",
".X c #B5EAFF",
"XX c #A9FDFF",
"oX c #BCFFFF",
"OX c #B6F6FF",
"+X c #C1CFE6",
"@X c #C2D0E6",
"#X c #C3D5ED",
"$X c #C9D6EB",
"%X c #C6D8EF",
"&X c #CBD9EE",
"*X c #D1DCEE",
"=X c #C5D7F0",
"-X c #C6D8F0",
";X c #CCDBF1",
":X c #C1DDFF",
">X c #D1DEF2",
",X c #C4E4FF",
"<X c #CAE5FF",
"1X c #C3EBFF",
"2X c #CBEAFF",
"3X c #D5E2F3",
"4X c #DAE5F5",
"5X c #DEE8F6",
"6X c #D2ECFF",
"7X c #CBF5FF",
"8X c #C3FDFF",
"9X c #CBFDFF",
"0X c #C7F5FF",
"qX c #D4F3FF",
"wX c #D4FEFF",
"eX c #DBFDFF",
"rX c #D8F6FF",
"tX c #E2EBF7",
"yX c #E5EEF8",
"uX c #E4FFFF",
"iX c #ECFFFF",
"pX c #E7F7FF",
"aX c #F3FFFF",
"sX c white",
"dX c #FFFFFF",
/* pixels */
"6 X.<X> sX8Xy...*.j % 4 sX).wXuXwXeXA.S.#XA.S.;.R I.3X3X,.R K f L U 1 ; < K wXwXc w 0 4 5 b.B y.u.x.>X3X;X).wXy.y.#X;X;X#X&X,.P ",
"uXb.H D G sXO.C ..i.! # OXsXsXiXuXsXS.U.P.u.u.G.+X` ;.c.K K Y 6 L 1 : < H q.f.oXsX- = k g _.$  .u.P.3X;X#X1 | u.#X;X>X[ Q ~.v.! ",
"< L ; ; O...iXe.G.P.+ o l o.sXsXsXsX2Xx.P.S.x.I.>XsX{ sX%.aXR aXsX' J 1 sXH m z A q q z V o.T k.+.;X;XR q.; $ &.( v.$.3 1 1 6 5 ",
"1 H b./ y.O.o.I.S.i.o o ..C O.sXeXA.i.L.I.;X;X%X>X@.] sXsXA.A.P.P.K P 5 J J b C l sXq l k v C *.` R P X./.V @ : 1 K T n.1 1 ; 5 ",
"sX< : 1 8 6.y.I.P.A.p X b V ..u.7Xi.S.P.#X4X4X3X3.Q.I <.P.sXP.U.#XK L H J 8.Y *.o.F aXl m C v O.y.W.4 sXsXx.5 1 7X~ ` I 1 K a T.",
"sX< 1 1 3 y.i.G.P.S.l.@ , m C e.sXi.I.P.>X3X>X3X` P 7 ` L.P.P.;X%XJ : qXP ~.aX*.C M.aX6...v B y.i.S.l.F -.#X< qXsX;.1 K J 1 W 1 ",
"E : 1 1 6 O.r.G.P.L.@ X aXn m h.sXy.P.U.3X>X3X&XK uXK R R P.P.4X%X1 < 8.I 6 Q O.O.E.iXu.x.U.#X;X#X$X^ v S.P.2XiXsXy.K ; 1 W R.1 ",
"3 a 3 < K y.z.S.P.P.p d.T.z C W.i.S.P.3X4X3X3X[ P K I P 0.1.i.4X;Xf 3 J #.6 P A.O.N.7.U.#XU.U.;X;XK.E g x.K.@ ^.o.G.o...5 h 5 4 ",
"3 : : : aXr.E.P.P.P.3 s h C O.-.U.%XI.#X%X;X>XP P ~.v.7 I X...#X*X6 9.H P 6 sXS.o.B L.#X;XI.I.;X] T.sXj h 5 < } x.A.A.I.P.;.o O ",
"% ~.sXsX}.y.y.U.I.G.< : sXQ.i.S.G.L.P.#X;X#X%XR.K sX_.6 p.6 P 6 W K aXv.K J D.y...C P.U.#X%XK.< T.0X9Xo.B W 1 '.a $ @ ; # qX# @ ",
"R.3 > sXO.u.i.P.>X#X1 6 @.A.S.I.U.I.S.U.U.#XP K eXsX=.6 6 ` a 1 6 K P 6 J 7 P  ...v #XU.I.K 2X'.sXsX.X-.y.K.:XsXT 5.H d + . s ~.",
"o $ ~.; ; 3  .P.I.tX{ K sXP.#XI.J.] 3 P K 3 #.K sX-.I.6 6 f : 1 J ` Q :.qX` v.6  .-.#X#X_.; sXiXsXsXwXA.P.K.Y |.(...o.6 1 d : X ",
"# s * : @ 1 J 6 ] >XK K Q $XK 1 4 1 6 #.Q 0.T sXaXY S.1 L 3 ` Y P ] iX<.P I P ' 9. .K.a ).sXsXsXsXsXo.P.I.L.: O.sXO...o.V b.X <X",
"@ < $ $ ; : 1 < 6 qX| I L R.0.6 Y  .K p.rX^.V.i.( K | sX: sXt.-.L.#XP.G.I.H.K 6 1 6 1 4  XsXsXsXsXsXG.I.P.I.L g O.sXy.U.#XO 3 l.",
"@ J 5 : sX .Y | f 5 h f T.sXx.;.x.S.S.!.u.^.m.u.S.} W ' sXsXaXi.A.y.y.G.U.;XI Y 1 ; H sXsXsXsXsXsX!.U.#XG.x.O ` i.y.-X-XR o + H ",
"; < H 5 sXP.G.y.O.O.J.4 sXaXP.S.A.I.%X_.m.`.F.u.A.I.H.K x.'.sXsXa.u.G.U.;X%XQ 6 1 1 sX7XsXsXsXsXD.u.U.#XP.S.O :.C O.;X;X; $ o ; ",
"O K q.6 P.sXA.O.e.P.Y 9.x.sXsXA.S.U.I.iXdXsXu.-.G.>X;XR.x.A.G.sXsXP.P.%X;X#X6 8.#.6 eX`.x.y.O.u.u.i.P.P.P.P.R.; C O.-X#X3 ; 5.@ ",
"; 6 U :.I.U.sXG.#X#X8 ~.P.x.sXsXsXsXsXsXsX9Xs.S.#X;X>XR.=.x.i.u.U.#X#X;X#X#Xb.b.; f ).y.y.y.e.o.C y.U.P.P.I.$ ; v  X#XP.; 3 : ~ ",
"1 6 3 sXS.;XU.4X5X;X! aX!.P.sXsXpX<X<X].x.o.i.U.%X3X4X).T A.S.A.I.U.G.#X;XI.H @ @ 4 O.y.y.y.*...o...x.P.L.S.dXsXv .XU.I.K @ ; _.",
"1 L J sXy.P.I.-X3X3X7 sX2XuXsXsXI.P.I.P.u.i.-.P.4X4X3X#X7 i.u.G.P.P.S.S.=XK.5 5 $ 5.@ @ 1 ~ -...o.O.v U.y.x.X.; u {.P.L.2X; 4 1 ",
": 6 K Y P =.U.P.U.5XT x.S.G.sXiXP.U.>XS.u.i.u.G.#X;X4X;X7 ) S.P.S.H.R qXK k.E 3 4 H q.< 1 H J @ v v v ..S.S.< 5 b B.o.x.1 ; ; 4 ",
"sXJ 6 P iXsXsX6 ` R.:.L.P.P.P.6XI.#X#XU.i.i.-.i.U.;X3X3XP #.< I < < @ O 4 ; ; sX6.P < 1 @ # % / 4 9 e z S.S.Y 5.t.z S.S.; @ @ 3 ",
"~ 1 sXK R 3 K K _.Q K =.S.P.#X<XG.U.L.A.x.i.i.G.3X4X4X5X! sXaX-.*.O.v W $ ; 6 sXO.O.j @ O / sX$ b.h 4 v C I.L.1 B.m #XU.Y O o L ",
"J ; < ).K K #.$.2X!.=.i.P.P.I.P.'.S.u.S.y.G.P.#X3X5X5X*X<XsXqXx.e.u.y.U.@ < T.u.sXy.C } @ 5 ,X$ $ 1 E a C I.K.@ g.o.#XR o $ o s ",
"Q 2 < X.sX).S.F.x.S.L.{ 1.#XU.;XpXS.i.i.G.G.G.3X3X4XyX3.sXsXsXY.u.i.U.#XL 1 X.u.sXA.y.O.o.8 @ 4 4 @ @ @ b.@ 5.s ; T a 1 O O sXl ",
"l v b u ..s.u.Y.S.P.U.#XsXU.;X;X#X_.A.S.P.;X;X3X5X5X5Xx.sXiXI.sXS.U.#XI.; sX5 u.y.sXy.O.V l l j < @ E @ 4.:XsXC g a @ uX9XM.s...",
"v v C O.-.W.Y.7XS.S.A.S.2.1.U.I.#XI.G.P.3X3X#X3X;X5X,.=XI.I.I.S.I.;XU.P.L O sX/.^.sXy.y.O.n C C ..i.R sXs sXsXi.e.5 O 9XsXdXz.C ",
"m C O.-.^.sXsXsXW.G.x.I.;X&.P.I.L.S.'.;X5X5X3X>X%X>XP W &.A.P.x.x.;X-XI.@ / D.u.y.iXsXS.y.y.C x.U.#X; 3 W uXsXy.i.S.3 b o.h.sXB.",
"oXiXsXsXsXiXB.r.x.>X;X;X%X] R sXsXsX,X@X@X$X&XP uXsXP.;.a 6 @.G.u.I.3XK.5.6 A.y.x.x.i.Y.A.I.#XU.;XH 3 $ eXOXsXy.A.x.1 8 V ..e sX",
"g.o.u.u.y.y...O.I.3X3X>X#XiXsXsXsXsX7X;X3X5X%XJ =.eXiXu.A.| H 1 $.G.&X5 < a Y y.o.A.G.Y.#X;X;X>X$X; 3 3 dXeXsXO.G.x.8 @ z x z t.",
"/.u.S.i.i.O.A.y.;X;X;X#X` iXiXsXsXsXx.;X>X>X#XY 2Xx.sXA.A.i.S.R ; 6 5 H 5 ; 3 } i.u.i.u.;X;X3X3X1 J < aXsXsXsXi.P.G.S.p v C l m ",
"iXi.x.i.i.y.x.#X#XI.I.+XW.iXeXsXsXwXA.%X;X#X#X3 7 A.S.sXS.x.x.i.} 6 L 2 a L ; 1 x.u.-.u.3X4X3X*XI 7 W.sXsXsXsXS.I.A.i.o y l k V ",
"uXD.x.y.x.O.P.>X#XU.I.d dXsXsXsXsXy.i.;X>X;X#XP 7 u.i.A.aXI.x.x.x.P.) X.'.aXJ 1 T x.i.y.3X4X5XP Q +.sXsXsXsXsXS.P.x.i.& |.k V *.",
"<Xz.u.u.e.x.;X3X#XI.@.sXwXiXsXsXf.y.S.3X4X4X*X| #.x.A.x.sXS.A.u.G.P.#X6 W.=.1 1 p.I.x.i.;XyXyXP P sXsXsXsXsX6Xi.I.S.x.x.; l k O.",
"..y.A.S.I.U.3X;XU.U.z.XXwXdXsXOXC O.x.#X;X;X,.3 R.u.S.u.sX1Xx.u.G.#X#X2.k.L L ^ Q { P.G.U.yX4XR dXsXsXsXsX-X#XP.#XS.x.i.1 b V V ",
"n S.P.I.P.P.#XI.U.  XXXX8XsXsXC V z x.U.U.;X{ 6 < x.i.x.D.,XP.;X3X3X4X&X6 6 K sX'.P P P 1.4X` @.sXsXsXsX3X;X;XU.U.;XS.x.Y 4 C V ",
"y.P.x.I.P.i.i.I.H.sXZ.oXsXsXf.z V *.S.I.#X-XiX8 T.| y.u.i.:X-X3X5X4X3X6 p.sXi.u.x.x.P.I.2.) K aX3X3X;X4XtX>X#XU.#X%X>XP.x.; o.C ",
"P.I.y.A.P.-...2.. G r x k l o...o.i.P.;X%X-XR 6 p.f y.u.P.U.3X4X5XtX` J sXsX}.y.x.x.S.P.P.I.J.sX3X3X4X3X4X3X#X-XP.I.#X>X#X< O.o.",
"U.K., y   j.sX-   - e l k o.e.*.i.S.I.;X-X#XT 1 ^ '.O.i.G.;X3X4X3X*X7 @.sXsXsX7XA.x.S.G.S.P.#X$X].*X4X$X$X[ p.` ) H.J.P.#Xf f } ",
"o.z [.j.e z Z 0 e O u k V y.y.u.S.i.G.;X#XU.J.8.: `.y.u.U.S.U.5X4X{ K sXsXsXsXsXsXeX_.G.A.I.-X3X3.%.R v.K :XP '.P P K R uX) f sX",
"f.l t.S z k r 0 z N : z o.u.u.x.G.x.S.P.3X;X#X5 ~ f 1.P.I.I.I.>X,.K sXsXsXsXsX`.x.x.!.:XI.;X3X=X,.).sXU.x.y.A.S.u.-.O.O.u.@XaXsX",
"sXn f.C.S f.k t n o.| p 3 5 W S.S.u.x.S.U.3X@XE ; @ ; J k.6 I >.P R sXsXsXsXsXx.S.u.S.G.-X3X4X3XR P U.sX_.I.S.y.9XsXB.S.;XK N./.",
"sXsXsXsXwX9Xn o.A.P.P.s K ~.: f 1 E T S.S.K.K : 4 < l.6 1 < | T.| '.~.2XsXsX].y.O.y.y.G.I.3X3X3XP P P.-XU.U.P.S.u.u.i.;X3X( /./.",
"sXsXM.C m ..o.S.G.I.> $ sXi.-.v.n.: ^ 9.1 5 ~ wXa.-.y.o.-.O.&.W U 8 x.x.y.aXF.O.O.i.y.G.;X5X3X%XK 6 K K R <XK y.f <.S.J.$X} N.M.",
"sXiXO.V n C A.P.P.U.< ; 1.sXu.u.i.;.$.) E 1 sXsXsXx.x.V O.V ..S.J 1 O.y.u.O.E.y.G.y.i.P.4X3X5X3XK K 6 I dXH L : 6 / L ~ ^ sX`. X",
"sX(.o.C x V U.U.#XU.@ ; Y i.sXi.i.G.y.A.7 K 1.u.uXsXi.O.C V x.A.6X; j O.*.o.(...u.x.P.;X4X3X4X3X3 Y 6 6 1 6 3 6 5 4 L X.^ D.y.V.",
"7XE.e.O...i.#X=X#X#X; @ X.u.'.sXG.G.P.;X0.3 ( i.y.iXsXiXy.y.x.x.5 ^ 5 o.O...}.y.x.#X;X>X;X4X4X6 K ~.K K K | L eXL K d.).1 o.y.e.",
"y.0Xe.O.O.A.U.U.#XT _.L 5 S.S.sXiXU.;X3XP 6 ^ *.i.u.`.W.S.x.x.y.y.d.1 o.y.o.N.r.I.;X;X;X;X$Xp.I K Q ( sXP.I.S.;.-.i...V < $.*.y.",
"i.wXy.m y.P.#XU.I.K s H E G.U.U.I.3X4X3X[ P J i.G.x.i.i.A.x.i.i.S.~ K b o.l V ..#X3X>X;X;X2 6 I ) K u.sXsX3XU.u.u.V.O.U.X.k.O.e.",
"e.O.i.O.P.;X;X;X#X,X@ @ < A.i.P.I.4X;X3X3.| | x.G.u.u.S.A.P.P.i.A.| H > k l k O.#X;X;X;XP E 6 I I %.%.#X;XsXsXx.*.P.;X;XR < e.O.",
"O.*.e.S.>X3X>X;X>X@ h @ L i.x.P.#X#X5X3X3X+.^ W i.y.y.A.A.G.>X#X#XP.3 < l v q y.U.;X;XK a K L P K %.P #X#X#XU.P.>X>X3X*XK 3 u.y.",
"o.e...I.;X3X3X%Xb.3 H ; X.qXY P.U.>XyX5X{ 6 1 f : K S.P.u.S.;X;X;X#X3 ; `.q q o.U.;X{ 1 H 1 K Q ~.Q 6 Q.J.P.P.U.4X4X4X5 ^ 1 | *.",
"O...o.A.;X;X&X; I $ $ o ; ; Y R S.I.5X[ K 1 :X1 6 1 6 ;.e.e.U.-X#X% # 5 1 % > -.I.f eXsXR 6 6 | iXP K K ).2.P.=X4X>XR.#.uXsX< 5 ",
"@ b z i.;X*XH 4 @ w.iX4 @ '.X.K { I.3X3 L 6 6 6 3 ` W H 8 i.I.K @ # 1XwXw y h l.E sX7Xi.y.-.-.x.S.` Q | R R ] I.5X` K I sX1X$.: ",
"5 4 > x.#X3 4 % $ / v < ~ K a H W K ^ ! P v.sXx.6 f 2X1 3 ~ ~ 1 T.3 b.> k e o.1 sXsXuX7.y.y.u.G.A.P.` K P P Q { <XK R eX7Xy.u.} ",
"y.f O % 1 iXl.@ sXOXv v g 5 1 T.` L Y K ( sXuXA.P.<.P 6 P 3 K L ; h ; J $ y U.; g.^.sXsXa.u.G.x.y.A.P.<.K eX| n.Y K sXsXeXi.-.o.",
"i.x.} E R.4 5 }.wX{.....v l d K H sXK ).sXsXsXi.I.>X&X6 dX%.sX$.1 O b.@ ).K O J g.r.}.sXsXuX).x.O.y.S.P.P.=.K W sXsXsXsXsXO.x.x.",
"A.i.u.@.@ sXsXwXiXdXV O.n q l *.Y U P sXsXsXsX3X3X4XR ) 7 sXsXi.y.f $ 3 % ; : @ j.M.8XsXa.y.A.x.O.u.y.P.;X#X` 1 <XsXsXsXsXsXx.y.",
"y.A.A.A.E } o.9XsXsXdXO.O.o...O.u.6 qXA.uXsX;X5X5X3.P iXsXsXsXA.O.V u , 1 $ % w.l l l o.y.y.i.i.G.i.x.#X;X>X! 1 Q.u.7XsXsXU.x.i.",
"P.P.G.x.5 L O.*.e.o.i.P.>X;X%X#X#X6 T P.P.G.3X4X4XP uX;.sXsXsXx.y.C k k k ] o s v l ..-.o.u.u.e.*.u.U.>X%X;X1 8 wX|.eXsX).x.A.x.",
"3X;XU.P.K H o.O.y.O.i.;X>X3X>X3X4XP Y G.S.S.4X5X,.u.R sXsXsXsXA.I.O.y.P.U.6 : @ 9 m b v u.y.O.i.o.u.;X5X3X#X5 sXE.'.sXsXO.A.S.U.",
";X>X;X;XK.; d O.O.u.A.#X3X3X3X&X' >.Q $.@.A.>XtXu.P sXsXsXU.#X;X;XU.%X;XR @ @ H : & v v v ..O.*.y.S.#X3X;X[ a sX|.'.sXy.I.%XI.%X",
"#X;X3XK.O L w.< _ y.G.-X;X$X6 7 R ,XS.=.| K 1.] ` rXsXsX;X5X3X;X#XU.I.#Xo ; @ @ ; * o 9 q ..o.O.y.P.;X#X;X6 < `.|.1Xx.#X>X;X#X#X",
"I.#X< ; $ sXV 4 3 1 @.[ < J c.uXeX2XS.S.u.@.sXp.@.sXqX;XyX4X3X#XI.[ 3 < O $ # sXl u + # N.n o.O.u.G.5X3X;X6 l.`./.u.#X;X;X>X#X#X"
};
