/* XPM */
static char *rcp0721051297445[] = {
/* columns rows colors chars-per-pixel */
"64 64 171 2 ",
"   c #051324",
".  c #081525",
"X  c #0B1827",
"o  c #071729",
"O  c #09172A",
"+  c #0C1B2D",
"@  c #111E2D",
"#  c #0E1E31",
"$  c #111F31",
"%  c #14202F",
"&  c #0F2034",
"*  c #142235",
"=  c #182534",
"-  c #162639",
";  c #182739",
":  c #17283C",
">  c #1A2A3D",
",  c #222E3E",
"<  c #1E2E41",
"1  c #153442",
"2  c #1D3244",
"3  c #1C3C4B",
"4  c #1C3F51",
"5  c #202F41",
"6  c #233245",
"7  c #263649",
"8  c #28374A",
"9  c #27384C",
"0  c #2A3A4D",
"q  c #2E3E51",
"w  c #303F52",
"e  c #1D4354",
"r  c #20404F",
"t  c #224454",
"y  c #2F4053",
"u  c #2A4855",
"i  c #224758",
"p  c #244A5C",
"a  c #2B4D5D",
"s  c #324255",
"d  c #364659",
"f  c #384759",
"g  c #36495C",
"h  c #3A4A5D",
"j  c #274F60",
"k  c #284E60",
"l  c #3E4E61",
"z  c #2D5364",
"x  c #2E5668",
"c  c #315566",
"v  c #3F5064",
"b  c #315768",
"n  c #355B6C",
"m  c #365E70",
"M  c #395F70",
"N  c #2B6876",
"B  c #2D6A78",
"V  c #396173",
"C  c #3F6678",
"Z  c #404F61",
"A  c #425265",
"S  c #465669",
"D  c #485769",
"F  c #47586C",
"G  c #4A5A6D",
"H  c #4E5E71",
"J  c #505F72",
"K  c #416677",
"L  c #4F6073",
"P  c #42697A",
"I  c #516175",
"U  c #566679",
"Y  c #586779",
"T  c #59697C",
"R  c #377483",
"E  c #387785",
"W  c #3D7B8A",
"Q  c #5E6E81",
"!  c #427F8E",
"~  c #627285",
"^  c #657588",
"/  c #42808E",
"(  c #478593",
")  c #4B8A98",
"_  c #518E9D",
"`  c #51919F",
"'  c #5690A0",
"]  c #5C99A8",
"[  c #42A2AF",
"{  c #45A5B2",
"}  c #49A7B3",
"|  c #47A8B5",
" . c #4BA9B6",
".. c #4DADBA",
"X. c #50ABB7",
"o. c #51AEBB",
"O. c #4FB0BD",
"+. c #54B2BE",
"@. c #58B3BF",
"#. c #56B4C1",
"$. c #5AB6C2",
"%. c #57B9C6",
"&. c #5DB9C5",
"*. c #5EBCC9",
"=. c #61BBC6",
"-. c #62BECA",
";. c #5FC0CD",
":. c #64C1CE",
">. c #64C3CF",
",. c #67C3CF",
"<. c #65C1CD",
"1. c #65C1CD",
"2. c #68C2CE",
"3. c #69C2CE",
"4. c #67C5D2",
"5. c #66C4D1",
"6. c #69C5D1",
"7. c #6AC7D4",
"8. c #6BC6D2",
"9. c #6AC9D6",
"0. c #6CC8D5",
"q. c #6DC9D5",
"w. c #6FCEDC",
"e. c #6ECCD9",
"r. c #71CAD7",
"t. c #72CAD6",
"y. c #74CFDB",
"u. c #73CDD9",
"i. c #78CED9",
"p. c #6ED2DF",
"a. c #75D1DD",
"s. c #79D2DE",
"d. c #7AD2DD",
"f. c #76D5E2",
"g. c #7BD5E2",
"h. c #7CD9E6",
"j. c #7CDEEB",
"k. c #80D6E2",
"l. c #82DAE6",
"z. c #81DBE6",
"x. c #83DDEA",
"c. c #85E1ED",
"v. c #89E2ED",
"b. c #87E7F3",
"n. c #8BE7F3",
"m. c #8BE9F6",
"M. c #8BEDFB",
"N. c #8EEBF8",
"B. c #91EAF6",
"V. c #93EDF9",
"C. c #94F6FF",
"Z. c #96F2FE",
"A. c #99F4FF",
"S. c #99F9FF",
"D. c #9EFEFF",
"F. c #9CFAFF",
"G. c #A2FFFF",
"H. c #A6FFFF",
"J. c #A3FEFF",
"K. c #ADFFFF",
"L. c #B3FFFF",
"P. c #B0FFFF",
"I. c #B3FFFF",
"U. c #BFFFFF",
"Y. c #BEFFFF",
"T. c #C3FFFF",
"R. c #C4FFFF",
"E. c #CEFFFF",
"W. c #CCFFFF",
"Q. c #DCFFFF",
"!. c #E2FFFF",
/* pixels */
"-.+ * 7 f s d D l G G G A F G U G A I v D A G D D d 8 0 > * e H.y.o < > d s d A A A H A G A l D A D G T H l G v g 0 s > - < x L.",
"-.+.* 5 0 0 d A g g A A G G H Q D F D D I l A I d 0 8 5 * c T.e.&.&.+ : 8 d d U l g F D G D A A l A A G G H h g d 0 < 7 - i T.a.",
"x.1.#.- > 7 q s g d l f g h A G I D D l T I l A h d s * C.D.*.:.4.:.&.4 - 0 s G h I l A v A G G A G D G I A A s s 6 < 6 z W.l.d.",
"$.-.-.1.3 0 f y g s g d F D D U ~ D D H l A q s S s s ' M.p.*.1.#.1.6.*.3 ; 6 l g A D g A I D l D D A g l d f 0 6 < 8 L.J.1.6.&.",
"2.d.6.-.r.3 - < y l l l S A H D A H D D g w 8 h 0 5 P U.*...+.:.7.:.9.#.4.n - 6 q g s g l H D A D U G g D s 8 6 8 < L.h.w.+.$.&.",
"r.l.-.&.2.1.4 > 0 8 s d A D D F l A A l s 8 6 < 6 D.S.*. .{  .*.+.&.9.&.o.9.R 6 s 8 s s A F S G D D S A s w s 0 ; b H.:.1.&.&.1.",
"=.&.-.-.&.&.1.W 8 6 0 h f l A A H l g s 7 7 s 6 W.f.j.#.{  .+.*.#.&.#.&.#.:.e.&.- 6 0 q l h A H A A g G s 8 7 5 n T.:.#.7.-.-.6.",
"d.8.8.-.-.=.+.u.+.* 8 8 s s g g l l l q 0 0 6 W.e.4.#.O.+.#.e.:.&.1.&.#.#.%.4.#.-.* > 7 f h f g A d g q 6 > 6 ] U.&.o.o.&.$.*.-.",
"8.$.$.&.$.1.1.#.o.+.* > 6 g D g l I g 6 > s U.q.-...+.#.*.+.$.o.#.e.#...*.%.#.*.&.&.@ 7 w 0 g h A s 0 6 0 0 T.V.1...o. .o.$.$.&.",
"&.1.-.o.$.&.-.#.u.+.-.- < 6 0 s v q 8 - - R.&.-.o.o. .*.#.*.+.#.*...o...&.%.+.*.$.+.-.* > 8 g q 0 0 s 0 > T.:.g.+.&.1.o.:.*.&.&.",
"r.y.+.&.$.-.-.:.-.+.1.&.* - 6 0 q l < - R.1.1.+.o.+.+.&...:.#.#.*...*.&.#.#.#.*.+.&.6.$.; 6 7 s 0 s > - U.&.-. .$. .o.*.&.$.+.1.",
"1.$.+.1.$.-.+.$.-.-.#.-.$.+ < > 8 - - W.1.-.o.-.&.+.6.1...:.+.#.%.+.%.#.#.*.#.+.&.$.&.$.u.; > 6 > 6 > T.7.f.#.$. .$.+.#.-.a.o.$.",
"d.1.-.&.+.$.+.&.6.:.&.-.&.$.* - > # W.1.&. .@.+.+.$.$.#.-.&.*.a.*.*.+.*.+.:.e.*.*.*.*.&.:.4.> + * > H.g.:... ...$.$.-.1.&.#.$.y.",
"&.-.-.#.-.+.&.1.q.1.r.6.d.y.-.# + Q.u.1.#. .o.&.-.-.&.&.&.$.&.a.&.;...#.$.&.*.e.$.*.%.:.5.4.t o 6 c K.1.$.$. .*.*.&.-.g.6.&.-.+.",
"$.&.-.+.1.&.$.:.u.2.1.u.1.1.2.r.v.x.y.o. .+.+.o.o.$.o.#.*.+.+.&.:.$.+.+.#.#.$.&.+.+.#.%.*.#.h.# * W.9.$.$.$.#.+.6.#.+.6.8.6.6.&.",
"$.8.-.1.:.&.$.-.1.q.2.d.1.i.2.  < c.r.X.o.o.+.+.o.o.#.-.1.&.$.*.*.o.$.#.&.O.*.&.#.O.O.%.;.+.o.e.Z.#.-.&.$.$.*.#.$.+.+.&.&.1.2.$.",
"6.&.q.6.&.*.$.&.4.6.x.y.d.@.a - d m z.$.$.o. .+.+.+.#.-.q.6.1.-.&.#.&.*.$.#.*.6.*.+.*.*.:.#.:.  :.9.4.+.$.g.q.+.$.-.&.=.&.2.1.&.",
"1.6.&.1.:.$.#.-.1.1.1.6.&.o.$ & - 8 x z.2.=.+.$.&.-.&.$.$.-.1.q.&.*.#.1.q.-.&.:.*.&.:.$.&.+.1 O . k h.&.5.-.+.+.1.+.$.1.1.&.-.-.",
"u.-.-.6.-.6.1.5.5.:.a.$.N + < 8 6 8 * H.1.=.o.+.=.-.1.q.q.+.+.+.#.*.q.-.-.-.-.:.e.e.-.5.-.3 * * - < P z.u.1.o.r.-.&.&.&.-.-.y.6.",
"2.&.-.1.u.7.4.a.u.7.-.$.@ < 8 0 8 q 6 y Z.6.1.&.*.1.q.-.6.#.#...#.1.-.&.:.*.-.*.6.&.#.$.3 > - 2 0 > < H.1.$.=.$.$.+.+.=.-.y.3.3.",
"d.-.-.1.a.a.*.9.:.+.+.@ 6 6 d d q q q < * Z.h.&.+.+.$.&.&.$.#.*.+.:.$.#.$.7.*.-.5.-. .3 < < d h q q q > J.-.1.o.o.o.&.&.=.2.-.-.",
"-.1.u.q.1.5.:.9.&.#.= > 8 s A A d v s 8 8 b g.+.+.$.$.+.&.#...$.$.*.#.&.&.d.6.4.-.+.1 > < 0 d d G 0 0 6 < J.2.+.$.&.=.2.-.=.8.3.",
"-.-.d.u.g.9.c.#.+.+ s 6 s A D D d l s y q > P h.&.+.+. .q.+.+.#.+.*.&.6.-.q.d.1.-.3 * 8 h g H g D g d 6 6 $ Z.=.2.-.o.$.$.d.-.y.",
"-.-.q.u.6.7.9.+.u 7 6 q g g G g g g D s d 0 7 K h.-.u.+.o.&.#.*.+.#.6.&.u.6.6.5.3 < < s s I l D l D s y 8 6 > Z.-.2.$.r.=.-.&.-.",
"-.a.e.h.f.7.*.3 > s f s f A D G A S F l s s s 6 b Z.&.1.@.+.+.#.+.+.-.u.r.1.$.+.; d 0 d D S G T D S g A s 7 < - A.o.=.=.o.-.2.&.",
"y.y.u.6.-.-.3 > 8 D g s l l H l G D Z h f h D f < n u.&.+.+.+.&.o.$.q.y.1.+.3 > < q q d g D l S H D l g A d 0 8 > N.$.&.$.$.+.&.",
"v.u.9.6.+., < 6 d G l D A l T D D A A A h l q 8 s g j B.r.&.$.+.1.1.l.&.&.g 0 < 8 0 g g v A D A U I l g s q 8 < 7 s K.:.&.2.&.6.",
"1.4.&.$.= 8 0 d D H A A D h F I H D A l H s g q d < 6 V x.$.$.$.$.&.&.$.3 - 8 q S s l A H D L I I G I D l d s s g 6 * b.+.$.1.-.",
"*.&.1.X > q w I I G T G A T g A G D A g A h g d A 0 s 6 x z.1.&.$.-.-.a * s I l s S A U D U D A l v D v D d g A d 0 > > S.#.7.6.",
"+.$.. - 8 s A G S F I h A T A H A J G I A A A d l l 6 > - m.$.1.o.o.@ s < 0 s l l D D I Q D D D h A D A A D l G d 8 7 7 * m...&.",
"1.t 6 7 0 s F A S D Z h J S F A Y H l l J D H g l s q A - * z.$.+.. # q s d g s D G h A G D A D A H G A I D l g g h 7 7 < $ W u.",
"- * > 6 < d l D h A A A F G Z G D S A A A A G D D A 0 0 > > - W + 0 - < s s f l F Q l A F U G D D D D T A H A A l f 7 5 > < - W ",
"u.. > 8 0 0 f h S D S F A Z I J A A A F A D I A l 0 q < 6 < e K.r.# > 8 8 0 s G A A A A D I I D I H T D U F l g f s 0 < + ; a H.",
"$.#.s - 7 8 f h F D A A A l A A I H A A H A H l s s 6 - 6 e Y.1.&.$.o > 6 g g h Z h F A G A I H I l A I H H I g H G 6 > $ _ T.9.",
"&.&.#.* ; 6 s s s s Z I h A A l G A G A A l l I d s < > e R.4.&.-.+.$.* 7 8 8 s f A G G U D D H A S D G F A d s d 0 5 * U.c.9.&.",
"+.6.-.a.= 8 0 h f g G G l D D l l G G A l d h A s s < n W.*.#.*...+.r.$.; > d q q h l S ~ F l H G G G v A D l D d g - Y.*.e.#. .",
"1.*.u.&.+.> > > 0 l l A H l A l S S F S l l l g s > < Q.4. .+.+.$.6.:.&.*.p > f s s f f S T F A F G A U l g d q 6 > T.1.&.......",
"e.&.#.$.6.-.* - 6 d d H G g A A A D G A g d d 8 8 - U.*.#.*.#.&.-.-.q.8.&.l.> 6 w q q A f D G S A l D l l s 7 > - K.-.&.&.} ....",
"$.$.+.*.1.+.$.$ 6 8 q A S d A D F l l g g w s 6 a R.&.f.+.#.5.+.-.$.-.q.8.o.o.* 6 0 q f G g D h S h d A s 0 6 > x F.&...{ [ #.&.",
"&.+.-.1.1.&.+.@.p s 6 y q g g G l F s s 8 6 7 z R.:...{ | ..#.+.-.q.#.*.-.g.-.-.t < 7 7 S h F l D f l s 8 0 7 z R.&.&...#.#.#.#.",
"+.6.r.1.&.3.1.8.d.z q s d s I v l d s d 8 > > Q.&. .#.O.{ %.*.&.*.-.#.$.6.y.6.$.4.t 6 8 0 A h s d f 0 d < 8 z W.*... ... .#.#.o.",
"5.&.@.-.y.r.8.$.=.d.* > 0 q s q g s q 8 < : T.#.o.| { { ..&...4.o.6.#.$.6.-.*.-.$.4.i > 7 8 s s 0 0 0 6 > n !.7.*...[ { &.$.1.+.",
"6.&.-.1.&.$.=.-.<.o.6.= s 0 l 0 l g s 8 > T.*..... ...+.#.#...:.$.9.+.*.4.-.6.4.q.&.7.3 - > 8 0 6 < 6 6 x W.a.&.+. ...{  .+.o.q.",
"$.+.2.$.&.$.2.t.d.8.o.} # 8 6 s 6 q - < R.q.*.&.....$...#.o...#.+.&.1.$.+.1.6.6.u.7.&.u.i 7 6 q - 0 > z Q.*.-.....+.....+.#.&.&.",
"&.&.&.-.$.=.$.-.2.1.8.o. .+ - < > < - L.q.$.} +.{ +.$.#.+.*.$.+.#.$.#.o.+.1.1.&.&.d.-.&.q.1.* # - > p W.d.&. .o.#.-.....%.-.-.$.",
"+.-.$.-.2.@.$.=.8.8.6.$.o./ 6 6 : > m K.-.o. .}  .o.$.-.&.q.#.&.&.-.$.-.&.1.1.&.a.h.6.a.&.$.! + > p R.u.8.$.}  .o.&.%. .+.&.#.$.",
"o.+.=.-.8.-.$.&.-.-.$.1.-.g.=.o - V.I.q.$.$.&.o.o.$.y.y.$.1.=.-.-.*.-.$.-.-.&.#.-.8.-.6.-.&.f.i q W.&.&.$.+...+.....+.....#.&.+.",
"$.-.-.=.2.y.u.q.-.&.$.y.1.6.-.r./ J.6.&.#.+.+.+.&.2.+.=.$.$.$.$.$.$.$.$.q.-.-.-.q.2.*.6.q.*.q.q.$.-.u.&.+.+.#.*.:.....#.-.-.#.o.",
"2.=.$.2.2.&.-.=.=.$.&.8.g.$.=.E ) g.0.+.$.q.+.&.&.$.3.8.-.8.$.+.-.$.+.@.-.6.r.q.1.&.q.y.1.-.1.1   1.4.#.+.#.&...+.:.5.*.o.+.+.-.",
"+.=.1.$.&.$.-.=.r.&.-.y.r.$.$.+   P n.&.2.2.o.-.@.&.$.=.y.8.=.&.$.$.&.&.&.-.d.2.-.6.g.q.&.&.  + + - C.#.$.q.$.+.+.+.+.-.&.6.-.$.",
"$.+.$.&.=.-.-.3.8.6.1.y.$.+.@ - * 0 K.g.8.&. .+.8.k.$.&.-.=.$.$.-.&.&.2.u.y.<.-.6.q.3.3.$.t > * * * * b.5.1...+.#.#.*.+.1.1.#.o.",
"2.$.-.&.1.2.=.y.8.-.-.@.B = > 6 < A 6 A.&.=.r.=.+.-.&.=.$.=.2.-.=.+.=.d.2.r.&.8.d.y.1.o.E # 6 < - > > # N. .&.*.*.-.1.o.$.&.-.$.",
"+.2.$.1.1.2.6.1.y.+.d.3 - 6 y 8 8 q 6 - ( v.r.$.+.$.$.=.$.-.+.$.=.=.=.&.-.8.-.q.q.<.=.+.> > q s s s 6 0 # b.4.+.#.-.$.2.&.+.-.&.",
"&.$.-.-.r.a.1.&.+.} r 0 d 0 0 g 0 d 0 8 2 V h.-.$.$.&.2.8.&.o.1.-.2.1.1.2.1.u.2.=.@.=.@ > 0 A g f s d 6 > - N.*.&.-.o.&.+.$.$.$.",
"-.+.-.&.1.1.-.$.+.r - 8 d g l l d A 0 7 > 5 m x.6.-.+.$.+.&.o.+.$.-.u.=.=.d.6.u.d.3.> 9 9 s G l l S s h g > ; A.-.r.+.=.6.y.&.1.",
"+.&.$.*.1.6.-.$.3 q 8 8 d g g I A S s f 8 8 ; ` x.r.-.$.1.$.&.$.o.+.$.6.<.2.-.} 3 * 9 q g D A A l A g s h s < z v.o.-.o.$.=.1.6.",
"+.5.$.1.8.$.$.+ > 0 0 s l A I H S l h s g s 8 0 J.-.r.@.+.o.&.&.+.#.-.1.2.-.o.t 6 s 8 q g I ~ G F I D h f 0 8 > p g.y.+.+.@.-.$.",
":.-.-.q.r.$.* 7 0 I s l g A I l A A A D s l q < > c.2.-.-.o.&.o.-.2.q.1.=.+.3 0 6 s s g v l D D I F S A g s 8 0 > z c.+.&.+.+.&.",
"*.1.1.-.$.a 7 G 0 s d G A I D D h A A f l H s 6 0 < z a.1.+.u.$.1.g.-.$.@.a > 8 y F g H F l A G A l h h A s g d 0 6 n c.6.&.$.+.",
"$.*.#. .3 7 f s s l H I I G l D A Z A A G d d h d 6 6 z z.-.2.&.u.q.-.+.u < 8 g G g A D l h v D G A Z A g s d q q 6 - C h.+.:.6.",
"&. .+.+ - 0 s l d l H D G S H T l D S l D U A d g s 8 6 p a.u.1.1.-.$.3 - 6 s G D l D H D g l I I G D T S D S s s q 8 * p g.g.*.",
"&.*.= ; > q g A G G D S G A A D I G f D F g G l D q 8 - > k h.+.+.-.t > > 0 d s d F H D D A Q F A S U I D D D A g s 8 8 6 x f.#.",
"5.% * w 6 s s g I H l A F l F H G G l l S A D g g d q > * > M u.$.. 0 8 q q s l D H A F G A G A G U G S H U F H A d 8 6 > - i e.",
". - > > 0 g g G S D G S ^ l H D G l G l D A h D A l A > > - * (   + 0 8 g s d g A G D G H A G G T H A I G U H g Z h 8 6 - - > R "
};
