/* XPM */
static char * cei_xpm[] = {
"64 64 26 1",
" 	c #2F2F2F",
".	c #434343",
"+	c #474747",
"@	c #4B4B4B",
"#	c #3B3B3B",
"$	c #636363",
"%	c #373737",
"&	c #4F4F4F",
"*	c #575757",
"=	c #272727",
"-	c #2F371F",
";	c #232323",
">	c #1B1B1B",
",	c #5B5B5B",
"'	c #070707",
")	c #0B0B0B",
"!	c #131313",
"~	c #6B6B6B",
"{	c #6F6F6F",
"]	c #939393",
"^	c #8B8B8B",
"/	c #777777",
"(	c #53573B",
"_	c #373F27",
":	c #838383",
"<	c #474F33",
" .+...+..@..@@++@+.+...#$+++++.% ++.##+.+@&+@#+........+@*+..++%",
" =-=== ;=;;===;==== ;=;;;=;==>=%  -==  === =;= ===;=;;=> ====;;#",
"% %@,****&&&&&&&*,*,*.*+&&&#+#;%#=%.&,*,,,********&***&****&+%;#",
"% +%''')'''''''''''''''''''' #;%% + '''''''''''''''''''''''' +=#",
"#%&'!!!>>)!!!!!!>!!!!!>!!!!)'@=%# &')>>>>>>>!!>>>>!!>!>!>;!))& #",
"##,'=# % =## %    #%  .#   !'& #.%,'>%###.+#%.###.#%%% =.% ;', #",
"#%,)>#.% =##  =% %@% %   =;))* .#.*)! .% ##%.#@#..## .  % =!)& #",
".%@&%.%%%%%%%  %%%%  %%%  % &+=%% @@ %##%####..##%% %%% %%# &+=#",
"#=.&$~~$,,${,~$$&,~,*$$,$*&*@#  %=&*,,$$~$~$${~~$$,,,$$$],$$@+ +",
"###*~*,*&&&,*,,,,,**,@,,+&@@+#  #%+@&&@,*,**&,@,$*&&@@@@,&&&&+%#",
"#%@+*$*,,@$,&*&*@&&&&@***@@+.#=#% @@@@,****&@&@&*@&@@@@@,,,*@+ .",
"% %&*@*,,@*@@,*,@@$*&@&&@@&+@. %%%+&+&*,*,***&*,@@*++@,**,@,@+=%",
"%=+**&$,&,&&&,****,*,*****&&@# %# .&*&,,,,~,,,,,&&,*&,,,,$,,,@%+",
"# *$++#@+#..#.#@+++++..#.###,+=%# +{...........##....+++@##.~@##",
"# ,>''''''''''''''''''''''''>&=%##,>''''''''''''''''''''')''>, #",
".#$'; > ;=>!>====%  %   %>>!', %##$'>; =.   %%=;= %#= %  = ;'~%+",
"+%,' +%.##  =+##.+@@.++@&+#;'* %% *'>#%#.+.#.+##..# +@.#@@% '$+@",
".%,>)))!)!'!)!!!!!!>>)!>)!!'>@=%%#$>')!!>!!)))!!))!!!!>!!!!)>,#@",
"@#&,......+...+.++++@+..@+.+,.=%% +,++++.@#.+.+..@++#++.@@+@~,%@",
"@#@,$*,,,**$,$,,$$$$$,$$$$*&,#=%#=.@*$*{$***,*,,$,$,,$$~$$*$&*#@",
".#@&*,$,,,*@@*,$,$,$,*,,$*,,.#=.# .&,,,,,*&@*&$*,,,*$$$,*,$,*& #",
"%%@*,,,$$,*+,**,,,,$$,$,,*,,&#=#. +@**@,****,,$&**$,$,,,*$***& .",
"##+,*,,$$$$,$,***,,$$$,*~,@*@# .#=..&&&**$$$$$$$,*$$,,,,*,,,*&%+",
".#@,$~{~~~{^$/~~~$~{~~~{{~,$,&#@(#.*$~~~{{${~{{~{~{{~~{~{~~~,@=.",
"%%*& ## %##%% %#+#####%#%#%%*&%@&%*& %%####%####%#%###=%%##%*& #",
"+#,))  = % ==  # %%   %#%% !),#.&#,))>   %  %  #   .  %  %;)),%.",
"+%$' @@&##@.&@@&+*@+&@@@&@.%'$%+%%,'>%..+#,@&@@&@@*&@@&&@@+ ',%+",
"+#,'=###.###%...##%#+++++@. '*%.##*') %%### +.+.+@%@+@.+#..>', .",
"#%+=))!!)!!'))!!!)!)!!)!)!)) & .. @%))))!!!)))))!)!)!)!!))))=&_.",
".=%@*$$$$,~$$$:,*~~$*{$,~&,$@+_.%=.@***$$$$$$$$$*$,$~,$$,,$,*# +",
".=#@@@+@.#..+++.+.#.#.@+@@%+#@#%% #%%#.##.@.@+@+@@+.##%*&#@@++ #",
"-%%+.#@.++++...&+.#####+.#++..@#-.%%#.@.#@+..+.+.##++.#.+#++%#<=",
"%++@@&&*@@&,*&@&&&@&@+.@+@&&&&,<%@..@&&&&@@**@&&@@+@*@&&@+*&@+.%",
"#====_% #%# %   ..   ==== ##--;..;-== %#%  %%= = =%% =%%% %----+",
"#= .@,$$~~$$**,*,$,$*,***,$*.%=##=#@**,,,**$,,**,,,,,*$$$$$$&. #",
"#=.#''''''''''''''''''''''''%@_. #&='''''''''''''''''''''''' &##",
"%=*')= =% ;   ;   = =!> >>>!)+=%# &'!>%;;;=  % %%  ;>> =  >)', .",
"# *'>#@&&@@@@&&&@*@.#+*+.&#='*=.%%*'> &@@+&***&&*%+##@#@&*@ ', .",
"# @)!%+@@+@@.@@.#&@+@*++#.#!)*%%.=*))..#+#@*+&+@@+..+.#@#@#=)* #",
"+ @&%#.##..@@+..#@@+.###+@% &@ +. @& ###...++..+ ######@@## @+ +",
"+ .@$~~~~~^~~{~{{{{/{{~{{{~,&. ## &,$~{${{{{{{{~{{~~~~~~{:~$*.%.",
"#=@+&,,,$~$,,,~$$$,,,$$$,$~@+. &+#@,,$$$$$$$$,,,$,,,,$*$$*@$&@%.",
"%%@@@@*,,&&&$,~,,$*,**,*@,,,*+%.@#@**,,,$$,,,,,$,,,,$,*,$$&@&& .",
"% +@@*,$,&,,*~{$,$$$,&,**,,,+@%%@.&,,,,,,,,,,~$,$&*~*,*,$*&.*+%#",
"# +&$~,,*,,,,,{,$$,$$,$**,$$*&#.+#@&,,,$,,~$$$$$,,,,,,,**,*,*.%%",
".#*,@@.+...+++@+.+.+#+@.+@.+**#.@#*$.@..++@@@+./{.##.@#@#~#+,&%.",
". *>''''''''''''''''''')''''>*%..#$>''')''''''''''''')''''''>,%.",
"#=,'! >===  ;==;%% %  #  %=;'& +@.,';%#%# %;;##=. %=%%%=; ;!',%.",
"##$'>+#.####..#%@+#.@&.+#+%=',.&+#$'%#@+.*##@#.%@+.@+@,+@##>'$#@",
"@.,>'))))')!!))))!)!)!>)!))'>, @.%*>!)!)!!>!))))!>>>!>)!!!)'>,%.",
"..*$+#+.......@@..#@+.++.++.,@  .%&$.+..+&@@+++###+++#++@++#,&=+",
"+#@&,~$,&*,,*,$&,**$,$$,,,,*&+#++#@&,$,,~$$,,$$,$*,,*,,$$$$,*+ .",
"#.&**&&&@&*+*,,,&&,*,**$,*,*,._@##&&,$,&,&,&*@**,@,@,$,,*,,&+.%.",
"@#@&,*@&***&&~,,*@,$$,,&&,,*@@%+# &*,,,@,,*&@@,&&@&,,*,*,,*&*+ &",
".%+,$,,$*,,&&*,,*@$**,&**,&**.%##%&&&$,,&,,{~,,,$***,,$,$$**~&%.",
". @,{$~~/$$~~~~$$~~]~$~$$$$$*. #.%@&$$~~~${~~{~$~~~$$~~$~{~$*@#+",
".%@&%%%%%%%#%%#%%#%% % % %% &@ %# **+%%%%%  %#%#%%%%###%%%#%&,#+",
".#*)!;%;;=  =;=;==;=;=>>==;)),%%#.,))=== =  ;= =   =    > ;)),#@",
"# *'=.+##%@@#%.+++##%#% #.#!'* .#%*'=#.+.@*@++.@@@+..@++#.# ', +",
"#=*'>%#= =# ;###%%#  %= %% >',%.# *'> %..# #%###.+%# %.## %!', .",
"#=+ ))))))))))))))))')))))))%*%.. .#))))))')))))))))))))))))#@ .",
"%=%@&$*&&&,,,$**,,,,*,~&***&&@#+.=#+*,,,,,,,*,,,,****&&*,,,~*#=#",
" =#%%###%%....##.##.%.#%.##.##%#. %%##.#.....###%%%  %%%#.+#% =%",
"- %##_.#%%%#..%%.#.#%  %#%#..#%_%%##%%%######.#%%%%%%%% ..##%  _"};
