/* XPM */
static char * floor_xpm[] = {
"64 64 20 1",
" 	c #575757",
".	c #636363",
"+	c #6B6B6B",
"@	c #5B5B5B",
"#	c #474747",
"$	c #2F2F2F",
"%	c #272727",
"&	c #373737",
"*	c #7F7F7F",
"=	c #838383",
"-	c #4F4F4F",
";	c #3B3B3B",
">	c #777777",
",	c #4B4B4B",
"'	c #8B8B8B",
")	c #434343",
"!	c #6F6F6F",
"~	c #939393",
"{	c #9F9F9F",
"]	c #979797",
"     .+@ #$%&*=.-;&$&=>@  --    @    ..@ ,$%&*'+ )&$&=>@ ---    ",
"    #,!>. #$$&='.-#&%$!.            #,>!. ,$%&='. #$%$!.        ",
"    )$;>*. )$%&~.. #&$&@         @  )$)>*+ #$$&'=. #&$&@        ",
"@   ,&$;'=.-;$%&'*. ,);,      @@@@  ,;%&'=+ )$$;'=. ,);,       @",
"@   -#&$;'=.-)$%&'>@  --     .+.  @  ,&%;*'+ #$$&'>@  --     @..",
"     -)$$;'=. #&%$>.          +.      #$$&'~+ #&$$!.         -@.",
"      -)$$&~=. #&$&@       -#);-       #&$&~=. ,;$&@       ,);&-",
"   @   -)$$&'=. ,;;,      -#$$#- @ @@  -)$$;'*. -);,      -#$$# ",
" @..    -)&$;'>@  --     -#$$;-  ..@@@@  #$$&>>@  --     -#$$;, ",
"  @@      #$$$!.        ,#$$;-   -@@      #$$$+.       --#$$;,  ",
"#);-       #&$&@        #$$;-   ,);-       #&$&@ @@    -#$$;,   ",
"$$#   @@    ,;;,       #$%;,  -#$$#         ,;;,      - $$;,   #",
"$;-- @..     ---     ,)$$;#  -#$$;-  @+@      --     -#$$;,- -#$",
";,   -@@      @     ,)$$;, -,#$$;,    @@            ,-$$;,--,)$$",
",  -#);-           -#$$;,  ,)$%;,  -#);-           -)$$;, --#$$;",
"  -,$$#   @@@      -#;)- --#%$;,  -#$$#   @@       -#;)- --#$$&,",
"  #$%;-  ...       -,--  ,)$$;#- -#$$;, @@+.@ @     --   ,;%$;, ",
",#$$;,  @...  @@@       ,)$$;,--,#$$;, @@ .. @   @      ,)$$;,--",
"#$$;,  -,,;-   @@       #$$;,- ,#$$;,   ,#;             #&&;,  ,",
"$$&,  -#$$)-  @ @@@    -#;)-  -;$$;,- -#$$#            -#;#-  -#",
"$;,- -)$$),      .+.   ----  ,#$$;,  -#$$;,     -.+@   ---   ,)$",
";,---#$$;-      ,,>>.       ,)$$;, -,)%$;,      ##!>@       ,)$$",
", --)$$;-@    @ #$;>=.      #$$;-  -)$%;,      -)$;>>.      #$$;",
"  -,$$;,    @@@ ,;%$==.     #;#-  -#$%;,-   @   ,&%$>*.@@@ -#;#-",
" ,)$$;,    - .+. #$%&*'+@  -,-   -#$$;#-     ..@ #$%;*'+@  -,-  ",
",)$$;,     -#,!>.-#$$;'*.       ,)$$;,     -),!!. #&%&''.       ",
"#&$;,       )$;>!. #$$;'=.@ @  -)&$;,    @  )$;>*. #$$;{*.      ",
"#;#-        ,&%&>>. )$$;'=.@@  -#)#     @@@ ,;$;'*. )&$;~>.     ",
"--      -.+@ #$%&@=. )&$;'*.@   -  @   - ++@ ,&$;==+ #&$;>+@    ",
"       -#,>>. )$%&==. #$%$>.            #,>>. #&$;='. #&$&!.    ",
"       -)$#=>.-)$%$'>. #&$&@@@          )$,*>+ #&$&'=. #&$; @   ",
"     @  ,&$;~*.-)$%&=*. ,;;, @          ,&%&!*+ )$%$=*. ,;;,    ",
"     ++@ #$$;*=. )$%&=>@ --- @     - .+@ #&%$>=+ )$%&=*.@ --    ",
"   -# >>. #$$&*'. #$%$>.      @    -#,!>. #$%;='. #&%$>+@       ",
"    #$#*>. )$$&]*. #&$&    @        )$;!=. #$%&'*. #&$;@@       ",
"@   ,;$;=*. )$%;{=. ,;;,     @@@    ,;$;'=+ )$$$>*. ,;;,       @",
"     ,&$;==+-)&$;'>@ ---    @@.@ @  -#&$&>>+ )$$;=>@  --     @..",
"    @ #&$&*>.-#&$$>.        @ @@ @   -#$%&!'+ #&$$>.@@       -@@",
"  @@   #$$&==. #&$;@       -));-      -#$$&'*. #&$;@.@      #);-",
" @@@@  -;$%;'*. ,;;,       #$$,   @@   -)$$$'=. ,;;,@@    -,$$# ",
"@@+. @  ,)$%&'>@ ---     -#$$;- @@+.    -)$%&'>@ ---@    -,;$;, ",
". .@     -#$%$>.        -#$$;,    @.     -#$$$>.    @   -)&$;,  ",
"##;        #&$&@@      -)&%;-  -#);        #&$;@       ,#$$;,  -",
"$$#    @    ,);-@@    -#$$;,  -#$&#   @     ,);,      -#$$;#- -#",
"$;,  @..        @@ @ ,#$$;,  -#$$;,  @..@    ---     ,)$$;,- ,#$",
";-   ..@     @@@@@@@-;$$;- --#$$;,     @            ,)$%;, -,)$$",
",   ,;;     @@  @   #$$;,  -)$$;,  -#);-           -)$$;,  ,#$$;",
"  -,&$#    @@@@ @@  #;)-  -,$$;,- -#$$#    @  @    -#;)-  -)$$;,",
" -,$$;,  @..@@@@ @@ --   ,)$$;,- -#$$;,  @+.       ---   -)$$;, ",
"-,$$;,    @.@@@@@       ,)$$;,---)$$;,    @@  @         ,)$$;,  ",
",$$;,  -#;;  @@@@@      )$$;,- -#$%;,  -,);  @          #$$;,  -",
"$$;#   #$$, @@@@@@@    -#;)-  -#$$;,  -#$$#     @ @    -#;)-  -,",
"$;,  -#$$;-      ++@    -    ,;$$;,  -,$$;-      .+.   -,-   -#$",
";,  -#$$;-      #,>!.       ,;%%;, --,$$;,     -#,>>.       ,#$$",
",  -#$$;-    @  )$)>*.@ @@  )$$;,  -#$%;,       )$)>*.@    -#$$;",
"   ,$$&,    @@  ,&%;>*.@    #;),  -#$$;,-    @  ,&%&.*+@   -#;#-",
" ,#$&;#-  -- .+. #&$&*=+@   ---  -)$$;,      .+@ #&$$>=+@   ,-  ",
",#$$;,     -##+>. #$$&==.       ,#$$;,      #,>+. #$%&''.       ",
"#&$;,       )$&>=. )$$$'=.      #&$;,   @@  )$)>*. )$$&~>.     -",
",;),        ,&%$'=.-)$%&=*.    -#;)-    @@@ ,&$;=*.-)$$;'=.     ",
"---      .+@ #$%;*=.-)$$;'>@    --       ++@ #$%$>=.-)$$&*>. @  ",
"      @ #,!>. #$%&==.-)&$$!.            #->!. #&$&~'. #$$$!+ @ @",
"        )$;+=. )$$$~!.-#&$&             )$;>*. #$$&]=. #&$;@    ",
"     @  ,&%&=*.-;$$&>*.-,;;,            -;%$'*+ )$$&~=. ,;;,    "};
